<svg width="22" height="18" viewBox="0 0 22 18" fill="none" xmlns="http://www.w3.org/2000/svg">
<path d="M13.7001 13.7741H11.9137V7.93294C11.9137 7.82687 11.8269 7.74008 11.7209 7.74008H10.2744C10.1684 7.74008 10.0816 7.82687 10.0816 7.93294V13.7741H8.30005C8.13854 13.7741 8.04934 13.9597 8.14818 14.0851L10.8482 17.5011C10.8662 17.5241 10.8893 17.5428 10.9156 17.5556C10.9419 17.5684 10.9708 17.5751 11.0001 17.5751C11.0293 17.5751 11.0582 17.5684 11.0845 17.5556C11.1108 17.5428 11.1339 17.5241 11.1519 17.5011L13.8519 14.0851C13.9508 13.9597 13.8616 13.7741 13.7001 13.7741Z" fill="#FF9900"/>
<path d="M18.2176 5.58292C17.1135 2.67078 14.3002 0.599976 11.0048 0.599976C7.70933 0.599976 4.89602 2.66837 3.79192 5.58051C1.72593 6.12292 0.199951 8.00569 0.199951 10.2428C0.199951 12.9067 2.35754 15.0643 5.01897 15.0643H5.98566C6.09174 15.0643 6.17852 14.9775 6.17852 14.8714V13.425C6.17852 13.3189 6.09174 13.2321 5.98566 13.2321H5.01897C4.20656 13.2321 3.44236 12.9091 2.87343 12.3233C2.30692 11.7399 2.00558 10.954 2.03209 10.1392C2.05379 9.50274 2.27075 8.90489 2.6637 8.40105C3.06629 7.88757 3.6304 7.5139 4.25718 7.34757L5.17084 7.1089L5.50593 6.22658C5.71325 5.67694 6.00254 5.16346 6.36656 4.69819C6.72593 4.23704 7.15162 3.83166 7.62977 3.49524C8.62058 2.79855 9.78736 2.42971 11.0048 2.42971C12.2222 2.42971 13.389 2.79855 14.3798 3.49524C14.8595 3.83274 15.2838 4.23774 15.643 4.69819C16.007 5.16346 16.2963 5.67935 16.5036 6.22658L16.8363 7.10649L17.7475 7.34757C19.0541 7.69953 19.9678 8.88801 19.9678 10.2428C19.9678 11.0408 19.6568 11.7929 19.0927 12.357C18.8161 12.6353 18.487 12.8559 18.1245 13.0061C17.762 13.1563 17.3733 13.2331 16.9809 13.2321H16.0142C15.9082 13.2321 15.8214 13.3189 15.8214 13.425V14.8714C15.8214 14.9775 15.9082 15.0643 16.0142 15.0643H16.9809C19.6424 15.0643 21.7999 12.9067 21.7999 10.2428C21.7999 8.0081 20.2788 6.12774 18.2176 5.58292Z" fill="#FF9900"/>
</svg>
