<svg width="18" height="18" viewBox="0 0 18 18" fill="none" xmlns="http://www.w3.org/2000/svg">
<path d="M10.3578 12.3573C10.3249 12.3247 10.2805 12.3064 10.2342 12.3064C10.1879 12.3064 10.1435 12.3247 10.1106 12.3573L7.56862 14.8993C6.39169 16.0762 4.40534 16.2009 3.1059 14.8993C1.80428 13.5976 1.92897 11.6135 3.1059 10.4365L5.6479 7.89455C5.71572 7.82673 5.71572 7.71517 5.6479 7.64735L4.77723 6.77668C4.74434 6.74411 4.69992 6.72584 4.65363 6.72584C4.60734 6.72584 4.56293 6.74411 4.53003 6.77668L1.98803 9.31868C0.13732 11.1694 0.13732 14.1642 1.98803 16.0128C3.83875 17.8613 6.83358 17.8635 8.68211 16.0128L11.2241 13.4708C11.2919 13.4029 11.2919 13.2914 11.2241 13.2236L10.3578 12.3573ZM16.015 1.98801C14.1643 0.137297 11.1694 0.137297 9.32089 1.98801L6.77671 4.53001C6.74414 4.5629 6.72586 4.60732 6.72586 4.65361C6.72586 4.6999 6.74414 4.74432 6.77671 4.77721L7.64518 5.64569C7.713 5.71351 7.82457 5.71351 7.89238 5.64569L10.4344 3.10369C11.6113 1.92676 13.5977 1.80207 14.8971 3.10369C16.1987 4.40532 16.074 6.38948 14.8971 7.56641L12.3551 10.1084C12.3225 10.1413 12.3043 10.1857 12.3043 10.232C12.3043 10.2783 12.3225 10.3227 12.3551 10.3556L13.2258 11.2263C13.2936 11.2941 13.4052 11.2941 13.473 11.2263L16.015 8.68428C17.8635 6.83356 17.8635 3.83873 16.015 1.98801ZM11.1475 5.94539C11.1146 5.91282 11.0702 5.89455 11.0239 5.89455C10.9777 5.89455 10.9332 5.91282 10.9003 5.94539L5.94541 10.8981C5.91284 10.931 5.89457 10.9754 5.89457 11.0217C5.89457 11.068 5.91284 11.1124 5.94541 11.1453L6.81171 12.0116C6.87952 12.0794 6.99109 12.0794 7.05891 12.0116L12.0116 7.05889C12.0795 6.99107 12.0795 6.8795 12.0116 6.81169L11.1475 5.94539Z" fill="#898989"/>
</svg>
