<svg width="18" height="14" viewBox="0 0 18 14" fill="none" xmlns="http://www.w3.org/2000/svg">
<path d="M11.025 10.5808H9.68523V6.19992C9.68523 6.12037 9.62014 6.05528 9.54058 6.05528H8.45576C8.37621 6.05528 8.31112 6.12037 8.31112 6.19992V10.5808H6.97498C6.85384 10.5808 6.78695 10.72 6.86107 10.814L8.88608 13.376C8.8996 13.3933 8.91689 13.4073 8.93663 13.4169C8.95636 13.4265 8.97803 13.4315 8.99998 13.4315C9.02193 13.4315 9.0436 13.4265 9.06333 13.4169C9.08307 13.4073 9.10036 13.3933 9.11389 13.376L11.1389 10.814C11.213 10.72 11.1461 10.5808 11.025 10.5808Z" fill="#AAAAAA"/>
<path d="M14.4132 4.43741C13.5851 2.2533 11.4751 0.700195 9.00352 0.700195C6.53193 0.700195 4.42196 2.25149 3.59388 4.4356C2.04439 4.84241 0.899902 6.25448 0.899902 7.93234C0.899902 9.93022 2.51809 11.5484 4.51417 11.5484H5.23919C5.31874 11.5484 5.38383 11.4833 5.38383 11.4038V10.3189C5.38383 10.2394 5.31874 10.1743 5.23919 10.1743H4.51417C3.90486 10.1743 3.33171 9.93203 2.90501 9.49267C2.48013 9.05513 2.25412 8.46571 2.27401 7.85459C2.29028 7.37727 2.45301 6.92888 2.74771 6.551C3.04966 6.16589 3.47274 5.88564 3.94283 5.76089L4.62807 5.58189L4.87939 4.92015C5.03488 4.50792 5.25184 4.12281 5.52486 3.77386C5.79438 3.42799 6.11365 3.12396 6.47227 2.87165C7.21537 2.34912 8.09046 2.07249 9.00352 2.07249C9.91658 2.07249 10.7917 2.34912 11.5348 2.87165C11.8946 3.12477 12.2128 3.42852 12.4822 3.77386C12.7552 4.12281 12.9722 4.50973 13.1276 4.92015L13.3772 5.58008L14.0606 5.76089C15.0406 6.02486 15.7258 6.91622 15.7258 7.93234C15.7258 8.5308 15.4926 9.0949 15.0695 9.51799C14.862 9.72668 14.6152 9.89215 14.3433 10.0048C14.0714 10.1175 13.7799 10.1751 13.4856 10.1743H12.7606C12.6811 10.1743 12.616 10.2394 12.616 10.3189V11.4038C12.616 11.4833 12.6811 11.5484 12.7606 11.5484H13.4856C15.4817 11.5484 17.0999 9.93022 17.0999 7.93234C17.0999 6.25629 15.959 4.84602 14.4132 4.43741Z" fill="#AAAAAA"/>
</svg>
