<svg width="228" height="75" viewBox="0 0 228 75" fill="none" xmlns="http://www.w3.org/2000/svg">
<path fill-rule="evenodd" clip-rule="evenodd" d="M114 34.8237C166.725 34.8237 211.552 51.6101 228 74.9999C210.254 53.1623 165.908 37.6872 114 37.6872C62.0925 37.6872 17.7464 53.169 0 74.9999C16.4477 51.6034 61.2751 34.8237 114 34.8237Z" fill="#FF9900"/>
<path fill-rule="evenodd" clip-rule="evenodd" d="M141.872 4.00082H135.518L137.073 0.367976L136.242 0L134.523 4.00082H134.337V4.02098H134.218V12.9126H135.128V12.8725H137.284V15.0146L136.894 14.8565L136.875 14.9056L134.327 13.8455L133.982 14.6998L136.537 15.7631L132.616 25.7228L133.461 26.0654L137.284 16.3552V26.929H138.194V16.3433L142.018 26.0582L142.863 25.7156L138.939 15.7488L141.502 14.6835L141.158 13.8291L138.602 14.8914L138.585 14.8493L138.194 15.008V12.8725H139.881V12.9126H140.791V4.9241H141.872V4.00082ZM91.0885 5.87421L93.4522 0.367655L94.2862 0.736405L93.1894 3.29172H96.3782L96.6081 2.71979L97.4504 3.06864L95.4506 8.04197H98.1522V7.51334H99.0619V19.3354H100.394V20.2587H95.8186L100.169 26.9826L99.4113 27.4911L94.9283 20.5637L90.4393 27.4911L89.6811 26.9826L94.0382 20.2587H89.5295V19.3354H91.0721V7.51334H91.9818V8.04197H94.4681L96.0069 4.215H92.8256V4.13902L91.5349 7.14611L90.7464 6.79749H88.2902V14.3311L89.3314 13.1418L90.0115 13.755L88.2902 15.7212V27.2904H87.3805V27.1994L85.1417 26.185L85.5126 25.3419L87.3805 26.1883V16.7604L85.9263 18.4214L85.2463 17.8082L87.3805 15.3703V6.79749H85.6335V5.87421H87.3805V0.648983H88.2902V5.87421H91.0885ZM98.1522 8.96525V19.3354H95.3175V8.96525H98.1522ZM94.4078 8.96525V19.3354H91.9818V8.96525H94.4078ZM96.9129 13.9629C96.9129 13.6016 96.6228 13.3073 96.2668 13.3073C95.9108 13.3073 95.6208 13.6016 95.6208 13.9629C95.6208 14.3242 95.9108 14.6186 96.2668 14.6186C96.6228 14.6186 96.9129 14.3242 96.9129 13.9629ZM128.839 15.3747H126.745L126.678 15.4838L126.506 15.3747H126.499V15.3702L125.907 14.995L130.561 7.42643H123.387V6.50315H127.612L130.137 0.632732L130.971 1.00207L128.605 6.50315H131.549V7.42643H131.538L131.607 7.46973L127.313 14.4514H131.426L129.964 12.0123L130.741 11.5325L134.321 17.5058L133.544 17.9856L131.979 15.3747H129.749V26.9291H128.839V18.0484L125.515 21.8483L124.835 21.2353L128.839 16.6578V15.3747ZM135.128 11.9492H139.881V8.85149H135.128V11.9492ZM139.881 4.9241H135.128V7.9282H139.881V4.9241ZM131.766 19.2284C131.766 18.8671 131.476 18.5727 131.12 18.5727C130.764 18.5727 130.474 18.8671 130.474 19.2284C130.474 19.5896 130.764 19.884 131.12 19.884C131.476 19.884 131.766 19.5896 131.766 19.2284ZM106.379 1.64586H107.289V2.97718H117.758V1.64586H118.667V26.2935H117.758V22.9282H107.289V26.2935H106.379V1.64586ZM107.289 22.0049V12.8189H117.758V22.0049H107.289ZM117.758 3.90047V11.8957H107.289V3.90047H117.758Z" fill="black"/>
<path d="M156.711 62.5559C156.711 59.6455 157.68 57.2035 159.625 55.2298C161.57 53.2562 163.963 52.2727 166.817 52.2727V53.7579C164.398 53.7579 162.354 54.5876 160.693 56.2535C159.032 57.9194 158.208 60.0202 158.208 62.5626C158.208 64.7303 158.867 66.5969 160.179 68.1558C161.491 69.7147 163.205 70.7316 165.321 71.2067V57.4511H166.817V72.9462C163.884 72.6384 161.504 71.6014 159.671 69.8485C157.7 67.9484 156.711 65.5198 156.711 62.5693V62.5559ZM149.77 72.9529V57.1835L145.465 54.5809V72.9529H143.968V51.9114L149.77 55.4774V52.286H151.266V72.9529H149.77ZM136.11 72.9529V52.286H137.607V72.9529H136.11ZM124.225 71.4341C125.978 71.4341 127.145 71.3338 127.738 71.1264C128.938 70.7116 129.538 69.7816 129.538 68.3365C129.538 67.3061 129.149 66.0416 128.365 64.5563C127.58 63.0711 126.815 61.6326 126.057 60.2477C125.22 58.5951 124.805 57.2437 124.805 56.1866C124.805 54.8819 125.207 53.9051 126.011 53.2562C126.815 52.6072 127.877 52.2793 129.202 52.2793H130.303V53.7646C129.017 53.7646 128.147 53.8449 127.679 54.0122C126.763 54.34 126.308 55.0358 126.308 56.0862C126.308 57.1366 126.716 58.4814 127.527 60.0537C128.279 61.4185 129.03 62.7834 129.788 64.1415C130.626 65.7941 131.041 67.1857 131.041 68.3231C131.041 69.8084 130.533 70.9658 129.512 71.7954C128.576 72.5581 127.356 72.9395 125.846 72.9395H124.231V71.4208L124.225 71.4341ZM113.558 71.4341C115.312 71.4341 116.479 71.3338 117.072 71.1264C118.272 70.7116 118.872 69.7816 118.872 68.3365C118.872 67.3061 118.483 66.0416 117.698 64.5563C116.914 63.0711 116.149 61.6326 115.391 60.2477C114.554 58.5951 114.138 57.2437 114.138 56.1866C114.138 54.8819 114.541 53.9051 115.345 53.2562C116.149 52.6072 117.21 52.2793 118.535 52.2793H119.636V53.7646C118.351 53.7646 117.481 53.8449 117.013 54.0122C116.096 54.34 115.641 55.0358 115.641 56.0862C115.641 57.1366 116.05 58.4814 116.861 60.0537C117.613 61.4185 118.364 62.7834 119.122 64.1415C119.959 65.7941 120.375 67.1857 120.375 68.3231C120.375 69.8084 119.867 70.9658 118.845 71.7954C117.909 72.5581 116.69 72.9395 115.18 72.9395H113.565V71.4208L113.558 71.4341ZM82.1264 60.5956C82.1264 58.7156 81.5331 57.15 80.3399 55.8989C79.1467 54.6478 77.6305 53.9319 75.7781 53.7446V67.2861C77.6107 67.0786 79.1072 66.3895 80.2674 65.212C81.5068 63.9743 82.133 62.4355 82.133 60.5956H82.1264ZM81.0255 72.9596L75.7715 68.497V72.9596H74.275V52.2927H75.4023C77.6635 52.2927 79.595 53.0755 81.2035 54.6478C82.812 56.22 83.6163 58.1603 83.6163 60.4752C83.6163 62.3351 83.1153 63.9475 82.1198 65.3124C81.1244 66.6772 79.74 67.7009 77.9667 68.3766L83.3987 72.9662H81.0189L81.0255 72.9596ZM59.0667 62.6429C59.0667 59.6857 60.0358 57.2236 61.9805 55.2499C63.9252 53.2762 66.3314 52.2927 69.199 52.2927V53.778C66.7994 53.778 64.7492 54.621 63.0616 56.3204C61.374 58.0131 60.5302 60.1206 60.5302 62.6429C60.5302 65.1652 61.3674 67.2392 63.0352 68.9319C64.7031 70.6246 66.7599 71.4743 69.2056 71.4743V72.9596C66.3973 72.9596 64.0043 71.9694 62.0332 69.9823C60.0555 68.0019 59.0733 65.5532 59.0733 62.6362L59.0667 62.6429Z" fill="black"/>
<path d="M89.8855 62.6362C89.8855 65.1384 90.7623 67.2727 92.5092 69.0523C94.2628 70.832 96.3789 71.7151 98.8576 71.7151C101.336 71.7151 103.433 70.8454 105.193 69.0992C106.953 67.3529 107.836 65.2388 107.836 62.7633C107.836 60.1206 106.953 57.9194 105.18 56.1598C103.406 54.4069 101.231 53.5238 98.6466 53.5238C96.2471 53.5238 94.1837 54.427 92.4631 56.2334C90.7425 58.0398 89.8855 60.1741 89.8855 62.6295V62.6362ZM109.306 62.6696C109.306 65.58 108.291 68.0688 106.254 70.1362C104.217 72.2035 101.765 73.2339 98.8971 73.2339C96.0295 73.2339 93.564 72.2236 91.5072 70.1964C89.4504 68.1692 88.422 65.6937 88.422 62.7633C88.422 59.8329 89.4504 57.1768 91.5072 55.1094C93.564 53.0421 96.0888 52.0117 99.0817 52.0117C102.075 52.0117 104.349 53.0621 106.333 55.1562C108.317 57.2504 109.313 59.7593 109.313 62.6696H109.306Z" fill="black"/>
</svg>
