<svg width="40" height="40" viewBox="0 0 40 40" fill="none" xmlns="http://www.w3.org/2000/svg">
<path d="M40 0H0V40H40V0Z" fill="#FF9900"/>
<path d="M12.55 20.02C12.55 15.74 13.98 12.18 16.83 9.32004C19.69 6.46004 23.22 5.04004 27.44 5.04004V7.19004C23.91 7.19004 20.91 8.42004 18.43 10.87C15.95 13.32 14.71 16.37 14.71 20.02C14.71 23.67 15.94 26.67 18.39 29.12C20.84 31.57 23.86 32.8 27.45 32.8V34.95C23.32 34.95 19.81 33.51 16.91 30.64C14.01 27.77 12.56 24.23 12.56 20.01L12.55 20.02Z" fill="white"/>
</svg>
