<svg width="48" height="48" viewBox="0 0 48 48" fill="none" xmlns="http://www.w3.org/2000/svg">
<path d="M25.7671 16.6C25.7671 16.1581 25.3018 15.8 24.7278 15.8H19.9231C19.3491 15.8 18.8838 16.1581 18.8838 16.6C18.8838 17.0418 19.3491 17.4 19.9231 17.4H24.7278C25.3018 17.4 25.7671 17.0418 25.7671 16.6Z" fill="#00151D"/>
<path d="M28.7171 19.6C28.7171 19.1581 28.2518 18.8 27.6778 18.8H19.9231C19.3491 18.8 18.8838 19.1581 18.8838 19.6C18.8838 20.0418 19.3491 20.4 19.9231 20.4H27.6778C28.2518 20.4 28.7171 20.0418 28.7171 19.6Z" fill="#00151D"/>
<path d="M28.7171 22.6C28.7171 22.1581 28.2518 21.8 27.6778 21.8H19.9231C19.3491 21.8 18.8838 22.1581 18.8838 22.6C18.8838 23.0418 19.3491 23.4 19.9231 23.4H27.6778C28.2518 23.4 28.7171 23.0418 28.7171 22.6Z" fill="#00151D"/>
<path d="M33.3875 35.6H14.2125C12.9922 35.6 12 34.6417 12 33.463V20.9873C12 20.2028 12.4455 19.4819 13.1633 19.1067L15.3394 17.9841C15.7003 17.7989 16.1457 17.93 16.3375 18.2766C16.5292 18.6242 16.3935 19.0554 16.0346 19.2407L13.8614 20.3614C13.6284 20.4839 13.475 20.7299 13.475 20.9873V33.463C13.475 33.8562 13.8054 34.1754 14.2125 34.1754H33.3875C33.7946 34.1754 34.125 33.8562 34.125 33.463V20.9873C34.125 20.7299 33.9716 20.4839 33.7346 20.3604L31.5644 19.2416C31.2055 19.0564 31.0698 18.6252 31.2615 18.2776C31.4533 17.9309 31.8987 17.7989 32.2596 17.985L34.4328 19.1058C35.1546 19.4819 35.6 20.2028 35.6 20.9873V33.463C35.6 34.6417 34.6078 35.6 33.3875 35.6Z" fill="#00151D"/>
<path d="M31.9127 24.7833C31.5056 24.7833 31.1752 24.4772 31.1752 24.0999V14.5058C31.1752 13.878 30.6235 13.3668 29.946 13.3668H17.6544C16.9768 13.3668 16.4252 13.878 16.4252 14.5058V24.0999C16.4252 24.4772 16.0948 24.7833 15.6877 24.7833C15.2806 24.7833 14.9502 24.4772 14.9502 24.0999V14.5058C14.9502 13.1244 16.1626 12 17.6544 12H29.946C31.4377 12 32.6502 13.1244 32.6502 14.5058V24.0999C32.6502 24.4772 32.3198 24.7833 31.9127 24.7833Z" fill="#00151D"/>
<path d="M23.798 28.7166C23.3674 28.7166 22.9377 28.617 22.5463 28.4178L12.3958 23.2015C12.035 23.0168 11.8953 22.5777 12.0841 22.2227C12.2739 21.8677 12.7193 21.7313 13.0792 21.9161L23.2267 27.1294C23.5788 27.3084 24.0212 27.3084 24.3762 27.1275L34.5208 21.9161C34.8807 21.7304 35.3271 21.8677 35.5159 22.2227C35.7047 22.5777 35.565 23.0158 35.2042 23.2015L25.0566 28.4149C24.6604 28.6161 24.2297 28.7166 23.798 28.7166Z" fill="#00151D"/>
</svg>
