<svg width="48" height="48" viewBox="0 0 48 48" fill="none" xmlns="http://www.w3.org/2000/svg">
<path d="M32.75 22L24.0067 14L15.25 22" stroke="#00151D" stroke-linecap="round" stroke-linejoin="round"/>
<path d="M19.9265 27.71H17.6465V34H16.5865V27.71H14.2965V26.82H19.9265V27.71ZM27.3465 30.41C27.3465 30.9467 27.2598 31.44 27.0865 31.89C26.9165 32.3367 26.6748 32.7233 26.3615 33.05C26.0482 33.3733 25.6732 33.625 25.2365 33.805C24.7998 33.985 24.3148 34.075 23.7815 34.075C23.2515 34.075 22.7665 33.985 22.3265 33.805C21.8898 33.625 21.5148 33.3733 21.2015 33.05C20.8915 32.7233 20.6498 32.3367 20.4765 31.89C20.3032 31.44 20.2165 30.9467 20.2165 30.41C20.2165 29.8767 20.3032 29.385 20.4765 28.935C20.6498 28.485 20.8915 28.0983 21.2015 27.775C21.5148 27.4483 21.8898 27.195 22.3265 27.015C22.7665 26.8317 23.2515 26.74 23.7815 26.74C24.3148 26.74 24.7998 26.8317 25.2365 27.015C25.6732 27.195 26.0482 27.4483 26.3615 27.775C26.6748 28.0983 26.9165 28.485 27.0865 28.935C27.2598 29.385 27.3465 29.8767 27.3465 30.41ZM26.2565 30.41C26.2565 29.9833 26.1982 29.6 26.0815 29.26C25.9648 28.92 25.7982 28.6317 25.5815 28.395C25.3682 28.1583 25.1082 27.9767 24.8015 27.85C24.4982 27.7233 24.1582 27.66 23.7815 27.66C23.4048 27.66 23.0632 27.7233 22.7565 27.85C22.4532 27.9767 22.1932 28.1583 21.9765 28.395C21.7598 28.6317 21.5932 28.92 21.4765 29.26C21.3598 29.6 21.3015 29.9833 21.3015 30.41C21.3015 30.84 21.3598 31.225 21.4765 31.565C21.5932 31.9017 21.7598 32.1883 21.9765 32.425C22.1932 32.6617 22.4532 32.8433 22.7565 32.97C23.0632 33.0933 23.4048 33.155 23.7815 33.155C24.1582 33.155 24.4982 33.0933 24.8015 32.97C25.1082 32.8433 25.3682 32.6617 25.5815 32.425C25.7982 32.1883 25.9648 31.9017 26.0815 31.565C26.1982 31.225 26.2565 30.84 26.2565 30.41ZM30.8588 30.515C31.1288 30.515 31.3655 30.48 31.5688 30.41C31.7755 30.34 31.9472 30.2417 32.0838 30.115C32.2238 29.985 32.3288 29.8317 32.3988 29.655C32.4688 29.475 32.5038 29.2767 32.5038 29.06C32.5038 28.6233 32.3672 28.28 32.0938 28.03C31.8238 27.78 31.4122 27.655 30.8588 27.655H29.7488V30.515H30.8588ZM30.8588 26.82C31.3188 26.82 31.7188 26.8733 32.0588 26.98C32.3988 27.0867 32.6805 27.2383 32.9038 27.435C33.1272 27.6283 33.2922 27.8633 33.3988 28.14C33.5088 28.4167 33.5638 28.7233 33.5638 29.06C33.5638 29.3967 33.5055 29.7067 33.3888 29.99C33.2722 30.27 33.1005 30.5117 32.8738 30.715C32.6472 30.9183 32.3638 31.0767 32.0238 31.19C31.6872 31.3 31.2988 31.355 30.8588 31.355H29.7488V34H28.6838V26.82H30.8588Z" fill="#00151D"/>
</svg>
