<svg width="48" height="48" viewBox="0 0 48 48" fill="none" xmlns="http://www.w3.org/2000/svg">
<path fill-rule="evenodd" clip-rule="evenodd" d="M21.5 12C26.7467 12 31 16.2533 31 21.5C31 23.7631 30.2086 25.8415 28.8875 27.4733L35.7071 34.2929C36.0976 34.6834 36.0976 35.3166 35.7071 35.7071C35.3466 36.0676 34.7794 36.0953 34.3871 35.7903L34.2929 35.7071L27.4733 28.8875C25.8415 30.2086 23.7631 31 21.5 31C16.2533 31 12 26.7467 12 21.5C12 16.2533 16.2533 12 21.5 12ZM26.9163 26.6878C26.8731 26.719 26.8318 26.754 26.7929 26.7929C26.754 26.8318 26.719 26.8731 26.6878 26.9163C25.3407 28.207 23.5129 29 21.5 29C17.3579 29 14 25.6421 14 21.5C14 17.3579 17.3579 14 21.5 14C25.6421 14 29 17.3579 29 21.5C29 23.5129 28.207 25.3407 26.9163 26.6878Z" fill="#00151D"/>
</svg>
