<svg width="48" height="48" viewBox="0 0 48 48" fill="none" xmlns="http://www.w3.org/2000/svg">
<path fill-rule="evenodd" clip-rule="evenodd" d="M16 16C14.3431 16 13 17.3431 13 19V29C13 30.6569 14.3431 32 16 32H32C33.6569 32 35 30.6569 35 29V19C35 17.3431 33.6569 16 32 16H16ZM31.6928 19.5082C31.4212 19.1253 30.8906 19.0351 30.5077 19.3067L23.953 23.955L17.4959 19.31L17.3977 19.2489C17.028 19.0523 16.5608 19.1543 16.3095 19.5037C16.0354 19.8847 16.1221 20.4159 16.5032 20.69L23.4542 25.69L23.556 25.7529C23.836 25.8998 24.179 25.8801 24.4423 25.6933L31.4913 20.6933L31.5809 20.6202C31.8867 20.3343 31.9418 19.8592 31.6928 19.5082Z" fill="#00151D"/>
</svg>
