<svg width="48" height="48" viewBox="0 0 48 48" fill="none" xmlns="http://www.w3.org/2000/svg">
<path fill-rule="evenodd" clip-rule="evenodd" d="M32 30.7149C32 31.4248 31.4248 32 30.7149 32C30.0049 32 29.4297 31.4248 29.4297 30.7149C29.4297 24.0182 23.9818 18.5703 17.2851 18.5703C16.5757 18.5703 16 17.9951 16 17.2851C16 16.5752 16.5757 16 17.2851 16C25.4005 16 32 22.601 32 30.7149ZM17.2867 22C16.5759 22 16 22.5759 16 23.2867C16 23.9975 16.5759 24.5735 17.2867 24.5735C20.6714 24.5735 23.4265 27.3286 23.4265 30.7133C23.4265 31.4241 24.002 32 24.7133 32C25.4241 32 26 31.4241 26 30.7133C26 25.9086 22.0904 22 17.2867 22ZM16 30C16 28.8961 16.8946 28 17.9997 28C19.1038 28 20.0005 28.8961 20 30C20 31.1044 19.1038 32 17.9997 32C16.8957 32 16 31.1044 16 30Z" fill="#00151D"/>
</svg>
