<svg width="48" height="48" viewBox="0 0 48 48" fill="none" xmlns="http://www.w3.org/2000/svg">
<path fill-rule="evenodd" clip-rule="evenodd" d="M33.8729 23.8685C33.6942 23.6289 29.4371 18 23.9999 18C18.5627 18 14.3054 23.6289 14.1269 23.8683C13.9577 24.0957 13.9577 24.4041 14.1269 24.6315C14.3054 24.8711 18.5627 30.5 23.9999 30.5C29.4371 30.5 33.6942 24.8711 33.8729 24.6317C34.0424 24.4043 34.0424 24.0957 33.8729 23.8685ZM23.9999 29.2068C19.9949 29.2068 16.5261 25.4708 15.4992 24.2495C16.5247 23.0271 19.9863 19.293 23.9999 19.293C28.0048 19.293 31.4733 23.0284 32.5006 24.2504C31.4751 25.4727 28.0135 29.2068 23.9999 29.2068ZM24 20.5C21.9323 20.5 20.25 22.1823 20.25 24.25C20.25 26.3177 21.9323 28 24 28C26.0677 28 27.75 26.3177 27.75 24.25C27.75 22.1823 26.0677 20.5 24 20.5ZM25.6663 23.4167C25.2068 23.4167 24.833 23.0428 24.833 22.5833C24.833 22.1238 25.2068 21.75 25.6663 21.75C26.1258 21.75 26.4997 22.1238 26.4997 22.5833C26.4997 23.0428 26.1259 23.4167 25.6663 23.4167Z" fill="#00151D"/>
</svg>
