<svg width="120" height="120" viewBox="0 0 120 120" fill="none" xmlns="http://www.w3.org/2000/svg">
<rect width="120" height="120" fill="black"/>
<g clip-path="url(#clip0_726_99221)">
<rect width="120" height="43.8" transform="translate(0.085083 38.3999)" fill="black"/>
<path fill-rule="evenodd" clip-rule="evenodd" d="M60.0851 59.1157C83.5184 59.1157 103.442 66.5424 110.752 76.8907C102.864 67.2291 83.1551 60.3826 60.0851 60.3826C37.0151 60.3826 17.3057 67.2321 9.4184 76.8907C16.7285 66.5395 36.6518 59.1157 60.0851 59.1157" fill="#FF9900"/>
<path fill-rule="evenodd" clip-rule="evenodd" d="M72.4726 45.479H69.6485L70.3397 43.8718L69.9705 43.709L69.2065 45.479H69.1238V45.488H69.071V49.4218H69.4754V49.4041H70.4334V50.3518L70.2603 50.2819L70.2517 50.3036L69.1192 49.8346L68.9658 50.2125L70.1016 50.6829L68.3589 55.0894L68.7343 55.241L70.4334 50.9449V55.623H70.8378V50.9397L72.5376 55.2377L72.9131 55.0862L71.1691 50.6766L72.3084 50.2053L72.1551 49.8273L71.0191 50.2973L71.0117 50.2787L70.8378 50.3489V49.4041H71.5878V49.4218H71.9921V45.8875H72.4726V45.479ZM49.9022 46.3079L50.9527 43.8716L51.3234 44.0348L50.8359 45.1653H52.2531L52.3553 44.9123L52.7297 45.0666L51.8409 47.2669H53.0416V47.0331H53.4459V52.2635H54.0378V52.6719H52.0044L53.9381 55.6467L53.6012 55.8717L51.6087 52.8069L49.6136 55.8717L49.2767 55.6467L51.2131 52.6719H49.2093V52.2635H49.8949V47.0331H50.2992V47.2669H51.4042L52.0881 45.5738H50.6742V45.5402L50.1005 46.8706L49.7501 46.7164H48.6585V50.0494L49.1212 49.5232L49.4235 49.7945L48.6585 50.6644V55.7829H48.2541V55.7427L47.2592 55.2939L47.424 54.9209L48.2541 55.2953V51.1242L47.6079 51.8591L47.3056 51.5878L48.2541 50.5092V46.7164H47.4777V46.3079H48.2541V43.9961H48.6585V46.3079H49.9022ZM53.0416 47.6754V52.2635H51.7817V47.6754H53.0416ZM51.3774 47.6754V52.2635H50.2992V47.6754H51.3774ZM52.4908 49.8865C52.4908 49.7267 52.3618 49.5964 52.2036 49.5964C52.0454 49.5964 51.9165 49.7267 51.9165 49.8865C51.9165 50.0464 52.0454 50.1766 52.2036 50.1766C52.3618 50.1766 52.4908 50.0464 52.4908 49.8865ZM66.6802 50.5111H65.7497L65.7198 50.5594L65.6433 50.5111H65.6401V50.5091L65.3768 50.3431L67.4455 46.9946H64.2572V46.5861H66.1349L67.257 43.9889L67.6275 44.1523L66.576 46.5861H67.8844V46.9946H67.8799L67.9103 47.0138L66.002 50.1026H67.8299L67.1802 49.0235L67.5256 48.8112L69.1167 51.454L68.7713 51.6663L68.0758 50.5111H67.0846V55.6231H66.6802V51.6941L65.2028 53.3752L64.9005 53.104L66.6802 51.0788V50.5111ZM69.4754 48.9956H71.5878V47.6251H69.4754V48.9956ZM71.5878 45.8875H69.4754V47.2166H71.5878V45.8875ZM67.9811 52.2161C67.9811 52.0562 67.8522 51.926 67.694 51.926C67.5358 51.926 67.4069 52.0562 67.4069 52.2161C67.4069 52.3759 67.5358 52.5062 67.694 52.5062C67.8522 52.5062 67.9811 52.3759 67.9811 52.2161ZM56.6981 44.4372H57.1024V45.0262H61.7551V44.4372H62.1594V55.3419H61.7551V53.853H57.1024V55.3419H56.6981V44.4372ZM57.1024 53.4445V49.3804H61.7551V53.4445H57.1024ZM61.7551 45.4346V48.9719H57.1024V45.4346H61.7551Z" fill="white"/>
<path d="M79.0679 71.3852C79.0679 70.0976 79.4986 69.0172 80.3629 68.144C81.2272 67.2707 82.2908 66.8356 83.5594 66.8356V67.4927C82.4841 67.4927 81.5759 67.8598 80.8375 68.5968C80.0992 69.3339 79.733 70.2633 79.733 71.3881C79.733 72.3472 80.026 73.173 80.609 73.8627C81.1921 74.5524 81.9538 75.0023 82.8943 75.2125V69.1267H83.5594V75.9821C82.2556 75.8459 81.1979 75.3871 80.3834 74.6116C79.5074 73.771 79.0679 72.6965 79.0679 71.3911V71.3852ZM75.9827 75.985V69.0083L74.0695 67.8568V75.985H73.4044V66.6758L75.9827 68.2535V66.8415H76.6478V75.985H75.9827ZM69.912 75.985V66.8415H70.5771V75.985H69.912ZM64.6294 75.3131C65.4087 75.3131 65.9273 75.2687 66.191 75.177C66.7242 74.9934 66.9909 74.582 66.9909 73.9426C66.9909 73.4868 66.818 72.9273 66.4693 72.2702C66.1207 71.6131 65.7808 70.9767 65.4439 70.364C65.0718 69.6328 64.8872 69.0349 64.8872 68.5672C64.8872 67.99 65.0659 67.5579 65.4234 67.2707C65.7808 66.9836 66.2525 66.8386 66.8414 66.8386H67.3307V67.4957C66.7594 67.4957 66.3727 67.5312 66.1646 67.6052C65.7574 67.7503 65.5552 68.0581 65.5552 68.5228C65.5552 68.9876 65.7369 69.5825 66.0972 70.2781C66.4313 70.882 66.7653 71.4858 67.1022 72.0867C67.4743 72.8178 67.6589 73.4335 67.6589 73.9367C67.6589 74.5938 67.4333 75.1059 66.9791 75.473C66.5631 75.8104 66.0211 75.9791 65.3501 75.9791H64.6323V75.3072L64.6294 75.3131ZM59.8888 75.3131C60.6682 75.3131 61.1867 75.2687 61.4504 75.177C61.9837 74.9934 62.2503 74.582 62.2503 73.9426C62.2503 73.4868 62.0774 72.9273 61.7288 72.2702C61.3801 71.6131 61.0402 70.9767 60.7033 70.364C60.3312 69.6328 60.1466 69.0349 60.1466 68.5672C60.1466 67.99 60.3254 67.5579 60.6828 67.2707C61.0402 66.9836 61.512 66.8386 62.1009 66.8386H62.5902V67.4957C62.0188 67.4957 61.6321 67.5312 61.4241 67.6052C61.0168 67.7503 60.8146 68.0581 60.8146 68.5228C60.8146 68.9876 60.9963 69.5825 61.3567 70.2781C61.6907 70.882 62.0247 71.4858 62.3616 72.0867C62.7337 72.8178 62.9183 73.4335 62.9183 73.9367C62.9183 74.5938 62.6927 75.1059 62.2386 75.473C61.8225 75.8104 61.2805 75.9791 60.6096 75.9791H59.8917V75.3072L59.8888 75.3131ZM45.9191 70.5179C45.9191 69.6861 45.6554 68.9935 45.1251 68.44C44.5947 67.8864 43.9209 67.5697 43.0976 67.4868V73.4779C43.9121 73.3861 44.5772 73.0813 45.0928 72.5603C45.6437 72.0127 45.922 71.3319 45.922 70.5179H45.9191ZM45.4298 75.988L43.0946 74.0137V75.988H42.4296V66.8445H42.9306C43.9355 66.8445 44.794 67.1908 45.5089 67.8864C46.2238 68.582 46.5812 69.4404 46.5812 70.4646C46.5812 71.2875 46.3585 72.0009 45.9161 72.6047C45.4737 73.2085 44.8584 73.6614 44.0703 73.9604L46.4845 75.991H45.4268L45.4298 75.988ZM35.6703 71.4237C35.6703 70.1153 36.101 69.026 36.9653 68.1528C37.8296 67.2796 38.899 66.8445 40.1735 66.8445V67.5016C39.1071 67.5016 38.1959 67.8746 37.4458 68.6264C36.6958 69.3753 36.3207 70.3077 36.3207 71.4237C36.3207 72.5396 36.6928 73.4572 37.4341 74.2061C38.1753 74.955 39.0895 75.3309 40.1765 75.3309V75.988C38.9283 75.988 37.8648 75.5499 36.9887 74.6708C36.1098 73.7946 35.6732 72.7113 35.6732 71.4207L35.6703 71.4237Z" fill="white"/>
<path d="M49.3675 71.4207C49.3675 72.5278 49.7572 73.472 50.5336 74.2594C51.313 75.0468 52.2535 75.4375 53.3551 75.4375C54.4568 75.4375 55.3885 75.0527 56.1708 74.2801C56.953 73.5075 57.3456 72.5722 57.3456 71.477C57.3456 70.3078 56.953 69.3339 56.1649 68.5554C55.3768 67.7799 54.4099 67.3892 53.2614 67.3892C52.1949 67.3892 51.2778 67.7888 50.5131 68.588C49.7484 69.3872 49.3675 70.3314 49.3675 71.4178V71.4207ZM57.999 71.4355C57.999 72.7231 57.5478 73.8243 56.6425 74.7389C55.7371 75.6536 54.6472 76.1094 53.3727 76.1094C52.0982 76.1094 51.0024 75.6624 50.0883 74.7656C49.1742 73.8687 48.7171 72.7735 48.7171 71.477C48.7171 70.1805 49.1742 69.0054 50.0883 68.0907C51.0024 67.1761 52.1246 66.7202 53.4547 66.7202C54.7849 66.7202 55.7957 67.1849 56.6776 68.1114C57.5595 69.0379 58.0019 70.1479 58.0019 71.4355H57.999Z" fill="white"/>
</g>
<defs>
<clipPath id="clip0_726_99221">
<rect width="120" height="43.8" fill="white" transform="translate(0 38.3999)"/>
</clipPath>
</defs>
</svg>
