<svg width="48" height="48" viewBox="0 0 48 48" fill="none" xmlns="http://www.w3.org/2000/svg">
<path fill-rule="evenodd" clip-rule="evenodd" d="M20 15C20 14.4477 20.4477 14 21 14C21.5523 14 22 14.4477 22 15V17H26V15C26 14.4477 26.4477 14 27 14C27.5523 14 28 14.4477 28 15V17H30C32.2091 17 34 18.7909 34 21V23V25V30C34 32.2091 32.2091 34 30 34H18C15.7909 34 14 32.2091 14 30V25V23V21C14 18.7909 15.7909 17 18 17H20V15ZM26 19V21C26 21.5523 26.4477 22 27 22C27.5523 22 28 21.5523 28 21V19H30L30.1493 19.0055C31.1841 19.0818 32 19.9456 32 21V23H16V21L16.0055 20.8507C16.0818 19.8159 16.9456 19 18 19H20V21C20 21.5523 20.4477 22 21 22C21.5523 22 22 21.5523 22 21V19H26ZM16 25V30C16 31.0544 16.8159 31.9182 17.8507 31.9945L18 32H30C31.0544 32 31.9182 31.1841 31.9945 30.1493L32 30V25H16Z" fill="#00151D"/>
</svg>
