<svg width="48" height="48" viewBox="0 0 48 48" fill="none" xmlns="http://www.w3.org/2000/svg">
<path fill-rule="evenodd" clip-rule="evenodd" d="M35.3604 16.1445C35.6657 16.9042 35.8789 17.7809 35.937 19.0561C35.9951 20.3361 36 20.7439 36 24.0024C36 27.2608 35.9854 27.6687 35.9273 28.9487C35.8692 30.2239 35.6559 31.096 35.3508 31.8603C34.7063 33.473 33.3883 34.7482 31.7213 35.3718C30.9363 35.6672 30.0302 35.8734 28.7122 35.9297C28.4922 35.9391 28.3193 35.9473 28.1683 35.9544C27.4116 35.9903 27.2077 36 24.4001 36C21.0324 36 20.6107 35.9861 19.2879 35.9297C17.9698 35.8734 17.0686 35.6672 16.2787 35.3718C15.455 35.0718 14.7039 34.5982 14.0836 33.9887C13.4537 33.3886 12.9644 32.6666 12.6494 31.8603C12.3441 31.1006 12.1308 30.2239 12.0727 28.9487C12.0146 27.6687 12 27.2608 12 24.0024C12 20.7439 12.0146 20.3361 12.0776 19.0513C12.1357 17.7761 12.3488 16.9042 12.6542 16.1399C12.9644 15.3429 13.4537 14.6162 14.0836 14.016C14.7039 13.4018 15.4501 12.9329 16.2837 12.6282C17.0686 12.333 17.9747 12.1266 19.2927 12.0703C20.6156 12.0141 21.0371 12 24.4048 12C27.2235 12 27.4179 12.0099 28.1849 12.0489C28.3343 12.0564 28.5054 12.0651 28.7219 12.0751C30.0399 12.1313 30.9412 12.3375 31.7309 12.6329C32.5547 12.9329 33.3058 13.4065 33.926 14.016C34.5609 14.6162 35.0454 15.3381 35.3604 16.1445ZM33.2764 31.0819C33.4459 30.6599 33.6494 30.027 33.7028 28.8549C33.7609 27.589 33.7755 27.214 33.7755 24.0117C33.7755 20.8095 33.7609 20.4298 33.7028 19.164C33.6494 17.9964 33.4459 17.3589 33.2764 16.9369C33.0776 16.4165 32.7626 15.9476 32.3508 15.5584C31.9535 15.1599 31.464 14.8552 30.9262 14.6631C30.4901 14.499 29.8359 14.3021 28.6245 14.2504C28.3979 14.2407 28.2229 14.2322 28.0712 14.2248L28.0711 14.2248C27.3502 14.1897 27.1522 14.1801 24.414 14.1801C21.1046 14.1801 20.712 14.1942 19.4037 14.2504C18.1972 14.3021 17.5382 14.499 17.1021 14.6631C16.5641 14.8552 16.0795 15.1599 15.6775 15.5584C15.2607 15.943 14.9457 16.4165 14.747 16.9369C14.5774 17.3589 14.3739 17.9918 14.3207 19.164C14.2624 20.4251 14.248 20.8095 14.248 24.0117C14.248 27.214 14.2624 27.5938 14.3207 28.8597C14.3739 30.027 14.5774 30.6647 14.747 31.0867C14.9457 31.607 15.2607 32.0758 15.6726 32.465C16.0699 32.8635 16.5594 33.1683 17.0971 33.3606C17.5332 33.5247 18.1874 33.7215 19.3988 33.773C20.7024 33.8294 21.0997 33.8433 24.4093 33.8433C27.1449 33.8433 27.3409 33.8338 28.0654 33.7987H28.0654H28.0654C28.2174 33.7913 28.3927 33.7828 28.6196 33.773C29.8263 33.7215 30.4852 33.5247 30.9213 33.3606C32.0019 32.9573 32.8596 32.1275 33.2764 31.0819ZM17.5996 24.4C17.5996 21.0874 20.4663 18.4 23.9996 18.4C27.5331 18.4 30.3996 21.0874 30.3996 24.4C30.3996 27.7126 27.5331 30.4 23.9996 30.4C20.4663 30.4 17.5996 27.7126 17.5996 24.4ZM19.8477 24.4C19.8477 26.5492 21.707 28.2921 23.9992 28.2921C26.2916 28.2921 28.1507 26.5492 28.1507 24.4C28.1507 22.2509 26.2916 20.508 23.9992 20.508C21.707 20.508 19.8477 22.2509 19.8477 24.4ZM30.3997 19.2C31.2834 19.2 31.9998 18.4836 31.9998 17.6C31.9998 16.7162 31.2834 16 30.3997 16C29.5162 16 28.7998 16.7162 28.7998 17.6C28.7998 18.4836 29.5162 19.2 30.3997 19.2Z" fill="#00151D"/>
</svg>
