<svg width="48" height="48" viewBox="0 0 48 48" fill="none" xmlns="http://www.w3.org/2000/svg">
<path d="M19.969 25C19.4338 25 19 25.4477 19 26C19 26.5523 19.4338 27 19.969 27H26.031C26.5662 27 27 26.5523 27 26C27 25.4477 26.5662 25 26.031 25H19.969Z" fill="#00151D"/>
<path d="M30 22C30 21.4477 29.5268 21 28.9431 21H18.0569C17.4732 21 17 21.4477 17 22C17 22.5523 17.4732 23 18.0569 23H28.9431C29.5268 23 30 22.5523 30 22Z" fill="#42525C"/>
<path d="M28.9431 18H18.0569C17.4732 18 17 18.4477 17 19C17 19.5523 17.4732 20 18.0569 20H28.9431C29.5268 20 30 19.5523 30 19C30 18.4477 29.5268 18 28.9431 18Z" fill="#42525C"/>
<path d="M20.876 34.125H17.7449C16.7124 34.125 15.8724 33.2839 15.8724 32.25V15.75C15.8724 14.7161 16.7124 13.875 17.7449 13.875H29.2551C30.2876 13.875 31.1276 14.7161 31.1276 15.75V21.5156C31.1276 22.0334 31.5467 22.4531 32.0638 22.4531C32.5809 22.4531 33 22.0334 33 21.5156V15.75C33 13.6823 31.3201 12 29.2551 12H17.7449C15.6799 12 14 13.6823 14 15.75V32.25C14 34.3177 15.6799 36 17.7449 36H20.876C21.3931 36 21.8122 35.5803 21.8122 35.0625C21.8122 34.5447 21.3931 34.125 20.876 34.125Z" fill="#00151D"/>
<path fill-rule="evenodd" clip-rule="evenodd" d="M35.0573 25.8044C33.8005 24.732 31.7555 24.732 30.4995 25.8036L24.6003 30.8256C24.475 30.9323 24.3826 31.0637 24.3311 31.2081L23.0464 34.8167C22.9325 35.1367 23.0317 35.4841 23.3054 35.7234C23.5104 35.9027 23.7889 36 24.0746 36C24.1702 36 24.2667 35.9891 24.3614 35.9667L28.6983 34.9417C28.8768 34.8995 29.0395 34.8187 29.1706 34.707L35.0574 29.6939C36.3142 28.6216 36.3142 26.8768 35.0573 25.8044ZM27.8528 33.2391L25.6709 33.7548L26.3094 31.9612L30.2898 28.5726L31.8097 29.8694L27.8528 33.2391ZM33.3304 28.5741L33.5386 28.3969C33.9568 28.04 33.9568 27.4584 33.5378 27.1009C33.1189 26.7435 32.4372 26.7435 32.0183 27.1009L31.8108 27.2776L33.3304 28.5741Z" fill="#42525C"/>
</svg>
