<svg width="48" height="48" viewBox="0 0 48 48" fill="none" xmlns="http://www.w3.org/2000/svg">
<path d="M29.5858 14.0042L26.9474 14C23.9832 14 22.0677 15.9319 22.0677 18.922V21.1914H19.4149C19.1856 21.1914 19 21.3741 19 21.5994V24.8875C19 25.1128 19.1858 25.2953 19.4149 25.2953H22.0677V33.5922C22.0677 33.8175 22.2533 34 22.4825 34H25.9437C26.1729 34 26.3585 33.8173 26.3585 33.5922V25.2953H29.4603C29.6895 25.2953 29.8751 25.1128 29.8751 24.8875L29.8764 21.5994C29.8764 21.4912 29.8326 21.3876 29.7549 21.311C29.6772 21.2345 29.5714 21.1914 29.4613 21.1914H26.3585V19.2676C26.3585 18.343 26.5827 17.8736 27.808 17.8736L29.5853 17.873C29.8144 17.873 30 17.6903 30 17.4651V14.412C30 14.1871 29.8146 14.0046 29.5858 14.0042Z" fill="#00151D"/>
</svg>
