<svg width="48" height="48" viewBox="0 0 48 48" fill="none" xmlns="http://www.w3.org/2000/svg">
<path d="M35 17.1309C34.1819 17.4923 33.3101 17.7318 32.4013 17.8482C33.3363 17.286 34.0499 16.4026 34.3854 15.3378C33.5136 15.8612 32.5511 16.2309 31.5254 16.4372C30.6976 15.5497 29.5179 15 28.2309 15C25.7339 15 23.7236 17.0409 23.7236 19.5429C23.7236 19.9029 23.7539 20.2491 23.8281 20.5786C20.0785 20.3945 16.7606 18.5848 14.5317 15.828C14.1426 16.5078 13.9144 17.286 13.9144 18.1237C13.9144 19.6966 14.7187 21.0909 15.9177 21.8982C15.1931 21.8843 14.4822 21.6725 13.88 21.3388C13.88 21.3526 13.88 21.3706 13.88 21.3886C13.88 23.5957 15.4434 25.4289 17.4935 25.8512C17.1264 25.9523 16.7263 26.0008 16.311 26.0008C16.0223 26.0008 15.7307 25.9842 15.4571 25.9232C16.0415 27.7218 17.6997 29.0442 19.6715 29.0871C18.137 30.2958 16.1886 31.0242 14.0794 31.0242C13.7095 31.0242 13.3548 31.0075 13 30.9618C14.9979 32.2592 17.3656 33 19.919 33C28.2185 33 32.756 26.0769 32.756 20.076C32.756 19.8752 32.7491 19.6814 32.7395 19.4889C33.6346 18.8492 34.3867 18.0503 35 17.1309Z" fill="#00151D"/>
</svg>
