<svg width="48" height="48" viewBox="0 0 48 48" fill="none" xmlns="http://www.w3.org/2000/svg">
<path fill-rule="evenodd" clip-rule="evenodd" d="M24 12C30.617 12 36 16.551 36 22.1448C36 24.3823 35.167 26.399 33.427 28.3854H33.428C30.911 31.4042 25.281 35.0802 24 35.6427C22.7525 36.1905 22.8991 35.3316 22.9566 34.9948C22.9581 34.9857 22.9596 34.977 22.961 34.9688L23.132 33.899C23.172 33.5802 23.214 33.0844 23.092 32.7688C22.959 32.4198 22.426 32.2396 22.036 32.1521C16.269 31.3583 12 27.1583 12 22.1448C12 16.551 17.383 12 24 12ZM19.7655 25.1302C19.7655 25.2646 19.6615 25.3739 19.5325 25.3739H16.1695C16.1065 25.3739 16.0495 25.3479 16.0075 25.3062C16.0075 25.3051 16.0069 25.3046 16.0062 25.304C16.0056 25.3035 16.005 25.303 16.0045 25.3021L16.0015 25.2989C15.9615 25.2552 15.9355 25.1969 15.9355 25.1302V19.6844C15.9355 19.55 16.0405 19.4406 16.1695 19.4406H17.0105C17.1405 19.4406 17.2455 19.55 17.2455 19.6844V24.0104H19.5325C19.6615 24.0104 19.7655 24.1198 19.7655 24.2531V25.1302ZM21.5613 25.3739C21.6903 25.3739 21.7963 25.2646 21.7963 25.1302V19.6844C21.7963 19.55 21.6903 19.4406 21.5613 19.4406H20.7193C20.5913 19.4406 20.4863 19.55 20.4863 19.6844V25.1302C20.4863 25.2646 20.5913 25.3739 20.7193 25.3739H21.5613ZM27.5893 25.1302C27.5893 25.2646 27.4843 25.3739 27.3553 25.3739H26.5133C26.4933 25.3739 26.4723 25.3708 26.4543 25.3656C26.4537 25.3656 26.4528 25.3656 26.4519 25.3654C26.4513 25.3653 26.4507 25.365 26.4503 25.3646C26.4466 25.3638 26.4428 25.3625 26.4387 25.361L26.4343 25.3594L26.4307 25.3579L26.4273 25.3562C26.4259 25.3558 26.4242 25.355 26.4225 25.3542L26.4163 25.351C26.4141 25.3505 26.4119 25.3496 26.4099 25.3486C26.4082 25.3477 26.4066 25.3468 26.4053 25.3458C26.4023 25.3448 26.4003 25.3437 26.3983 25.3417L26.3833 25.3333C26.3833 25.3333 26.3833 25.3323 26.3823 25.3312C26.3593 25.3156 26.3393 25.2948 26.3223 25.2708L23.9233 21.8958V25.1302C23.9233 25.2646 23.8183 25.3739 23.6893 25.3739H22.8473C22.7183 25.3739 22.6143 25.2646 22.6143 25.1302V19.6844C22.6143 19.55 22.7183 19.4406 22.8473 19.4406H23.6893C23.6908 19.4406 23.692 19.4409 23.6933 19.4411C23.6945 19.4414 23.6958 19.4417 23.6973 19.4417C23.7013 19.4417 23.7053 19.4417 23.7103 19.4427C23.7143 19.4427 23.7173 19.4427 23.7213 19.4437C23.7228 19.4443 23.7245 19.4445 23.7263 19.4448C23.728 19.445 23.7298 19.4453 23.7313 19.4458L23.7453 19.4489C23.7483 19.4489 23.7513 19.45 23.7533 19.451L23.7673 19.4552L23.7701 19.4565L23.7743 19.4583C23.7793 19.4594 23.7843 19.4625 23.7883 19.4646L23.7923 19.4661L23.7963 19.4677L23.7985 19.4693C23.8011 19.4712 23.8042 19.4734 23.8073 19.475C23.8085 19.4754 23.8096 19.4761 23.8107 19.4767L23.8138 19.4785L23.8153 19.4792L23.8273 19.4885C23.8293 19.4896 23.8313 19.4917 23.8333 19.4937C23.8383 19.4969 23.8413 19.5 23.8453 19.5042C23.8473 19.5052 23.8483 19.5062 23.8493 19.5083C23.8543 19.5125 23.8593 19.5177 23.8643 19.5229C23.8643 19.5229 23.8653 19.5239 23.8653 19.525C23.8723 19.5323 23.8783 19.5406 23.8833 19.5489L26.2803 22.9198V19.6844C26.2803 19.55 26.3843 19.4406 26.5133 19.4406H27.3553C27.4843 19.4406 27.5893 19.55 27.5893 19.6844V25.1302ZM32.237 20.5615C32.237 20.6958 32.133 20.8052 32.004 20.8052H29.716V21.726H32.004C32.133 21.726 32.237 21.8344 32.237 21.9698V22.8458C32.237 22.9802 32.133 23.0896 32.004 23.0896H29.716V24.0104H32.004C32.133 24.0104 32.237 24.1198 32.237 24.2531V25.1302C32.237 25.2646 32.133 25.374 32.004 25.374H28.641H28.64C28.578 25.374 28.521 25.3479 28.479 25.3052C28.4785 25.3047 28.4778 25.3042 28.477 25.3036L28.4758 25.3028L28.475 25.3021L28.472 25.299C28.432 25.2552 28.407 25.1969 28.407 25.1302V19.6854V19.6844C28.407 19.6198 28.432 19.5604 28.472 19.5167L28.4735 19.5149C28.474 19.5143 28.4745 19.5135 28.475 19.5125C28.476 19.5115 28.477 19.5104 28.478 19.5104C28.52 19.4677 28.578 19.4406 28.64 19.4406H28.641H32.004C32.133 19.4406 32.237 19.55 32.237 19.6854V20.5615Z" fill="#00151D"/>
</svg>
