<svg width="48" height="48" viewBox="0 0 48 48" fill="none" xmlns="http://www.w3.org/2000/svg">
<path fill-rule="evenodd" clip-rule="evenodd" d="M35 15C35.5523 15 36 15.4477 36 16C36 16.5128 35.614 16.9355 35.1166 16.9933L35 17H13C12.4477 17 12 16.5523 12 16C12 15.4872 12.386 15.0645 12.8834 15.0067L13 15H35ZM35 23C35.5523 23 36 23.4477 36 24C36 24.5128 35.614 24.9355 35.1166 24.9933L35 25H13C12.4477 25 12 24.5523 12 24C12 23.4872 12.386 23.0645 12.8834 23.0067L13 23H35ZM36 32C36 31.4477 35.5523 31 35 31H13L12.8834 31.0067C12.386 31.0645 12 31.4872 12 32C12 32.5523 12.4477 33 13 33H35L35.1166 32.9933C35.614 32.9355 36 32.5128 36 32Z" fill="#00151D"/>
</svg>
