<svg width="48" height="48" viewBox="0 0 48 48" fill="none" xmlns="http://www.w3.org/2000/svg">
<path fill-rule="evenodd" clip-rule="evenodd" d="M16.8346 15.4315C16.4423 15.1265 15.8751 15.1542 15.5146 15.5147C15.124 15.9052 15.124 16.5384 15.5146 16.9289L22.5856 24L15.5146 31.071L15.4314 31.1653C15.1264 31.5575 15.1541 32.1248 15.5146 32.4853C15.9051 32.8758 16.5383 32.8758 16.9288 32.4853L23.9999 25.4142L31.0709 32.4853L31.1651 32.5684C31.5574 32.8735 32.1247 32.8457 32.4851 32.4853C32.8757 32.0947 32.8757 31.4616 32.4851 31.071L25.4141 24L32.4851 16.9289L32.5683 16.8347C32.8734 16.4424 32.8456 15.8752 32.4851 15.5147C32.0946 15.1242 31.4614 15.1242 31.0709 15.5147L23.9999 22.5858L16.9288 15.5147L16.8346 15.4315Z" fill="#00151D"/>
</svg>
