<svg width="147" height="88" viewBox="0 0 147 88" fill="none" xmlns="http://www.w3.org/2000/svg">
<rect width="147" height="80" rx="4" fill="#F7F7F7"/>
<g clip-path="url(#clip0_1132_193691)">
<rect width="95" height="34" transform="translate(26.0674 23)" fill="white"/>
<path fill-rule="evenodd" clip-rule="evenodd" d="M73.5674 39.0806C92.1188 39.0806 107.891 44.8456 113.679 52.8785C107.434 45.3787 91.8312 40.064 73.5674 40.064C55.3037 40.064 39.7004 45.381 33.4563 52.8785C39.2435 44.8433 55.0161 39.0806 73.5674 39.0806Z" fill="black"/>
<path fill-rule="evenodd" clip-rule="evenodd" d="M83.3743 28.4951H81.1385L81.6857 27.2475L81.3934 27.1211L80.7886 28.4951H80.7231V28.502H80.6813V31.5557H81.0014V31.5419H81.7599V32.2776L81.6228 32.2233L81.616 32.2402L80.7194 31.8761L80.598 32.1695L81.4972 32.5347L80.1175 35.9552L80.4148 36.0729L81.7599 32.738V36.3694H82.08V32.734L83.4257 36.0704L83.723 35.9527L82.3423 32.5298L83.2442 32.1639L83.1229 31.8705L82.2235 32.2353L82.2177 32.2208L82.08 32.2754V31.5419H82.6738V31.5557H82.9939V28.8122H83.3743V28.4951ZM65.506 29.1385L66.3376 27.2474L66.6311 27.374L66.2451 28.2516H67.3671L67.448 28.0552L67.7444 28.175L67.0408 29.883H67.9913V29.7014H68.3114V33.7615H68.78V34.0786H67.1702L68.7011 36.3878L68.4344 36.5625L66.857 34.1834L65.2775 36.5625L65.0108 36.3878L66.5438 34.0786H64.9574V33.7615H65.5002V29.7014H65.8203V29.883H66.6951L67.2365 28.5687H66.1172V28.5426L65.663 29.5753L65.3856 29.4556H64.5214V32.0429L64.8877 31.6344L65.127 31.845L64.5214 32.5203V36.4936H64.2013V36.4623L63.4136 36.1139L63.5441 35.8244L64.2013 36.1151V32.8772L63.6896 33.4476L63.4503 33.237L64.2013 32.3998V29.4556H63.5866V29.1385H64.2013V27.344H64.5214V29.1385H65.506ZM67.9913 30.2001V33.7615H66.9939V30.2001H67.9913ZM66.6739 30.2001V33.7615H65.8203V30.2001H66.6739ZM67.5553 31.9164C67.5553 31.7924 67.4532 31.6913 67.3279 31.6913C67.2027 31.6913 67.1006 31.7924 67.1006 31.9164C67.1006 32.0405 67.2027 32.1416 67.3279 32.1416C67.4532 32.1416 67.5553 32.0405 67.5553 31.9164ZM78.7886 32.4013H78.0519L78.0283 32.4388L77.9677 32.4013H77.9652V32.3998L77.7567 32.2709L79.3944 29.6716H76.8704V29.3545H78.3569L79.2452 27.3384L79.5385 27.4652L78.7061 29.3545H79.7419V29.6716H79.7383L79.7624 29.6865L78.2517 32.0842H79.6987L79.1844 31.2465L79.4579 31.0817L80.7175 33.1332L80.444 33.298L79.8934 32.4013H79.1087V36.3695H78.7886V33.3196L77.619 34.6246L77.3796 34.414L78.7886 32.842V32.4013ZM81.0014 31.2249H82.6738V30.161H81.0014V31.2249ZM82.6738 28.8122H81.0014V29.8439H82.6738V28.8122ZM79.8185 33.7248C79.8185 33.6007 79.7164 33.4996 79.5912 33.4996C79.4659 33.4996 79.3638 33.6007 79.3638 33.7248C79.3638 33.8489 79.4659 33.95 79.5912 33.95C79.7164 33.95 79.8185 33.8489 79.8185 33.7248ZM70.8861 27.6863H71.2061V28.1436H74.8895V27.6863H75.2096V36.1512H74.8895V34.9954H71.2061V36.1512H70.8861V27.6863ZM71.2061 34.6783H74.8895V31.5236H71.2061V34.6783ZM74.8895 28.4606V31.2065H71.2061V28.4606H74.8895Z" fill="black"/>
<path d="M88.5955 48.6049C88.5955 47.6054 88.9364 46.7667 89.6207 46.0889C90.3049 45.4111 91.1469 45.0733 92.1512 45.0733V45.5834C91.3 45.5834 90.5809 45.8683 89.9964 46.4404C89.4119 47.0126 89.122 47.7341 89.122 48.6072C89.122 49.3517 89.3539 49.9927 89.8155 50.5281C90.2771 51.0635 90.8802 51.4127 91.6247 51.5759V46.8517H92.1512V52.1733C91.1191 52.0676 90.2817 51.7114 89.6369 51.1094C88.9434 50.4569 88.5955 49.6228 88.5955 48.6095V48.6049ZM86.153 52.1756V46.7598L84.6384 45.866V52.1756H84.1119V44.9492L86.153 46.1739V45.0779H86.6795V52.1756H86.153ZM81.347 52.1756V45.0779H81.8735V52.1756H81.347ZM77.165 51.654C77.7819 51.654 78.1925 51.6195 78.4012 51.5483C78.8234 51.4058 79.0345 51.0865 79.0345 50.5902C79.0345 50.2363 78.8976 49.802 78.6216 49.2919C78.3456 48.7818 78.0765 48.2878 77.8098 47.8122C77.5152 47.2447 77.3691 46.7805 77.3691 46.4175C77.3691 45.9694 77.5106 45.6339 77.7935 45.4111C78.0765 45.1882 78.45 45.0756 78.9162 45.0756H79.3035V45.5857C78.8512 45.5857 78.5451 45.6133 78.3804 45.6707C78.058 45.7833 77.8979 46.0223 77.8979 46.383C77.8979 46.7437 78.0417 47.2056 78.327 47.7456C78.5914 48.2143 78.8559 48.683 79.1226 49.1495C79.4172 49.717 79.5633 50.1949 79.5633 50.5856C79.5633 51.0957 79.3847 51.4932 79.0252 51.7781C78.6958 52.04 78.2667 52.171 77.7356 52.171H77.1673V51.6494L77.165 51.654ZM73.412 51.654C74.029 51.654 74.4395 51.6195 74.6483 51.5483C75.0704 51.4058 75.2815 51.0865 75.2815 50.5902C75.2815 50.2363 75.1447 49.802 74.8687 49.2919C74.5926 48.7818 74.3236 48.2878 74.0568 47.8122C73.7622 47.2447 73.6161 46.7805 73.6161 46.4175C73.6161 45.9694 73.7576 45.6339 74.0406 45.4111C74.3236 45.1882 74.697 45.0756 75.1632 45.0756H75.5506V45.5857C75.0983 45.5857 74.7921 45.6133 74.6274 45.6707C74.305 45.7833 74.145 46.0223 74.145 46.383C74.145 46.7437 74.2888 47.2056 74.5741 47.7456C74.8385 48.2143 75.1029 48.683 75.3697 49.1495C75.6642 49.717 75.8104 50.1949 75.8104 50.5856C75.8104 51.0957 75.6318 51.4932 75.2722 51.7781C74.9429 52.04 74.5138 52.171 73.9826 52.171H73.4143V51.6494L73.412 51.654ZM65.0827 48.6325C65.0827 49.4918 65.3912 50.2248 66.0058 50.836C66.6228 51.4472 67.3674 51.7505 68.2395 51.7505C69.1117 51.7505 69.8493 51.4518 70.4686 50.8521C71.0879 50.2524 71.3987 49.5263 71.3987 48.6761C71.3987 47.7685 71.0879 47.0126 70.4639 46.4083C69.84 45.8063 69.0745 45.503 68.1653 45.503C67.321 45.503 66.595 45.8132 65.9896 46.4336C65.3842 47.0539 65.0827 47.7869 65.0827 48.6302V48.6325ZM71.9159 48.644C71.9159 49.6435 71.5587 50.4982 70.842 51.2082C70.1253 51.9182 69.2624 52.2721 68.2534 52.2721C67.2445 52.2721 66.377 51.9251 65.6533 51.2289C64.9296 50.5327 64.5677 49.6825 64.5677 48.6761C64.5677 47.6697 64.9296 46.7575 65.6533 46.0475C66.377 45.3375 67.2653 44.9837 68.3184 44.9837C69.3714 44.9837 70.1717 45.3444 70.8698 46.0636C71.568 46.7828 71.9182 47.6445 71.9182 48.644H71.9159ZM62.3526 47.9317C62.3526 47.286 62.1439 46.7483 61.724 46.3187C61.3042 45.889 60.7707 45.6431 60.1189 45.5788V50.2294C60.7638 50.1582 61.2903 49.9215 61.6985 49.5171C62.1346 49.092 62.3549 48.5636 62.3549 47.9317H62.3526ZM61.9653 52.1779L60.1166 50.6453V52.1779H59.5901V45.0802H59.9867C60.7823 45.0802 61.4619 45.349 62.0279 45.889C62.5939 46.429 62.8768 47.0953 62.8768 47.8903C62.8768 48.5291 62.7006 49.0828 62.3503 49.5516C62.0001 50.0203 61.513 50.3719 60.889 50.6039L62.8003 52.1802H61.963L61.9653 52.1779ZM54.239 48.6348C54.239 47.6192 54.58 46.7736 55.2642 46.0958C55.9485 45.418 56.7951 45.0802 57.8041 45.0802V45.5903C56.9598 45.5903 56.2384 45.8798 55.6446 46.4634C55.0508 47.0448 54.7539 47.7685 54.7539 48.6348C54.7539 49.501 55.0485 50.2133 55.6354 50.7947C56.2222 51.376 56.9459 51.6678 57.8064 51.6678V52.1779C56.8183 52.1779 55.9763 51.8378 55.2828 51.1554C54.5869 50.4753 54.2413 49.6343 54.2413 48.6325L54.239 48.6348Z" fill="black"/>
</g>
<defs>
<clipPath id="clip0_1132_193691">
<rect width="95" height="34" fill="white" transform="translate(26 23)"/>
</clipPath>
</defs>
</svg>
