<svg width="188" height="130" viewBox="0 0 188 130" fill="none" xmlns="http://www.w3.org/2000/svg">
<rect width="188" height="130" rx="4" fill="#F7F7F7"/>
<g clip-path="url(#clip0_1424_241562)">
<rect width="140" height="51" transform="translate(24 39.5)" fill="white"/>
<path fill-rule="evenodd" clip-rule="evenodd" d="M94.0994 63.6211C121.438 63.6211 144.682 72.2686 153.211 84.3179C144.009 73.0682 121.014 65.0962 94.0994 65.0962C67.1844 65.0962 44.1901 73.0717 34.9883 84.3179C43.5167 72.2652 66.7606 63.6211 94.0994 63.6211" fill="#FF9900"/>
<path fill-rule="evenodd" clip-rule="evenodd" d="M108.551 47.7427H105.257L106.063 45.8712L105.632 45.6816L104.741 47.7427H104.644V47.7531H104.583V52.3336H105.055V52.3129H106.172V53.4164L105.97 53.335L105.96 53.3603L104.639 52.8142L104.46 53.2543L105.785 53.802L103.752 58.9328L104.19 59.1093L106.172 54.1071V59.5542H106.644V54.1009L108.627 59.1055L109.065 58.9291L107.031 53.7947L108.36 53.2459L108.181 52.8057L106.856 53.353L106.847 53.3313L106.644 53.413V52.3129H107.519V52.3336H107.991V48.2183H108.551V47.7427ZM82.2193 48.7077L83.4449 45.871L83.8773 46.061L83.3086 47.3774H84.962L85.0813 47.0827L85.518 47.2625L84.4811 49.8245H85.8819V49.5522H86.3536V55.6423H87.0441V56.118H84.6719L86.9279 59.5818L86.5348 59.8437L84.2102 56.2751L81.8826 59.8437L81.4895 59.5818L83.7487 56.118H81.4109V55.6423H82.2107V49.5522H82.6825V49.8245H83.9716L84.7695 47.853H83.12V47.8139L82.4507 49.363L82.0418 49.1834H80.7683V53.0643L81.3082 52.4516L81.6608 52.7675L80.7683 53.7805V59.7403H80.2966V59.6935L79.1357 59.1709L79.3281 58.7366L80.2966 59.1726V54.3158L79.5426 55.1715L79.1899 54.8556L80.2966 53.5997V49.1834H79.3907V48.7077H80.2966V46.016H80.7683V48.7077H82.2193ZM85.8819 50.3001V55.6423H84.4121V50.3001H85.8819ZM83.9404 50.3001V55.6423H82.6825V50.3001H83.9404ZM85.2393 52.8747C85.2393 52.6886 85.0889 52.5369 84.9043 52.5369C84.7197 52.5369 84.5693 52.6886 84.5693 52.8747C84.5693 53.0608 84.7197 53.2124 84.9043 53.2124C85.0889 53.2124 85.2393 53.0608 85.2393 52.8747ZM101.794 53.6019H100.708L100.673 53.6581L100.584 53.6019H100.58V53.5996L100.273 53.4063L102.686 49.5074H98.9668V49.0317H101.157L102.467 46.0076L102.899 46.1979L101.672 49.0317H103.199V49.5074H103.193L103.229 49.5297L101.002 53.1263H103.135L102.377 51.8698L102.78 51.6226L104.636 54.6998L104.233 54.947L103.422 53.6019H102.265V59.5542H101.794V54.9793L100.07 56.9368L99.7173 56.6211L101.794 54.2629V53.6019ZM105.055 51.8373H107.519V50.2415H105.055V51.8373ZM107.519 48.2183H105.055V49.7659H107.519V48.2183ZM103.311 55.5872C103.311 55.401 103.161 55.2494 102.976 55.2494C102.792 55.2494 102.641 55.401 102.641 55.5872C102.641 55.7733 102.792 55.9249 102.976 55.9249C103.161 55.9249 103.311 55.7733 103.311 55.5872ZM90.1478 46.5295H90.6195V47.2153H96.0477V46.5295H96.5194V59.2268H96.0477V57.4931H90.6195V59.2268H90.1478V46.5295ZM90.6195 57.0175V52.2853H96.0477V57.0175H90.6195ZM96.0477 47.691V51.8097H90.6195V47.691H96.0477Z" fill="black"/>
<path d="M116.246 77.9074C116.246 76.4081 116.748 75.1501 117.757 74.1333C118.765 73.1166 120.006 72.6099 121.486 72.6099V73.3751C120.232 73.3751 119.172 73.8025 118.311 74.6607C117.449 75.5189 117.022 76.6011 117.022 77.9108C117.022 79.0275 117.364 79.9891 118.044 80.7922C118.724 81.5952 119.613 82.1191 120.71 82.3638V75.2776H121.486V83.2599C119.965 83.1014 118.731 82.5672 117.781 81.6642C116.759 80.6853 116.246 79.4342 116.246 77.9143V77.9074ZM112.647 83.2634V75.1397L110.415 73.799V83.2634H109.639V72.4238L112.647 74.2609V72.6168H113.423V83.2634H112.647ZM105.564 83.2634V72.6168H106.34V83.2634H105.564ZM99.4011 82.481C100.31 82.481 100.915 82.4293 101.223 82.3225C101.845 82.1088 102.156 81.6297 102.156 80.8852C102.156 80.3545 101.954 79.703 101.548 78.9379C101.141 78.1728 100.744 77.4317 100.351 76.7183C99.9172 75.867 99.7019 75.1708 99.7019 74.6262C99.7019 73.9541 99.9104 73.4509 100.327 73.1166C100.744 72.7823 101.295 72.6134 101.982 72.6134H102.553V73.3785C101.886 73.3785 101.435 73.4199 101.192 73.5061C100.717 73.6749 100.481 74.0334 100.481 74.5745C100.481 75.1156 100.693 75.8084 101.114 76.6183C101.503 77.3214 101.893 78.0246 102.286 78.7242C102.72 79.5755 102.936 80.2924 102.936 80.8783C102.936 81.6435 102.672 82.2397 102.142 82.6671C101.657 83.06 101.025 83.2565 100.242 83.2565H99.4045V82.4741L99.4011 82.481ZM93.8704 82.481C94.7797 82.481 95.3847 82.4293 95.6923 82.3225C96.3144 82.1088 96.6255 81.6297 96.6255 80.8852C96.6255 80.3545 96.4238 79.703 96.017 78.9379C95.6103 78.1728 95.2138 77.4317 94.8207 76.7183C94.3866 75.867 94.1712 75.1708 94.1712 74.6262C94.1712 73.9541 94.3797 73.4509 94.7967 73.1166C95.2138 72.7823 95.7641 72.6134 96.4512 72.6134H97.022V73.3785C96.3554 73.3785 95.9042 73.4199 95.6616 73.5061C95.1864 73.6749 94.9506 74.0334 94.9506 74.5745C94.9506 75.1156 95.1625 75.8084 95.5829 76.6183C95.9726 77.3214 96.3623 78.0246 96.7554 78.7242C97.1895 79.5755 97.4048 80.2924 97.4048 80.8783C97.4048 81.6435 97.1416 82.2397 96.6118 82.6671C96.1264 83.06 95.4941 83.2565 94.7113 83.2565H93.8738V82.4741L93.8704 82.481ZM81.5956 77.9487C81.5956 79.2378 82.0502 80.3372 82.9561 81.254C83.8653 82.1708 84.9626 82.6258 86.2478 82.6258C87.533 82.6258 88.62 82.1777 89.5327 81.2781C90.4454 80.3786 90.9034 79.2895 90.9034 78.0142C90.9034 76.6528 90.4454 75.5189 89.5259 74.6124C88.6064 73.7094 87.4784 73.2545 86.1384 73.2545C84.8942 73.2545 83.8243 73.7197 82.9321 74.6503C82.04 75.5809 81.5956 76.6804 81.5956 77.9453V77.9487ZM91.6657 77.966C91.6657 79.4652 91.1393 80.7474 90.083 81.8124C89.0268 82.8774 87.7552 83.4081 86.2683 83.4081C84.7814 83.4081 83.503 82.8877 82.4365 81.8434C81.37 80.7991 80.8368 79.5238 80.8368 78.0142C80.8368 76.5046 81.37 75.1363 82.4365 74.0713C83.503 73.0063 84.8122 72.4755 86.364 72.4755C87.9159 72.4755 89.0952 73.0166 90.1241 74.0954C91.1529 75.1742 91.6691 76.4667 91.6691 77.966H91.6657ZM77.5724 76.8975C77.5724 75.929 77.2647 75.1225 76.646 74.478C76.0274 73.8335 75.2412 73.4647 74.2806 73.3682V80.3441C75.2309 80.2373 76.0068 79.8823 76.6084 79.2757C77.2511 78.638 77.5758 77.8453 77.5758 76.8975H77.5724ZM77.0015 83.2668L74.2772 80.9679V83.2668H73.5013V72.6203H74.0858C75.2583 72.6203 76.2598 73.0235 77.0938 73.8335C77.9279 74.6434 78.3449 75.643 78.3449 76.8355C78.3449 77.7936 78.0851 78.6243 77.569 79.3274C77.0528 80.0305 76.335 80.5578 75.4155 80.9059L78.2321 83.2703H76.9981L77.0015 83.2668ZM65.6155 77.9522C65.6155 76.4288 66.118 75.1604 67.1263 74.1437C68.1347 73.1269 69.3823 72.6203 70.8693 72.6203V73.3854C69.625 73.3854 68.562 73.8197 67.6869 74.6951C66.8119 75.5671 66.3743 76.6528 66.3743 77.9522C66.3743 79.2515 66.8084 80.32 67.6732 81.192C68.538 82.064 69.6045 82.5017 70.8727 82.5017V83.2668C69.4165 83.2668 68.1757 82.7567 67.1537 81.7331C66.1282 80.7129 65.6189 79.4514 65.6189 77.9487L65.6155 77.9522Z" fill="black"/>
</g>
<defs>
<clipPath id="clip0_1424_241562">
<rect width="140" height="51" fill="white" transform="translate(24 39.5)"/>
</clipPath>
</defs>
</svg>
