<svg width="147" height="88" viewBox="0 0 147 88" fill="none" xmlns="http://www.w3.org/2000/svg">
<rect width="147" height="80" rx="4" fill="#F7F7F7"/>
<g clip-path="url(#clip0_1132_193711)">
<path fill-rule="evenodd" clip-rule="evenodd" d="M73.5 38.7866C96.8562 38.7866 116.714 46.3964 124 56.9998C116.139 47.1001 96.4941 40.0847 73.5 40.0847C50.5059 40.0847 30.8613 47.1031 23 56.9998C30.286 46.3934 50.1438 38.7866 73.5 38.7866Z" fill="#FF9900"/>
<path fill-rule="evenodd" clip-rule="evenodd" d="M85.8469 24.8137H83.032L83.7209 23.1668L83.353 23L82.5915 24.8137H82.509V24.8228H82.4564V28.8537H82.8594V28.8355H83.8144V29.8066L83.6418 29.735L83.6332 29.7572L82.5044 29.2766L82.3516 29.6639L83.4837 30.1459L81.7466 34.661L82.1209 34.8163L83.8144 30.4144V35.2078H84.2174V30.409L85.9116 34.813L86.2859 34.6577L84.5476 30.1395L85.6831 29.6565L85.5304 29.2692L84.3981 29.7508L84.3908 29.7317L84.2174 29.8036V28.8355H84.9649V28.8537H85.3679V25.2323H85.8469V24.8137ZM63.3506 25.663L64.3977 23.1667L64.7672 23.3338L64.2813 24.4922H65.6938L65.7957 24.233L66.1688 24.3911L65.283 26.6457H66.4797V26.406H66.8827V31.7654H67.4726V32.184H65.446L67.3733 35.2321L67.0375 35.4626L65.0516 32.3222L63.063 35.4626L62.7272 35.2321L64.6573 32.184H62.66V31.7654H63.3434V26.406H63.7464V26.6457H64.8477L65.5294 24.9108H64.1201V24.8764L63.5483 26.2396L63.1991 26.0815H62.111V29.4968L62.5723 28.9576L62.8735 29.2356L62.111 30.127V35.3716H61.708V35.3304L60.7163 34.8705L60.8806 34.4883L61.708 34.872V30.5981L61.0639 31.3511L60.7626 31.0731L61.708 29.9679V26.0815H60.9342V25.663H61.708V23.2942H62.111V25.663H63.3506ZM66.4797 27.0642V31.7654H65.224V27.0642H66.4797ZM64.821 27.0642V31.7654H63.7464V27.0642H64.821ZM65.9307 29.3299C65.9307 29.1661 65.8022 29.0326 65.6445 29.0326C65.4868 29.0326 65.3583 29.1661 65.3583 29.3299C65.3583 29.4936 65.4868 29.6271 65.6445 29.6271C65.8022 29.6271 65.9307 29.4936 65.9307 29.3299ZM80.0735 29.9699H79.146L79.1163 30.0193L79.0399 29.9699H79.0368V29.9678L78.7744 29.7977L80.8363 26.3666H77.6585V25.9481H79.5299L80.6483 23.2868L81.0177 23.4543L79.9697 25.9481H81.2737V26.3666H81.2692L81.2995 26.3863L79.3975 29.5513H81.2194L80.5718 28.4456L80.9161 28.2281L82.502 30.936L82.1577 31.1535L81.4645 29.9699H80.4765V35.2078H80.0735V31.182L78.601 32.9046L78.2996 32.6267L80.0735 30.5515V29.9699ZM82.8594 28.417H84.9649V27.0127H82.8594V28.417ZM84.9649 25.2323H82.8594V26.5941H84.9649V25.2323ZM81.3701 31.7169C81.3701 31.5531 81.2416 31.4196 81.0839 31.4196C80.9262 31.4196 80.7977 31.5531 80.7977 31.7169C80.7977 31.8806 80.9262 32.0141 81.0839 32.0141C81.2416 32.0141 81.3701 31.8806 81.3701 31.7169ZM70.1242 23.7461H70.5272V24.3497H75.1646V23.7461H75.5676V34.9197H75.1646V33.3941H70.5272V34.9197H70.1242V23.7461ZM70.5272 32.9756V28.8113H75.1646V32.9756H70.5272ZM75.1646 24.7682V28.3927H70.5272V24.7682H75.1646Z" fill="black"/>
<path d="M92.4204 51.3587C92.4204 50.0394 92.8497 48.9323 93.7111 48.0376C94.5726 47.1428 95.6327 46.697 96.8971 46.697V47.3703C95.8254 47.3703 94.9201 47.7464 94.1842 48.5016C93.4483 49.2568 93.0833 50.2092 93.0833 51.3618C93.0833 52.3444 93.3753 53.1907 93.9564 53.8973C94.5376 54.604 95.2968 55.0651 96.2342 55.2804V49.0445H96.8971V56.069C95.5976 55.9295 94.5434 55.4593 93.7316 54.6647C92.8584 53.8033 92.4204 52.7023 92.4204 51.3648V51.3587ZM89.3453 56.072V48.9232L87.4384 47.7434V56.072H86.7755V46.5332L89.3453 48.1498V46.7031H90.0082V56.072H89.3453ZM83.2946 56.072V46.7031H83.9575V56.072H83.2946ZM78.0293 55.3835C78.8061 55.3835 79.323 55.338 79.5858 55.244C80.1173 55.056 80.3831 54.6344 80.3831 53.9792C80.3831 53.5122 80.2108 52.9389 79.8633 52.2656C79.5158 51.5923 79.177 50.9402 78.8412 50.3123C78.4703 49.5632 78.2863 48.9505 78.2863 48.4713C78.2863 47.8799 78.4645 47.437 78.8207 47.1428C79.177 46.8486 79.6472 46.7 80.2341 46.7H80.7218V47.3733C80.1524 47.3733 79.7669 47.4097 79.5596 47.4856C79.1537 47.6342 78.9522 47.9496 78.9522 48.4258C78.9522 48.902 79.1332 49.5116 79.4924 50.2244C79.8253 50.8431 80.1582 51.4618 80.494 52.0775C80.8649 52.8267 81.0489 53.4576 81.0489 53.9732C81.0489 54.6465 80.824 55.1712 80.3714 55.5473C79.9567 55.8931 79.4165 56.0659 78.7477 56.0659H78.0323V55.3775L78.0293 55.3835ZM73.3044 55.3835C74.0812 55.3835 74.598 55.338 74.8609 55.244C75.3924 55.056 75.6581 54.6344 75.6581 53.9792C75.6581 53.5122 75.4858 52.9389 75.1383 52.2656C74.7908 51.5923 74.452 50.9402 74.1162 50.3123C73.7453 49.5632 73.5614 48.9505 73.5614 48.4713C73.5614 47.8799 73.7395 47.437 74.0958 47.1428C74.452 46.8486 74.9222 46.7 75.5092 46.7H75.9968V47.3733C75.4274 47.3733 75.0419 47.4097 74.8346 47.4856C74.4287 47.6342 74.2272 47.9496 74.2272 48.4258C74.2272 48.902 74.4082 49.5116 74.7674 50.2244C75.1003 50.8431 75.4332 51.4618 75.7691 52.0775C76.1399 52.8267 76.3239 53.4576 76.3239 53.9732C76.3239 54.6465 76.0991 55.1712 75.6464 55.5473C75.2317 55.8931 74.6915 56.0659 74.0228 56.0659H73.3073V55.3775L73.3044 55.3835ZM59.3806 50.47C59.3806 49.6178 59.1178 48.908 58.5892 48.3409C58.0606 47.7737 57.389 47.4492 56.5684 47.3642V53.5031C57.3802 53.409 58.0431 53.0966 58.5571 52.5628C59.1061 52.0017 59.3835 51.3041 59.3835 50.47H59.3806ZM58.8929 56.075L56.5655 54.052V56.075H55.9026V46.7061H56.4019C57.4036 46.7061 58.2592 47.0609 58.9718 47.7737C59.6843 48.4865 60.0406 49.366 60.0406 50.4155C60.0406 51.2586 59.8186 51.9896 59.3777 52.6083C58.9367 53.2271 58.3235 53.6911 57.5379 53.9974L59.9442 56.0781H58.89L58.8929 56.075ZM49.1655 51.3981C49.1655 50.0576 49.5948 48.9414 50.4563 48.0467C51.3178 47.1519 52.3836 46.7061 53.654 46.7061V47.3794C52.591 47.3794 51.6828 47.7616 50.9352 48.532C50.1876 49.2993 49.8138 50.2547 49.8138 51.3981C49.8138 52.5416 50.1847 53.4818 50.9235 54.2492C51.6623 55.0165 52.5735 55.4017 53.6569 55.4017V56.075C52.4129 56.075 51.3528 55.6262 50.4796 54.7254C49.6036 53.8276 49.1684 52.7175 49.1684 51.3951L49.1655 51.3981Z" fill="black"/>
<path d="M62.8177 51.395C62.8177 52.5294 63.2061 53.4969 63.98 54.3037C64.7568 55.1105 65.6942 55.5108 66.7922 55.5108C67.8902 55.5108 68.8189 55.1165 69.5986 54.3249C70.3783 53.5333 70.7696 52.5749 70.7696 51.4527C70.7696 50.2546 70.3783 49.2568 69.5927 48.4591C68.8072 47.6644 67.8435 47.2641 66.6988 47.2641C65.6358 47.2641 64.7217 47.6735 63.9596 48.4924C63.1974 49.3114 62.8177 50.2789 62.8177 51.392V51.395ZM71.4208 51.4102C71.4208 52.7296 70.9711 53.8578 70.0687 54.795C69.1664 55.7322 68.08 56.1993 66.8097 56.1993C65.5394 56.1993 64.4472 55.7413 63.5361 54.8223C62.625 53.9033 62.1694 52.7811 62.1694 51.4527C62.1694 50.1242 62.625 48.9201 63.5361 47.9829C64.4472 47.0457 65.5657 46.5786 66.8915 46.5786C68.2173 46.5786 69.2248 47.0548 70.1038 48.0041C70.9828 48.9535 71.4237 50.0908 71.4237 51.4102H71.4208Z" fill="black"/>
</g>
<defs>
<clipPath id="clip0_1132_193711">
<rect width="101" height="34" fill="white" transform="translate(23 23)"/>
</clipPath>
</defs>
</svg>
