<svg width="147" height="88" viewBox="0 0 147 88" fill="none" xmlns="http://www.w3.org/2000/svg">
<rect width="147" height="80" rx="4" fill="#F7F7F7"/>
<rect width="34" height="34" transform="translate(56.5 23)" fill="black"/>
<g clip-path="url(#clip0_1132_193733)">
<rect width="34" height="12.41" transform="translate(56.5242 33.8799)" fill="black"/>
<path fill-rule="evenodd" clip-rule="evenodd" d="M73.5243 39.749C80.1637 39.749 85.8086 41.8533 87.8798 44.7853C85.6451 42.0478 80.0608 40.108 73.5243 40.108C66.9878 40.108 61.4034 42.0487 59.1687 44.7853C61.2399 41.8524 66.8848 39.749 73.5243 39.749Z" fill="#FF9900"/>
<path fill-rule="evenodd" clip-rule="evenodd" d="M77.034 35.8853H76.2338L76.4296 35.4299L76.325 35.3838L76.1086 35.8853H76.0851V35.8878H76.0702V37.0024H76.1847V36.9974H76.4562V37.2659L76.4071 37.2461L76.4047 37.2523L76.0838 37.1194L76.0404 37.2265L76.3622 37.3597L75.8684 38.6082L75.9748 38.6512L76.4562 37.434V38.7594H76.5707V37.4325L77.0524 38.6503L77.1588 38.6073L76.6646 37.358L76.9874 37.2244L76.944 37.1173L76.6221 37.2505L76.62 37.2452L76.5707 37.2651V36.9974H76.7833V37.0024H76.8978V36.001H77.034V35.8853ZM70.639 36.1201L70.9366 35.4299L71.0417 35.4761L70.9035 35.7964H71.3051L71.3341 35.7247L71.4401 35.7685L71.1883 36.3919H71.5285V36.3256H71.643V37.8076H71.8107V37.9233H71.2346L71.7825 38.7662L71.687 38.8299L71.1225 37.9615L70.5572 38.8299L70.4618 38.7662L71.0104 37.9233H70.4427V37.8076H70.6369V36.3256H70.7515V36.3919H71.0646L71.2583 35.9122H70.8577V35.9026L70.6952 36.2796L70.5959 36.2359H70.2866V37.1802L70.4177 37.0312L70.5034 37.108L70.2866 37.3545V38.8047H70.172V38.7933L69.8901 38.6662L69.9368 38.5605L70.172 38.6666V37.4848L69.9889 37.693L69.9033 37.6161L70.172 37.3105V36.2359H69.9521V36.1201H70.172V35.4651H70.2866V36.1201H70.639ZM71.5285 36.5076V37.8076H71.1715V36.5076H71.5285ZM71.057 36.5076V37.8076H70.7515V36.5076H71.057ZM71.3724 37.1341C71.3724 37.0888 71.3359 37.0519 71.2911 37.0519C71.2462 37.0519 71.2097 37.0888 71.2097 37.1341C71.2097 37.1794 71.2462 37.2163 71.2911 37.2163C71.3359 37.2163 71.3724 37.1794 71.3724 37.1341ZM75.3928 37.3111H75.1291L75.1207 37.3247L75.099 37.3111H75.0981V37.3105L75.0235 37.2635L75.6096 36.3147H74.7063V36.199H75.2383L75.5562 35.4631L75.6612 35.5094L75.3633 36.199H75.734V36.3147H75.7327L75.7413 36.3201L75.2006 37.1953H75.7185L75.5344 36.8896L75.6323 36.8294L76.0831 37.5782L75.9852 37.6384L75.7882 37.3111H75.5073V38.7594H75.3928V37.6462L74.9742 38.1226L74.8885 38.0457L75.3928 37.4719V37.3111ZM76.1847 36.8817H76.7833V36.4934H76.1847V36.8817ZM76.7833 36.001H76.1847V36.3776H76.7833V36.001ZM75.7614 37.7941C75.7614 37.7488 75.7248 37.7119 75.68 37.7119C75.6352 37.7119 75.5987 37.7488 75.5987 37.7941C75.5987 37.8394 75.6352 37.8763 75.68 37.8763C75.7248 37.8763 75.7614 37.8394 75.7614 37.7941ZM72.5645 35.5901H72.6791V35.757H73.9973V35.5901H74.1119V38.6798H73.9973V38.2579H72.6791V38.6798H72.5645V35.5901ZM72.6791 38.1422V36.9907H73.9973V38.1422H72.6791ZM73.9973 35.8727V36.875H72.6791V35.8727H73.9973Z" fill="white"/>
<path d="M78.9027 43.225C78.9027 42.8601 79.0247 42.554 79.2696 42.3066C79.5145 42.0592 79.8158 41.9359 80.1753 41.9359V42.1221C79.8706 42.1221 79.6133 42.2261 79.4041 42.4349C79.1949 42.6438 79.0911 42.9071 79.0911 43.2258C79.0911 43.4975 79.1741 43.7315 79.3393 43.9269C79.5045 44.1223 79.7204 44.2498 79.9868 44.3094V42.585H80.1753V44.5274C79.8059 44.4888 79.5062 44.3588 79.2754 44.1391C79.0272 43.9009 78.9027 43.5965 78.9027 43.2266V43.225ZM78.0285 44.5282V42.5515L77.4865 42.2253V44.5282H77.298V41.8906L78.0285 42.3376V41.9376H78.217V44.5282H78.0285ZM76.3085 44.5282V41.9376H76.4969V44.5282H76.3085ZM74.8118 44.3379C75.0326 44.3379 75.1795 44.3253 75.2542 44.2993C75.4053 44.2473 75.4809 44.1307 75.4809 43.9496C75.4809 43.8204 75.4319 43.6619 75.3331 43.4757C75.2343 43.2895 75.138 43.1092 75.0425 42.9356C74.9371 42.7285 74.8848 42.559 74.8848 42.4265C74.8848 42.263 74.9355 42.1405 75.0367 42.0592C75.138 41.9778 75.2717 41.9368 75.4385 41.9368H75.5771V42.1229C75.4153 42.1229 75.3057 42.133 75.2468 42.154C75.1314 42.1951 75.0741 42.2823 75.0741 42.414C75.0741 42.5456 75.1256 42.7142 75.2277 42.9113C75.3223 43.0824 75.4169 43.2535 75.5124 43.4237C75.6178 43.6309 75.6701 43.8053 75.6701 43.9479C75.6701 44.1341 75.6062 44.2792 75.4775 44.3832C75.3597 44.4788 75.2061 44.5266 75.016 44.5266H74.8126V44.3362L74.8118 44.3379ZM73.4686 44.3379C73.6894 44.3379 73.8364 44.3253 73.9111 44.2993C74.0621 44.2473 74.1377 44.1307 74.1377 43.9496C74.1377 43.8204 74.0887 43.6619 73.9899 43.4757C73.8911 43.2895 73.7948 43.1092 73.6994 42.9356C73.594 42.7285 73.5417 42.559 73.5417 42.4265C73.5417 42.263 73.5923 42.1405 73.6936 42.0592C73.7948 41.9778 73.9285 41.9368 74.0954 41.9368H74.234V42.1229C74.0721 42.1229 73.9625 42.133 73.9036 42.154C73.7882 42.1951 73.7309 42.2823 73.7309 42.414C73.7309 42.5456 73.7824 42.7142 73.8845 42.9113C73.9791 43.0824 74.0738 43.2535 74.1692 43.4237C74.2747 43.6309 74.327 43.8053 74.327 43.9479C74.327 44.1341 74.263 44.2792 74.1344 44.3832C74.0165 44.4788 73.8629 44.5266 73.6728 44.5266H73.4694V44.3362L73.4686 44.3379ZM69.5105 42.9792C69.5105 42.7436 69.4358 42.5473 69.2855 42.3905C69.1353 42.2336 68.9444 42.1439 68.7111 42.1204V43.8179C68.9419 43.7919 69.1303 43.7055 69.2764 43.5579C69.4325 43.4028 69.5113 43.2099 69.5113 42.9792H69.5105ZM69.3719 44.5291L68.7103 43.9697V44.5291H68.5218V41.9384H68.6638C68.9485 41.9384 69.1917 42.0366 69.3943 42.2336C69.5968 42.4307 69.6981 42.6739 69.6981 42.9641C69.6981 43.1973 69.635 43.3994 69.5097 43.5705C69.3843 43.7416 69.21 43.8699 68.9867 43.9546L69.6707 44.5299H69.371L69.3719 44.5291ZM66.6067 43.2359C66.6067 42.8652 66.7287 42.5565 66.9736 42.3091C67.2185 42.0617 67.5215 41.9384 67.8826 41.9384V42.1246C67.5804 42.1246 67.3223 42.2303 67.1098 42.4433C66.8972 42.6555 66.791 42.9197 66.791 43.2359C66.791 43.552 66.8964 43.812 67.1064 44.0242C67.3165 44.2364 67.5755 44.3429 67.8834 44.3429V44.5291C67.5298 44.5291 67.2285 44.405 66.9803 44.1559C66.7312 43.9076 66.6075 43.6007 66.6075 43.235L66.6067 43.2359Z" fill="white"/>
<path d="M70.4875 43.2351C70.4875 43.5488 70.5979 43.8163 70.8179 44.0394C71.0387 44.2625 71.3052 44.3732 71.6173 44.3732C71.9295 44.3732 72.1934 44.2642 72.4151 44.0453C72.6367 43.8264 72.748 43.5614 72.748 43.2511C72.748 42.9198 72.6367 42.6439 72.4134 42.4233C72.1901 42.2036 71.9162 42.0929 71.5908 42.0929C71.2886 42.0929 71.0288 42.2061 70.8121 42.4325C70.5954 42.659 70.4875 42.9265 70.4875 43.2343V43.2351ZM72.9331 43.2393C72.9331 43.6041 72.8053 43.9161 72.5487 44.1753C72.2922 44.4344 71.9834 44.5636 71.6223 44.5636C71.2612 44.5636 70.9507 44.437 70.6917 44.1828C70.4327 43.9287 70.3032 43.6184 70.3032 43.2511C70.3032 42.8837 70.4327 42.5508 70.6917 42.2916C70.9507 42.0325 71.2687 41.9033 71.6456 41.9033C72.0224 41.9033 72.3088 42.035 72.5587 42.2975C72.8086 42.56 72.9339 42.8745 72.9339 43.2393H72.9331Z" fill="white"/>
</g>
<defs>
<clipPath id="clip0_1132_193733">
<rect width="34" height="12.41" fill="white" transform="translate(56.5 33.8799)"/>
</clipPath>
</defs>
</svg>
