<svg width="147" height="88" viewBox="0 0 147 88" fill="none" xmlns="http://www.w3.org/2000/svg">
<rect width="147" height="80" rx="4" fill="#F7F7F7"/>
<g clip-path="url(#clip0_1132_193701)">
<rect width="93" height="34" transform="translate(27 23)" fill="white"/>
<path fill-rule="evenodd" clip-rule="evenodd" d="M73.566 39.0806C91.7268 39.0806 107.167 44.8456 112.833 52.8785C106.72 45.3787 91.4452 40.064 73.566 40.064C55.6867 40.064 40.412 45.381 34.2993 52.8785C39.9646 44.8433 55.4052 39.0806 73.566 39.0806Z" fill="#FF9900"/>
<path fill-rule="evenodd" clip-rule="evenodd" d="M83.1664 28.4951H80.9777L81.5134 27.2475L81.2273 27.1211L80.6352 28.4951H80.5711V28.502H80.5302V31.5557H80.8435V31.5419H81.586V32.2776L81.4518 32.2233L81.4452 32.2402L80.5675 31.8761L80.4486 32.1695L81.3289 32.5347L79.9783 35.9552L80.2692 36.0729L81.586 32.738V36.3694H81.8994V32.734L83.2168 36.0704L83.5078 35.9527L82.1562 32.5298L83.0391 32.1639L82.9204 31.8705L82.0399 32.2353L82.0342 32.2208L81.8994 32.2754V31.5419H82.4807V31.5557H82.794V28.8122H83.1664V28.4951ZM65.6743 29.1385L66.4885 27.2474L66.7757 27.374L66.3979 28.2516H67.4963L67.5755 28.0552L67.8656 28.175L67.1768 29.883H68.1074V29.7014H68.4207V33.7615H68.8794V34.0786H67.3036L68.8022 36.3878L68.5411 36.5625L66.9969 34.1834L65.4507 36.5625L65.1895 36.3878L66.6903 34.0786H65.1373V33.7615H65.6687V29.7014H65.982V29.883H66.8384L67.3684 28.5687H66.2727V28.5426L65.8281 29.5753L65.5565 29.4556H64.7104V32.0429L65.0691 31.6344L65.3033 31.845L64.7104 32.5203V36.4936H64.3971V36.4623L63.626 36.1139L63.7537 35.8244L64.3971 36.1151V32.8772L63.8962 33.4476L63.662 33.237L64.3971 32.3998V29.4556H63.7954V29.1385H64.3971V27.344H64.7104V29.1385H65.6743ZM68.1074 30.2001V33.7615H67.131V30.2001H68.1074ZM66.8176 30.2001V33.7615H65.982V30.2001H66.8176ZM67.6805 31.9164C67.6805 31.7924 67.5806 31.6913 67.4579 31.6913C67.3353 31.6913 67.2354 31.7924 67.2354 31.9164C67.2354 32.0405 67.3353 32.1416 67.4579 32.1416C67.5806 32.1416 67.6805 32.0405 67.6805 31.9164ZM78.6773 32.4013H77.9561L77.933 32.4388L77.8737 32.4013H77.8712V32.3997L77.6672 32.2709L79.2704 29.6716H76.7995V29.3545H78.2547L79.1243 27.3384L79.4115 27.4652L78.5966 29.3545H79.6106V29.6716H79.6071L79.6306 29.6865L78.1517 32.0842H79.5683L79.0648 31.2465L79.3325 31.0817L80.5656 33.1332L80.2979 33.298L79.7589 32.4013H78.9907V36.3695H78.6773V33.3195L77.5323 34.6246L77.298 34.414L78.6773 32.842V32.4013ZM80.8435 31.2249H82.4807V30.161H80.8435V31.2249ZM82.4807 28.8122H80.8435V29.8439H82.4807V28.8122ZM79.6855 33.7248C79.6855 33.6007 79.5856 33.4996 79.463 33.4996C79.3404 33.4996 79.2404 33.6007 79.2404 33.7248C79.2404 33.8489 79.3404 33.95 79.463 33.95C79.5856 33.95 79.6855 33.8489 79.6855 33.7248ZM70.9412 27.6863H71.2545V28.1436H74.8603V27.6863H75.1737V36.1512H74.8603V34.9954H71.2545V36.1512H70.9412V27.6863ZM71.2545 34.6783V31.5236H74.8603V34.6783H71.2545ZM74.8603 28.4606V31.2065H71.2545V28.4606H74.8603Z" fill="black"/>
<path d="M88.2777 48.6049C88.2777 47.6054 88.6115 46.7667 89.2813 46.0889C89.9512 45.4111 90.7754 45.0733 91.7586 45.0733V45.5834C90.9253 45.5834 90.2214 45.8683 89.6492 46.4404C89.0769 47.0126 88.7931 47.7341 88.7931 48.6072C88.7931 49.3517 89.0202 49.9927 89.472 50.5281C89.9239 51.0635 90.5143 51.4127 91.2432 51.5759V46.8517H91.7586V52.1733C90.7482 52.0676 89.9284 51.7114 89.2972 51.1094C88.6183 50.4569 88.2777 49.6228 88.2777 48.6095V48.6049ZM85.8867 52.1756V46.7598L84.4039 45.866V52.1756H83.8885V44.9492L85.8867 46.1739V45.0779H86.4021V52.1756H85.8867ZM81.1818 52.1756V45.0779H81.6973V52.1756H81.1818ZM77.0878 51.654C77.6918 51.654 78.0937 51.6195 78.2981 51.5483C78.7113 51.4058 78.918 51.0865 78.918 50.5902C78.918 50.2363 78.784 49.802 78.5138 49.2919C78.2436 48.7818 77.9802 48.2878 77.7191 47.8122C77.4307 47.2447 77.2876 46.7805 77.2876 46.4175C77.2876 45.9694 77.4262 45.6339 77.7032 45.4111C77.9802 45.1882 78.3458 45.0756 78.8022 45.0756H79.1814V45.5857C78.7386 45.5857 78.4389 45.6133 78.2777 45.6707C77.962 45.7833 77.8054 46.0223 77.8054 46.383C77.8054 46.7437 77.9461 47.2056 78.2254 47.7456C78.4843 48.2143 78.7431 48.683 79.0043 49.1495C79.2926 49.717 79.4357 50.1949 79.4357 50.5856C79.4357 51.0957 79.2608 51.4932 78.9089 51.7781C78.5865 52.04 78.1664 52.171 77.6464 52.171H77.0901V51.6494L77.0878 51.654ZM73.4139 51.654C74.0179 51.654 74.4198 51.6195 74.6241 51.5483C75.0374 51.4058 75.244 51.0865 75.244 50.5902C75.244 50.2363 75.1101 49.802 74.8399 49.2919C74.5696 48.7818 74.3062 48.2878 74.0451 47.8122C73.7567 47.2447 73.6137 46.7805 73.6137 46.4175C73.6137 45.9694 73.7522 45.6339 74.0292 45.4111C74.3062 45.1882 74.6718 45.0756 75.1282 45.0756H75.5074V45.5857C75.0647 45.5857 74.7649 45.6133 74.6037 45.6707C74.2881 45.7833 74.1314 46.0223 74.1314 46.383C74.1314 46.7437 74.2722 47.2056 74.5515 47.7456C74.8103 48.2143 75.0692 48.683 75.3303 49.1495C75.6187 49.717 75.7617 50.1949 75.7617 50.5856C75.7617 51.0957 75.5869 51.4932 75.235 51.7781C74.9125 52.04 74.4924 52.171 73.9725 52.171H73.4161V51.6494L73.4139 51.654ZM65.2599 48.6325C65.2599 49.4918 65.5619 50.2248 66.1636 50.836C66.7676 51.4472 67.4965 51.7505 68.3503 51.7505C69.2041 51.7505 69.9261 51.4518 70.5324 50.8521C71.1387 50.2524 71.4429 49.5263 71.4429 48.6761C71.4429 47.7685 71.1387 47.0126 70.5279 46.4083C69.917 45.8063 69.1677 45.503 68.2776 45.503C67.4511 45.503 66.7404 45.8132 66.1477 46.4336C65.5551 47.0539 65.2599 47.7869 65.2599 48.6302V48.6325ZM71.9493 48.644C71.9493 49.6435 71.5996 50.4982 70.898 51.2082C70.1963 51.9182 69.3517 52.2721 68.3639 52.2721C67.3762 52.2721 66.5269 51.9251 65.8185 51.2289C65.11 50.5327 64.7558 49.6825 64.7558 48.6761C64.7558 47.6697 65.11 46.7575 65.8185 46.0475C66.5269 45.3375 67.3966 44.9837 68.4275 44.9837C69.4584 44.9837 70.2418 45.3444 70.9252 46.0636C71.6087 46.7828 71.9516 47.6445 71.9516 48.644H71.9493ZM62.5873 47.9317C62.5873 47.286 62.383 46.7483 61.972 46.3187C61.561 45.889 61.0387 45.6431 60.4007 45.5788V50.2294C61.0319 50.1582 61.5474 49.9215 61.947 49.5171C62.3739 49.092 62.5896 48.5636 62.5896 47.9317H62.5873ZM62.2081 52.1779L60.3984 50.6453V52.1779H59.883V45.0802H60.2712C61.0501 45.0802 61.7154 45.349 62.2694 45.889C62.8235 46.429 63.1005 47.0953 63.1005 47.8903C63.1005 48.5291 62.9279 49.0828 62.5851 49.5516C62.2422 50.0203 61.7653 50.3719 61.1545 50.6039L63.0256 52.1802H62.2059L62.2081 52.1779ZM54.6445 48.6348C54.6445 47.6192 54.9783 46.7736 55.6482 46.0958C56.318 45.418 57.1468 45.0802 58.1345 45.0802V45.5903C57.308 45.5903 56.6018 45.8798 56.0206 46.4634C55.4393 47.0448 55.1486 47.7685 55.1486 48.6348C55.1486 49.501 55.437 50.2133 56.0115 50.7947C56.586 51.376 57.2944 51.6678 58.1368 51.6678V52.1779C57.1695 52.1779 56.3453 51.8378 55.6663 51.1554C54.9851 50.4753 54.6468 49.6343 54.6468 48.6325L54.6445 48.6348Z" fill="black"/>
</g>
<defs>
<clipPath id="clip0_1132_193701">
<rect width="93" height="34" fill="white" transform="translate(27 23)"/>
</clipPath>
</defs>
</svg>
