<svg width="147" height="88" viewBox="0 0 147 88" fill="none" xmlns="http://www.w3.org/2000/svg">
<rect width="147" height="80" rx="4" fill="#F7F7F7"/>
<g clip-path="url(#clip0_1132_193721)">
<path fill-rule="evenodd" clip-rule="evenodd" d="M73.5 38.7866C97.0875 38.7866 117.142 46.3964 124.5 56.9998C116.561 47.1001 96.7218 40.0847 73.5 40.0847C50.2782 40.0847 30.4392 47.1031 22.5 56.9998C29.8582 46.3934 49.9125 38.7866 73.5 38.7866Z" fill="black"/>
<path fill-rule="evenodd" clip-rule="evenodd" d="M85.9692 24.8137H83.1265L83.8222 23.1668L83.4506 23L82.6816 24.8137H82.5983V24.8228H82.5452V28.8537H82.9522V28.8355H83.9166V29.8066L83.7423 29.735L83.7336 29.7572L82.5937 29.2766L82.4393 29.6639L83.5826 30.1459L81.8284 34.661L82.2063 34.8163L83.9166 30.4144V35.2078H84.3236V30.409L86.0346 34.813L86.4126 34.6577L84.6571 30.1395L85.8038 29.6565L85.6496 29.2692L84.5061 29.7508L84.4987 29.7317L84.3236 29.8036V28.8355H85.0786V28.8537H85.4855V25.2323H85.9692V24.8137ZM63.2502 25.663L64.3077 23.1667L64.6808 23.3338L64.1901 24.4922H65.6167L65.7195 24.233L66.0964 24.3911L65.2017 26.6457H66.4103V26.406H66.8173V31.7654H67.413V32.184H65.3663L67.3128 35.2321L66.9736 35.4626L64.968 32.3222L62.9598 35.4626L62.6206 35.2321L64.5698 32.184H62.5528V31.7654H63.2429V26.406H63.6499V26.6457H64.7621L65.4506 24.9108H64.0274V24.8764L63.4499 26.2396L63.0972 26.0815H61.9984V29.4968L62.4642 28.9576L62.7684 29.2356L61.9984 30.127V35.3716H61.5914V35.3304L60.5898 34.8705L60.7558 34.4883L61.5914 34.872V30.5981L60.9408 31.3511L60.6366 31.0731L61.5914 29.9679V26.0815H60.8098V25.663H61.5914V23.2942H61.9984V25.663H63.2502ZM66.4103 27.0642V31.7654H65.1422V27.0642H66.4103ZM64.7352 27.0642V31.7654H63.6499V27.0642H64.7352ZM65.8559 29.3299C65.8559 29.1661 65.7261 29.0326 65.5668 29.0326C65.4076 29.0326 65.2778 29.1661 65.2778 29.3299C65.2778 29.4936 65.4076 29.6271 65.5668 29.6271C65.7261 29.6271 65.8559 29.4936 65.8559 29.3299ZM80.1387 29.9699H79.202L79.172 30.0193L79.0949 29.9699H79.0917V29.9678L78.8267 29.7977L80.909 26.3666H77.6997V25.9481H79.5898L80.7192 23.2868L81.0922 23.4543L80.0338 25.9481H81.3508V26.3666H81.3463L81.3768 26.3863L79.456 29.5513H81.2959L80.642 28.4456L80.9897 28.2281L82.5912 30.936L82.2435 31.1535L81.5435 29.9699H80.5457V35.2078H80.1387V31.182L78.6516 32.9046L78.3472 32.6267L80.1387 30.5515V29.9699ZM82.9522 28.417H85.0786V27.0127H82.9522V28.417ZM85.0786 25.2323H82.9522V26.5941H85.0786V25.2323ZM81.4481 31.7169C81.4481 31.5531 81.3184 31.4196 81.1591 31.4196C80.9999 31.4196 80.8701 31.5531 80.8701 31.7169C80.8701 31.8806 80.9999 32.0141 81.1591 32.0141C81.3184 32.0141 81.4481 31.8806 81.4481 31.7169ZM70.0909 23.7461H70.4979V24.3497H75.1811V23.7461H75.5881V34.9197H75.1811V33.3941H70.4979V34.9197H70.0909V23.7461ZM70.4979 32.9756V28.8113H75.1811V32.9756H70.4979ZM75.1811 24.7682V28.3927H70.4979V24.7682H75.1811Z" fill="black"/>
<path d="M92.6077 51.3587C92.6077 50.0394 93.0412 48.9323 93.9112 48.0376C94.7812 47.1428 95.8518 46.697 97.1287 46.697V47.3703C96.0464 47.3703 95.1322 47.7464 94.389 48.5016C93.6458 49.2568 93.2771 50.2092 93.2771 51.3618C93.2771 52.3444 93.572 53.1907 94.1589 53.8973C94.7458 54.604 95.5126 55.0651 96.4593 55.2804V49.0445H97.1287V56.069C95.8164 55.9295 94.7517 55.4593 93.9318 54.6647C93.05 53.8033 92.6077 52.7023 92.6077 51.3648V51.3587ZM89.5022 56.072V48.9232L87.5764 47.7434V56.072H86.9069V46.5332L89.5022 48.1498V46.7031H90.1717V56.072H89.5022ZM83.3915 56.072V46.7031H84.061V56.072H83.3915ZM78.0742 55.3835C78.8586 55.3835 79.3806 55.338 79.6461 55.244C80.1828 55.056 80.4512 54.6344 80.4512 53.9792C80.4512 53.5122 80.2772 52.9389 79.9262 52.2656C79.5753 51.5923 79.2332 50.9402 78.894 50.3123C78.5195 49.5632 78.3337 48.9505 78.3337 48.4713C78.3337 47.8799 78.5136 47.437 78.8734 47.1428C79.2332 46.8486 79.708 46.7 80.3008 46.7H80.7933V47.3733C80.2182 47.3733 79.8289 47.4097 79.6195 47.4856C79.2096 47.6342 79.0061 47.9496 79.0061 48.4258C79.0061 48.902 79.1889 49.5116 79.5517 50.2244C79.8879 50.8431 80.2241 51.4618 80.5633 52.0775C80.9378 52.8267 81.1236 53.4576 81.1236 53.9732C81.1236 54.6465 80.8965 55.1712 80.4394 55.5473C80.0206 55.8931 79.475 56.0659 78.7997 56.0659H78.0771V55.3775L78.0742 55.3835ZM73.3024 55.3835C74.0869 55.3835 74.6089 55.338 74.8743 55.244C75.4111 55.056 75.6794 54.6344 75.6794 53.9792C75.6794 53.5122 75.5054 52.9389 75.1545 52.2656C74.8035 51.5923 74.4614 50.9402 74.1223 50.3123C73.7477 49.5632 73.5619 48.9505 73.5619 48.4713C73.5619 47.8799 73.7418 47.437 74.1016 47.1428C74.4614 46.8486 74.9362 46.7 75.529 46.7H76.0215V47.3733C75.4464 47.3733 75.0572 47.4097 74.8478 47.4856C74.4378 47.6342 74.2343 47.9496 74.2343 48.4258C74.2343 48.902 74.4172 49.5116 74.7799 50.2244C75.1161 50.8431 75.4523 51.4618 75.7915 52.0775C76.166 52.8267 76.3518 53.4576 76.3518 53.9732C76.3518 54.6465 76.1248 55.1712 75.6676 55.5473C75.2489 55.8931 74.7033 56.0659 74.0279 56.0659H73.3054V55.3775L73.3024 55.3835ZM62.7119 51.3951C62.7119 52.5295 63.1042 53.497 63.8857 54.3038C64.6702 55.1105 65.6169 55.5109 66.7258 55.5109C67.8346 55.5109 68.7725 55.1166 69.5599 54.325C70.3473 53.5334 70.7425 52.575 70.7425 51.4527C70.7425 50.2547 70.3473 49.2568 69.554 48.4592C68.7607 47.6645 67.7875 47.2642 66.6314 47.2642C65.5579 47.2642 64.6348 47.6736 63.8651 48.4925C63.0953 49.3114 62.7119 50.279 62.7119 51.3921V51.3951ZM71.4002 51.4103C71.4002 52.7296 70.946 53.8579 70.0347 54.7951C69.1234 55.7323 68.0263 56.1994 66.7434 56.1994C65.4606 56.1994 64.3576 55.7414 63.4374 54.8224C62.5173 53.9034 62.0572 52.7812 62.0572 51.4527C62.0572 50.1243 62.5173 48.9202 63.4374 47.983C64.3576 47.0458 65.4871 46.5787 66.826 46.5787C68.1649 46.5787 69.1824 47.0549 70.0701 48.0042C70.9578 48.9535 71.4031 50.0909 71.4031 51.4103H71.4002ZM59.2408 50.47C59.2408 49.6178 58.9753 48.908 58.4415 48.3409C57.9077 47.7737 57.2294 47.4492 56.4007 47.3642V53.5031C57.2206 53.409 57.89 53.0966 58.4091 52.5628C58.9635 52.0017 59.2437 51.3041 59.2437 50.47H59.2408ZM58.7482 56.075L56.3978 54.052V56.075H55.7283V46.7061H56.2326C57.2442 46.7061 58.1083 47.0609 58.8279 47.7737C59.5475 48.4865 59.9073 49.366 59.9073 50.4155C59.9073 51.2586 59.6831 51.9896 59.2378 52.6083C58.7925 53.2271 58.1732 53.6911 57.3798 53.9974L59.8099 56.0781H58.7453L58.7482 56.075ZM48.9246 51.3981C48.9246 50.0576 49.3581 48.9414 50.2281 48.0467C51.0981 47.1519 52.1745 46.7061 53.4574 46.7061V47.3794C52.3839 47.3794 51.4667 47.7616 50.7118 48.532C49.9568 49.2993 49.5793 50.2547 49.5793 51.3981C49.5793 52.5416 49.9538 53.4818 50.7 54.2492C51.4461 55.0165 52.3662 55.4017 53.4604 55.4017V56.075C52.204 56.075 51.1335 55.6262 50.2517 54.7254C49.3669 53.8276 48.9275 52.7175 48.9275 51.3951L48.9246 51.3981Z" fill="black"/>
</g>
<defs>
<clipPath id="clip0_1132_193721">
<rect width="102" height="34" fill="white" transform="translate(22.5 23)"/>
</clipPath>
</defs>
</svg>
