<svg width="147" height="88" viewBox="0 0 147 88" fill="none" xmlns="http://www.w3.org/2000/svg">
<rect width="147" height="80" rx="4" fill="#F7F7F7"/>
<g clip-path="url(#clip0_1132_193743)">
<path d="M82.5 31H64.5V49H82.5V31Z" fill="#FF9900"/>
<path d="M70.1475 40.0086C70.1475 38.0826 70.791 36.4806 72.0735 35.1936C73.3605 33.9066 74.949 33.2676 76.848 33.2676V34.2351C75.2595 34.2351 73.9095 34.7886 72.7935 35.8911C71.6775 36.9936 71.1195 38.3661 71.1195 40.0086C71.1195 41.6511 71.673 43.0011 72.7755 44.1036C73.878 45.2061 75.237 45.7596 76.8525 45.7596V46.7271C74.994 46.7271 73.4145 46.0791 72.1095 44.7876C70.8045 43.4961 70.152 41.9031 70.152 40.0041L70.1475 40.0086Z" fill="white"/>
</g>
<defs>
<clipPath id="clip0_1132_193743">
<rect width="18" height="18" fill="white" transform="translate(64.5 31)"/>
</clipPath>
</defs>
</svg>
