<svg width="188" height="130" viewBox="0 0 188 130" fill="none" xmlns="http://www.w3.org/2000/svg">
<rect width="188" height="130" rx="4" fill="#F7F7F7"/>
<g clip-path="url(#clip0_1424_241552)">
<path fill-rule="evenodd" clip-rule="evenodd" d="M94 63.3584C126.375 63.3584 153.901 73.654 164 87.9998C153.103 74.606 125.873 65.1147 94 65.1147C62.127 65.1147 34.8969 74.6101 24 87.9998C34.0995 73.6499 61.6251 63.3584 94 63.3584Z" fill="#FF9900"/>
<path fill-rule="evenodd" clip-rule="evenodd" d="M111.114 44.4538H107.213L108.168 42.2257L107.658 42L106.602 44.4538H106.488V44.4662H106.415V49.9197H106.973V49.8951H108.297V51.2089L108.058 51.112L108.046 51.1421L106.481 50.4919L106.27 51.0159L107.839 51.668L105.431 57.7767L105.95 57.9868L108.297 52.0312V58.5165H108.856V52.0239L111.204 57.9823L111.723 57.7722L109.314 51.6593L110.887 51.0059L110.676 50.4818L109.106 51.1334L109.096 51.1076L108.856 51.2049V49.8951H109.892V49.9197H110.451V45.0201H111.114V44.4538ZM79.9316 45.6028L81.3829 42.2255L81.8951 42.4517L81.2215 44.0189H83.1796L83.3208 43.6681L83.838 43.8821L82.6101 46.9324H84.2689V46.6082H84.8275V53.8591H85.6452V54.4254H82.836L85.5076 58.5493L85.0421 58.8612L82.2893 54.6124L79.5329 58.8612L79.0674 58.5493L81.7428 54.4254H78.9743V53.8591H79.9215V46.6082H80.4801V46.9324H82.0067L82.9516 44.5852H80.9982V44.5386L80.2056 46.3829L79.7215 46.1691H78.2133V50.7898L78.8526 50.0603L79.2702 50.4364L78.2133 51.6423V58.7381H77.6547V58.6823L76.28 58.0601L76.5078 57.5431L77.6547 58.0622V52.2797L76.7618 53.2985L76.3442 52.9224L77.6547 51.4271V46.1691H76.582V45.6028H77.6547V42.398H78.2133V45.6028H79.9316ZM84.2689 47.4987V53.8591H82.5283V47.4987H84.2689ZM81.9697 47.4987V53.8591H80.4801V47.4987H81.9697ZM83.5079 50.5639C83.5079 50.3423 83.3298 50.1618 83.1112 50.1618C82.8926 50.1618 82.7145 50.3423 82.7145 50.5639C82.7145 50.7855 82.8926 50.9661 83.1112 50.9661C83.3298 50.9661 83.5079 50.7855 83.5079 50.5639ZM103.112 51.4298H101.826L101.785 51.4967L101.679 51.4298H101.675V51.4271L101.311 51.1969L104.169 46.5549H99.7642V45.9886H102.358L103.909 42.3881L104.421 42.6146L102.968 45.9886H104.775V46.5549H104.769L104.811 46.5814L102.175 50.8635H104.7L103.803 49.3675L104.28 49.0733L106.478 52.7369L106.001 53.0312L105.04 51.4298H103.67V58.5165H103.112V53.0697L101.071 55.4003L100.653 55.0243L103.112 52.2168V51.4298ZM106.973 49.3288H109.892V47.4289H106.973V49.3288ZM109.892 45.0201H106.973V46.8626H109.892V45.0201ZM104.909 53.7934C104.909 53.5718 104.731 53.3913 104.512 53.3913C104.294 53.3913 104.116 53.5718 104.116 53.7934C104.116 54.015 104.294 54.1955 104.512 54.1955C104.731 54.1955 104.909 54.015 104.909 53.7934ZM89.3207 43.0095H89.8793V43.826H96.3073V43.0095H96.8659V58.1267H96.3073V56.0626H89.8793V58.1267H89.3207V43.0095ZM89.8793 55.4964V49.8623H96.3073V55.4964H89.8793ZM96.3073 44.3923V49.296H89.8793V44.3923H96.3073Z" fill="black"/>
<path d="M120.226 80.3675C120.226 78.5825 120.821 77.0847 122.015 75.8742C123.21 74.6637 124.679 74.0605 126.432 74.0605V74.9714C124.946 74.9714 123.691 75.4803 122.671 76.502C121.651 77.5238 121.145 78.8123 121.145 80.3716C121.145 81.7011 121.55 82.846 122.355 83.8021C123.161 84.7582 124.213 85.382 125.513 85.6733V77.2365H126.432V86.7402C124.63 86.5515 123.169 85.9154 122.044 84.8403C120.833 83.6749 120.226 82.1853 120.226 80.3757V80.3675ZM115.964 86.7443V77.0724L113.321 75.4762V86.7443H112.402V73.8389L115.964 76.026V74.0687H116.883V86.7443H115.964ZM107.577 86.7443V74.0687H108.495V86.7443H107.577ZM100.278 85.8128C101.355 85.8128 102.072 85.7513 102.436 85.6241C103.173 85.3696 103.541 84.7993 103.541 83.9129C103.541 83.281 103.302 82.5054 102.82 81.5944C102.339 80.6835 101.869 79.8012 101.404 78.9518C100.89 77.9382 100.635 77.1093 100.635 76.461C100.635 75.6608 100.881 75.0617 101.375 74.6637C101.869 74.2656 102.521 74.0646 103.334 74.0646H104.01V74.9755C103.221 74.9755 102.687 75.0248 102.399 75.1274C101.837 75.3284 101.557 75.7552 101.557 76.3994C101.557 77.0437 101.808 77.8685 102.306 78.8328C102.768 79.6699 103.229 80.507 103.695 81.34C104.209 82.3536 104.464 83.2071 104.464 83.9047C104.464 84.8157 104.152 85.5256 103.525 86.0344C102.95 86.5022 102.201 86.7361 101.274 86.7361H100.282V85.8046L100.278 85.8128ZM93.7288 85.8128C94.8056 85.8128 95.522 85.7513 95.8863 85.6241C96.6231 85.3696 96.9914 84.7993 96.9914 83.9129C96.9914 83.281 96.7526 82.5054 96.2709 81.5944C95.7892 80.6835 95.3196 79.8012 94.8541 78.9518C94.3401 77.9382 94.085 77.1093 94.085 76.461C94.085 75.6608 94.332 75.0617 94.8258 74.6637C95.3196 74.2656 95.9714 74.0646 96.785 74.0646H97.461V74.9755C96.6716 74.9755 96.1373 75.0248 95.8499 75.1274C95.2873 75.3284 95.008 75.7552 95.008 76.3994C95.008 77.0437 95.2589 77.8685 95.7568 78.8328C96.2183 79.6699 96.6797 80.507 97.1452 81.34C97.6593 82.3536 97.9143 83.2071 97.9143 83.9047C97.9143 84.8157 97.6026 85.5256 96.9752 86.0344C96.4004 86.5022 95.6516 86.7361 94.7246 86.7361H93.7329V85.8046L93.7288 85.8128ZM74.4285 79.1652C74.4285 78.0121 74.0642 77.0519 73.3316 76.2845C72.5989 75.5172 71.6679 75.0781 70.5304 74.9632V83.2687C71.6557 83.1415 72.5746 82.7188 73.287 81.9966C74.048 81.2374 74.4326 80.2936 74.4326 79.1652H74.4285ZM73.7525 86.7484L70.5264 84.0114V86.7484H69.6075V74.0728H70.2997C71.6881 74.0728 72.8741 74.5529 73.8618 75.5172C74.8495 76.4815 75.3433 77.6715 75.3433 79.0913C75.3433 80.2321 75.0357 81.221 74.4245 82.0581C73.8133 82.8953 72.9632 83.5231 71.8743 83.9375L75.2098 86.7525H73.7485L73.7525 86.7484ZM60.269 80.4208C60.269 78.6071 60.8641 77.097 62.0582 75.8865C63.2523 74.676 64.7298 74.0728 66.4906 74.0728V74.9837C65.0172 74.9837 63.7583 75.5008 62.7221 76.5431C61.6858 77.5812 61.1677 78.8738 61.1677 80.4208C61.1677 81.9679 61.6818 83.2399 62.7059 84.2781C63.73 85.3163 64.9929 85.8374 66.4947 85.8374V86.7484C64.7703 86.7484 63.3009 86.1411 62.0906 84.9224C60.8762 83.7077 60.2731 82.2059 60.2731 80.4167L60.269 80.4208Z" fill="black"/>
<path d="M79.1928 80.4167C79.1928 81.9514 79.7312 83.2604 80.8039 84.352C81.8806 85.4435 83.18 85.9851 84.702 85.9851C86.224 85.9851 87.5112 85.4517 88.592 84.3807C89.6728 83.3097 90.2152 82.013 90.2152 80.4947C90.2152 78.8738 89.6728 77.5238 88.5839 76.4446C87.495 75.3694 86.1592 74.8278 84.5725 74.8278C83.099 74.8278 81.832 75.3817 80.7755 76.4897C79.719 77.5976 79.1928 78.9066 79.1928 80.4126V80.4167ZM91.1179 80.4372C91.1179 82.2223 90.4945 83.7488 89.2437 85.0167C87.9929 86.2847 86.4871 86.9166 84.7263 86.9166C82.9654 86.9166 81.4515 86.297 80.1886 85.0537C78.9257 83.8103 78.2942 82.292 78.2942 80.4947C78.2942 78.6974 78.9257 77.0683 80.1886 75.8003C81.4515 74.5323 83.0019 73.9004 84.8396 73.9004C86.6774 73.9004 88.0739 74.5446 89.2923 75.829C90.5107 77.1134 91.1219 78.6522 91.1219 80.4372H91.1179Z" fill="black"/>
</g>
<defs>
<clipPath id="clip0_1424_241552">
<rect width="140" height="46" fill="white" transform="translate(24 42)"/>
</clipPath>
</defs>
</svg>
