<svg width="188" height="130" viewBox="0 0 188 130" fill="none" xmlns="http://www.w3.org/2000/svg">
<rect width="188" height="130" rx="4" fill="#F7F7F7"/>
<rect width="80" height="80" transform="translate(54 25)" fill="black"/>
<g clip-path="url(#clip0_1132_183436)">
<rect width="80" height="29.2" transform="translate(54.0568 50.6001)" fill="black"/>
<path fill-rule="evenodd" clip-rule="evenodd" d="M94.0567 64.4111C109.679 64.4111 122.961 69.3623 127.834 76.2611C122.576 69.8201 109.437 65.2557 94.0567 65.2557C78.6767 65.2557 65.5371 69.8221 60.2789 76.2611C65.1523 69.3603 78.4345 64.4111 94.0567 64.4111Z" fill="#FF9900"/>
<path fill-rule="evenodd" clip-rule="evenodd" d="M102.315 55.3197H100.432L100.893 54.2482L100.647 54.1396L100.138 55.3197H100.083V55.3256H100.047V57.9482H100.317V57.9364H100.956V58.5682L100.84 58.5216L100.834 58.5361L100.079 58.2234L99.9772 58.4754L100.734 58.789L99.5726 61.7266L99.8229 61.8276L100.956 58.9636V62.0824H101.225V58.9601L102.358 61.8255L102.609 61.7244L101.446 58.7848L102.206 58.4705L102.103 58.2185L101.346 58.5319L101.341 58.5194L101.225 58.5663V57.9364H101.725V57.9482H101.995V55.592H102.315V55.3197ZM87.2681 55.8722L87.9685 54.2481L88.2156 54.3569L87.8906 55.1105H88.8354L88.9036 54.9418L89.1531 55.0447L88.5606 56.5116H89.3611V56.3557H89.6306V59.8426H90.0252V60.1149H88.6696L89.9588 62.0982L89.7341 62.2481L88.4058 60.2049L87.0757 62.2481L86.8511 62.0982L88.1421 60.1149H86.8062V59.8426H87.2632V56.3557H87.5328V56.5116H88.2695L88.7254 55.3829H87.7828V55.3605L87.4004 56.2474L87.1667 56.1446H86.439V58.3666L86.7475 58.0158L86.949 58.1967L86.439 58.7766V62.1889H86.1694V62.1621L85.5061 61.8629L85.616 61.6142L86.1694 61.8639V59.0831L85.7386 59.573L85.5371 59.3922L86.1694 58.6731V56.1446H85.6518V55.8722H86.1694V54.3311H86.439V55.8722H87.2681ZM89.3611 56.7839V59.8426H88.5211V56.7839H89.3611ZM88.2516 56.7839V59.8426H87.5328V56.7839H88.2516ZM88.9938 58.258C88.9938 58.1514 88.9079 58.0646 88.8024 58.0646C88.6969 58.0646 88.611 58.1514 88.611 58.258C88.611 58.3646 88.6969 58.4514 88.8024 58.4514C88.9079 58.4514 88.9938 58.3646 88.9938 58.258ZM98.4535 58.6744H97.8331L97.8132 58.7066L97.7622 58.6744H97.7601V58.6731L97.5846 58.5624L98.9637 56.3301H96.8381V56.0577H98.0899L98.838 54.3263L99.085 54.4352L98.384 56.0577H99.2563V56.3301H99.2533L99.2735 56.3428L98.0013 58.4021H99.2199L98.7868 57.6827L99.0171 57.5412L100.078 59.303L99.8475 59.4445L99.3839 58.6744H98.723V62.0824H98.4535V59.463L97.4685 60.5838L97.267 60.403L98.4535 59.0529V58.6744ZM100.317 57.6641H101.725V56.7504H100.317V57.6641ZM101.725 55.592H100.317V56.4781H101.725V55.592ZM99.3207 59.811C99.3207 59.7045 99.2348 59.6177 99.1293 59.6177C99.0238 59.6177 98.9379 59.7045 98.9379 59.811C98.9379 59.9176 99.0238 60.0044 99.1293 60.0044C99.2348 60.0044 99.3207 59.9176 99.3207 59.811ZM91.7987 54.6251H92.0683V55.0178H95.1701V54.6251H95.4396V61.8949H95.1701V60.9023H92.0683V61.8949H91.7987V54.6251ZM92.0683 60.63V57.9206H95.1701V60.63H92.0683ZM95.1701 55.2901V57.6483H92.0683V55.2901H95.1701Z" fill="white"/>
<path d="M106.712 72.5903C106.712 71.7319 106.999 71.0116 107.575 70.4295C108.151 69.8473 108.86 69.5572 109.706 69.5572V69.9953C108.989 69.9953 108.384 70.24 107.892 70.7314C107.399 71.2227 107.155 71.8424 107.155 72.5923C107.155 73.2316 107.351 73.7822 107.739 74.242C108.128 74.7018 108.636 75.0017 109.263 75.1418V71.0846H109.706V75.6549C108.837 75.5641 108.132 75.2582 107.589 74.7412C107.005 74.1808 106.712 73.4645 106.712 72.5942V72.5903ZM104.655 75.6569V71.0057L103.38 70.238V75.6569H102.936V69.4507L104.655 70.5025V69.5612H105.098V75.6569H104.655ZM100.608 75.6569V69.5612H101.051V75.6569H100.608ZM97.0862 75.2089C97.6058 75.2089 97.9515 75.1793 98.1273 75.1181C98.4828 74.9958 98.6605 74.7215 98.6605 74.2953C98.6605 73.9914 98.5453 73.6184 98.3129 73.1803C98.0804 72.7422 97.8538 72.318 97.6292 71.9095C97.3811 71.4221 97.2581 71.0234 97.2581 70.7117C97.2581 70.3268 97.3772 70.0387 97.6155 69.8473C97.8538 69.6559 98.1683 69.5592 98.5609 69.5592H98.8871V69.9973C98.5062 69.9973 98.2484 70.021 98.1097 70.0703C97.8382 70.167 97.7034 70.3722 97.7034 70.6821C97.7034 70.9919 97.8245 71.3885 98.0648 71.8522C98.2875 72.2548 98.5101 72.6574 98.7348 73.058C98.9828 73.5454 99.1059 73.9558 99.1059 74.2913C99.1059 74.7294 98.9555 75.0708 98.6527 75.3155C98.3754 75.5404 98.014 75.6529 97.5667 75.6529H97.0882V75.205L97.0862 75.2089ZM93.9258 75.2089C94.4454 75.2089 94.7911 75.1793 94.9669 75.1181C95.3224 74.9958 95.5002 74.7215 95.5002 74.2953C95.5002 73.9914 95.3849 73.6184 95.1525 73.1803C94.92 72.7422 94.6935 72.318 94.4688 71.9095C94.2208 71.4221 94.0977 71.0234 94.0977 70.7117C94.0977 70.3268 94.2169 70.0387 94.4552 69.8473C94.6935 69.6559 95.0079 69.5592 95.4005 69.5592H95.7267V69.9973C95.3458 69.9973 95.088 70.021 94.9493 70.0703C94.6778 70.167 94.5431 70.3722 94.5431 70.6821C94.5431 70.9919 94.6642 71.3885 94.9044 71.8522C95.1271 72.2548 95.3498 72.6574 95.5744 73.058C95.8224 73.5454 95.9455 73.9558 95.9455 74.2913C95.9455 74.7294 95.7951 75.0708 95.4923 75.3155C95.215 75.5404 94.8536 75.6529 94.4063 75.6529H93.9278V75.205L93.9258 75.2089ZM84.6127 72.0121C84.6127 71.4576 84.4369 70.9958 84.0833 70.6268C83.7298 70.2578 83.2805 70.0466 82.7317 69.9914V73.9854C83.2747 73.9243 83.7181 73.721 84.0618 73.3737C84.4291 73.0086 84.6146 72.5548 84.6146 72.0121H84.6127ZM84.2865 75.6588L82.7297 74.3426V75.6588H82.2863V69.5632H82.6203C83.2903 69.5632 83.8626 69.794 84.3392 70.2578C84.8158 70.7215 85.0541 71.2938 85.0541 71.9766C85.0541 72.5252 84.9057 73.0007 84.6107 73.4033C84.3158 73.8059 83.9056 74.1078 83.3802 74.3071L84.9896 75.6608H84.2845L84.2865 75.6588ZM77.7802 72.6159C77.7802 71.7437 78.0673 71.0175 78.6435 70.4354C79.2197 69.8532 79.9326 69.5632 80.7823 69.5632V70.0012C80.0713 70.0012 79.4639 70.2499 78.9638 70.7511C78.4638 71.2504 78.2138 71.872 78.2138 72.6159C78.2138 73.3599 78.4618 73.9716 78.956 74.4709C79.4502 74.9701 80.0596 75.2208 80.7843 75.2208V75.6588C79.9522 75.6588 79.2431 75.3668 78.6591 74.7807C78.0731 74.1966 77.7821 73.4743 77.7821 72.614L77.7802 72.6159Z" fill="white"/>
<path d="M86.9117 72.6141C86.9117 73.3522 87.1714 73.9817 87.689 74.5066C88.2086 75.0315 88.8356 75.292 89.57 75.292C90.3045 75.292 90.9256 75.0354 91.4471 74.5204C91.9686 74.0054 92.2304 73.3818 92.2304 72.6516C92.2304 71.8722 91.9686 71.2229 91.4432 70.7039C90.9178 70.1869 90.2732 69.9264 89.5075 69.9264C88.7965 69.9264 88.1852 70.1928 87.6754 70.7257C87.1656 71.2585 86.9117 71.888 86.9117 72.6122V72.6141ZM92.666 72.624C92.666 73.4824 92.3652 74.2165 91.7616 74.8263C91.158 75.436 90.4314 75.7399 89.5818 75.7399C88.7321 75.7399 88.0016 75.442 87.3922 74.844C86.7827 74.2461 86.478 73.516 86.478 72.6516C86.478 71.7873 86.7827 71.0039 87.3922 70.3941C88.0016 69.7844 88.7497 69.4805 89.6365 69.4805C90.5232 69.4805 91.1971 69.7903 91.785 70.4079C92.373 71.0256 92.6679 71.7656 92.6679 72.624H92.666Z" fill="white"/>
</g>
<defs>
<clipPath id="clip0_1132_183436">
<rect width="80" height="29.2" fill="white" transform="translate(54 50.6001)"/>
</clipPath>
</defs>
</svg>
