<svg width="188" height="130" viewBox="0 0 188 130" fill="none" xmlns="http://www.w3.org/2000/svg">
<rect width="188" height="130" rx="4" fill="#F7F7F7"/>
<g clip-path="url(#clip0_1424_241572)">
<path fill-rule="evenodd" clip-rule="evenodd" d="M94 63.3228C126.375 63.3228 153.901 73.8422 164 88.4998C153.103 74.8149 125.873 65.1172 94 65.1172C62.127 65.1172 34.8969 74.8191 24 88.4998C34.0995 73.838 61.6251 63.3228 94 63.3228Z" fill="black"/>
<path fill-rule="evenodd" clip-rule="evenodd" d="M111.114 44.0072H107.213L108.168 41.7306L107.658 41.5L106.602 44.0072H106.488V44.0198H106.415V49.5919H106.973V49.5667H108.297V50.9091L108.058 50.8101L108.046 50.8409L106.481 50.1765L106.27 50.7119L107.839 51.3782L105.431 57.6196L105.95 57.8343L108.297 51.7493V58.3755H108.856V51.7418L111.204 57.8298L111.723 57.6151L109.314 51.3693L110.887 50.7016L110.676 50.1662L109.106 50.8319L109.096 50.8055L108.856 50.905V49.5667H109.892V49.5919H110.451V44.5858H111.114V44.0072ZM79.9316 45.1812L81.3829 41.7304L81.8951 41.9615L81.2215 43.5628H83.1796L83.3208 43.2044L83.838 43.423L82.6101 46.5396H84.2689V46.2084H84.8275V53.6169H85.6452V54.1955H82.836L85.5076 58.4091L85.0421 58.7277L82.2893 54.3866L79.5329 58.7277L79.0674 58.4091L81.7428 54.1955H78.9743V53.6169H79.9215V46.2084H80.4801V46.5396H82.0067L82.9516 44.1414H80.9982V44.0938L80.2056 45.9782L79.7215 45.7598H78.2133V50.4808L78.8526 49.7355L79.2702 50.1198L78.2133 51.352V58.602H77.6547V58.545L76.28 57.9093L76.5078 57.3809L77.6547 57.9113V52.0032L76.7618 53.0441L76.3442 52.6598L77.6547 51.1321V45.7598H76.582V45.1812H77.6547V41.9067H78.2133V45.1812H79.9316ZM84.2689 47.1182V53.6169H82.5283V47.1182H84.2689ZM81.9697 47.1182V53.6169H80.4801V47.1182H81.9697ZM83.5079 50.2501C83.5079 50.0237 83.3298 49.8392 83.1112 49.8392C82.8926 49.8392 82.7145 50.0237 82.7145 50.2501C82.7145 50.4765 82.8926 50.661 83.1112 50.661C83.3298 50.661 83.5079 50.4765 83.5079 50.2501ZM103.112 51.1348H101.826L101.785 51.2032L101.679 51.1348H101.675V51.132L101.311 50.8968L104.169 46.1539H99.7642V45.5753H102.358L103.909 41.8965L104.421 42.128L102.968 45.5753H104.775V46.1539H104.769L104.811 46.181L102.175 50.5562H104.7L103.803 49.0277L104.28 48.727L106.478 52.4703L106.001 52.771L105.04 51.1348H103.67V58.3756H103.112V52.8104L101.071 55.1916L100.653 54.8075L103.112 51.9389V51.1348ZM106.973 48.9882H109.892V47.0469H106.973V48.9882ZM109.892 44.5858H106.973V46.4683H109.892V44.5858ZM104.909 53.5498C104.909 53.3234 104.731 53.1389 104.512 53.1389C104.294 53.1389 104.116 53.3234 104.116 53.5498C104.116 53.7762 104.294 53.9607 104.512 53.9607C104.731 53.9607 104.909 53.7762 104.909 53.5498ZM89.3207 42.5314H89.8793V43.3657H96.3073V42.5314H96.8659V57.9773H96.3073V55.8684H89.8793V57.9773H89.3207V42.5314ZM89.8793 55.2898V49.5332H96.3073V55.2898H89.8793ZM96.3073 43.9443V48.9546H89.8793V43.9443H96.3073Z" fill="black"/>
<path d="M120.226 80.7018C120.226 78.878 120.821 77.3477 122.015 76.1108C123.21 74.874 124.679 74.2577 126.432 74.2577V75.1884C124.946 75.1884 123.691 75.7083 122.671 76.7523C121.651 77.7963 121.145 79.1128 121.145 80.706C121.145 82.0644 121.55 83.2342 122.355 84.2111C123.161 85.188 124.213 85.8253 125.513 86.123V77.5028H126.432V87.2131C124.63 87.0202 123.169 86.3703 122.044 85.2718C120.833 84.0811 120.226 82.5592 120.226 80.7102V80.7018ZM115.964 87.2173V77.3351L113.321 75.7041V87.2173H112.402V74.0312L115.964 76.266V74.266H116.883V87.2173H115.964ZM107.577 87.2173V74.266H108.495V87.2173H107.577ZM100.278 86.2655C101.355 86.2655 102.072 86.2026 102.436 86.0726C103.173 85.8127 103.541 85.2299 103.541 84.3243C103.541 83.6786 103.302 82.8862 102.82 81.9554C102.339 81.0247 101.869 80.1232 101.404 79.2553C100.89 78.2197 100.635 77.3728 100.635 76.7104C100.635 75.8928 100.881 75.2807 101.375 74.874C101.869 74.4673 102.521 74.2618 103.334 74.2618H104.01V75.1926C103.221 75.1926 102.687 75.2429 102.399 75.3478C101.837 75.5532 101.557 75.9892 101.557 76.6475C101.557 77.3057 101.808 78.1485 102.306 79.1338C102.768 79.9891 103.229 80.8444 103.695 81.6955C104.209 82.7311 104.464 83.6032 104.464 84.3159C104.464 85.2467 104.152 85.972 103.525 86.4919C102.95 86.9699 102.201 87.2089 101.274 87.2089H100.282V86.2571L100.278 86.2655ZM93.7288 86.2655C94.8056 86.2655 95.522 86.2026 95.8863 86.0726C96.6231 85.8127 96.9914 85.2299 96.9914 84.3243C96.9914 83.6786 96.7526 82.8862 96.2709 81.9554C95.7892 81.0247 95.3196 80.1232 94.8541 79.2553C94.3401 78.2197 94.085 77.3728 94.085 76.7104C94.085 75.8928 94.332 75.2807 94.8258 74.874C95.3196 74.4673 95.9714 74.2618 96.785 74.2618H97.461V75.1926C96.6716 75.1926 96.1373 75.2429 95.8499 75.3478C95.2873 75.5532 95.008 75.9892 95.008 76.6475C95.008 77.3057 95.2589 78.1485 95.7568 79.1338C96.2183 79.9891 96.6797 80.8444 97.1452 81.6955C97.6593 82.7311 97.9143 83.6032 97.9143 84.3159C97.9143 85.2467 97.6026 85.972 96.9752 86.4919C96.4004 86.9699 95.6516 87.2089 94.7246 87.2089H93.7329V86.2571L93.7288 86.2655ZM79.1929 80.7521C79.1929 82.3202 79.7313 83.6577 80.8039 84.7729C81.8807 85.8882 83.18 86.4416 84.7021 86.4416C86.2241 86.4416 87.5113 85.8966 88.5921 84.8023C89.6729 83.708 90.2153 82.3831 90.2153 80.8318C90.2153 79.1757 89.6728 77.7963 88.584 76.6936C87.4951 75.5951 86.1593 75.0417 84.5725 75.0417C83.0991 75.0417 81.8321 75.6077 80.7756 76.7397C79.7191 77.8718 79.1929 79.2092 79.1929 80.7479V80.7521ZM91.1179 80.7731C91.1179 82.5969 90.4946 84.1566 89.2438 85.4521C87.993 86.7477 86.4872 87.3933 84.7263 87.3933C82.9655 87.3933 81.4516 86.7602 80.1887 85.4899C78.9257 84.2195 78.2943 82.6682 78.2943 80.8318C78.2943 78.9954 78.9257 77.3309 80.1887 76.0354C81.4516 74.7398 83.0019 74.0941 84.8397 74.0941C86.6774 74.0941 88.0739 74.7524 89.2923 76.0647C90.5108 77.377 91.122 78.9493 91.122 80.7731H91.1179ZM74.4285 79.4734C74.4285 78.2952 74.0642 77.3141 73.3316 76.5301C72.5989 75.7461 71.6679 75.2974 70.5304 75.18V83.666C71.6557 83.5361 72.5746 83.1042 73.287 82.3663C74.048 81.5907 74.4326 80.6263 74.4326 79.4734H74.4285ZM73.7525 87.2214L70.5264 84.4249V87.2214H69.6075V74.2702H70.2997C71.6881 74.2702 72.8741 74.7608 73.8618 75.7461C74.8495 76.7313 75.3433 77.9472 75.3433 79.3979C75.3433 80.5635 75.0357 81.5739 74.4245 82.4292C73.8133 83.2845 72.9632 83.926 71.8743 84.3495L75.2098 87.2256H73.7485L73.7525 87.2214ZM60.269 80.7563C60.269 78.9032 60.8641 77.3602 62.0582 76.1234C63.2523 74.8866 64.7298 74.2702 66.4906 74.2702V75.201C65.0172 75.201 63.7583 75.7293 62.7221 76.7942C61.6858 77.855 61.1677 79.1757 61.1677 80.7563C61.1677 82.337 61.6818 83.6367 62.7059 84.6974C63.73 85.7582 64.9929 86.2907 66.4947 86.2907V87.2214C64.7703 87.2214 63.3009 86.6009 62.0906 85.3557C60.8762 84.1147 60.2731 82.5801 60.2731 80.7521L60.269 80.7563Z" fill="black"/>
</g>
<defs>
<clipPath id="clip0_1424_241572">
<rect width="140" height="47" fill="white" transform="translate(24 41.5)"/>
</clipPath>
</defs>
</svg>
