<svg width="188" height="130" viewBox="0 0 188 130" fill="none" xmlns="http://www.w3.org/2000/svg">
<rect width="188" height="130" rx="4" fill="#F7F7F7"/>
<g clip-path="url(#clip0_1424_241583)">
<rect width="140" height="51" transform="translate(24 39.5)" fill="white"/>
<path fill-rule="evenodd" clip-rule="evenodd" d="M94 63.6211C121.339 63.6211 144.583 72.2686 153.111 84.3179C143.909 73.0682 120.915 65.0962 94 65.0962C67.085 65.0962 44.0907 73.0717 34.8889 84.3179C43.4174 72.2652 66.6612 63.6211 94 63.6211Z" fill="black"/>
<path fill-rule="evenodd" clip-rule="evenodd" d="M108.452 47.7427H105.157L105.964 45.8712L105.533 45.6816L104.642 47.7427H104.545V47.7531H104.484V52.3336H104.955V52.3129H106.073V53.4164L105.871 53.335L105.861 53.3603L104.54 52.8142L104.361 53.2543L105.686 53.802L103.653 58.9328L104.091 59.1093L106.073 54.1071V59.5542H106.545V54.1009L108.528 59.1055L108.966 58.9291L106.931 53.7947L108.261 53.2459L108.082 52.8057L106.756 53.353L106.748 53.3313L106.545 53.413V52.3129H107.42V52.3336H107.892V48.2183H108.452V47.7427ZM82.12 48.7077L83.3456 45.871L83.7781 46.061L83.2093 47.3774H84.8628L84.982 47.0827L85.4188 47.2625L84.3819 49.8245H85.7827V49.5522H86.2544V55.6423H86.9449V56.118H84.5726L86.8286 59.5818L86.4355 59.8437L84.111 56.2751L81.7834 59.8437L81.3903 59.5818L83.6495 56.118H81.3116V55.6423H82.1115V49.5522H82.5832V49.8245H83.8724L84.6703 47.853H83.0207V47.8139L82.3514 49.363L81.9426 49.1834H80.669V53.0643L81.2089 52.4516L81.5615 52.7675L80.669 53.7805V59.7403H80.1973V59.6935L79.0365 59.1709L79.2288 58.7366L80.1973 59.1726V54.3158L79.4433 55.1715L79.0907 54.8556L80.1973 53.5997V49.1834H79.2915V48.7077H80.1973V46.016H80.669V48.7077H82.12ZM85.7827 50.3001V55.6423H84.3128V50.3001H85.7827ZM83.8411 50.3001V55.6423H82.5832V50.3001H83.8411ZM85.14 52.8747C85.14 52.6886 84.9896 52.5369 84.8051 52.5369C84.6205 52.5369 84.4701 52.6886 84.4701 52.8747C84.4701 53.0608 84.6205 53.2124 84.8051 53.2124C84.9896 53.2124 85.14 53.0608 85.14 52.8747ZM101.694 53.6019H100.609L100.574 53.6581L100.485 53.6019H100.481V53.5996L100.174 53.4063L102.587 49.5074H98.8676V49.0317H101.058L102.367 46.0076L102.8 46.1979L101.573 49.0317H103.099V49.5074H103.094L103.129 49.5297L100.903 53.1263H103.036L102.278 51.8698L102.681 51.6226L104.537 54.6998L104.134 54.947L103.323 53.6019H102.166V59.5542H101.694V54.9793L99.9708 56.9368L99.618 56.6211L101.694 54.2629V53.6019ZM104.955 51.8373H107.42V50.2415H104.955V51.8373ZM107.42 48.2183H104.955V49.7659H107.42V48.2183ZM103.212 55.5872C103.212 55.401 103.062 55.2494 102.877 55.2494C102.693 55.2494 102.542 55.401 102.542 55.5872C102.542 55.7733 102.693 55.9249 102.877 55.9249C103.062 55.9249 103.212 55.7733 103.212 55.5872ZM90.0486 46.5295H90.5203V47.2153H95.9484V46.5295H96.4201V59.2268H95.9484V57.4931H90.5203V59.2268H90.0486V46.5295ZM90.5203 57.0175V52.2853H95.9484V57.0175H90.5203ZM95.9484 47.691V51.8097H90.5203V47.691H95.9484Z" fill="black"/>
<path d="M116.147 77.9074C116.147 76.4081 116.649 75.1501 117.658 74.1333C118.666 73.1166 119.907 72.6099 121.387 72.6099V73.3751C120.132 73.3751 119.073 73.8025 118.211 74.6607C117.35 75.5189 116.923 76.6011 116.923 77.9108C116.923 79.0275 117.264 79.9891 117.945 80.7922C118.625 81.5952 119.514 82.1191 120.611 82.3638V75.2776H121.387V83.2599C119.866 83.1014 118.632 82.5672 117.681 81.6642C116.659 80.6853 116.147 79.4342 116.147 77.9143V77.9074ZM112.547 83.2634V75.1397L110.315 73.799V83.2634H109.539V72.4238L112.547 74.2609V72.6168H113.323V83.2634H112.547ZM105.465 83.2634V72.6168H106.241V83.2634H105.465ZM99.3017 82.481C100.211 82.481 100.816 82.4293 101.124 82.3225C101.746 82.1088 102.057 81.6297 102.057 80.8852C102.057 80.3545 101.855 79.703 101.448 78.9379C101.042 78.1728 100.645 77.4317 100.252 76.7183C99.8179 75.867 99.6025 75.1708 99.6025 74.6262C99.6025 73.9541 99.811 73.4509 100.228 73.1166C100.645 72.7823 101.195 72.6134 101.882 72.6134H102.453V73.3785C101.787 73.3785 101.336 73.4199 101.093 73.5061C100.618 73.6749 100.382 74.0334 100.382 74.5745C100.382 75.1156 100.594 75.8084 101.014 76.6183C101.404 77.3214 101.794 78.0246 102.187 78.7242C102.621 79.5755 102.836 80.2924 102.836 80.8783C102.836 81.6435 102.573 82.2397 102.043 82.6671C101.558 83.06 100.925 83.2565 100.143 83.2565H99.3051V82.4741L99.3017 82.481ZM93.771 82.481C94.6803 82.481 95.2853 82.4293 95.5929 82.3225C96.2151 82.1088 96.5261 81.6297 96.5261 80.8852C96.5261 80.3545 96.3244 79.703 95.9177 78.9379C95.5109 78.1728 95.1144 77.4317 94.7213 76.7183C94.2872 75.867 94.0718 75.1708 94.0718 74.6262C94.0718 73.9541 94.2804 73.4509 94.6974 73.1166C95.1144 72.7823 95.6647 72.6134 96.3518 72.6134H96.9226V73.3785C96.2561 73.3785 95.8049 73.4199 95.5622 73.5061C95.0871 73.6749 94.8512 74.0334 94.8512 74.5745C94.8512 75.1156 95.0631 75.8084 95.4836 76.6183C95.8732 77.3214 96.2629 78.0246 96.656 78.7242C97.0901 79.5755 97.3055 80.2924 97.3055 80.8783C97.3055 81.6435 97.0423 82.2397 96.5124 82.6671C96.0271 83.06 95.3947 83.2565 94.6119 83.2565H93.7745V82.4741L93.771 82.481ZM81.4962 77.9487C81.4962 79.2378 81.9509 80.3372 82.8567 81.254C83.7659 82.1708 84.8632 82.6258 86.1484 82.6258C87.4337 82.6258 88.5207 82.1777 89.4333 81.2781C90.346 80.3786 90.804 79.2895 90.804 78.0142C90.804 76.6528 90.346 75.5189 89.4265 74.6124C88.507 73.7094 87.379 73.2545 86.0391 73.2545C84.7948 73.2545 83.7249 73.7197 82.8328 74.6503C81.9406 75.5809 81.4962 76.6804 81.4962 77.9453V77.9487ZM91.5663 77.966C91.5663 79.4652 91.0399 80.7474 89.9837 81.8124C88.9274 82.8774 87.6559 83.4081 86.1689 83.4081C84.682 83.4081 83.4036 82.8877 82.3371 81.8434C81.2706 80.7991 80.7374 79.5238 80.7374 78.0142C80.7374 76.5046 81.2706 75.1363 82.3371 74.0713C83.4036 73.0063 84.7128 72.4755 86.2647 72.4755C87.8165 72.4755 88.9958 73.0166 90.0247 74.0954C91.0536 75.1742 91.5697 76.4667 91.5697 77.966H91.5663ZM77.473 76.8975C77.473 75.929 77.1654 75.1225 76.5467 74.478C75.928 73.8335 75.1418 73.4647 74.1813 73.3682V80.3441C75.1315 80.2373 75.9075 79.8823 76.5091 79.2757C77.1517 78.638 77.4764 77.8453 77.4764 76.8975H77.473ZM76.9022 83.2668L74.1779 80.9679V83.2668H73.4019V72.6203H73.9864C75.1589 72.6203 76.1604 73.0235 76.9945 73.8335C77.8285 74.6434 78.2455 75.643 78.2455 76.8355C78.2455 77.7936 77.9857 78.6243 77.4696 79.3274C76.9534 80.0305 76.2356 80.5578 75.3161 80.9059L78.1327 83.2703H76.8988L76.9022 83.2668ZM65.5161 77.9522C65.5161 76.4288 66.0186 75.1604 67.027 74.1437C68.0353 73.1269 69.283 72.6203 70.7699 72.6203V73.3854C69.5257 73.3854 68.4626 73.8197 67.5875 74.6951C66.7125 75.5671 66.275 76.6528 66.275 77.9522C66.275 79.2515 66.7091 80.32 67.5739 81.192C68.4387 82.064 69.5052 82.5017 70.7733 82.5017V83.2668C69.3172 83.2668 68.0764 82.7567 67.0543 81.7331C66.0288 80.7129 65.5195 79.4514 65.5195 77.9487L65.5161 77.9522Z" fill="black"/>
</g>
<defs>
<clipPath id="clip0_1424_241583">
<rect width="140" height="51" fill="white" transform="translate(24 39.5)"/>
</clipPath>
</defs>
</svg>
