<svg width="128" height="128" viewBox="0 0 128 128" fill="none" xmlns="http://www.w3.org/2000/svg">
<rect width="120" height="120" fill="black"/>
<g clip-path="url(#clip0_1424_241532)">
<rect width="120" height="43.8" transform="translate(0.085083 38.3999)" fill="black"/>
<path fill-rule="evenodd" clip-rule="evenodd" d="M60.0851 59.1157C83.5184 59.1157 103.442 66.5424 110.752 76.8907C102.865 67.2291 83.1551 60.3826 60.0851 60.3826C37.0151 60.3826 17.3057 67.2321 9.41846 76.8907C16.7285 66.5395 36.6518 59.1157 60.0851 59.1157Z" fill="#FF9900"/>
<path fill-rule="evenodd" clip-rule="evenodd" d="M72.4728 45.479H69.6487L70.3398 43.8718L69.9706 43.709L69.2067 45.479H69.1239V45.488H69.0712V49.4218H69.4755V49.4041H70.4336V50.3518L70.2604 50.2819L70.2518 50.3036L69.1193 49.8346L68.9659 50.2125L70.1018 50.6829L68.359 55.0894L68.7345 55.241L70.4336 50.9449V55.623H70.8379V50.9397L72.5378 55.2377L72.9132 55.0862L71.1693 50.6766L72.3085 50.2053L72.1553 49.8273L71.0192 50.2973L71.0119 50.2787L70.8379 50.3489V49.4041H71.5879V49.4218H71.9923V45.8875H72.4728V45.479ZM49.9023 46.3079L50.9528 43.8716L51.3235 44.0348L50.836 45.1653H52.2532L52.3555 44.9123L52.7298 45.0666L51.841 47.2669H53.0417V47.0331H53.446V52.2635H54.0379V52.6719H52.0045L53.9383 55.6467L53.6013 55.8717L51.6088 52.8069L49.6137 55.8717L49.2768 55.6467L51.2133 52.6719H49.2094V52.2635H49.895V47.0331H50.2993V47.2669H51.4043L52.0882 45.5738H50.6743V45.5402L50.1007 46.8706L49.7502 46.7164H48.6586V50.0494L49.1213 49.5232L49.4236 49.7945L48.6586 50.6644V55.7829H48.2543V55.7427L47.2593 55.2939L47.4241 54.9209L48.2543 55.2953V51.1242L47.608 51.8591L47.3057 51.5878L48.2543 50.5092V46.7164H47.4778V46.3079H48.2543V43.9961H48.6586V46.3079H49.9023ZM53.0417 47.6754V52.2635H51.7818V47.6754H53.0417ZM51.3775 47.6754V52.2635H50.2993V47.6754H51.3775ZM52.4909 49.8865C52.4909 49.7267 52.362 49.5964 52.2038 49.5964C52.0455 49.5964 51.9166 49.7267 51.9166 49.8865C51.9166 50.0464 52.0455 50.1766 52.2038 50.1766C52.362 50.1766 52.4909 50.0464 52.4909 49.8865ZM66.6804 50.5111H65.7498L65.72 50.5594L65.6434 50.5111H65.6403V50.5091L65.377 50.3431L67.4456 46.9946H64.2573V46.5861H66.135L67.2571 43.9889L67.6277 44.1523L66.5762 46.5861H67.8846V46.9946H67.88L67.9104 47.0138L66.0021 50.1026H67.83L67.1803 49.0235L67.5258 48.8112L69.1169 51.454L68.7714 51.6663L68.0759 50.5111H67.0847V55.6231H66.6804V51.6941L65.2029 53.3752L64.9006 53.104L66.6804 51.0788V50.5111ZM69.4755 48.9956H71.5879V47.6251H69.4755V48.9956ZM71.5879 45.8875H69.4755V47.2166H71.5879V45.8875ZM67.9812 52.2161C67.9812 52.0562 67.8523 51.926 67.6941 51.926C67.5359 51.926 67.407 52.0562 67.407 52.2161C67.407 52.3759 67.5359 52.5062 67.6941 52.5062C67.8523 52.5062 67.9812 52.3759 67.9812 52.2161ZM56.6982 44.4372H57.1025V45.0262H61.7552V44.4372H62.1595V55.3419H61.7552V53.853H57.1025V55.3419H56.6982V44.4372ZM57.1025 53.4445V49.3804H61.7552V53.4445H57.1025ZM61.7552 45.4346V48.9719H57.1025V45.4346H61.7552Z" fill="white"/>
<path d="M79.0679 71.3852C79.0679 70.0976 79.4986 69.0172 80.3629 68.144C81.2272 67.2707 82.2908 66.8356 83.5594 66.8356V67.4927C82.4841 67.4927 81.5759 67.8598 80.8375 68.5968C80.0992 69.3339 79.733 70.2633 79.733 71.3881C79.733 72.3472 80.026 73.173 80.609 73.8627C81.1921 74.5524 81.9538 75.0023 82.8943 75.2125V69.1267H83.5594V75.9821C82.2556 75.8459 81.1979 75.3871 80.3834 74.6116C79.5074 73.771 79.0679 72.6965 79.0679 71.3911V71.3852ZM75.9827 75.985V69.0083L74.0695 67.8568V75.985H73.4044V66.6758L75.9827 68.2535V66.8415H76.6478V75.985H75.9827ZM69.912 75.985V66.8415H70.5771V75.985H69.912ZM64.6294 75.3131C65.4087 75.3131 65.9273 75.2687 66.191 75.177C66.7242 74.9934 66.9909 74.582 66.9909 73.9426C66.9909 73.4868 66.818 72.9273 66.4693 72.2702C66.1207 71.6131 65.7808 70.9767 65.4439 70.364C65.0718 69.6328 64.8872 69.0349 64.8872 68.5672C64.8872 67.99 65.0659 67.5579 65.4234 67.2707C65.7808 66.9836 66.2525 66.8386 66.8414 66.8386H67.3307V67.4957C66.7594 67.4957 66.3727 67.5312 66.1646 67.6052C65.7574 67.7503 65.5552 68.0581 65.5552 68.5228C65.5552 68.9876 65.7369 69.5825 66.0972 70.2781C66.4313 70.882 66.7653 71.4858 67.1022 72.0867C67.4743 72.8178 67.6589 73.4335 67.6589 73.9367C67.6589 74.5938 67.4333 75.1059 66.9791 75.473C66.5631 75.8104 66.0211 75.9791 65.3501 75.9791H64.6323V75.3072L64.6294 75.3131ZM59.8888 75.3131C60.6682 75.3131 61.1867 75.2687 61.4504 75.177C61.9837 74.9934 62.2503 74.582 62.2503 73.9426C62.2503 73.4868 62.0774 72.9273 61.7288 72.2702C61.3801 71.6131 61.0402 70.9767 60.7033 70.364C60.3312 69.6328 60.1466 69.0349 60.1466 68.5672C60.1466 67.99 60.3254 67.5579 60.6828 67.2707C61.0402 66.9836 61.512 66.8386 62.1009 66.8386H62.5902V67.4957C62.0188 67.4957 61.6321 67.5312 61.4241 67.6052C61.0168 67.7503 60.8146 68.0581 60.8146 68.5228C60.8146 68.9876 60.9963 69.5825 61.3567 70.2781C61.6907 70.882 62.0247 71.4858 62.3616 72.0867C62.7337 72.8178 62.9183 73.4335 62.9183 73.9367C62.9183 74.5938 62.6927 75.1059 62.2386 75.473C61.8225 75.8104 61.2805 75.9791 60.6096 75.9791H59.8917V75.3072L59.8888 75.3131ZM45.9191 70.5179C45.9191 69.6861 45.6554 68.9935 45.1251 68.44C44.5947 67.8864 43.9209 67.5697 43.0976 67.4868V73.4779C43.9121 73.3861 44.5772 73.0813 45.0928 72.5603C45.6437 72.0127 45.922 71.3319 45.922 70.5179H45.9191ZM45.4298 75.988L43.0946 74.0137V75.988H42.4296V66.8445H42.9306C43.9355 66.8445 44.794 67.1908 45.5089 67.8864C46.2238 68.582 46.5812 69.4404 46.5812 70.4646C46.5812 71.2875 46.3585 72.0009 45.9161 72.6047C45.4737 73.2085 44.8584 73.6614 44.0703 73.9604L46.4845 75.991H45.4268L45.4298 75.988ZM35.6703 71.4237C35.6703 70.1153 36.101 69.026 36.9653 68.1528C37.8296 67.2796 38.899 66.8445 40.1735 66.8445V67.5016C39.1071 67.5016 38.1959 67.8746 37.4458 68.6264C36.6958 69.3753 36.3207 70.3077 36.3207 71.4237C36.3207 72.5396 36.6928 73.4572 37.4341 74.2061C38.1753 74.955 39.0895 75.3309 40.1765 75.3309V75.988C38.9283 75.988 37.8648 75.5499 36.9887 74.6708C36.1098 73.7946 35.6732 72.7113 35.6732 71.4207L35.6703 71.4237Z" fill="white"/>
<path d="M49.3676 71.4207C49.3676 72.5278 49.7573 73.472 50.5337 74.2594C51.313 75.0468 52.2535 75.4375 53.3552 75.4375C54.4568 75.4375 55.3885 75.0527 56.1708 74.2801C56.9531 73.5075 57.3457 72.5722 57.3457 71.477C57.3457 70.3078 56.9531 69.3339 56.165 68.5554C55.3768 67.7799 54.4099 67.3892 53.2614 67.3892C52.1949 67.3892 51.2779 67.7888 50.5132 68.588C49.7485 69.3872 49.3676 70.3314 49.3676 71.4178V71.4207ZM57.9991 71.4355C57.9991 72.7231 57.5479 73.8243 56.6425 74.7389C55.7372 75.6536 54.6473 76.1094 53.3728 76.1094C52.0983 76.1094 51.0025 75.6624 50.0884 74.7656C49.1742 73.8687 48.7172 72.7735 48.7172 71.477C48.7172 70.1805 49.1742 69.0054 50.0884 68.0907C51.0025 67.1761 52.1246 66.7202 53.4548 66.7202C54.785 66.7202 55.7958 67.1849 56.6777 68.1114C57.5596 69.0379 58.002 70.1479 58.002 71.4355H57.9991Z" fill="white"/>
</g>
<defs>
<clipPath id="clip0_1424_241532">
<rect width="120" height="43.8" fill="white" transform="translate(0 38.3999)"/>
</clipPath>
</defs>
</svg>
