<svg width="270" height="78" viewBox="0 0 270 78" fill="none" xmlns="http://www.w3.org/2000/svg">
<g clip-path="url(#clip0_1132_183287)">
<path fill-rule="evenodd" clip-rule="evenodd" d="M106 32.5024C155.025 32.5024 196.707 48.1697 212 70.0002C195.499 49.6184 154.265 35.1751 106 35.1751C57.7352 35.1751 16.501 49.6247 0 70.0002C15.2935 48.1635 56.9751 32.5024 106 32.5024Z" fill="white"/>
<path d="M106 32.5024C155.025 32.5024 196.707 48.1697 212 70.0002C195.499 49.6184 154.265 35.1751 106 35.1751C57.7352 35.1751 16.501 49.6247 0 70.0002C15.2935 48.1635 56.9751 32.5024 106 32.5024" stroke="black"/>
<path fill-rule="evenodd" clip-rule="evenodd" d="M131.916 3.7341H126.008L127.454 0.343444L126.682 0L125.083 3.7341H124.91V3.75292H124.8V12.0518H125.646V12.0143H127.65V14.0136L127.288 13.8661L127.27 13.9119L124.9 12.9225L124.58 13.7198L126.956 14.7122L123.31 24.008L124.095 24.3277L127.65 15.2649V25.1338H128.496V15.2538L132.052 24.321L132.838 24.0012L129.189 14.6989L131.573 13.7046L131.252 12.9071L128.875 13.8986L128.86 13.8593L128.496 14.0075V12.0143H130.065V12.0518H130.911V4.59583H131.916V3.7341ZM84.6964 5.48259L86.8943 0.343145L87.6698 0.687311L86.6499 3.07227H89.6149L89.8287 2.53847L90.6119 2.86406L88.7525 7.50584H91.2644V7.01245H92.1103V18.0464H93.3485V18.9081H89.0946L93.1401 25.1838L92.4352 25.6583L88.2667 19.1928L84.0928 25.6583L83.3878 25.1838L87.4391 18.9081H83.2469V18.0464H84.6812V7.01245H85.5271V7.50584H87.8388L89.2697 3.934H86.3117V3.86308L85.1115 6.6697L84.3783 6.34432H82.0945V13.3757L83.0626 12.2656L83.695 12.838L82.0945 14.6731V25.471H81.2486V25.3861L79.167 24.4393L79.5119 23.6525L81.2486 24.4424V15.643L79.8965 17.1933L79.2642 16.621L81.2486 14.3456V6.34432H79.6242V5.48259H81.2486V0.605718H82.0945V5.48259H84.6964ZM91.2644 8.36757V18.0464H88.6287V8.36757H91.2644ZM87.7828 8.36757V18.0464H85.5271V8.36757H87.7828ZM90.1121 13.0321C90.1121 12.6949 89.8424 12.4201 89.5114 12.4201C89.1803 12.4201 88.9106 12.6949 88.9106 13.0321C88.9106 13.3693 89.1803 13.644 89.5114 13.644C89.8424 13.644 90.1121 13.3693 90.1121 13.0321ZM119.798 14.3497H117.851L117.789 14.4516L117.628 14.3497H117.622V14.3455L117.071 13.9953L121.399 6.93134H114.729V6.06961H118.657L121.005 0.59055L121.78 0.935267L119.58 6.06961H122.317V6.93134H122.308L122.371 6.97175L118.379 13.488H122.203L120.844 11.2115L121.567 10.7637L124.895 16.3388L124.173 16.7866L122.718 14.3497H120.644V25.1338H119.798V16.8452L116.707 20.3918L116.074 19.8197L119.798 15.5473V14.3497ZM125.646 11.1526H130.065V8.26139H125.646V11.1526ZM130.065 4.59583H125.646V7.39965H130.065V4.59583ZM122.52 17.9465C122.52 17.6093 122.25 17.3345 121.919 17.3345C121.588 17.3345 121.318 17.6093 121.318 17.9465C121.318 18.2837 121.588 18.5584 121.919 18.5584C122.25 18.5584 122.52 18.2837 122.52 17.9465ZM98.9143 1.53613H99.7601V2.7787H109.494V1.53613H110.34V24.5406H109.494V21.3997H99.7601V24.5406H98.9143V1.53613ZM99.7601 20.5379V11.9643H109.494V20.5379H99.7601ZM109.494 3.64043V11.1026H99.7601V3.64043H109.494Z" fill="white"/>
<path d="M126.008 3.7341L125.548 3.53796L125.251 4.2341H126.008V3.7341ZM131.916 3.7341H132.416V3.2341H131.916V3.7341ZM127.454 0.343444L127.914 0.539581L128.107 0.0866482L127.657 -0.113422L127.454 0.343444ZM126.682 0L126.885 -0.456866L126.421 -0.662886L126.222 -0.19675L126.682 0ZM125.083 3.7341V4.2341H125.413L125.543 3.93085L125.083 3.7341ZM124.91 3.7341V3.2341H124.41V3.7341H124.91ZM124.91 3.75292V4.25292H125.41V3.75292H124.91ZM124.8 3.75292V3.25292H124.3V3.75292H124.8ZM124.8 12.0518H124.3V12.5518H124.8V12.0518ZM125.646 12.0518V12.5518H126.146V12.0518H125.646ZM125.646 12.0143V11.5143H125.146V12.0143H125.646ZM127.65 12.0143H128.15V11.5143H127.65V12.0143ZM127.65 14.0136L127.462 14.4767L128.15 14.7569V14.0136H127.65ZM127.288 13.8661L127.476 13.403L127.007 13.2121L126.822 13.6835L127.288 13.8661ZM127.27 13.9119L127.077 14.3733L127.549 14.5702L127.735 14.0945L127.27 13.9119ZM124.9 12.9225L125.093 12.4611L124.626 12.2659L124.437 12.7359L124.9 12.9225ZM124.58 13.7198L124.116 13.5332L123.932 13.991L124.387 14.1812L124.58 13.7198ZM126.956 14.7122L127.421 14.8948L127.6 14.4393L127.149 14.2508L126.956 14.7122ZM123.31 24.008L122.844 23.8254L122.664 24.285L123.121 24.4711L123.31 24.008ZM124.095 24.3277L123.907 24.7908L124.376 24.9818L124.561 24.5103L124.095 24.3277ZM127.65 15.2649H128.15L127.185 15.0823L127.65 15.2649ZM127.65 25.1338H127.15V25.6338H127.65V25.1338ZM128.496 25.1338V25.6338H128.996V25.1338H128.496ZM128.496 15.2538L128.961 15.0712L127.996 15.2538H128.496ZM132.052 24.321L131.587 24.5035L131.772 24.975L132.241 24.7841L132.052 24.321ZM132.838 24.0012L133.026 24.4643L133.484 24.2782L133.303 23.8186L132.838 24.0012ZM129.189 14.6989L128.997 14.2374L128.545 14.4259L128.724 14.8815L129.189 14.6989ZM131.573 13.7046L131.765 14.166L132.221 13.976L132.036 13.5181L131.573 13.7046ZM131.252 12.9071L131.716 12.7206L131.527 12.2506L131.059 12.4457L131.252 12.9071ZM128.875 13.8986L128.41 14.0812L128.596 14.5568L129.068 14.3601L128.875 13.8986ZM128.86 13.8593L129.325 13.6767L129.14 13.2053L128.671 13.3962L128.86 13.8593ZM128.496 14.0075H127.996V14.7508L128.684 14.4706L128.496 14.0075ZM128.496 12.0143V11.5143H127.996V12.0143H128.496ZM130.065 12.0143H130.565V11.5143H130.065V12.0143ZM130.065 12.0518H129.565V12.5518H130.065V12.0518ZM130.911 12.0518V12.5518H131.411V12.0518H130.911ZM130.911 4.59583V4.09583H130.411V4.59583H130.911ZM131.916 4.59583V5.09583H132.416V4.59583H131.916ZM86.8943 0.343145L87.0971 -0.11387L86.6338 -0.319468L86.4345 0.146549L86.8943 0.343145ZM84.6964 5.48259V5.98259H85.0264L85.1562 5.67919L84.6964 5.48259ZM87.6698 0.687311L88.1295 0.883907L88.3234 0.430383L87.8726 0.230296L87.6698 0.687311ZM86.6499 3.07227L86.1901 2.87567L85.8922 3.57227H86.6499V3.07227ZM89.6149 3.07227V3.57227H89.9532L90.079 3.2582L89.6149 3.07227ZM89.8287 2.53847L90.0207 2.07678L89.553 1.88233L89.3646 2.35253L89.8287 2.53847ZM90.6119 2.86406L91.0761 3.05L91.2596 2.59184L90.8039 2.40237L90.6119 2.86406ZM88.7525 7.50584L88.2883 7.3199L88.0135 8.00584H88.7525V7.50584ZM91.2644 7.50584V8.00584H91.7644V7.50584H91.2644ZM91.2644 7.01245V6.51245H90.7644V7.01245H91.2644ZM92.1103 7.01245H92.6103V6.51245H92.1103V7.01245ZM92.1103 18.0464H91.6103V18.5464H92.1103V18.0464ZM93.3485 18.0464H93.8485V17.5464H93.3485V18.0464ZM93.3485 18.9081V19.4081H93.8485V18.9081H93.3485ZM89.0946 18.9081V18.4081H88.1774L88.6743 19.1791L89.0946 18.9081ZM93.1401 25.1838L93.4193 25.5985L93.8259 25.3248L93.5604 24.9128L93.1401 25.1838ZM92.4352 25.6583L92.015 25.9293L92.2914 26.3579L92.7144 26.0731L92.4352 25.6583ZM88.2667 19.1928L88.687 18.9219L88.267 18.2705L87.8467 18.9216L88.2667 19.1928ZM84.0928 25.6583L83.8135 26.0731L84.2364 26.3578L84.5128 25.9295L84.0928 25.6583ZM83.3878 25.1838L82.9678 24.9126L82.7018 25.3246L83.1086 25.5985L83.3878 25.1838ZM87.4391 18.9081L87.8592 19.1793L88.357 18.4081H87.4391V18.9081ZM83.2469 18.9081H82.7469V19.4081H83.2469V18.9081ZM83.2469 18.0464V17.5464H82.7469V18.0464H83.2469ZM84.6812 18.0464V18.5464H85.1812V18.0464H84.6812ZM84.6812 7.01245V6.51245H84.1812V7.01245H84.6812ZM85.5271 7.01245H86.0271V6.51245H85.5271V7.01245ZM85.5271 7.50584H85.0271V8.00584H85.5271V7.50584ZM87.8388 7.50584V8.00584H88.1772L88.303 7.69177L87.8388 7.50584ZM89.2697 3.934L89.7338 4.11993L90.0086 3.434H89.2697V3.934ZM86.3117 3.934H85.8117V4.434H86.3117V3.934ZM86.3117 3.86308H86.8117L85.852 3.66648L86.3117 3.86308ZM85.1115 6.6697L84.9087 7.12672L85.3719 7.33231L85.5712 6.8663L85.1115 6.6697ZM84.3783 6.34432L84.5811 5.88731L84.4843 5.84432H84.3783V6.34432ZM82.0945 6.34432V5.84432H81.5945V6.34432H82.0945ZM82.0945 13.3757H81.5945V14.7097L82.4713 13.7044L82.0945 13.3757ZM83.0626 12.2656L83.3982 11.8949L83.0206 11.5532L82.6858 11.937L83.0626 12.2656ZM83.695 12.838L84.0718 13.1666L84.3945 12.7967L84.0305 12.4673L83.695 12.838ZM82.0945 14.6731L81.7177 14.3445L81.5945 14.4857V14.6731H82.0945ZM82.0945 25.471V25.971H82.5945V25.471H82.0945ZM81.2486 25.471H80.7486V25.971H81.2486V25.471ZM81.2486 25.3861H81.7486V25.0643L81.4556 24.931L81.2486 25.3861ZM79.167 24.4393L78.709 24.2386L78.5111 24.6903L78.96 24.8945L79.167 24.4393ZM79.5119 23.6525L79.7189 23.1973L79.2574 22.9874L79.0539 23.4518L79.5119 23.6525ZM81.2486 24.4424L81.0416 24.8976L81.7486 25.2191V24.4424H81.2486ZM81.2486 15.643H81.7486V14.309L80.8718 15.3144L81.2486 15.643ZM79.8965 17.1933L79.561 17.564L79.9386 17.9058L80.2734 17.522L79.8965 17.1933ZM79.2642 16.621L78.8874 16.2924L78.5647 16.6623L78.9286 16.9917L79.2642 16.621ZM81.2486 14.3456L81.6254 14.6743L81.7486 14.533V14.3456H81.2486ZM81.2486 6.34432H81.7486V5.84432H81.2486V6.34432ZM79.6242 6.34432H79.1242V6.84432H79.6242V6.34432ZM79.6242 5.48259V4.98259H79.1242V5.48259H79.6242ZM81.2486 5.48259V5.98259H81.7486V5.48259H81.2486ZM81.2486 0.605718V0.105718H80.7486V0.605718H81.2486ZM82.0945 0.605718H82.5945V0.105718H82.0945V0.605718ZM82.0945 5.48259H81.5945V5.98259H82.0945V5.48259ZM91.2644 18.0464V18.5464H91.7644V18.0464H91.2644ZM91.2644 8.36757H91.7644V7.86757H91.2644V8.36757ZM88.6287 18.0464H88.1287V18.5464H88.6287V18.0464ZM88.6287 8.36757V7.86757H88.1287V8.36757H88.6287ZM87.7828 18.0464V18.5464H88.2828V18.0464H87.7828ZM87.7828 8.36757H88.2828V7.86757H87.7828V8.36757ZM85.5271 18.0464H85.0271V18.5464H85.5271V18.0464ZM85.5271 8.36757V7.86757H85.0271V8.36757H85.5271ZM117.851 14.3497V13.8497H117.571L117.425 14.0885L117.851 14.3497ZM119.798 14.3497H120.298V13.8497H119.798V14.3497ZM117.789 14.4516L117.52 14.8735L117.949 15.1463L118.215 14.7128L117.789 14.4516ZM117.628 14.3497L117.897 13.9278L117.774 13.8497H117.628V14.3497ZM117.622 14.3497H117.122V14.8497H117.622V14.3497ZM117.622 14.3455H118.122V14.0709L117.89 13.9236L117.622 14.3455ZM117.071 13.9953L116.645 13.7341L116.388 14.1534L116.803 14.4172L117.071 13.9953ZM121.399 6.93134L121.825 7.19255L122.292 6.43134H121.399V6.93134ZM114.729 6.93134H114.229V7.43134H114.729V6.93134ZM114.729 6.06961V5.56961H114.229V6.06961H114.729ZM118.657 6.06961V6.56961H118.987L119.117 6.26652L118.657 6.06961ZM121.005 0.59055L121.208 0.133678L120.745 -0.0722509L120.545 0.393637L121.005 0.59055ZM121.78 0.935267L122.239 1.13218L122.434 0.678797L121.983 0.478396L121.78 0.935267ZM119.58 6.06961L119.12 5.87269L118.822 6.56961H119.58V6.06961ZM122.317 6.06961H122.817V5.56961H122.317V6.06961ZM122.317 6.93134V7.43134H122.817V6.93134H122.317ZM122.308 6.93134V6.43134H120.589L122.039 7.35327L122.308 6.93134ZM122.371 6.97175L122.798 7.23296L123.055 6.81365L122.64 6.54981L122.371 6.97175ZM118.379 13.488L117.953 13.2268L117.486 13.988H118.379V13.488ZM122.203 13.488V13.988H123.084L122.632 13.2316L122.203 13.488ZM120.844 11.2115L120.581 10.7865L120.162 11.0455L120.415 11.4678L120.844 11.2115ZM121.567 10.7637L121.996 10.5073L121.735 10.0709L121.303 10.3386L121.567 10.7637ZM124.895 16.3388L125.159 16.7638L125.577 16.5047L125.325 16.0825L124.895 16.3388ZM124.173 16.7866L123.743 17.0429L124.004 17.4793L124.436 17.2116L124.173 16.7866ZM122.718 14.3497L123.147 14.0934L123.001 13.8497H122.718V14.3497ZM120.644 14.3497V13.8497H120.144V14.3497H120.644ZM120.644 25.1338V25.6338H121.144V25.1338H120.644ZM119.798 25.1338H119.298V25.6338H119.798V25.1338ZM119.798 16.8452H120.298V15.5105L119.421 16.5167L119.798 16.8452ZM116.707 20.3918L116.372 20.7626L116.749 21.1042L117.084 20.7203L116.707 20.3918ZM116.074 19.8197L115.698 19.4911L115.375 19.8612L115.739 20.1905L116.074 19.8197ZM119.798 15.5473L120.175 15.8758L120.298 15.7346V15.5473H119.798ZM130.065 11.1526V11.6526H130.565V11.1526H130.065ZM125.646 11.1526H125.146V11.6526H125.646V11.1526ZM130.065 8.26139H130.565V7.76139H130.065V8.26139ZM125.646 8.26139V7.76139H125.146V8.26139H125.646ZM125.646 4.59583V4.09583H125.146V4.59583H125.646ZM130.065 4.59583H130.565V4.09583H130.065V4.59583ZM125.646 7.39965H125.146V7.89965H125.646V7.39965ZM130.065 7.39965V7.89965H130.565V7.39965H130.065ZM99.7601 1.53613H100.26V1.03613H99.7601V1.53613ZM98.9143 1.53613V1.03613H98.4143V1.53613H98.9143ZM99.7601 2.7787H99.2601V3.2787H99.7601V2.7787ZM109.494 2.7787V3.2787H109.994V2.7787H109.494ZM109.494 1.53613V1.03613H108.994V1.53613H109.494ZM110.34 1.53613H110.84V1.03613H110.34V1.53613ZM110.34 24.5406V25.0406H110.84V24.5406H110.34ZM109.494 24.5406H108.994V25.0406H109.494V24.5406ZM109.494 21.3997H109.994V20.8997H109.494V21.3997ZM99.7601 21.3997V20.8997H99.2601V21.3997H99.7601ZM99.7601 24.5406V25.0406H100.26V24.5406H99.7601ZM98.9143 24.5406H98.4143V25.0406H98.9143V24.5406ZM99.7601 20.5379H99.2601V21.0379H99.7601V20.5379ZM99.7601 11.9643V11.4643H99.2601V11.9643H99.7601ZM109.494 11.9643H109.994V11.4643H109.494V11.9643ZM109.494 20.5379V21.0379H109.994V20.5379H109.494ZM109.494 11.1026V11.6026H109.994V11.1026H109.494ZM109.494 3.64043H109.994V3.14043H109.494V3.64043ZM99.7601 11.1026H99.2601V11.6026H99.7601V11.1026ZM99.7601 3.64043V3.14043H99.2601V3.64043H99.7601ZM126.008 4.2341H131.916V3.2341H126.008V4.2341ZM126.994 0.147308L125.548 3.53796L126.468 3.93023L127.914 0.539581L126.994 0.147308ZM126.478 0.456866L127.251 0.80031L127.657 -0.113422L126.885 -0.456866L126.478 0.456866ZM125.543 3.93085L127.141 0.19675L126.222 -0.19675L124.624 3.53735L125.543 3.93085ZM124.91 4.2341H125.083V3.2341H124.91V4.2341ZM125.41 3.75292V3.7341H124.41V3.75292H125.41ZM124.8 4.25292H124.91V3.25292H124.8V4.25292ZM125.3 12.0518V3.75292H124.3V12.0518H125.3ZM125.646 11.5518H124.8V12.5518H125.646V11.5518ZM125.146 12.0143V12.0518H126.146V12.0143H125.146ZM127.65 11.5143H125.646V12.5143H127.65V11.5143ZM128.15 14.0136V12.0143H127.15V14.0136H128.15ZM127.099 14.3292L127.462 14.4767L127.839 13.5505L127.476 13.403L127.099 14.3292ZM127.735 14.0945L127.753 14.0487L126.822 13.6835L126.804 13.7294L127.735 14.0945ZM124.708 13.3839L127.077 14.3733L127.462 13.4506L125.093 12.4611L124.708 13.3839ZM125.043 13.9065L125.364 13.1092L124.437 12.7359L124.116 13.5332L125.043 13.9065ZM127.149 14.2508L124.772 13.2585L124.387 14.1812L126.763 15.1736L127.149 14.2508ZM123.775 24.1906L127.421 14.8948L126.49 14.5296L122.844 23.8254L123.775 24.1906ZM124.284 23.8646L123.498 23.5449L123.121 24.4711L123.907 24.7908L124.284 23.8646ZM127.185 15.0823L123.63 24.1452L124.561 24.5103L128.116 15.4474L127.185 15.0823ZM128.15 25.1338V15.2649H127.15V25.1338H128.15ZM128.496 24.6338H127.65V25.6338H128.496V24.6338ZM127.996 15.2538V25.1338H128.996V15.2538H127.996ZM132.518 24.1384L128.961 15.0712L128.03 15.4363L131.587 24.5035L132.518 24.1384ZM132.649 23.5381L131.864 23.8578L132.241 24.7841L133.026 24.4643L132.649 23.5381ZM128.724 14.8815L132.372 24.1838L133.303 23.8186L129.655 14.5163L128.724 14.8815ZM131.38 13.2431L128.997 14.2374L129.382 15.1603L131.765 14.166L131.38 13.2431ZM130.788 13.0936L131.109 13.8911L132.036 13.5181L131.716 12.7206L130.788 13.0936ZM129.068 14.3601L131.445 13.3686L131.059 12.4457L128.683 13.4372L129.068 14.3601ZM128.394 14.0419L128.41 14.0812L129.341 13.7161L129.325 13.6767L128.394 14.0419ZM128.684 14.4706L129.048 14.3224L128.671 13.3962L128.307 13.5444L128.684 14.4706ZM127.996 12.0143V14.0075H128.996V12.0143H127.996ZM130.065 11.5143H128.496V12.5143H130.065V11.5143ZM130.565 12.0518V12.0143H129.565V12.0518H130.565ZM130.911 11.5518H130.065V12.5518H130.911V11.5518ZM130.411 4.59583V12.0518H131.411V4.59583H130.411ZM131.916 4.09583H130.911V5.09583H131.916V4.09583ZM131.416 3.7341V4.59583H132.416V3.7341H131.416ZM86.4345 0.146549L84.2367 5.286L85.1562 5.67919L87.354 0.539741L86.4345 0.146549ZM87.8726 0.230296L87.0971 -0.11387L86.6914 0.80016L87.4669 1.14433L87.8726 0.230296ZM87.1096 3.26886L88.1295 0.883907L87.21 0.490715L86.1901 2.87567L87.1096 3.26886ZM89.6149 2.57227H86.6499V3.57227H89.6149V2.57227ZM89.3646 2.35253L89.1508 2.88634L90.079 3.2582L90.2929 2.7244L89.3646 2.35253ZM90.8039 2.40237L90.0207 2.07678L89.6368 3.00016L90.42 3.32576L90.8039 2.40237ZM89.2166 7.69177L91.0761 3.05L90.1478 2.67813L88.2883 7.3199L89.2166 7.69177ZM91.2644 7.00584H88.7525V8.00584H91.2644V7.00584ZM90.7644 7.01245V7.50584H91.7644V7.01245H90.7644ZM92.1103 6.51245H91.2644V7.51245H92.1103V6.51245ZM92.6103 18.0464V7.01245H91.6103V18.0464H92.6103ZM93.3485 17.5464H92.1103V18.5464H93.3485V17.5464ZM93.8485 18.9081V18.0464H92.8485V18.9081H93.8485ZM89.0946 19.4081H93.3485V18.4081H89.0946V19.4081ZM93.5604 24.9128L89.5148 18.6372L88.6743 19.1791L92.7199 25.4547L93.5604 24.9128ZM92.7144 26.0731L93.4193 25.5985L92.8609 24.769L92.156 25.2436L92.7144 26.0731ZM87.8465 19.4637L92.015 25.9293L92.8554 25.3874L88.687 18.9219L87.8465 19.4637ZM84.5128 25.9295L88.6868 19.464L87.8467 18.9216L83.6727 25.3871L84.5128 25.9295ZM83.1086 25.5985L83.8135 26.0731L84.372 25.2436L83.6671 24.769L83.1086 25.5985ZM87.0191 18.637L82.9678 24.9126L83.8079 25.4549L87.8592 19.1793L87.0191 18.637ZM83.2469 19.4081H87.4391V18.4081H83.2469V19.4081ZM82.7469 18.0464V18.9081H83.7469V18.0464H82.7469ZM84.6812 17.5464H83.2469V18.5464H84.6812V17.5464ZM84.1812 7.01245V18.0464H85.1812V7.01245H84.1812ZM85.5271 6.51245H84.6812V7.51245H85.5271V6.51245ZM86.0271 7.50584V7.01245H85.0271V7.50584H86.0271ZM87.8388 7.00584H85.5271V8.00584H87.8388V7.00584ZM88.8055 3.74807L87.3747 7.3199L88.303 7.69177L89.7338 4.11993L88.8055 3.74807ZM86.3117 4.434H89.2697V3.434H86.3117V4.434ZM85.8117 3.86308V3.934H86.8117V3.86308H85.8117ZM85.5712 6.8663L86.7714 4.05968L85.852 3.66648L84.6517 6.4731L85.5712 6.8663ZM84.1755 6.80134L84.9087 7.12672L85.3143 6.21269L84.5811 5.88731L84.1755 6.80134ZM82.0945 6.84432H84.3783V5.84432H82.0945V6.84432ZM82.5945 13.3757V6.34432H81.5945V13.3757H82.5945ZM82.6858 11.937L81.7177 13.0471L82.4713 13.7044L83.4395 12.5943L82.6858 11.937ZM84.0305 12.4673L83.3982 11.8949L82.7271 12.6363L83.3595 13.2087L84.0305 12.4673ZM82.4713 15.0018L84.0718 13.1666L83.3182 12.5094L81.7177 14.3445L82.4713 15.0018ZM82.5945 25.471V14.6731H81.5945V25.471H82.5945ZM81.2486 25.971H82.0945V24.971H81.2486V25.971ZM80.7486 25.3861V25.471H81.7486V25.3861H80.7486ZM78.96 24.8945L81.0416 25.8413L81.4556 24.931L79.374 23.9842L78.96 24.8945ZM79.0539 23.4518L78.709 24.2386L79.6249 24.64L79.9698 23.8532L79.0539 23.4518ZM81.4556 23.9873L79.7189 23.1973L79.3048 24.1076L81.0416 24.8976L81.4556 23.9873ZM80.7486 15.643V24.4424H81.7486V15.643H80.7486ZM80.2734 17.522L81.6254 15.9717L80.8718 15.3144L79.5197 16.8647L80.2734 17.522ZM78.9286 16.9917L79.561 17.564L80.2321 16.8226L79.5997 16.2503L78.9286 16.9917ZM80.8718 14.017L78.8874 16.2924L79.641 16.9496L81.6254 14.6743L80.8718 14.017ZM80.7486 6.34432V14.3456H81.7486V6.34432H80.7486ZM79.6242 6.84432H81.2486V5.84432H79.6242V6.84432ZM79.1242 5.48259V6.34432H80.1242V5.48259H79.1242ZM81.2486 4.98259H79.6242V5.98259H81.2486V4.98259ZM80.7486 0.605718V5.48259H81.7486V0.605718H80.7486ZM82.0945 0.105718H81.2486V1.10572H82.0945V0.105718ZM82.5945 5.48259V0.605718H81.5945V5.48259H82.5945ZM84.6964 4.98259H82.0945V5.98259H84.6964V4.98259ZM91.7644 18.0464V8.36757H90.7644V18.0464H91.7644ZM88.6287 18.5464H91.2644V17.5464H88.6287V18.5464ZM88.1287 8.36757V18.0464H89.1287V8.36757H88.1287ZM91.2644 7.86757H88.6287V8.86757H91.2644V7.86757ZM88.2828 18.0464V8.36757H87.2828V18.0464H88.2828ZM85.5271 18.5464H87.7828V17.5464H85.5271V18.5464ZM85.0271 8.36757V18.0464H86.0271V8.36757H85.0271ZM87.7828 7.86757H85.5271V8.86757H87.7828V7.86757ZM89.5114 12.9201C89.5575 12.9201 89.6121 12.9622 89.6121 13.0321H90.6121C90.6121 12.4275 90.1272 11.9201 89.5114 11.9201V12.9201ZM89.4106 13.0321C89.4106 12.9622 89.4652 12.9201 89.5114 12.9201V11.9201C88.8955 11.9201 88.4106 12.4275 88.4106 13.0321H89.4106ZM89.5114 13.144C89.4652 13.144 89.4106 13.1019 89.4106 13.0321H88.4106C88.4106 13.6366 88.8955 14.144 89.5114 14.144V13.144ZM89.6121 13.0321C89.6121 13.1019 89.5575 13.144 89.5114 13.144V14.144C90.1272 14.144 90.6121 13.6366 90.6121 13.0321H89.6121ZM117.851 14.8497H119.798V13.8497H117.851V14.8497ZM118.215 14.7128L118.277 14.6109L117.425 14.0885L117.362 14.1903L118.215 14.7128ZM117.36 14.7716L117.52 14.8735L118.057 14.0296L117.897 13.9278L117.36 14.7716ZM117.622 14.8497H117.628V13.8497H117.622V14.8497ZM117.122 14.3455V14.3497H118.122V14.3455H117.122ZM116.803 14.4172L117.354 14.7675L117.89 13.9236L117.339 13.5734L116.803 14.4172ZM120.973 6.67013L116.645 13.7341L117.497 14.2565L121.825 7.19255L120.973 6.67013ZM114.729 7.43134H121.399V6.43134H114.729V7.43134ZM114.229 6.06961V6.93134H115.229V6.06961H114.229ZM118.657 5.56961H114.729V6.56961H118.657V5.56961ZM120.545 0.393637L118.197 5.87269L119.117 6.26652L121.464 0.787462L120.545 0.393637ZM121.983 0.478396L121.208 0.133678L120.801 1.04742L121.577 1.39214L121.983 0.478396ZM120.04 6.26652L122.239 1.13218L121.32 0.738355L119.12 5.87269L120.04 6.26652ZM122.317 5.56961H119.58V6.56961H122.317V5.56961ZM122.817 6.93134V6.06961H121.817V6.93134H122.817ZM122.308 7.43134H122.317V6.43134H122.308V7.43134ZM122.64 6.54981L122.576 6.5094L122.039 7.35327L122.103 7.39369L122.64 6.54981ZM118.805 13.7492L122.798 7.23296L121.945 6.71054L117.953 13.2268L118.805 13.7492ZM122.203 12.988H118.379V13.988H122.203V12.988ZM120.415 11.4678L121.774 13.7443L122.632 13.2316L121.273 10.9551L120.415 11.4678ZM121.303 10.3386L120.581 10.7865L121.107 11.6365L121.83 11.1887L121.303 10.3386ZM125.325 16.0825L121.996 10.5073L121.137 11.02L124.466 16.5951L125.325 16.0825ZM124.436 17.2116L125.159 16.7638L124.632 15.9138L123.909 16.3616L124.436 17.2116ZM122.288 14.606L123.743 17.0429L124.602 16.5303L123.147 14.0934L122.288 14.606ZM120.644 14.8497H122.718V13.8497H120.644V14.8497ZM121.144 25.1338V14.3497H120.144V25.1338H121.144ZM119.798 25.6338H120.644V24.6338H119.798V25.6338ZM119.298 16.8452V25.1338H120.298V16.8452H119.298ZM117.084 20.7203L120.175 17.1737L119.421 16.5167L116.33 20.0633L117.084 20.7203ZM115.739 20.1905L116.372 20.7626L117.042 20.021L116.41 19.4488L115.739 20.1905ZM119.421 15.2188L115.698 19.4911L116.451 20.1482L120.175 15.8758L119.421 15.2188ZM119.298 14.3497V15.5473H120.298V14.3497H119.298ZM130.065 10.6526H125.646V11.6526H130.065V10.6526ZM129.565 8.26139V11.1526H130.565V8.26139H129.565ZM125.646 8.76139H130.065V7.76139H125.646V8.76139ZM126.146 11.1526V8.26139H125.146V11.1526H126.146ZM125.646 5.09583H130.065V4.09583H125.646V5.09583ZM126.146 7.39965V4.59583H125.146V7.39965H126.146ZM130.065 6.89965H125.646V7.89965H130.065V6.89965ZM129.565 4.59583V7.39965H130.565V4.59583H129.565ZM121.919 17.8345C121.965 17.8345 122.02 17.8766 122.02 17.9465H123.02C123.02 17.3419 122.535 16.8345 121.919 16.8345V17.8345ZM121.818 17.9465C121.818 17.8766 121.873 17.8345 121.919 17.8345V16.8345C121.303 16.8345 120.818 17.3419 120.818 17.9465H121.818ZM121.919 18.0584C121.873 18.0584 121.818 18.0163 121.818 17.9465H120.818C120.818 18.551 121.303 19.0584 121.919 19.0584V18.0584ZM122.02 17.9465C122.02 18.0163 121.965 18.0584 121.919 18.0584V19.0584C122.535 19.0584 123.02 18.551 123.02 17.9465H122.02ZM99.7601 1.03613H98.9143V2.03613H99.7601V1.03613ZM100.26 2.7787V1.53613H99.2601V2.7787H100.26ZM109.494 2.2787H99.7601V3.2787H109.494V2.2787ZM108.994 1.53613V2.7787H109.994V1.53613H108.994ZM110.34 1.03613H109.494V2.03613H110.34V1.03613ZM110.84 24.5406V1.53613H109.84V24.5406H110.84ZM109.494 25.0406H110.34V24.0406H109.494V25.0406ZM108.994 21.3997V24.5406H109.994V21.3997H108.994ZM99.7601 21.8997H109.494V20.8997H99.7601V21.8997ZM100.26 24.5406V21.3997H99.2601V24.5406H100.26ZM98.9143 25.0406H99.7601V24.0406H98.9143V25.0406ZM98.4143 1.53613V24.5406H99.4143V1.53613H98.4143ZM100.26 20.5379V11.9643H99.2601V20.5379H100.26ZM99.7601 12.4643H109.494V11.4643H99.7601V12.4643ZM108.994 11.9643V20.5379H109.994V11.9643H108.994ZM109.494 20.0379H99.7601V21.0379H109.494V20.0379ZM109.994 11.1026V3.64043H108.994V11.1026H109.994ZM99.7601 11.6026H109.494V10.6026H99.7601V11.6026ZM99.2601 3.64043V11.1026H100.26V3.64043H99.2601ZM109.494 3.14043H99.7601V4.14043H109.494V3.14043Z" fill="black"/>
<path d="M145.714 58.3856C145.714 55.6692 146.615 53.39 148.423 51.5479C150.232 49.7058 152.457 48.7879 155.111 48.7879V50.1741C152.861 50.1741 150.961 50.9485 149.416 52.5033C147.872 54.0582 147.105 56.0189 147.105 58.3918C147.105 60.415 147.718 62.1572 148.938 63.6122C150.158 65.0671 151.752 66.0163 153.719 66.4596V53.6211H155.111V68.0832C152.383 67.7959 150.17 66.828 148.466 65.192C146.633 63.4186 145.714 61.1519 145.714 58.3981V58.3856ZM139.259 68.0894V53.3713L135.257 50.9422V68.0894H133.865V48.4507L139.259 51.779V48.8004H140.651V68.0894H139.259ZM126.559 68.0894V48.8004H127.95V68.0894H126.559ZM115.507 66.6719C117.138 66.6719 118.223 66.5783 118.774 66.3847C119.89 65.9975 120.448 65.1295 120.448 63.7808C120.448 62.8191 120.086 61.6389 119.356 60.2526C118.627 58.8664 117.916 57.5238 117.211 56.2312C116.433 54.6889 116.046 53.4275 116.046 52.4409C116.046 51.2232 116.42 50.3115 117.168 49.7058C117.916 49.1001 118.903 48.7941 120.135 48.7941H121.159V50.1804C119.963 50.1804 119.154 50.2553 118.719 50.4114C117.867 50.7174 117.444 51.3668 117.444 52.3472C117.444 53.3276 117.824 54.5827 118.578 56.0502C119.277 57.324 119.976 58.5979 120.681 59.8655C121.459 61.4079 121.845 62.7067 121.845 63.7683C121.845 65.1545 121.373 66.2348 120.423 67.0091C119.553 67.721 118.419 68.0769 117.015 68.0769H115.513V66.6594L115.507 66.6719ZM105.589 66.6719C107.22 66.6719 108.305 66.5783 108.856 66.3847C109.972 65.9975 110.53 65.1295 110.53 63.7808C110.53 62.8191 110.168 61.6389 109.439 60.2526C108.709 58.8664 107.998 57.5238 107.293 56.2312C106.515 54.6889 106.129 53.4275 106.129 52.4409C106.129 51.2232 106.503 50.3115 107.25 49.7058C107.998 49.1001 108.985 48.7941 110.217 48.7941H111.241V50.1804C110.046 50.1804 109.236 50.2553 108.801 50.4114C107.949 50.7174 107.526 51.3668 107.526 52.3472C107.526 53.3276 107.906 54.5827 108.66 56.0502C109.359 57.324 110.058 58.5979 110.763 59.8655C111.541 61.4079 111.927 62.7067 111.927 63.7683C111.927 65.1545 111.455 66.2348 110.505 67.0091C109.635 67.721 108.501 68.0769 107.097 68.0769H105.595V66.6594L105.589 66.6719ZM76.3631 56.5559C76.3631 54.8013 75.8115 53.3401 74.702 52.1724C73.5925 51.0047 72.1827 50.3365 70.4603 50.1617V62.8004C72.1643 62.6068 73.5558 61.9636 74.6346 60.8646C75.787 59.7094 76.3693 58.2732 76.3693 56.5559H76.3631ZM75.3395 68.0957L70.4542 63.9306V68.0957H69.0627V48.8066H70.1109C72.2134 48.8066 74.0094 49.5372 75.505 51.0047C77.0006 52.4721 77.7484 54.283 77.7484 56.4435C77.7484 58.1795 77.2826 59.6844 76.357 60.9583C75.4314 62.2321 74.1442 63.1875 72.4953 63.8182L77.5462 68.1019H75.3334L75.3395 68.0957ZM54.9216 58.4667C54.9216 55.7067 55.8227 53.4088 57.6309 51.5667C59.4392 49.7245 61.6765 48.8066 64.3429 48.8066V50.1929C62.1117 50.1929 60.2054 50.9797 58.6362 52.5658C57.067 54.1456 56.2824 56.1126 56.2824 58.4667C56.2824 60.8209 57.0609 62.7567 58.6117 64.3365C60.1625 65.9163 62.0749 66.7094 64.349 66.7094V68.0957C61.7378 68.0957 59.5127 67.1715 57.68 65.3169C55.8411 63.4685 54.9278 61.1831 54.9278 58.4605L54.9216 58.4667Z" fill="white" stroke="black"/>
<path d="M83.5778 58.4606C83.5778 60.796 84.3931 62.788 86.0174 64.449C87.6479 66.11 89.6155 66.9343 91.9203 66.9343C94.225 66.9343 96.1743 66.1225 97.8109 64.4927C99.4475 62.8629 100.269 60.8897 100.269 58.5792C100.269 56.1127 99.4475 54.0583 97.7986 52.416C96.1497 50.7799 94.1269 49.9557 91.7241 49.9557C89.4929 49.9557 87.5744 50.7987 85.9745 52.4847C84.3747 54.1707 83.5778 56.1626 83.5778 58.4543V58.4606ZM101.636 58.4918C101.636 61.2081 100.692 63.5311 98.7977 65.4606C96.9037 67.3901 94.6234 68.3518 91.9571 68.3518C89.2907 68.3518 86.9982 67.4089 85.0857 65.5168C83.1733 63.6247 82.217 61.3143 82.217 58.5792C82.217 55.8442 83.1733 53.3651 85.0857 51.4356C86.9982 49.5061 89.3458 48.5444 92.1287 48.5444C94.9115 48.5444 97.0263 49.5248 98.8713 51.4793C100.716 53.4338 101.642 55.7755 101.642 58.4918H101.636Z" fill="white" stroke="black"/>
</g>
<defs>
<clipPath id="clip0_1132_183287">
<rect width="212" height="70" fill="white"/>
</clipPath>
</defs>
</svg>
