<svg width="274" height="80" viewBox="0 0 274 80" fill="none" xmlns="http://www.w3.org/2000/svg">
<g filter="url(#filter0_d_1424_241474)">
<path fill-rule="evenodd" clip-rule="evenodd" d="M110 34.5024C159.025 34.5024 200.707 50.1697 216 72.0002C199.499 51.6184 158.265 37.1751 110 37.1751C61.7352 37.1751 20.501 51.6247 4 72.0002C19.2935 50.1635 60.9751 34.5024 110 34.5024Z" fill="#FF9900"/>
</g>
<g filter="url(#filter1_d_1424_241474)">
<path fill-rule="evenodd" clip-rule="evenodd" d="M135.916 5.7341H130.008L131.454 2.34344L130.681 2L129.083 5.7341H128.91V5.75292H128.8V14.0518H129.645V14.0143H131.65V16.0136L131.288 15.8661L131.27 15.9119L128.9 14.9225L128.579 15.7198L130.956 16.7122L127.31 26.008L128.095 26.3277L131.65 17.2649V27.1338H132.496V17.2538L136.052 26.321L136.838 26.0012L133.189 16.6989L135.572 15.7046L135.252 14.9071L132.875 15.8986L132.86 15.8593L132.496 16.0075V14.0143H134.065V14.0518H134.911V6.59583H135.916V5.7341ZM88.6963 7.48259L90.8941 2.34314L91.6696 2.68731L90.6497 5.07227H93.6148L93.8286 4.53847L94.6118 4.86406L92.7523 9.50584H95.2643V9.01245H96.1102V20.0464H97.3484V20.9081H93.0945L97.14 27.1838L96.4351 27.6583L92.2666 21.1928L88.0926 27.6583L87.3877 27.1838L91.439 20.9081H87.2467V20.0464H88.6811V9.01245H89.527V9.50584H91.8387L93.2696 5.934H90.3116V5.86308L89.1114 8.6697L88.3782 8.34432H86.0944V15.3757L87.0625 14.2656L87.6949 14.838L86.0944 16.6731V27.471H85.2485V27.3861L83.1669 26.4393L83.5117 25.6525L85.2485 26.4424V17.643L83.8964 19.1933L83.2641 18.621L85.2485 16.3456V8.34432H83.6241V7.48259H85.2485V2.60572H86.0944V7.48259H88.6963ZM95.2643 10.3676V20.0464H92.6286V10.3676H95.2643ZM91.7827 10.3676V20.0464H89.527V10.3676H91.7827ZM94.112 15.0321C94.112 14.6949 93.8422 14.4201 93.5112 14.4201C93.1802 14.4201 92.9105 14.6949 92.9105 15.0321C92.9105 15.3693 93.1802 15.644 93.5112 15.644C93.8422 15.644 94.112 15.3693 94.112 15.0321ZM123.798 16.3497H121.851L121.789 16.4516L121.628 16.3497H121.622V16.3455L121.071 15.9953L125.399 8.93134H118.729V8.06961H122.657L125.004 2.59055L125.78 2.93527L123.58 8.06961H126.317V8.93134H126.308L126.371 8.97175L122.379 15.488H126.203L124.844 13.2115L125.567 12.7637L128.895 18.3388L128.173 18.7866L126.718 16.3497H124.644V27.1338H123.798V18.8452L120.707 22.3918L120.074 21.8197L123.798 17.5473V16.3497ZM129.645 13.1526H134.065V10.2614H129.645V13.1526ZM134.065 6.59583H129.645V9.39965H134.065V6.59583ZM126.519 19.9465C126.519 19.6093 126.25 19.3345 125.919 19.3345C125.588 19.3345 125.318 19.6093 125.318 19.9465C125.318 20.2837 125.588 20.5584 125.919 20.5584C126.25 20.5584 126.519 20.2837 126.519 19.9465ZM102.914 3.53613H103.76V4.7787H113.494V3.53613H114.34V26.5406H113.494V23.3997H103.76V26.5406H102.914V3.53613ZM103.76 22.5379V13.9643H113.494V22.5379H103.76ZM113.494 5.64043V13.1026H103.76V5.64043H113.494Z" fill="black"/>
</g>
<g filter="url(#filter2_d_1424_241474)">
<path d="M149.714 60.3856C149.714 57.6692 150.615 55.39 152.423 53.5479C154.232 51.7058 156.457 50.7879 159.111 50.7879V52.1741C156.861 52.1741 154.961 52.9485 153.416 54.5033C151.872 56.0582 151.105 58.0189 151.105 60.3918C151.105 62.415 151.718 64.1572 152.938 65.6122C154.158 67.0671 155.752 68.0163 157.719 68.4596V55.6211H159.111V70.0832C156.383 69.7959 154.17 68.828 152.466 67.192C150.633 65.4186 149.714 63.1519 149.714 60.3981V60.3856ZM143.259 70.0894V55.3713L139.257 52.9422V70.0894H137.865V50.4507L143.259 53.779V50.8004H144.651V70.0894H143.259ZM130.559 70.0894V50.8004H131.95V70.0894H130.559ZM119.507 68.6719C121.138 68.6719 122.223 68.5783 122.774 68.3847C123.89 67.9975 124.448 67.1295 124.448 65.7808C124.448 64.8191 124.086 63.6389 123.356 62.2526C122.627 60.8664 121.916 59.5238 121.211 58.2312C120.433 56.6889 120.046 55.4275 120.046 54.4409C120.046 53.2232 120.42 52.3115 121.168 51.7058C121.916 51.1001 122.903 50.7941 124.135 50.7941H125.159V52.1804C123.963 52.1804 123.154 52.2553 122.719 52.4114C121.867 52.7174 121.444 53.3668 121.444 54.3472C121.444 55.3276 121.824 56.5827 122.578 58.0502C123.277 59.324 123.976 60.5979 124.681 61.8655C125.459 63.4079 125.845 64.7067 125.845 65.7683C125.845 67.1545 125.373 68.2348 124.423 69.0091C123.553 69.721 122.419 70.0769 121.015 70.0769H119.513V68.6594L119.507 68.6719ZM109.589 68.6719C111.22 68.6719 112.305 68.5783 112.856 68.3847C113.972 67.9975 114.53 67.1295 114.53 65.7808C114.53 64.8191 114.168 63.6389 113.439 62.2526C112.709 60.8664 111.998 59.5238 111.293 58.2312C110.515 56.6889 110.129 55.4275 110.129 54.4409C110.129 53.2232 110.503 52.3115 111.25 51.7058C111.998 51.1001 112.985 50.7941 114.217 50.7941H115.241V52.1804C114.046 52.1804 113.236 52.2553 112.801 52.4114C111.949 52.7174 111.526 53.3668 111.526 54.3472C111.526 55.3276 111.906 56.5827 112.66 58.0502C113.359 59.324 114.058 60.5979 114.763 61.8655C115.541 63.4079 115.927 64.7067 115.927 65.7683C115.927 67.1545 115.455 68.2348 114.505 69.0091C113.635 69.721 112.501 70.0769 111.097 70.0769H109.595V68.6594L109.589 68.6719ZM80.3631 58.5559C80.3631 56.8013 79.8115 55.3401 78.702 54.1724C77.5925 53.0047 76.1827 52.3365 74.4603 52.1617V64.8004C76.1643 64.6068 77.5558 63.9636 78.6346 62.8646C79.787 61.7094 80.3693 60.2732 80.3693 58.5559H80.3631ZM79.3395 70.0957L74.4542 65.9306V70.0957H73.0627V50.8066H74.1109C76.2134 50.8066 78.0094 51.5372 79.505 53.0047C81.0006 54.4721 81.7484 56.283 81.7484 58.4435C81.7484 60.1795 81.2826 61.6844 80.357 62.9583C79.4314 64.2321 78.1442 65.1875 76.4953 65.8182L81.5462 70.1019H79.3334L79.3395 70.0957ZM58.9216 60.4667C58.9216 57.7067 59.8227 55.4088 61.6309 53.5667C63.4392 51.7245 65.6765 50.8066 68.3429 50.8066V52.1929C66.1117 52.1929 64.2054 52.9797 62.6362 54.5658C61.067 56.1456 60.2824 58.1126 60.2824 60.4667C60.2824 62.8209 61.0609 64.7567 62.6117 66.3365C64.1625 67.9163 66.0749 68.7094 68.349 68.7094V70.0957C65.7378 70.0957 63.5127 69.1715 61.68 67.3169C59.8411 65.4685 58.9278 63.1831 58.9278 60.4605L58.9216 60.4667Z" fill="black"/>
</g>
<g filter="url(#filter3_d_1424_241474)">
<path d="M87.5778 60.4606C87.5778 62.796 88.3931 64.788 90.0174 66.449C91.6479 68.11 93.6155 68.9343 95.9203 68.9343C98.225 68.9343 100.174 68.1225 101.811 66.4927C103.447 64.8629 104.269 62.8897 104.269 60.5792C104.269 58.1127 103.447 56.0583 101.799 54.416C100.15 52.7799 98.1269 51.9557 95.7241 51.9557C93.4929 51.9557 91.5744 52.7987 89.9745 54.4847C88.3747 56.1707 87.5778 58.1626 87.5778 60.4543V60.4606ZM105.636 60.4918C105.636 63.2081 104.692 65.5311 102.798 67.4606C100.904 69.3901 98.6234 70.3518 95.9571 70.3518C93.2907 70.3518 90.9982 69.4089 89.0857 67.5168C87.1733 65.6247 86.217 63.3143 86.217 60.5792C86.217 57.8442 87.1733 55.3651 89.0857 53.4356C90.9982 51.5061 93.3458 50.5444 96.1287 50.5444C98.9115 50.5444 101.026 51.5248 102.871 53.4793C104.716 55.4338 105.642 57.7755 105.642 60.4918H105.636Z" fill="black"/>
</g>
<defs>
<filter id="filter0_d_1424_241474" x="0" y="32.5024" width="220" height="45.4976" filterUnits="userSpaceOnUse" color-interpolation-filters="sRGB">
<feFlood flood-opacity="0" result="BackgroundImageFix"/>
<feColorMatrix in="SourceAlpha" type="matrix" values="0 0 0 0 0 0 0 0 0 0 0 0 0 0 0 0 0 0 127 0" result="hardAlpha"/>
<feOffset dy="2"/>
<feGaussianBlur stdDeviation="2"/>
<feComposite in2="hardAlpha" operator="out"/>
<feColorMatrix type="matrix" values="0 0 0 0 0 0 0 0 0 0 0 0 0 0 0 0 0 0 0.65 0"/>
<feBlend mode="normal" in2="BackgroundImageFix" result="effect1_dropShadow_1424_241474"/>
<feBlend mode="normal" in="SourceGraphic" in2="effect1_dropShadow_1424_241474" result="shape"/>
</filter>
<filter id="filter1_d_1424_241474" x="79.1669" y="0" width="61.6708" height="33.6582" filterUnits="userSpaceOnUse" color-interpolation-filters="sRGB">
<feFlood flood-opacity="0" result="BackgroundImageFix"/>
<feColorMatrix in="SourceAlpha" type="matrix" values="0 0 0 0 0 0 0 0 0 0 0 0 0 0 0 0 0 0 127 0" result="hardAlpha"/>
<feOffset dy="2"/>
<feGaussianBlur stdDeviation="2"/>
<feComposite in2="hardAlpha" operator="out"/>
<feColorMatrix type="matrix" values="0 0 0 0 0 0 0 0 0 0 0 0 0 0 0 0 0 0 0.65 0"/>
<feBlend mode="normal" in2="BackgroundImageFix" result="effect1_dropShadow_1424_241474"/>
<feBlend mode="normal" in="SourceGraphic" in2="effect1_dropShadow_1424_241474" result="shape"/>
</filter>
<filter id="filter2_d_1424_241474" x="54.9216" y="48.4507" width="108.189" height="27.6514" filterUnits="userSpaceOnUse" color-interpolation-filters="sRGB">
<feFlood flood-opacity="0" result="BackgroundImageFix"/>
<feColorMatrix in="SourceAlpha" type="matrix" values="0 0 0 0 0 0 0 0 0 0 0 0 0 0 0 0 0 0 127 0" result="hardAlpha"/>
<feOffset dy="2"/>
<feGaussianBlur stdDeviation="2"/>
<feComposite in2="hardAlpha" operator="out"/>
<feColorMatrix type="matrix" values="0 0 0 0 0 0 0 0 0 0 0 0 0 0 0 0 0 0 0.65 0"/>
<feBlend mode="normal" in2="BackgroundImageFix" result="effect1_dropShadow_1424_241474"/>
<feBlend mode="normal" in="SourceGraphic" in2="effect1_dropShadow_1424_241474" result="shape"/>
</filter>
<filter id="filter3_d_1424_241474" x="82.217" y="48.5444" width="27.4248" height="27.8071" filterUnits="userSpaceOnUse" color-interpolation-filters="sRGB">
<feFlood flood-opacity="0" result="BackgroundImageFix"/>
<feColorMatrix in="SourceAlpha" type="matrix" values="0 0 0 0 0 0 0 0 0 0 0 0 0 0 0 0 0 0 127 0" result="hardAlpha"/>
<feOffset dy="2"/>
<feGaussianBlur stdDeviation="2"/>
<feComposite in2="hardAlpha" operator="out"/>
<feColorMatrix type="matrix" values="0 0 0 0 0 0 0 0 0 0 0 0 0 0 0 0 0 0 0.65 0"/>
<feBlend mode="normal" in2="BackgroundImageFix" result="effect1_dropShadow_1424_241474"/>
<feBlend mode="normal" in="SourceGraphic" in2="effect1_dropShadow_1424_241474" result="shape"/>
</filter>
</defs>
</svg>
