<svg width="270" height="78" viewBox="0 0 270 78" fill="none" xmlns="http://www.w3.org/2000/svg">
<g clip-path="url(#clip0_1132_183117)">
<path fill-rule="evenodd" clip-rule="evenodd" d="M106 46C136.987 46 163.333 56.0276 173 70C162.57 56.9549 136.507 47.7106 106 47.7106C75.493 47.7106 49.4299 56.9589 39 70C48.6666 56.0236 75.0126 46 106 46" fill="#FF9900"/>
<path fill-rule="evenodd" clip-rule="evenodd" d="M143.661 8.61171H135.075L137.176 3.68465L136.054 3.18555L133.731 8.61171H133.479V8.63941H133.319V20.6994H134.548V20.6448H137.461V23.5498L136.935 23.3355L136.908 23.4024L133.465 21.9645L132.999 23.1232L136.452 24.5653L131.154 38.0739L132.295 38.5385L137.461 25.3683V39.7099H138.69V25.3529L143.858 38.5293L145 38.0646L139.698 24.5462L143.161 23.1012L142.696 21.9423L139.242 23.3833L139.219 23.3262L138.69 23.5415V20.6448H140.971V20.6994H142.2V9.864H143.661V8.61171ZM75.0403 11.1525L78.2339 3.68451L79.3609 4.18466L77.8789 7.65032H82.1876L82.4986 6.87415L83.6367 7.34732L80.9343 14.0933H84.5849V13.3766H85.8141V29.4109H87.6135V30.6632H81.4317L87.3106 39.7828L86.2863 40.4725L80.2286 31.0766L74.1628 40.4725L73.1384 39.7828L79.0257 30.6632H72.9336V29.4109H75.0179V13.3766H76.2472V14.0933H79.6066L81.686 8.9026H77.3874V8.7996L75.6431 12.8784L74.5761 12.4048H71.259V22.6237L72.6659 21.0106L73.5848 21.8423L71.259 24.5091V40.2009H70.0298V40.0771L67.0046 38.7012L67.5058 37.5577L70.0298 38.7057V25.9186L68.0648 28.1716L67.1459 27.3399L70.0298 24.0331V12.4048H67.6691V11.1525H70.0298V4.06615H71.259V11.1525H75.0403ZM84.5849 15.3456V29.4109H80.7547V15.3456H84.5849ZM79.5254 15.3456V29.4109H76.2472V15.3456H79.5254ZM82.9102 22.1238C82.9102 21.6338 82.5183 21.2345 82.0372 21.2345C81.5562 21.2345 81.1643 21.6338 81.1643 22.1238C81.1643 22.6138 81.5562 23.0131 82.0372 23.0131C82.5183 23.0131 82.9102 22.6138 82.9102 22.1238ZM126.05 24.0385H123.221L123.13 24.1868L122.897 24.0385H122.888V24.0327L122.088 23.5237L128.377 13.2589H118.684V12.0066H124.392L127.804 4.04378L128.93 4.54473L125.733 12.0066H129.711V13.2589H129.699L129.79 13.317L123.988 22.7862H129.545L127.57 19.4785L128.621 18.8277L133.458 26.9296L132.408 27.5803L130.293 24.0385H127.28V39.71H126.05V27.6656L121.559 32.8196L120.639 31.9881L126.05 25.7794V24.0385ZM134.548 19.3925H140.971V15.1909H134.548V19.3925ZM140.971 9.864H134.548V13.9386H140.971V9.864ZM130.005 29.2656C130.005 28.7755 129.613 28.3763 129.132 28.3763C128.651 28.3763 128.259 28.7755 128.259 29.2656C128.259 29.7556 128.651 30.1549 129.132 30.1549C129.613 30.1549 130.005 29.7556 130.005 29.2656ZM95.7018 5.41764H96.931V7.22386H111.076V5.41764H112.306V38.8482H111.076V34.2843H96.931V38.8482H95.7018V5.41764ZM96.931 33.032V20.5721H111.076V33.032H96.931ZM111.076 8.47615V19.3198H96.931V8.47615H111.076Z" fill="black"/>
</g>
<defs>
<clipPath id="clip0_1132_183117">
<rect width="212" height="70" fill="white"/>
</clipPath>
</defs>
</svg>
