<svg width="212" height="84" viewBox="0 0 212 84" fill="none" xmlns="http://www.w3.org/2000/svg">
<path fill-rule="evenodd" clip-rule="evenodd" d="M106 38.5022C155.025 38.5022 196.707 54.1695 212 76C195.499 55.6182 154.265 41.1748 106 41.1748C57.7352 41.1748 16.501 55.6244 0 76C15.2935 54.1632 56.9751 38.5022 106 38.5022Z" fill="#FF9900"/>
<path fill-rule="evenodd" clip-rule="evenodd" d="M131.916 3.7341H126.008L127.454 0.343444L126.682 0L125.083 3.7341H124.91V3.75292H124.8V12.0518H125.646V12.0143H127.65V14.0136L127.288 13.8661L127.27 13.9119L124.9 12.9225L124.58 13.7198L126.956 14.7122L123.31 24.008L124.095 24.3277L127.65 15.2649V25.1338H128.496V15.2538L132.052 24.321L132.838 24.0012L129.189 14.6989L131.573 13.7046L131.252 12.9071L128.875 13.8986L128.86 13.8593L128.496 14.0075V12.0143H130.065V12.0518H130.911V4.59583H131.916V3.7341ZM84.6964 5.48259L86.8943 0.343145L87.6698 0.687311L86.6499 3.07227H89.6149L89.8287 2.53847L90.6119 2.86406L88.7525 7.50584H91.2644V7.01245H92.1103V18.0464H93.3485V18.9081H89.0946L93.1401 25.1838L92.4352 25.6583L88.2667 19.1928L84.0928 25.6583L83.3878 25.1838L87.4391 18.9081H83.2469V18.0464H84.6812V7.01245H85.5271V7.50584H87.8388L89.2697 3.934H86.3117V3.86308L85.1115 6.6697L84.3783 6.34432H82.0945V13.3757L83.0626 12.2656L83.695 12.838L82.0945 14.6731V25.471H81.2486V25.3861L79.167 24.4393L79.5119 23.6525L81.2486 24.4424V15.643L79.8965 17.1933L79.2642 16.621L81.2486 14.3456V6.34432H79.6242V5.48259H81.2486V0.605718H82.0945V5.48259H84.6964ZM91.2644 8.36757V18.0464H88.6287V8.36757H91.2644ZM87.7828 8.36757V18.0464H85.5271V8.36757H87.7828ZM90.1121 13.0321C90.1121 12.6949 89.8424 12.4201 89.5114 12.4201C89.1804 12.4201 88.9106 12.6949 88.9106 13.0321C88.9106 13.3693 89.1804 13.644 89.5114 13.644C89.8424 13.644 90.1121 13.3693 90.1121 13.0321ZM119.798 14.3497H117.851L117.789 14.4516L117.628 14.3497H117.622V14.3455L117.071 13.9953L121.399 6.93134H114.729V6.06961H118.657L121.005 0.59055L121.78 0.935267L119.58 6.06961H122.317V6.93134H122.308L122.371 6.97175L118.379 13.488H122.203L120.844 11.2115L121.567 10.7637L124.895 16.3388L124.173 16.7866L122.718 14.3497H120.644V25.1338H119.798V16.8452L116.707 20.3918L116.074 19.8197L119.798 15.5473V14.3497ZM125.646 11.1526H130.065V8.26139H125.646V11.1526ZM130.065 4.59583H125.646V7.39965H130.065V4.59583ZM122.52 17.9465C122.52 17.6093 122.25 17.3345 121.919 17.3345C121.588 17.3345 121.318 17.6093 121.318 17.9465C121.318 18.2837 121.588 18.5584 121.919 18.5584C122.25 18.5584 122.52 18.2837 122.52 17.9465ZM98.9143 1.53613H99.7601V2.7787H109.494V1.53613H110.34V24.5406H109.494V21.3997H99.7601V24.5406H98.9143V1.53613ZM99.7601 20.5379V11.9643H109.494V20.5379H99.7601ZM109.494 3.64043V11.1026H99.7601V3.64043H109.494Z" fill="black"/>
<path d="M145.714 70.3856C145.714 67.6692 146.615 65.39 148.423 63.5479C150.232 61.7058 152.457 60.7879 155.111 60.7879V62.1741C152.861 62.1741 150.961 62.9485 149.416 64.5033C147.872 66.0582 147.105 68.0189 147.105 70.3918C147.105 72.415 147.718 74.1572 148.938 75.6122C150.158 77.0671 151.752 78.0163 153.719 78.4596V65.6211H155.111V80.0832C152.383 79.7959 150.17 78.828 148.466 77.192C146.633 75.4186 145.714 73.1519 145.714 70.3981V70.3856ZM139.259 80.0894V65.3713L135.257 62.9422V80.0894H133.865V60.4507L139.259 63.779V60.8004H140.651V80.0894H139.259ZM126.559 80.0894V60.8004H127.95V80.0894H126.559ZM115.507 78.6719C117.138 78.6719 118.223 78.5783 118.774 78.3847C119.89 77.9975 120.448 77.1295 120.448 75.7808C120.448 74.8191 120.086 73.6389 119.356 72.2526C118.627 70.8664 117.916 69.5238 117.211 68.2312C116.433 66.6889 116.046 65.4275 116.046 64.4409C116.046 63.2232 116.42 62.3115 117.168 61.7058C117.916 61.1001 118.903 60.7941 120.135 60.7941H121.159V62.1804C119.963 62.1804 119.154 62.2553 118.719 62.4114C117.867 62.7174 117.444 63.3668 117.444 64.3472C117.444 65.3276 117.824 66.5827 118.578 68.0502C119.277 69.324 119.976 70.5979 120.681 71.8655C121.459 73.4079 121.845 74.7067 121.845 75.7683C121.845 77.1545 121.373 78.2348 120.423 79.0091C119.553 79.721 118.419 80.0769 117.015 80.0769H115.513V78.6594L115.507 78.6719ZM105.589 78.6719C107.22 78.6719 108.305 78.5783 108.856 78.3847C109.972 77.9975 110.53 77.1295 110.53 75.7808C110.53 74.8191 110.168 73.6389 109.439 72.2526C108.709 70.8664 107.998 69.5238 107.293 68.2312C106.515 66.6889 106.129 65.4275 106.129 64.4409C106.129 63.2232 106.503 62.3115 107.25 61.7058C107.998 61.1001 108.985 60.7941 110.217 60.7941H111.241V62.1804C110.046 62.1804 109.236 62.2553 108.801 62.4114C107.949 62.7174 107.526 63.3668 107.526 64.3472C107.526 65.3276 107.906 66.5827 108.66 68.0502C109.359 69.324 110.058 70.5979 110.763 71.8655C111.541 73.4079 111.927 74.7067 111.927 75.7683C111.927 77.1545 111.455 78.2348 110.505 79.0091C109.635 79.721 108.501 80.0769 107.097 80.0769H105.595V78.6594L105.589 78.6719ZM76.3631 68.5559C76.3631 66.8013 75.8115 65.3401 74.702 64.1724C73.5925 63.0047 72.1827 62.3365 70.4603 62.1617V74.8004C72.1643 74.6068 73.5558 73.9636 74.6346 72.8646C75.787 71.7094 76.3693 70.2732 76.3693 68.5559H76.3631ZM75.3395 80.0957L70.4542 75.9306V80.0957H69.0627V60.8066H70.1109C72.2134 60.8066 74.0094 61.5372 75.505 63.0047C77.0006 64.4721 77.7484 66.283 77.7484 68.4435C77.7484 70.1795 77.2826 71.6844 76.357 72.9583C75.4314 74.2321 74.1442 75.1875 72.4953 75.8182L77.5462 80.1019H75.3334L75.3395 80.0957ZM54.9216 70.4667C54.9216 67.7067 55.8227 65.4088 57.6309 63.5667C59.4392 61.7245 61.6765 60.8066 64.3429 60.8066V62.1929C62.1117 62.1929 60.2054 62.9797 58.6362 64.5658C57.067 66.1456 56.2824 68.1126 56.2824 70.4667C56.2824 72.8209 57.0609 74.7567 58.6117 76.3365C60.1625 77.9163 62.0749 78.7094 64.349 78.7094V80.0957C61.7378 80.0957 59.5127 79.1715 57.68 77.3169C55.8411 75.4685 54.9278 73.1831 54.9278 70.4605L54.9216 70.4667Z" fill="black"/>
<path d="M83.5778 70.4606C83.5778 72.796 84.3931 74.788 86.0174 76.449C87.6479 78.11 89.6155 78.9343 91.9203 78.9343C94.225 78.9343 96.1743 78.1225 97.8109 76.4927C99.4475 74.8629 100.269 72.8897 100.269 70.5792C100.269 68.1127 99.4475 66.0583 97.7986 64.416C96.1497 62.7799 94.1269 61.9557 91.7241 61.9557C89.4929 61.9557 87.5744 62.7987 85.9745 64.4847C84.3747 66.1707 83.5778 68.1626 83.5778 70.4543V70.4606ZM101.636 70.4918C101.636 73.2081 100.692 75.5311 98.7977 77.4606C96.9037 79.3901 94.6234 80.3518 91.9571 80.3518C89.2907 80.3518 86.9982 79.4089 85.0857 77.5168C83.1733 75.6247 82.217 73.3143 82.217 70.5792C82.217 67.8442 83.1733 65.3651 85.0857 63.4356C86.9982 61.5061 89.3458 60.5444 92.1287 60.5444C94.9115 60.5444 97.0263 61.5248 98.8713 63.4793C100.716 65.4338 101.642 67.7755 101.642 70.4918H101.636Z" fill="black"/>
</svg>
