<svg width="270" height="85" viewBox="0 0 270 85" fill="none" xmlns="http://www.w3.org/2000/svg">
<g clip-path="url(#clip0_1424_241488)">
<rect width="212" height="77" fill="url(#paint0_linear_1424_241488)"/>
<path fill-rule="evenodd" clip-rule="evenodd" d="M106 36.4185C147.399 36.4185 182.596 49.4745 195.511 67.6666C181.577 50.6818 146.757 38.6456 106 38.6456C65.2429 38.6456 30.423 50.687 16.4888 67.6666C29.4033 49.4693 64.6011 36.4185 106 36.4185Z" fill="#FF9900"/>
<path fill-rule="evenodd" clip-rule="evenodd" d="M127.885 12.4452H122.895L124.116 9.6197L123.464 9.3335L122.115 12.4452H121.968V12.4609H121.875V19.3766H122.589V19.3454H124.282V21.0115L123.976 20.8886L123.961 20.9268L121.96 20.1023L121.689 20.7667L123.696 21.5936L120.617 29.3401L121.28 29.6066L124.282 22.0542V30.2783H124.996V22.045L127.999 29.601L128.663 29.3345L125.582 21.5826L127.594 20.754L127.324 20.0894L125.317 20.9157L125.304 20.8829L124.996 21.0064V19.3454H126.321V19.3766H127.036V13.1634H127.885V12.4452ZM88.0101 13.9023L89.8661 9.61945L90.5209 9.90625L89.6597 11.8937H92.1635L92.3441 11.4489L93.0054 11.7202L91.4352 15.5884H93.5564V15.1772H94.2708V24.3722H95.3163V25.0903H91.7241L95.1403 30.32L94.5451 30.7154L91.0251 25.3275L87.5004 30.7154L86.9051 30.32L90.3262 25.0903H86.786V24.3722H87.9973V15.1772H88.7116V15.5884H90.6637L91.872 12.6118H89.3741V12.5527L88.3606 14.8916L87.7415 14.6204H85.8129V20.4799L86.6305 19.5549L87.1645 20.0318L85.8129 21.5611V30.5594H85.0986V30.4886L83.3408 29.6996L83.632 29.0439L85.0986 29.7022V22.3694L83.9569 23.6613L83.4229 23.1843L85.0986 21.2882V14.6204H83.7269V13.9023H85.0986V9.83826H85.8129V13.9023H88.0101ZM93.5564 16.3065V24.3722H91.3307V16.3065H93.5564ZM90.6164 16.3065V24.3722H88.7116V16.3065H90.6164ZM92.5833 20.1936C92.5833 19.9126 92.3556 19.6836 92.0761 19.6836C91.7965 19.6836 91.5688 19.9126 91.5688 20.1936C91.5688 20.4746 91.7965 20.7035 92.0761 20.7035C92.3556 20.7035 92.5833 20.4746 92.5833 20.1936ZM117.651 21.2916H116.007L115.955 21.3765L115.819 21.2916H115.814V21.2881L115.349 20.9962L119.003 15.1096H113.371V14.3915H116.688L118.67 9.82562L119.325 10.1129L117.467 14.3915H119.779V15.1096H119.771L119.824 15.1433L116.453 20.5735H119.682L118.535 18.6764L119.145 18.3032L121.956 22.9491L121.346 23.3223L120.117 21.2916H118.366V30.2783H117.651V23.3712L115.041 26.3266L114.507 25.8499L117.651 22.2896V21.2916ZM122.589 18.6273H126.321V16.218H122.589V18.6273ZM126.321 13.1634H122.589V15.4999H126.321V13.1634ZM119.95 24.2889C119.95 24.0079 119.722 23.7789 119.442 23.7789C119.163 23.7789 118.935 24.0079 118.935 24.2889C118.935 24.5699 119.163 24.7988 119.442 24.7988C119.722 24.7988 119.95 24.5699 119.95 24.2889ZM100.016 10.6136H100.731V11.6491H108.95V10.6136H109.665V29.784H108.95V27.1666H100.731V29.784H100.016V10.6136ZM100.731 26.4484V19.3038H108.95V26.4484H100.731ZM108.95 12.3672V18.5857H100.731V12.3672H108.95Z" fill="white"/>
<path d="M139.536 57.9881C139.536 55.7244 140.297 53.8251 141.824 52.29C143.351 50.7549 145.23 49.99 147.471 49.99V51.1452C145.571 51.1452 143.967 51.7905 142.662 53.0862C141.358 54.3819 140.711 56.0159 140.711 57.9933C140.711 59.6793 141.229 61.1311 142.259 62.3435C143.289 63.556 144.635 64.347 146.296 64.7164V54.0176H147.471V66.0694C145.168 65.83 143.299 65.0234 141.86 63.6601C140.312 62.1822 139.536 60.2933 139.536 57.9985V57.9881ZM134.086 66.0746V53.8095L130.706 51.7853V66.0746H129.531V49.709L134.086 52.4825V50.0004H135.261V66.0746H134.086ZM123.361 66.0746V50.0004H124.536V66.0746H123.361ZM114.028 64.8934C115.405 64.8934 116.321 64.8153 116.787 64.654C117.729 64.3314 118.2 63.608 118.2 62.484C118.2 61.6827 117.895 60.6992 117.279 59.544C116.663 58.3887 116.062 57.2699 115.467 56.1928C114.81 54.9075 114.483 53.8563 114.483 53.0341C114.483 52.0194 114.799 51.2597 115.431 50.7549C116.062 50.2502 116.896 49.9952 117.936 49.9952H118.8V51.1504C117.791 51.1504 117.108 51.2129 116.74 51.3429C116.021 51.5979 115.664 52.1391 115.664 52.9561C115.664 53.7731 115.985 54.819 116.621 56.0419C117.211 57.1034 117.801 58.165 118.397 59.2213C119.054 60.5066 119.38 61.589 119.38 62.4736C119.38 63.6289 118.982 64.5291 118.179 65.1744C117.444 65.7676 116.487 66.0642 115.301 66.0642H114.033V64.8829L114.028 64.8934ZM105.653 64.8934C107.03 64.8934 107.946 64.8153 108.412 64.654C109.354 64.3314 109.825 63.608 109.825 62.484C109.825 61.6827 109.52 60.6992 108.904 59.544C108.288 58.3887 107.687 57.2699 107.092 56.1928C106.435 54.9075 106.108 53.8563 106.108 53.0341C106.108 52.0194 106.424 51.2597 107.056 50.7549C107.687 50.2502 108.521 49.9952 109.561 49.9952H110.425V51.1504C109.416 51.1504 108.733 51.2129 108.365 51.3429C107.646 51.5979 107.289 52.1391 107.289 52.9561C107.289 53.7731 107.61 54.819 108.246 56.0419C108.836 57.1034 109.426 58.165 110.022 59.2213C110.679 60.5066 111.005 61.589 111.005 62.4736C111.005 63.6289 110.607 64.5291 109.804 65.1744C109.069 65.7676 108.112 66.0642 106.926 66.0642H105.658V64.8829L105.653 64.8934ZM80.9731 56.4634C80.9731 55.0011 80.5073 53.7835 79.5704 52.8104C78.6335 51.8373 77.443 51.2805 75.9885 51.1348V61.6671C77.4274 61.5057 78.6024 60.9698 79.5134 60.0539C80.4865 59.0912 80.9783 57.8944 80.9783 56.4634H80.9731ZM80.1087 66.0798L75.9833 62.6089V66.0798H74.8083V50.0056H75.6934C77.4689 50.0056 78.9855 50.6144 80.2484 51.8373C81.5114 53.0602 82.1429 54.5692 82.1429 56.3697C82.1429 57.8163 81.7495 59.0704 80.9679 60.132C80.1863 61.1935 79.0993 61.9897 77.707 62.5153L81.9721 66.085H80.1035L80.1087 66.0798ZM62.8669 58.0557C62.8669 55.7557 63.6278 53.8407 65.1548 52.3056C66.6818 50.7705 68.5711 50.0056 70.8227 50.0056V51.1608C68.9386 51.1608 67.3288 51.8165 66.0037 53.1382C64.6786 54.4547 64.016 56.0939 64.016 58.0557C64.016 60.0175 64.6734 61.6306 65.983 62.9472C67.2925 64.2637 68.9075 64.9246 70.8279 64.9246V66.0798C68.6228 66.0798 66.7439 65.3096 65.1962 63.7642C63.6434 62.2239 62.8721 60.3193 62.8721 58.0505L62.8669 58.0557Z" fill="white"/>
<path d="M87.0656 58.0506C87.0656 59.9968 87.754 61.6567 89.1257 63.0409C90.5026 64.4251 92.1641 65.112 94.1103 65.112C96.0566 65.112 97.7026 64.4355 99.0846 63.0773C100.467 61.7192 101.16 60.0748 101.16 58.1494C101.16 56.094 100.467 54.382 99.0743 53.0134C97.6819 51.65 95.9738 50.9631 93.9447 50.9631C92.0606 50.9631 90.4405 51.6656 89.0895 53.0706C87.7385 54.4756 87.0656 56.1356 87.0656 58.0454V58.0506ZM102.315 58.0766C102.315 60.3402 101.517 62.276 99.918 63.8839C98.3186 65.4918 96.393 66.2932 94.1414 66.2932C91.8898 66.2932 89.9539 65.5075 88.3389 63.9307C86.724 62.354 85.9165 60.4287 85.9165 58.1494C85.9165 55.8702 86.724 53.8044 88.3389 52.1964C89.9539 50.5885 91.9364 49.7871 94.2863 49.7871C96.6363 49.7871 98.4221 50.6041 99.9801 52.2328C101.538 53.8616 102.32 55.813 102.32 58.0766H102.315Z" fill="white"/>
</g>
<defs>
<linearGradient id="paint0_linear_1424_241488" x1="-0.150392" y1="39" x2="211.85" y2="39" gradientUnits="userSpaceOnUse">
<stop stop-color="#6BDA68"/>
<stop offset="0.260417" stop-color="#5170DD"/>
<stop offset="0.494792" stop-color="#EE22B5"/>
<stop offset="0.734375" stop-color="#F2F71A"/>
<stop offset="1" stop-color="#FA0E0E"/>
</linearGradient>
<clipPath id="clip0_1424_241488">
<rect width="212" height="77" fill="white"/>
</clipPath>
</defs>
</svg>
