<svg width="270" height="85" viewBox="0 0 270 85" fill="none" xmlns="http://www.w3.org/2000/svg">
<rect width="212" height="77" fill="#FF9900"/>
<path fill-rule="evenodd" clip-rule="evenodd" d="M106.15 36.4185C147.549 36.4185 182.747 49.4745 195.661 67.6666C181.727 50.6818 146.907 38.6456 106.15 38.6456C65.3933 38.6456 30.5733 50.687 16.6392 67.6666C29.5536 49.4693 64.7514 36.4185 106.15 36.4185Z" fill="white"/>
<path fill-rule="evenodd" clip-rule="evenodd" d="M128.035 12.4452H123.046L124.267 9.6197L123.615 9.3335L122.265 12.4452H122.119V12.4609H122.026V19.3766H122.74V19.3454H124.432V21.0115L124.127 20.8886L124.111 20.9268L122.111 20.1023L121.84 20.7667L123.846 21.5936L120.767 29.3401L121.431 29.6066L124.432 22.0542V30.2783H125.147V22.045L128.15 29.601L128.813 29.3345L125.732 21.5826L127.745 20.754L127.474 20.0894L125.467 20.9157L125.454 20.8829L125.147 21.0064V19.3454H126.472V19.3766H127.186V13.1634H128.035V12.4452ZM88.1605 13.9023L90.0165 9.61945L90.6713 9.90625L89.8101 11.8937H92.3139L92.4945 11.4489L93.1558 11.7202L91.5856 15.5884H93.7068V15.1772H94.4211V24.3722H95.4667V25.0903H91.8745L95.2907 30.32L94.6955 30.7154L91.1754 25.3275L87.6507 30.7154L87.0555 30.32L90.4766 25.0903H86.9364V24.3722H88.1477V15.1772H88.862V15.5884H90.8141L92.0224 12.6118H89.5245V12.5527L88.511 14.8916L87.8919 14.6204H85.9633V20.4799L86.7809 19.5549L87.3149 20.0318L85.9633 21.5611V30.5594H85.249V30.4886L83.4912 29.6996L83.7824 29.0439L85.249 29.7022V22.3694L84.1073 23.6613L83.5733 23.1843L85.249 21.2882V14.6204H83.8773V13.9023H85.249V9.83826H85.9633V13.9023H88.1605ZM93.7068 16.3065V24.3722H91.4811V16.3065H93.7068ZM90.7668 16.3065V24.3722H88.862V16.3065H90.7668ZM92.7337 20.1936C92.7337 19.9126 92.506 19.6836 92.2265 19.6836C91.9469 19.6836 91.7192 19.9126 91.7192 20.1936C91.7192 20.4746 91.9469 20.7035 92.2265 20.7035C92.506 20.7035 92.7337 20.4746 92.7337 20.1936ZM117.802 21.2916H116.158L116.105 21.3765L115.97 21.2916H115.964V21.2881L115.499 20.9962L119.154 15.1096H113.521V14.3915H116.838L118.821 9.82562L119.475 10.1129L117.618 14.3915H119.929V15.1096H119.921L119.975 15.1433L116.604 20.5735H119.833L118.685 18.6764L119.295 18.3032L122.106 22.9491L121.496 23.3223L120.267 21.2916H118.516V30.2783H117.802V23.3712L115.192 26.3266L114.658 25.8499L117.802 22.2896V21.2916ZM122.74 18.6273H126.472V16.218H122.74V18.6273ZM126.472 13.1634H122.74V15.4999H126.472V13.1634ZM120.1 24.2889C120.1 24.0079 119.872 23.7789 119.593 23.7789C119.313 23.7789 119.085 24.0079 119.085 24.2889C119.085 24.5699 119.313 24.7988 119.593 24.7988C119.872 24.7988 120.1 24.5699 120.1 24.2889ZM100.167 10.6136H100.881V11.6491H109.101V10.6136H109.815V29.784H109.101V27.1666H100.881V29.784H100.167V10.6136ZM100.881 26.4484V19.3038H109.101V26.4484H100.881ZM109.101 12.3672V18.5857H100.881V12.3672H109.101Z" fill="black"/>
<path d="M139.686 57.9881C139.686 55.7245 140.447 53.8251 141.974 52.29C143.501 50.7549 145.38 49.99 147.621 49.99V51.1452C145.722 51.1452 144.117 51.7905 142.813 53.0862C141.508 54.3819 140.861 56.0159 140.861 57.9933C140.861 59.6793 141.379 61.1311 142.409 62.3435C143.439 63.556 144.785 64.347 146.446 64.7164V54.0176H147.621V66.0694C145.318 65.83 143.449 65.0234 142.011 63.6601C140.463 62.1822 139.686 60.2933 139.686 57.9985V57.9881ZM134.236 66.0746V53.8095L130.856 51.7853V66.0746H129.681V49.709L134.236 52.4825V50.0004H135.411V66.0746H134.236ZM123.511 66.0746V50.0004H124.686V66.0746H123.511ZM114.178 64.8934C115.555 64.8934 116.471 64.8153 116.937 64.654C117.879 64.3314 118.35 63.608 118.35 62.484C118.35 61.6827 118.045 60.6992 117.429 59.544C116.813 58.3887 116.213 57.2699 115.617 56.1928C114.96 54.9075 114.634 53.8563 114.634 53.0341C114.634 52.0194 114.95 51.2597 115.581 50.7549C116.213 50.2502 117.046 49.9952 118.086 49.9952H118.951V51.1504C117.941 51.1504 117.258 51.2129 116.891 51.3429C116.171 51.5979 115.814 52.1391 115.814 52.9561C115.814 53.7731 116.135 54.819 116.772 56.0419C117.362 57.1034 117.952 58.165 118.547 59.2213C119.204 60.5066 119.531 61.589 119.531 62.4736C119.531 63.6289 119.132 64.5291 118.33 65.1744C117.595 65.7676 116.637 66.0642 115.452 66.0642H114.184V64.8829L114.178 64.8934ZM105.803 64.8934C107.18 64.8934 108.096 64.8153 108.562 64.654C109.504 64.3314 109.975 63.608 109.975 62.484C109.975 61.6827 109.67 60.6992 109.054 59.544C108.438 58.3887 107.838 57.2699 107.242 56.1928C106.585 54.9075 106.259 53.8563 106.259 53.0341C106.259 52.0194 106.575 51.2597 107.206 50.7549C107.838 50.2502 108.671 49.9952 109.711 49.9952H110.576V51.1504C109.566 51.1504 108.883 51.2129 108.516 51.3429C107.796 51.5979 107.439 52.1391 107.439 52.9561C107.439 53.7731 107.76 54.819 108.397 56.0419C108.987 57.1034 109.577 58.165 110.172 59.2213C110.829 60.5066 111.156 61.589 111.156 62.4736C111.156 63.6289 110.757 64.5291 109.955 65.1744C109.22 65.7676 108.262 66.0642 107.077 66.0642H105.809V64.8829L105.803 64.8934ZM87.2158 58.0505C87.2158 59.9967 87.9042 61.6567 89.2759 63.0408C90.6528 64.425 92.3143 65.1119 94.2606 65.1119C96.2068 65.1119 97.8528 64.4354 99.2348 63.0773C100.617 61.7191 101.31 60.0747 101.31 58.1494C101.31 56.0939 100.617 54.3819 99.2245 53.0133C97.8321 51.65 96.124 50.9631 94.0949 50.9631C92.2108 50.9631 90.5907 51.6656 89.2397 53.0706C87.8887 54.4756 87.2158 56.1355 87.2158 58.0453V58.0505ZM102.465 58.0765C102.465 60.3401 101.668 62.2759 100.068 63.8838C98.4688 65.4918 96.5432 66.2932 94.2916 66.2932C92.04 66.2932 90.1041 65.5074 88.4892 63.9307C86.8742 62.354 86.0667 60.4286 86.0667 58.1494C86.0667 55.8702 86.8742 53.8043 88.4892 52.1963C90.1041 50.5884 92.0866 49.787 94.4365 49.787C96.7865 49.787 98.5723 50.604 100.13 52.2328C101.688 53.8615 102.47 55.8129 102.47 58.0765H102.465ZM81.1235 56.4634C81.1235 55.0011 80.6576 53.7835 79.7208 52.8104C78.7839 51.8373 77.5934 51.2805 76.1389 51.1348V61.6671C77.5778 61.5058 78.7528 60.9698 79.6638 60.0539C80.6369 59.0912 81.1287 57.8944 81.1287 56.4634H81.1235ZM80.2591 66.0798L76.1337 62.6089V66.0798H74.9587V50.0056H75.8438C77.6192 50.0056 79.1359 50.6144 80.3988 51.8373C81.6618 53.0602 82.2933 54.5692 82.2933 56.3697C82.2933 57.8163 81.8999 59.0704 81.1183 60.132C80.3367 61.1935 79.2497 61.9897 77.8573 62.5153L82.1225 66.085H80.2539L80.2591 66.0798ZM63.0173 58.0557C63.0173 55.7557 63.7782 53.8407 65.3052 52.3056C66.8322 50.7705 68.7214 50.0056 70.9731 50.0056V51.1608C69.089 51.1608 67.4792 51.8165 66.1541 53.1382C64.829 54.4547 64.1664 56.0939 64.1664 58.0557C64.1664 60.0175 64.8238 61.6306 66.1334 62.9472C67.4429 64.2637 69.0579 64.9246 70.9782 64.9246V66.0798C68.7732 66.0798 66.8943 65.3097 65.3466 63.7642C63.7938 62.2239 63.0225 60.3193 63.0225 58.0505L63.0173 58.0557Z" fill="black"/>
</svg>
