<svg width="270" height="78" viewBox="0 0 270 78" fill="none" xmlns="http://www.w3.org/2000/svg">
<g clip-path="url(#clip0_1132_183273)">
<path fill-rule="evenodd" clip-rule="evenodd" d="M106 32.5024C155.025 32.5024 196.707 48.1697 212 70.0002C195.499 49.6184 154.265 35.1751 106 35.1751C57.7352 35.1751 16.501 49.6247 0 70.0002C15.2935 48.1635 56.9751 32.5024 106 32.5024Z" fill="#14FF00"/>
<path fill-rule="evenodd" clip-rule="evenodd" d="M131.916 3.7341H126.008L127.454 0.343444L126.681 0L125.083 3.7341H124.91V3.75292H124.8V12.0518H125.645V12.0143H127.65V14.0136L127.288 13.8661L127.27 13.9119L124.9 12.9225L124.579 13.7198L126.956 14.7122L123.31 24.008L124.095 24.3277L127.65 15.2649V25.1338H128.496V15.2538L132.052 24.321L132.838 24.0012L129.189 14.6989L131.572 13.7046L131.252 12.9071L128.875 13.8986L128.86 13.8593L128.496 14.0075V12.0143H130.065V12.0518H130.911V4.59583H131.916V3.7341ZM84.6963 5.48259L86.8941 0.343145L87.6696 0.687311L86.6497 3.07227H89.6148L89.8286 2.53847L90.6118 2.86406L88.7523 7.50584H91.2643V7.01245H92.1102V18.0464H93.3484V18.9081H89.0945L93.14 25.1838L92.4351 25.6583L88.2666 19.1928L84.0926 25.6583L83.3877 25.1838L87.439 18.9081H83.2467V18.0464H84.6811V7.01245H85.527V7.50584H87.8387L89.2696 3.934H86.3116V3.86308L85.1114 6.6697L84.3782 6.34432H82.0944V13.3757L83.0625 12.2656L83.6949 12.838L82.0944 14.6731V25.471H81.2485V25.3861L79.1669 24.4393L79.5117 23.6525L81.2485 24.4424V15.643L79.8964 17.1933L79.2641 16.621L81.2485 14.3456V6.34432H79.6241V5.48259H81.2485V0.605718H82.0944V5.48259H84.6963ZM91.2643 8.36757V18.0464H88.6286V8.36757H91.2643ZM87.7827 8.36757V18.0464H85.527V8.36757H87.7827ZM90.112 13.0321C90.112 12.6949 89.8422 12.4201 89.5112 12.4201C89.1802 12.4201 88.9105 12.6949 88.9105 13.0321C88.9105 13.3693 89.1802 13.644 89.5112 13.644C89.8422 13.644 90.112 13.3693 90.112 13.0321ZM119.798 14.3497H117.851L117.789 14.4516L117.628 14.3497H117.622V14.3455L117.071 13.9953L121.399 6.93134H114.729V6.06961H118.657L121.004 0.59055L121.78 0.935267L119.58 6.06961H122.317V6.93134H122.308L122.371 6.97175L118.379 13.488H122.203L120.844 11.2115L121.567 10.7637L124.895 16.3388L124.173 16.7866L122.718 14.3497H120.644V25.1338H119.798V16.8452L116.707 20.3918L116.074 19.8197L119.798 15.5473V14.3497ZM125.645 11.1526H130.065V8.26139H125.645V11.1526ZM130.065 4.59583H125.645V7.39965H130.065V4.59583ZM122.519 17.9465C122.519 17.6093 122.25 17.3345 121.919 17.3345C121.588 17.3345 121.318 17.6093 121.318 17.9465C121.318 18.2837 121.588 18.5584 121.919 18.5584C122.25 18.5584 122.519 18.2837 122.519 17.9465ZM98.9141 1.53613H99.76V2.7787H109.494V1.53613H110.34V24.5406H109.494V21.3997H99.76V24.5406H98.9141V1.53613ZM99.76 20.5379V11.9643H109.494V20.5379H99.76ZM109.494 3.64043V11.1026H99.76V3.64043H109.494Z" fill="black"/>
<path d="M145.714 58.3856C145.714 55.6692 146.615 53.39 148.423 51.5479C150.232 49.7058 152.457 48.7879 155.111 48.7879V50.1741C152.861 50.1741 150.961 50.9485 149.416 52.5033C147.872 54.0582 147.105 56.0189 147.105 58.3918C147.105 60.415 147.718 62.1572 148.938 63.6122C150.158 65.0671 151.752 66.0163 153.719 66.4596V53.6211H155.111V68.0832C152.383 67.7959 150.17 66.828 148.466 65.192C146.633 63.4186 145.714 61.1519 145.714 58.3981V58.3856ZM139.259 68.0894V53.3713L135.257 50.9422V68.0894H133.865V48.4507L139.259 51.779V48.8004H140.651V68.0894H139.259ZM126.559 68.0894V48.8004H127.95V68.0894H126.559ZM115.507 66.6719C117.138 66.6719 118.223 66.5783 118.774 66.3847C119.89 65.9975 120.448 65.1295 120.448 63.7808C120.448 62.8191 120.086 61.6389 119.356 60.2526C118.627 58.8664 117.916 57.5238 117.211 56.2312C116.433 54.6889 116.046 53.4275 116.046 52.4409C116.046 51.2232 116.42 50.3115 117.168 49.7058C117.916 49.1001 118.903 48.7941 120.135 48.7941H121.159V50.1804C119.963 50.1804 119.154 50.2553 118.719 50.4114C117.867 50.7174 117.444 51.3668 117.444 52.3472C117.444 53.3276 117.824 54.5827 118.578 56.0502C119.277 57.324 119.976 58.5979 120.681 59.8655C121.459 61.4079 121.845 62.7067 121.845 63.7683C121.845 65.1545 121.373 66.2348 120.423 67.0091C119.553 67.721 118.419 68.0769 117.015 68.0769H115.513V66.6594L115.507 66.6719ZM105.589 66.6719C107.22 66.6719 108.305 66.5783 108.856 66.3847C109.972 65.9975 110.53 65.1295 110.53 63.7808C110.53 62.8191 110.168 61.6389 109.439 60.2526C108.709 58.8664 107.998 57.5238 107.293 56.2312C106.515 54.6889 106.129 53.4275 106.129 52.4409C106.129 51.2232 106.503 50.3115 107.25 49.7058C107.998 49.1001 108.985 48.7941 110.217 48.7941H111.241V50.1804C110.046 50.1804 109.236 50.2553 108.801 50.4114C107.949 50.7174 107.526 51.3668 107.526 52.3472C107.526 53.3276 107.906 54.5827 108.66 56.0502C109.359 57.324 110.058 58.5979 110.763 59.8655C111.541 61.4079 111.927 62.7067 111.927 63.7683C111.927 65.1545 111.455 66.2348 110.505 67.0091C109.635 67.721 108.501 68.0769 107.097 68.0769H105.595V66.6594L105.589 66.6719ZM76.3631 56.5559C76.3631 54.8013 75.8115 53.3401 74.702 52.1724C73.5925 51.0047 72.1827 50.3365 70.4603 50.1617V62.8004C72.1643 62.6068 73.5558 61.9636 74.6346 60.8646C75.787 59.7094 76.3693 58.2732 76.3693 56.5559H76.3631ZM75.3395 68.0957L70.4542 63.9306V68.0957H69.0627V48.8066H70.1109C72.2134 48.8066 74.0094 49.5372 75.505 51.0047C77.0006 52.4721 77.7484 54.283 77.7484 56.4435C77.7484 58.1795 77.2826 59.6844 76.357 60.9583C75.4314 62.2321 74.1442 63.1875 72.4953 63.8182L77.5462 68.1019H75.3334L75.3395 68.0957ZM54.9216 58.4667C54.9216 55.7067 55.8227 53.4088 57.6309 51.5667C59.4392 49.7245 61.6765 48.8066 64.3429 48.8066V50.1929C62.1117 50.1929 60.2054 50.9797 58.6362 52.5658C57.067 54.1456 56.2824 56.1126 56.2824 58.4667C56.2824 60.8209 57.0609 62.7567 58.6117 64.3365C60.1625 65.9163 62.0749 66.7094 64.349 66.7094V68.0957C61.7378 68.0957 59.5127 67.1715 57.68 65.3169C55.8411 63.4685 54.9278 61.1831 54.9278 58.4605L54.9216 58.4667Z" fill="black"/>
<path d="M83.5778 58.4606C83.5778 60.796 84.3931 62.788 86.0174 64.449C87.6479 66.11 89.6155 66.9343 91.9203 66.9343C94.225 66.9343 96.1743 66.1225 97.8109 64.4927C99.4475 62.8629 100.269 60.8897 100.269 58.5792C100.269 56.1127 99.4475 54.0583 97.7986 52.416C96.1497 50.7799 94.1269 49.9557 91.7241 49.9557C89.4929 49.9557 87.5744 50.7987 85.9745 52.4847C84.3747 54.1707 83.5778 56.1626 83.5778 58.4543V58.4606ZM101.636 58.4918C101.636 61.2081 100.692 63.5311 98.7977 65.4606C96.9037 67.3901 94.6234 68.3518 91.9571 68.3518C89.2907 68.3518 86.9982 67.4089 85.0857 65.5168C83.1733 63.6247 82.217 61.3143 82.217 58.5792C82.217 55.8442 83.1733 53.3651 85.0857 51.4356C86.9982 49.5061 89.3458 48.5444 92.1287 48.5444C94.9115 48.5444 97.0263 49.5248 98.8713 51.4793C100.716 53.4338 101.642 55.7755 101.642 58.4918H101.636Z" fill="black"/>
</g>
<defs>
<clipPath id="clip0_1132_183273">
<rect width="212" height="70" fill="white"/>
</clipPath>
</defs>
</svg>
