<svg width="212" height="78" viewBox="0 0 212 78" fill="none" xmlns="http://www.w3.org/2000/svg">
<g clip-path="url(#clip0_1424_241244)">
<path fill-rule="evenodd" clip-rule="evenodd" d="M106 32.5022C155.025 32.5022 196.707 48.1695 212 70C195.499 49.6182 154.265 35.1748 106 35.1748C57.7352 35.1748 16.501 49.6244 0 70C15.2935 48.1632 56.9751 32.5022 106 32.5022Z" fill="#FF9900"/>
<path fill-rule="evenodd" clip-rule="evenodd" d="M131.916 47.7341H126.008L127.454 44.3434L126.682 44L125.083 47.7341H124.91V47.7529H124.8V56.0518H125.646V56.0143H127.65V58.0136L127.288 57.8661L127.27 57.9119L124.9 56.9225L124.58 57.7198L126.956 58.7122L123.31 68.008L124.095 68.3277L127.65 59.2649V69.1338H128.496V59.2538L132.052 68.321L132.838 68.0012L129.189 58.6989L131.573 57.7046L131.252 56.9071L128.875 57.8986L128.86 57.8593L128.496 58.0075V56.0143H130.065V56.0518H130.911V48.5958H131.916V47.7341ZM84.6964 49.4826L86.8943 44.3431L87.6698 44.6873L86.6499 47.0723H89.6149L89.8287 46.5385L90.6119 46.8641L88.7525 51.5058H91.2644V51.0125H92.1103V62.0464H93.3485V62.9081H89.0946L93.1401 69.1838L92.4352 69.6583L88.2667 63.1928L84.0928 69.6583L83.3878 69.1838L87.4391 62.9081H83.2469V62.0464H84.6812V51.0125H85.5271V51.5058H87.8388L89.2697 47.934H86.3117V47.8631L85.1115 50.6697L84.3783 50.3443H82.0945V57.3757L83.0626 56.2656L83.695 56.838L82.0945 58.6731V69.471H81.2486V69.3861L79.167 68.4393L79.5119 67.6525L81.2486 68.4424V59.643L79.8965 61.1933L79.2642 60.621L81.2486 58.3456V50.3443H79.6242V49.4826H81.2486V44.6057H82.0945V49.4826H84.6964ZM91.2644 52.3676V62.0464H88.6287V52.3676H91.2644ZM87.7828 52.3676V62.0464H85.5271V52.3676H87.7828ZM90.1121 57.0321C90.1121 56.6949 89.8424 56.4201 89.5114 56.4201C89.1804 56.4201 88.9106 56.6949 88.9106 57.0321C88.9106 57.3693 89.1804 57.644 89.5114 57.644C89.8424 57.644 90.1121 57.3693 90.1121 57.0321ZM119.798 58.3497H117.851L117.789 58.4516L117.628 58.3497H117.622V58.3455L117.071 57.9953L121.399 50.9313H114.729V50.0696H118.657L121.005 44.5905L121.78 44.9353L119.58 50.0696H122.317V50.9313H122.308L122.371 50.9718L118.379 57.488H122.203L120.844 55.2115L121.567 54.7637L124.895 60.3388L124.173 60.7866L122.718 58.3497H120.644V69.1338H119.798V60.8452L116.707 64.3918L116.074 63.8197L119.798 59.5473V58.3497ZM125.646 55.1526H130.065V52.2614H125.646V55.1526ZM130.065 48.5958H125.646V51.3997H130.065V48.5958ZM122.52 61.9465C122.52 61.6093 122.25 61.3345 121.919 61.3345C121.588 61.3345 121.318 61.6093 121.318 61.9465C121.318 62.2837 121.588 62.5584 121.919 62.5584C122.25 62.5584 122.52 62.2837 122.52 61.9465ZM98.9143 45.5361H99.7601V46.7787H109.494V45.5361H110.34V68.5406H109.494V65.3997H99.7601V68.5406H98.9143V45.5361ZM99.7601 64.5379V55.9643H109.494V64.5379H99.7601ZM109.494 47.6404V55.1026H99.7601V47.6404H109.494Z" fill="black"/>
<path d="M145.714 13.3856C145.714 10.6692 146.615 8.39003 148.423 6.54792C150.232 4.70581 152.457 3.78788 155.111 3.78788V5.17414C152.861 5.17414 150.961 5.94845 149.416 7.50332C147.872 9.05818 147.105 11.0189 147.105 13.3918C147.105 15.415 147.718 17.1572 148.938 18.6122C150.158 20.0671 151.752 21.0163 153.719 21.4596V8.62107H155.111V23.0832C152.383 22.7959 150.17 21.828 148.466 20.192C146.633 18.4186 145.714 16.1519 145.714 13.3981V13.3856ZM139.259 23.0894V8.37129L135.257 5.94221V23.0894H133.865V3.45068L139.259 6.77896V3.80037H140.651V23.0894H139.259ZM126.559 23.0894V3.80037H127.95V23.0894H126.559ZM115.507 21.6719C117.138 21.6719 118.223 21.5783 118.774 21.3847C119.89 20.9975 120.448 20.1295 120.448 18.7808C120.448 17.8191 120.086 16.6389 119.356 15.2526C118.627 13.8664 117.916 12.5238 117.211 11.2312C116.433 9.68887 116.046 8.42749 116.046 7.44087C116.046 6.22321 116.42 5.31152 117.168 4.70581C117.916 4.1001 118.903 3.79412 120.135 3.79412H121.159V5.18039C119.963 5.18039 119.154 5.25532 118.719 5.41143C117.867 5.71741 117.444 6.36683 117.444 7.34721C117.444 8.32758 117.824 9.58271 118.578 11.0502C119.277 12.324 119.976 13.5979 120.681 14.8655C121.459 16.4079 121.845 17.7067 121.845 18.7683C121.845 20.1545 121.373 21.2348 120.423 22.0091C119.553 22.721 118.419 23.0769 117.015 23.0769H115.513V21.6594L115.507 21.6719ZM105.589 21.6719C107.22 21.6719 108.305 21.5783 108.856 21.3847C109.972 20.9975 110.53 20.1295 110.53 18.7808C110.53 17.8191 110.168 16.6389 109.439 15.2526C108.709 13.8664 107.998 12.5238 107.293 11.2312C106.515 9.68887 106.129 8.42749 106.129 7.44087C106.129 6.22321 106.503 5.31152 107.25 4.70581C107.998 4.1001 108.985 3.79412 110.217 3.79412H111.241V5.18039C110.046 5.18039 109.236 5.25532 108.801 5.41143C107.949 5.71741 107.526 6.36683 107.526 7.34721C107.526 8.32758 107.906 9.58271 108.66 11.0502C109.359 12.324 110.058 13.5979 110.763 14.8655C111.541 16.4079 111.927 17.7067 111.927 18.7683C111.927 20.1545 111.455 21.2348 110.505 22.0091C109.635 22.721 108.501 23.0769 107.097 23.0769H105.595V21.6594L105.589 21.6719ZM76.3631 11.5559C76.3631 9.80126 75.8115 8.34007 74.702 7.17236C73.5925 6.00465 72.1827 5.3365 70.4603 5.16166V17.8004C72.1643 17.6068 73.5558 16.9636 74.6346 15.8646C75.787 14.7094 76.3693 13.2732 76.3693 11.5559H76.3631ZM75.3395 23.0957L70.4542 18.9306V23.0957H69.0627V3.80662H70.1109C72.2134 3.80662 74.0094 4.53721 75.505 6.00465C77.0006 7.47209 77.7484 9.28298 77.7484 11.4435C77.7484 13.1795 77.2826 14.6844 76.357 15.9583C75.4314 17.2321 74.1442 18.1875 72.4953 18.8182L77.5462 23.1019H75.3334L75.3395 23.0957ZM54.9216 13.4667C54.9216 10.7067 55.8227 8.40876 57.6309 6.56665C59.4392 4.72455 61.6765 3.80662 64.3429 3.80662V5.19288C62.1117 5.19288 60.2054 5.97967 58.6362 7.56576C57.067 9.1456 56.2824 11.1126 56.2824 13.4667C56.2824 15.8209 57.0609 17.7567 58.6117 19.3365C60.1625 20.9163 62.0749 21.7094 64.349 21.7094V23.0957C61.7378 23.0957 59.5127 22.1715 57.68 20.3169C55.8411 18.4685 54.9278 16.1831 54.9278 13.4605L54.9216 13.4667Z" fill="black"/>
<path d="M83.5778 13.4606C83.5778 15.796 84.3931 17.788 86.0174 19.449C87.6479 21.11 89.6155 21.9343 91.9203 21.9343C94.225 21.9343 96.1743 21.1225 97.8109 19.4927C99.4475 17.8629 100.269 15.8897 100.269 13.5792C100.269 11.1127 99.4475 9.05827 97.7986 7.41598C96.1497 5.77994 94.1269 4.95568 91.7241 4.95568C89.4929 4.95568 87.5744 5.79868 85.9745 7.48467C84.3747 9.17067 83.5778 11.1626 83.5778 13.4543V13.4606ZM101.636 13.4918C101.636 16.2081 100.692 18.5311 98.7977 20.4606C96.9037 22.3901 94.6234 23.3518 91.9571 23.3518C89.2907 23.3518 86.9982 22.4089 85.0857 20.5168C83.1733 18.6247 82.217 16.3143 82.217 13.5792C82.217 10.8442 83.1733 8.36514 85.0857 6.43561C86.9982 4.50608 89.3458 3.54443 92.1287 3.54443C94.9115 3.54443 97.0263 4.52481 98.8713 6.47932C100.716 8.43383 101.642 10.7755 101.642 13.4918H101.636Z" fill="black"/>
</g>
<defs>
<clipPath id="clip0_1424_241244">
<rect width="212" height="70" fill="white"/>
</clipPath>
</defs>
</svg>
