<svg width="270" height="78" viewBox="0 0 270 78" fill="none" xmlns="http://www.w3.org/2000/svg">
<path fill-rule="evenodd" clip-rule="evenodd" d="M106 32.5024C155.025 32.5024 196.707 48.1697 212 70.0002C195.499 49.6184 154.265 35.1751 106 35.1751C57.7352 35.1751 16.501 49.6247 0 70.0002C15.2935 48.1635 56.9751 32.5024 106 32.5024" fill="#FF9900"/>
<path fill-rule="evenodd" clip-rule="evenodd" d="M131.916 3.7341H126.008L127.454 0.343444L126.682 0L125.083 3.7341H124.91V3.75292H124.8V12.0518H125.646V12.0143H127.65V14.0136L127.288 13.8661L127.27 13.9119L124.9 12.9225L124.58 13.7198L126.956 14.7122L123.31 24.008L124.095 24.3277L127.65 15.2649V25.1338H128.496V15.2538L132.052 24.321L132.838 24.0012L129.189 14.6989L131.573 13.7046L131.252 12.9071L128.875 13.8986L128.86 13.8593L128.496 14.0075V12.0143H130.065V12.0518H130.911V4.59583H131.916V3.7341ZM84.6964 5.48259L86.8943 0.343145L87.6698 0.687311L86.6499 3.07227H89.6149L89.8287 2.53847L90.6119 2.86406L88.7525 7.50584H91.2644V7.01245H92.1103V18.0464H93.3485V18.9081H89.0946L93.1401 25.1838L92.4352 25.6583L88.2667 19.1928L84.0928 25.6583L83.3878 25.1838L87.4391 18.9081H83.2469V18.0464H84.6812V7.01245H85.5271V7.50584H87.8388L89.2697 3.934H86.3117V3.86308L85.1115 6.6697L84.3783 6.34432H82.0945V13.3757L83.0626 12.2656L83.695 12.838L82.0945 14.6731V25.471H81.2486V25.3861L79.167 24.4393L79.5119 23.6525L81.2486 24.4424V15.643L79.8965 17.1933L79.2642 16.621L81.2486 14.3456V6.34432H79.6242V5.48259H81.2486V0.605718H82.0945V5.48259H84.6964ZM91.2644 8.36757V18.0464H88.6287V8.36757H91.2644ZM87.7828 8.36757V18.0464H85.5271V8.36757H87.7828ZM90.1121 13.0321C90.1121 12.6949 89.8424 12.4201 89.5114 12.4201C89.1804 12.4201 88.9106 12.6949 88.9106 13.0321C88.9106 13.3693 89.1804 13.644 89.5114 13.644C89.8424 13.644 90.1121 13.3693 90.1121 13.0321ZM119.798 14.3497H117.851L117.789 14.4516L117.628 14.3497H117.622V14.3455L117.071 13.9953L121.399 6.93134H114.729V6.06961H118.657L121.005 0.59055L121.78 0.935267L119.58 6.06961H122.317V6.93134H122.308L122.371 6.97175L118.379 13.488H122.203L120.844 11.2115L121.567 10.7637L124.895 16.3388L124.173 16.7866L122.718 14.3497H120.644V25.1338H119.798V16.8452L116.707 20.3918L116.074 19.8197L119.798 15.5473V14.3497ZM125.646 11.1526H130.065V8.26139H125.646V11.1526ZM130.065 4.59583H125.646V7.39965H130.065V4.59583ZM122.52 17.9465C122.52 17.6093 122.25 17.3345 121.919 17.3345C121.588 17.3345 121.318 17.6093 121.318 17.9465C121.318 18.2837 121.588 18.5584 121.919 18.5584C122.25 18.5584 122.52 18.2837 122.52 17.9465ZM98.9143 1.53613H99.7601V2.7787H109.494V1.53613H110.34V24.5406H109.494V21.3997H99.7601V24.5406H98.9143V1.53613ZM99.7601 20.5379V11.9643H109.494V20.5379H99.7601ZM109.494 3.64043V11.1026H99.7601V3.64043H109.494Z" fill="black"/>
<path d="M73.9719 66.072L74.0679 65.136C74.8839 65.072 75.4439 64.976 75.7479 64.848C76.0519 64.72 76.2039 64.512 76.2039 64.224C76.2039 63.904 76.1319 63.52 75.9879 63.072L75.1959 60.456C74.8119 60.44 73.9799 60.432 72.6999 60.432C71.9319 60.432 71.0599 60.496 70.0839 60.624L69.1959 63.12C69.0519 63.552 68.9799 63.864 68.9799 64.056C68.9799 64.408 69.0919 64.664 69.3159 64.824C69.5399 64.968 69.9079 65.04 70.4199 65.04H71.7879L71.8359 65.136L71.6919 66.168C71.4999 66.152 71.0599 66.12 70.3719 66.072C69.6839 66.024 69.0119 66 68.3559 66C67.7639 66 67.2119 66.008 66.6999 66.024C66.2039 66.04 65.8759 66.056 65.7159 66.072L65.9079 64.944C66.3559 64.896 66.7159 64.744 66.9879 64.488C67.2599 64.216 67.5239 63.752 67.7799 63.096L72.4599 50.832L73.9719 50.424H74.1639C74.2599 50.808 74.4999 51.696 74.8839 53.088C75.2839 54.48 75.7639 56.128 76.3239 58.032C76.8999 59.936 77.4519 61.688 77.9799 63.288C78.1719 63.88 78.4279 64.296 78.7479 64.536C79.0679 64.776 79.5799 64.928 80.2839 64.992L80.3319 65.088L80.1639 66.072C79.9719 66.072 79.6199 66.056 79.1079 66.024C78.6119 66.008 78.1159 66 77.6199 66C76.8519 66 76.1079 66.032 75.3879 66.096C74.6839 66.16 74.2359 66.208 74.0439 66.24L73.9719 66.072ZM72.6279 59.448C73.2039 59.448 73.9479 59.408 74.8599 59.328L72.9639 53.04H72.7959L70.5159 59.448H72.6279ZM84.6516 65.088C85.3556 64.96 85.8196 64.776 86.0436 64.536C86.2676 64.28 86.3796 63.808 86.3796 63.12L86.4036 53.04C86.4036 52.528 86.3396 52.184 86.2116 52.008C86.0996 51.832 85.8676 51.744 85.5156 51.744C85.3556 51.744 85.1956 51.752 85.0356 51.768C84.8756 51.784 84.7636 51.792 84.6996 51.792L84.6516 51.696L84.8196 50.64C85.0116 50.656 85.3716 50.672 85.8996 50.688C86.4276 50.704 86.9556 50.712 87.4836 50.712C87.9796 50.712 88.5396 50.704 89.1636 50.688C89.8036 50.656 90.2516 50.632 90.5076 50.616C92.1716 50.616 93.4436 50.984 94.3236 51.72C95.2036 52.456 95.6436 53.512 95.6436 54.888C95.6436 55.784 95.3796 56.64 94.8516 57.456C94.3396 58.256 93.6596 58.904 92.8116 59.4C91.9636 59.896 91.0756 60.144 90.1476 60.144H88.1316L88.0836 62.496C88.0836 63.264 88.1076 63.816 88.1556 64.152C88.2036 64.472 88.2916 64.688 88.4196 64.8C88.5636 64.896 88.8036 64.944 89.1396 64.944C89.4116 64.944 89.6676 64.936 89.9076 64.92C90.1636 64.904 90.3396 64.888 90.4356 64.872L90.4836 64.968L90.2676 66.072C90.1076 66.056 89.8116 66.04 89.3796 66.024C88.9636 66.008 88.5236 66 88.0596 66C87.4196 66 86.6676 66.024 85.8036 66.072C84.9556 66.12 84.5156 66.16 84.4836 66.192L84.6516 65.088ZM90.7236 59.088C91.6836 58.928 92.4036 58.536 92.8836 57.912C93.3796 57.288 93.6276 56.432 93.6276 55.344C93.6276 54.112 93.2596 53.216 92.5236 52.656C91.8036 52.08 90.6676 51.792 89.1156 51.792C88.8276 51.792 88.6516 51.808 88.5876 51.84C88.5236 51.872 88.4836 51.968 88.4676 52.128C88.3236 54.16 88.2276 56.36 88.1796 58.728L90.7236 59.088ZM100.75 65.088C101.454 64.96 101.918 64.776 102.142 64.536C102.366 64.28 102.478 63.808 102.478 63.12L102.502 53.04C102.502 52.528 102.438 52.184 102.31 52.008C102.198 51.832 101.966 51.744 101.614 51.744C101.454 51.744 101.294 51.752 101.134 51.768C100.974 51.784 100.862 51.792 100.798 51.792L100.75 51.696L100.918 50.64C101.11 50.656 101.47 50.672 101.998 50.688C102.526 50.704 103.054 50.712 103.582 50.712C104.078 50.712 104.638 50.704 105.262 50.688C105.902 50.656 106.35 50.632 106.606 50.616C108.27 50.616 109.542 50.984 110.422 51.72C111.302 52.456 111.742 53.512 111.742 54.888C111.742 55.784 111.478 56.64 110.95 57.456C110.438 58.256 109.758 58.904 108.91 59.4C108.062 59.896 107.174 60.144 106.246 60.144H104.23L104.182 62.496C104.182 63.264 104.206 63.816 104.254 64.152C104.302 64.472 104.39 64.688 104.518 64.8C104.662 64.896 104.902 64.944 105.238 64.944C105.51 64.944 105.766 64.936 106.006 64.92C106.262 64.904 106.438 64.888 106.534 64.872L106.582 64.968L106.366 66.072C106.206 66.056 105.91 66.04 105.478 66.024C105.062 66.008 104.622 66 104.158 66C103.518 66 102.766 66.024 101.902 66.072C101.054 66.12 100.614 66.16 100.582 66.192L100.75 65.088ZM106.822 59.088C107.782 58.928 108.502 58.536 108.982 57.912C109.478 57.288 109.726 56.432 109.726 55.344C109.726 54.112 109.358 53.216 108.622 52.656C107.902 52.08 106.766 51.792 105.214 51.792C104.926 51.792 104.75 51.808 104.686 51.84C104.622 51.872 104.582 51.968 104.566 52.128C104.422 54.16 104.326 56.36 104.278 58.728L106.822 59.088ZM116.945 65.136C117.569 65.04 117.993 64.856 118.217 64.584C118.457 64.296 118.577 63.808 118.577 63.12L118.601 53.04C118.601 52.528 118.537 52.184 118.409 52.008C118.297 51.832 118.065 51.744 117.713 51.744C117.553 51.744 117.393 51.752 117.233 51.768C117.073 51.784 116.961 51.792 116.897 51.792L116.849 51.696L117.017 50.64C117.209 50.656 117.569 50.672 118.097 50.688C118.625 50.704 119.161 50.712 119.705 50.712C120.137 50.712 120.625 50.688 121.169 50.64C121.729 50.576 122.097 50.528 122.273 50.496L122.177 51.576C121.649 51.64 121.281 51.744 121.073 51.888C120.881 52.032 120.761 52.2 120.713 52.392C120.681 52.584 120.641 53.056 120.593 53.808C120.497 55.168 120.425 56.72 120.377 58.464C120.329 60.208 120.305 61.744 120.305 63.072C120.305 63.648 120.353 64.064 120.449 64.32C120.545 64.56 120.721 64.72 120.977 64.8C121.249 64.88 121.705 64.92 122.345 64.92C123.321 64.92 124.033 64.84 124.481 64.68C124.945 64.52 125.289 64.208 125.513 63.744C125.753 63.28 125.969 62.536 126.161 61.512L127.217 61.392L127.289 61.512C127.241 61.768 127.137 62.344 126.977 63.24C126.833 64.136 126.705 65.08 126.593 66.072L126.473 66.216C126.009 66.184 125.049 66.136 123.593 66.072C122.153 66.024 120.961 66 120.017 66C119.265 66 118.577 66.032 117.953 66.096C117.345 66.16 116.961 66.208 116.801 66.24L116.945 65.136ZM142.512 61.992C142.24 63.288 142.024 64.632 141.864 66.024L141.744 66.168C138.384 66.056 135.96 66 134.472 66C133.288 66 132.176 66.08 131.136 66.24L131.28 65.136C132 65.04 132.488 64.856 132.744 64.584C133.016 64.296 133.152 63.808 133.152 63.12L133.176 53.04C133.176 52.528 133.112 52.184 132.984 52.008C132.872 51.832 132.64 51.744 132.288 51.744L131.472 51.792L131.424 51.696L131.592 50.64C133.224 50.688 134.336 50.712 134.928 50.712C136.832 50.712 138.312 50.696 139.368 50.664C140.424 50.616 141.344 50.536 142.128 50.424L142.2 50.568C141.912 51.832 141.728 53.16 141.648 54.552L140.496 54.648L140.544 53.616C140.544 53.056 140.472 52.672 140.328 52.464C140.184 52.24 139.872 52.096 139.392 52.032C138.912 51.952 138.072 51.912 136.872 51.912C136.312 51.912 135.928 51.928 135.72 51.96C135.512 51.992 135.376 52.072 135.312 52.2C135.248 52.312 135.208 52.528 135.192 52.848L135 57.504L137.472 57.528C138.096 57.528 139.072 57.44 140.4 57.264L140.496 57.384L140.16 58.8C138.384 58.752 137.264 58.728 136.8 58.728C136.272 58.728 135.656 58.784 134.952 58.896L134.856 63.48C134.856 63.944 134.896 64.272 134.976 64.464C135.056 64.64 135.216 64.76 135.456 64.824C135.712 64.888 136.144 64.92 136.752 64.92C138.096 64.92 139.048 64.856 139.608 64.728C140.184 64.6 140.592 64.344 140.832 63.96C141.072 63.576 141.256 62.92 141.384 61.992L142.44 61.872L142.512 61.992Z" fill="black"/>
</svg>
