<svg width="212" height="78" viewBox="0 0 212 78" fill="none" xmlns="http://www.w3.org/2000/svg">
<g clip-path="url(#clip0_1424_241186)">
<path fill-rule="evenodd" clip-rule="evenodd" d="M106 33.7515C155.025 33.7515 196.707 44.7186 212 59.9999C195.499 45.7327 154.265 35.6223 106 35.6223C57.7352 35.6223 16.501 45.737 0 59.9999C15.2935 44.7142 56.9751 33.7515 106 33.7515Z" fill="#FF9900"/>
<path fill-rule="evenodd" clip-rule="evenodd" d="M131.916 13.6139H126.008L127.454 11.2404L126.681 11L125.083 13.6139H124.91V13.627H124.8V19.4362H125.645V19.41H127.65V20.8095L127.288 20.7063L127.27 20.7384L124.9 20.0458L124.579 20.6039L126.956 21.2985L123.31 27.8056L124.095 28.0294L127.65 21.6854V28.5936H128.496V21.6776L132.052 28.0247L132.838 27.8008L129.189 21.2892L131.572 20.5932L131.252 20.035L128.875 20.7291L128.86 20.7015L128.496 20.8052V19.41H130.065V19.4362H130.911V14.2171H131.916V13.6139ZM84.6963 14.8378L86.8941 11.2402L87.6696 11.4811L86.6497 13.1506H89.6148L89.8286 12.7769L90.6118 13.0048L88.7523 16.2541H91.2643V15.9087H92.1102V23.6325H93.3484V24.2357H89.0945L93.14 28.6286L92.4351 28.9608L88.2666 24.435L84.0926 28.9608L83.3877 28.6286L87.439 24.2357H83.2467V23.6325H84.6811V15.9087H85.527V16.2541H87.8387L89.2696 13.7538H86.3116V13.7042L85.1114 15.6688L84.3782 15.441H82.0944V20.363L83.0625 19.5859L83.6949 19.9866L82.0944 21.2712V28.8297H81.2485V28.7703L79.1669 28.1075L79.5117 27.5567L81.2485 28.1097V21.9501L79.8964 23.0353L79.2641 22.6347L81.2485 21.0419V15.441H79.6241V14.8378H81.2485V11.424H82.0944V14.8378H84.6963ZM91.2643 16.8573V23.6325H88.6286V16.8573H91.2643ZM87.7827 16.8573V23.6325H85.527V16.8573H87.7827ZM90.112 20.1225C90.112 19.8864 89.8422 19.6941 89.5112 19.6941C89.1802 19.6941 88.9105 19.8864 88.9105 20.1225C88.9105 20.3585 89.1802 20.5508 89.5112 20.5508C89.8422 20.5508 90.112 20.3585 90.112 20.1225ZM119.798 21.0448H117.851L117.789 21.1161L117.628 21.0448H117.622V21.0419L117.071 20.7967L121.399 15.8519H114.729V15.2487H118.657L121.004 11.4134L121.78 11.6547L119.58 15.2487H122.317V15.8519H122.308L122.371 15.8802L118.379 20.4416H122.203L120.844 18.848L121.567 18.5346L124.895 22.4371L124.173 22.7506L122.718 21.0448H120.644V28.5937H119.798V22.7916L116.707 25.2742L116.074 24.8738L119.798 21.8831V21.0448ZM125.645 18.8068H130.065V16.783H125.645V18.8068ZM130.065 14.2171H125.645V16.1798H130.065V14.2171ZM122.519 23.5625C122.519 23.3265 122.25 23.1342 121.919 23.1342C121.588 23.1342 121.318 23.3265 121.318 23.5625C121.318 23.7986 121.588 23.9909 121.919 23.9909C122.25 23.9909 122.519 23.7986 122.519 23.5625ZM98.9141 12.0753H99.76V12.9451H109.494V12.0753H110.34V28.1784H109.494V25.9798H99.76V28.1784H98.9141V12.0753ZM99.76 25.3766H109.494V19.375H99.76V25.3766ZM109.494 13.5483V18.7718H99.76V13.5483H109.494Z" fill="black"/>
<path d="M145.714 51.8697C145.714 49.9683 146.615 48.3728 148.423 47.0833C150.232 45.7939 152.457 45.1513 155.111 45.1513V46.1217C152.861 46.1217 150.961 46.6637 149.416 47.7521C147.872 48.8405 147.105 50.2131 147.105 51.8741C147.105 53.2903 147.718 54.5098 148.938 55.5283C150.158 56.5468 151.752 57.2112 153.719 57.5215V48.5346H155.111V58.658C152.383 58.457 150.17 57.7794 148.466 56.6342C146.633 55.3928 145.714 53.8061 145.714 51.8784V51.8697ZM139.259 58.6624V48.3597L135.257 46.6594V58.6624H133.865V44.9153L139.259 47.2451V45.1601H140.651V58.6624H139.259ZM126.559 58.6624V45.1601H127.95V58.6624H126.559ZM115.507 57.6702C117.138 57.6702 118.223 57.6046 118.774 57.4691C119.89 57.1981 120.448 56.5905 120.448 55.6463C120.448 54.9732 120.086 54.147 119.356 53.1767C118.627 52.2063 117.916 51.2665 117.211 50.3617C116.433 49.282 116.046 48.3991 116.046 47.7084C116.046 46.8561 116.42 46.2179 117.168 45.7939C117.916 45.3699 118.903 45.1557 120.135 45.1557H121.159V46.1261C119.963 46.1261 119.154 46.1785 118.719 46.2878C117.867 46.502 117.444 46.9566 117.444 47.6428C117.444 48.3291 117.824 49.2077 118.578 50.2349C119.277 51.1266 119.976 52.0183 120.681 52.9057C121.459 53.9853 121.845 54.8945 121.845 55.6376C121.845 56.608 121.373 57.3642 120.423 57.9062C119.553 58.4045 118.419 58.6537 117.015 58.6537H115.513V57.6614L115.507 57.6702ZM105.589 57.6702C107.22 57.6702 108.305 57.6046 108.856 57.4691C109.972 57.1981 110.53 56.5905 110.53 55.6463C110.53 54.9732 110.168 54.147 109.439 53.1767C108.709 52.2063 107.998 51.2665 107.293 50.3617C106.515 49.282 106.129 48.3991 106.129 47.7084C106.129 46.8561 106.503 46.2179 107.25 45.7939C107.998 45.3699 108.985 45.1557 110.217 45.1557H111.241V46.1261C110.046 46.1261 109.236 46.1785 108.801 46.2878C107.949 46.502 107.526 46.9566 107.526 47.6428C107.526 48.3291 107.906 49.2077 108.66 50.2349C109.359 51.1266 110.058 52.0183 110.763 52.9057C111.541 53.9853 111.927 54.8945 111.927 55.6376C111.927 56.608 111.455 57.3642 110.505 57.9062C109.635 58.4045 108.501 58.6537 107.097 58.6537H105.595V57.6614L105.589 57.6702ZM76.3631 50.589C76.3631 49.3607 75.8115 48.3379 74.702 47.5205C73.5925 46.7031 72.1827 46.2354 70.4603 46.113V54.9601C72.1643 54.8246 73.5558 54.3743 74.6346 53.605C75.787 52.7964 76.3693 51.791 76.3693 50.589H76.3631ZM75.3395 58.6668L70.4542 55.7512V58.6668H69.0627V45.1644H70.1109C72.2134 45.1644 74.0094 45.6759 75.505 46.7031C77.0006 47.7303 77.7484 48.9979 77.7484 50.5103C77.7484 51.7255 77.2826 52.7789 76.357 53.6706C75.4314 54.5623 74.1442 55.2311 72.4953 55.6726L77.5462 58.6711H75.3334L75.3395 58.6668ZM54.9216 51.9265C54.9216 49.9945 55.8227 48.3859 57.6309 47.0965C59.4392 45.807 61.6765 45.1644 64.3429 45.1644V46.1348C62.1117 46.1348 60.2054 46.6856 58.6362 47.7958C57.067 48.9017 56.2824 50.2786 56.2824 51.9265C56.2824 53.5744 57.0609 54.9295 58.6117 56.0354C60.1625 57.1413 62.0749 57.6964 64.349 57.6964V58.6668C61.7378 58.6668 59.5127 58.0198 57.68 56.7216C55.8411 55.4278 54.9278 53.828 54.9278 51.9222L54.9216 51.9265Z" fill="black"/>
<path d="M83.5778 51.9223C83.5778 53.5571 84.3931 54.9514 86.0174 56.1142C87.6479 57.2769 89.6155 57.8539 91.9203 57.8539C94.225 57.8539 96.1743 57.2856 97.8109 56.1447C99.4475 55.0039 100.269 53.6226 100.269 52.0053C100.269 50.2787 99.4475 48.8406 97.7986 47.691C96.1497 46.5458 94.1269 45.9688 91.7241 45.9688C89.4929 45.9688 87.5744 46.5589 85.9745 47.7391C84.3747 48.9193 83.5778 50.3137 83.5778 51.9179V51.9223ZM101.636 51.9441C101.636 53.8455 100.692 55.4716 98.7977 56.8223C96.9037 58.1729 94.6234 58.8461 91.9571 58.8461C89.2907 58.8461 86.9982 58.1861 85.0857 56.8616C83.1733 55.5372 82.217 53.9199 82.217 52.0053C82.217 50.0908 83.1733 48.3554 85.0857 47.0048C86.9982 45.6541 89.3458 44.981 92.1287 44.981C94.9115 44.981 97.0263 45.6672 98.8713 47.0354C100.716 48.4035 101.642 50.0427 101.642 51.9441H101.636Z" fill="black"/>
</g>
<defs>
<clipPath id="clip0_1424_241186">
<rect width="212" height="49" fill="white" transform="translate(0 11)"/>
</clipPath>
</defs>
</svg>
