<svg width="274" height="120" viewBox="0 0 274 120" fill="none" xmlns="http://www.w3.org/2000/svg">
<g clip-path="url(#clip0_1424_240533)">
<path fill-rule="evenodd" clip-rule="evenodd" d="M137 57.7524C190.65 57.7524 236.264 74.9864 253 99C234.942 76.58 189.818 60.6923 137 60.6923C84.1819 60.6923 39.0577 76.5869 21 99C37.7363 74.9796 83.3501 57.7524 137 57.7524Z" fill="#FF9900"/>
<path fill-rule="evenodd" clip-rule="evenodd" d="M165.361 26.1075H158.895L160.478 22.3778L159.633 22L157.883 26.1075H157.694V26.1282H157.573V35.2569H158.499V35.2157H160.692V37.4149L160.296 37.2527L160.276 37.3031L157.683 36.2148L157.332 37.0918L159.933 38.1834L155.943 48.4088L156.802 48.7605L160.692 38.7913V49.6471H161.618V38.7792L165.51 48.753L166.37 48.4013L162.377 38.1688L164.985 37.075L164.634 36.1978L162.033 37.2885L162.016 37.2453L161.618 37.4082V35.2157H163.335V35.2569H164.261V27.0554H165.361V26.1075ZM113.687 28.0309L116.092 22.3775L116.94 22.756L115.824 25.3795H119.069L119.303 24.7923L120.16 25.1505L118.125 30.2564H120.874V29.7137H121.8V41.8511H123.155V42.799H118.5L122.927 49.7021L122.155 50.2242L117.594 43.1121L113.026 50.2242L112.255 49.7021L116.688 42.799H112.1V41.8511H113.67V29.7137H114.596V30.2564H117.125L118.691 26.3274H115.454V26.2494L114.141 29.3367L113.338 28.9788H110.839V36.7133L111.899 35.4922L112.591 36.1218L110.839 38.1405V50.0181H109.913V49.9248L107.635 48.8833L108.013 48.0177L109.913 48.8867V39.2073L108.434 40.9127L107.742 40.2831L109.913 37.7802V28.9788H108.136V28.0309H109.913V22.6663H110.839V28.0309H113.687ZM120.874 31.2043V41.8511H117.99V31.2043H120.874ZM117.064 31.2043V41.8511H114.596V31.2043H117.064ZM119.613 36.3353C119.613 35.9644 119.318 35.6621 118.956 35.6621C118.594 35.6621 118.298 35.9644 118.298 36.3353C118.298 36.7062 118.594 37.0084 118.956 37.0084C119.318 37.0084 119.613 36.7062 119.613 36.3353ZM152.1 37.7847H149.969L149.901 37.8967L149.725 37.7847H149.718V37.7801L149.115 37.3948L153.852 29.6245H146.552V28.6766H150.851L153.42 22.6496L154.268 23.0288L151.861 28.6766H154.857V29.6245H154.846L154.916 29.6689L150.547 36.8368H154.732L153.244 34.3326L154.035 33.84L157.678 39.9727L156.887 40.4652L155.295 37.7847H153.025V49.6472H152.1V40.5297L148.717 44.431L148.025 43.8016L152.1 39.102V37.7847ZM158.499 34.2678H163.335V31.0875H158.499V34.2678ZM163.335 27.0554H158.499V30.1396H163.335V27.0554ZM155.078 41.7411C155.078 41.3702 154.783 41.068 154.421 41.068C154.058 41.068 153.763 41.3702 153.763 41.7411C153.763 42.112 154.058 42.4143 154.421 42.4143C154.783 42.4143 155.078 42.112 155.078 41.7411ZM129.246 23.6897H130.171V25.0566H140.824V23.6897H141.749V48.9947H140.824V45.5396H130.171V48.9947H129.246V23.6897ZM130.171 44.5917V35.1608H140.824V44.5917H130.171ZM140.824 26.0045V34.2129H130.171V26.0045H140.824Z" fill="black"/>
<path d="M180.461 86.224C180.461 83.236 181.447 80.7289 183.425 78.7026C185.404 76.6762 187.839 75.6665 190.744 75.6665V77.1914C188.282 77.1914 186.203 78.0431 184.512 79.7535C182.822 81.4638 181.983 83.6207 181.983 86.2308C181.983 88.4564 182.654 90.3728 183.989 91.9732C185.324 93.5737 187.068 94.6177 189.221 95.1054V80.983H190.744V96.8913C187.759 96.5754 185.337 95.5107 183.472 93.711C181.467 91.7603 180.461 89.2669 180.461 86.2377V86.224ZM173.397 96.8982V80.7083L169.017 78.0363V96.8982H167.494V75.2956L173.397 78.9567V75.6802H174.92V96.8982H173.397ZM159.498 96.8982V75.6802H161.021V96.8982H159.498ZM147.404 95.339C149.188 95.339 150.376 95.2359 150.979 95.023C152.2 94.5971 152.811 93.6424 152.811 92.1587C152.811 91.1009 152.415 89.8026 151.617 88.2778C150.818 86.7529 150.04 85.2761 149.269 83.8542C148.417 82.1576 147.994 80.7701 147.994 79.6848C147.994 78.3454 148.403 77.3425 149.222 76.6762C150.04 76.01 151.12 75.6734 152.468 75.6734H153.589V77.1983C152.281 77.1983 151.395 77.2807 150.919 77.4524C149.987 77.789 149.524 78.5034 149.524 79.5818C149.524 80.6602 149.94 82.0408 150.765 83.655C151.529 85.0563 152.294 86.4575 153.065 87.8519C153.917 89.5485 154.34 90.9772 154.34 92.1449C154.34 93.6698 153.823 94.8581 152.784 95.7099C151.831 96.4929 150.59 96.8845 149.054 96.8845H147.411V95.3252L147.404 95.339ZM136.551 95.339C138.335 95.339 139.522 95.2359 140.126 95.023C141.347 94.5971 141.957 93.6424 141.957 92.1587C141.957 91.1009 141.561 89.8026 140.763 88.2778C139.965 86.7529 139.187 85.2761 138.415 83.8542C137.563 82.1576 137.141 80.7701 137.141 79.6848C137.141 78.3454 137.55 77.3425 138.368 76.6762C139.187 76.01 140.267 75.6734 141.615 75.6734H142.735V77.1983C141.427 77.1983 140.542 77.2807 140.065 77.4524C139.133 77.789 138.67 78.5034 138.67 79.5818C138.67 80.6602 139.086 82.0408 139.911 83.655C140.676 85.0563 141.441 86.4575 142.212 87.8519C143.064 89.5485 143.487 90.9772 143.487 92.1449C143.487 93.6698 142.97 94.8581 141.93 95.7099C140.978 96.4929 139.737 96.8845 138.201 96.8845H136.557V95.3252L136.551 95.339ZM104.567 84.2114C104.567 82.2812 103.963 80.6739 102.749 79.3894C101.535 78.105 99.9924 77.37 98.1075 77.1777V91.0803C99.9723 90.8673 101.495 90.1598 102.676 88.9509C103.937 87.6802 104.574 86.1003 104.574 84.2114H104.567ZM103.447 96.9051L98.1008 92.3235V96.9051H96.5781V75.6871H97.7251C100.026 75.6871 101.991 76.4908 103.628 78.105C105.265 79.7191 106.083 81.7111 106.083 84.0877C106.083 85.9973 105.573 87.6527 104.56 89.0539C103.548 90.4552 102.139 91.5061 100.335 92.1999L105.862 96.9119H103.44L103.447 96.9051ZM81.1029 86.3133C81.1029 83.2772 82.089 80.7495 84.0678 78.7232C86.0466 76.6968 88.495 75.6871 91.413 75.6871V77.212C88.9713 77.212 86.8851 78.0775 85.1679 79.8222C83.4507 81.56 82.5921 83.7237 82.5921 86.3133C82.5921 88.9028 83.444 91.0322 85.1411 92.77C86.8382 94.5078 88.931 95.3802 91.4197 95.3802V96.9051C88.5621 96.9051 86.1271 95.8885 84.1215 93.8484C82.1091 91.8152 81.1096 89.3012 81.1096 86.3064L81.1029 86.3133Z" fill="black"/>
<path d="M112.462 86.3065C112.462 88.8754 113.355 91.0666 115.132 92.8937C116.916 94.7208 119.07 95.6275 121.592 95.6275C124.114 95.6275 126.247 94.7346 128.038 92.9418C129.829 91.149 130.728 88.9784 130.728 86.437C130.728 83.7238 129.829 81.4639 128.025 79.6574C126.22 77.8577 124.007 76.951 121.377 76.951C118.936 76.951 116.836 77.8783 115.085 79.7329C113.334 81.5875 112.462 83.7787 112.462 86.2996V86.3065ZM132.224 86.3408C132.224 89.3288 131.191 91.884 129.118 94.0065C127.045 96.1289 124.55 97.1867 121.632 97.1867C118.714 97.1867 116.205 96.1495 114.113 94.0683C112.02 91.987 110.973 89.4455 110.973 86.437C110.973 83.4284 112.02 80.7015 114.113 78.579C116.205 76.4565 118.775 75.3987 121.82 75.3987C124.865 75.3987 127.18 76.4771 129.199 78.6271C131.218 80.777 132.231 83.3528 132.231 86.3408H132.224Z" fill="black"/>
</g>
<rect x="21.5" y="22.5" width="231" height="76" stroke="#CFCFCF"/>
<path d="M1.47113 11.0139C1.47113 13.6078 2.35247 15.8203 4.10855 17.6652C5.87125 19.5101 7.99842 20.4256 10.4901 20.4256C12.9817 20.4256 15.089 19.524 16.8583 17.7137C18.6276 15.9035 19.5156 13.7119 19.5156 11.1456C19.5156 8.40605 18.6276 6.12421 16.8451 4.30013C15.0625 2.48298 12.8757 1.56747 10.278 1.56747C7.86589 1.56747 5.79174 2.50379 4.06217 4.37642C2.3326 6.24906 1.47113 8.46154 1.47113 11.0069V11.0139ZM20.9934 11.0485C20.9934 14.0656 19.9729 16.6457 17.9252 18.7888C15.8776 20.9319 13.4124 22 10.5298 22C7.64721 22 5.16882 20.9527 3.10129 18.8512C1.03376 16.7497 0 14.1835 0 11.1456C0 8.10782 1.03376 5.35435 3.10129 3.21123C5.16882 1.0681 7.70685 0 10.7154 0C13.7239 0 16.0101 1.08891 18.0047 3.25978C19.9994 5.43065 21 8.03152 21 11.0485H20.9934Z" fill="#FF9900"/>
<rect x="0.5" y="0.5" width="20" height="21" stroke="#CFCFCF"/>
<path d="M254.471 11.0139C254.471 13.6078 255.352 15.8203 257.109 17.6652C258.871 19.5101 260.998 20.4256 263.49 20.4256C265.982 20.4256 268.089 19.524 269.858 17.7137C271.628 15.9035 272.516 13.7119 272.516 11.1456C272.516 8.40605 271.628 6.12421 269.845 4.30013C268.062 2.48298 265.876 1.56747 263.278 1.56747C260.866 1.56747 258.792 2.50379 257.062 4.37642C255.333 6.24906 254.471 8.46154 254.471 11.0069V11.0139ZM273.993 11.0485C273.993 14.0656 272.973 16.6457 270.925 18.7888C268.878 20.9319 266.412 22 263.53 22C260.647 22 258.169 20.9527 256.101 18.8512C254.034 16.7497 253 14.1835 253 11.1456C253 8.10782 254.034 5.35435 256.101 3.21123C258.169 1.0681 260.707 0 263.715 0C266.724 0 269.01 1.08891 271.005 3.25978C272.999 5.43065 274 8.03152 274 11.0485H273.993Z" fill="#FF9900"/>
<rect x="253.5" y="0.5" width="20" height="21" stroke="#CFCFCF"/>
<path d="M1.47113 109.513C1.47113 111.989 2.35247 114.101 4.10855 115.862C5.87125 117.623 7.99842 118.497 10.4901 118.497C12.9817 118.497 15.089 117.637 16.8583 115.909C18.6276 114.181 19.5156 112.089 19.5156 109.639C19.5156 107.024 18.6276 104.846 16.8451 103.105C15.0625 101.37 12.8757 100.496 10.278 100.496C7.86589 100.496 5.79174 101.39 4.06217 103.177C2.3326 104.965 1.47113 107.077 1.47113 109.507V109.513ZM20.9934 109.546C20.9934 112.426 19.9729 114.889 17.9252 116.935C15.8776 118.98 13.4124 120 10.5298 120C7.64721 120 5.16882 119 3.10129 116.994C1.03376 114.988 0 112.539 0 109.639C0 106.739 1.03376 104.111 3.10129 102.065C5.16882 100.02 7.70685 99 10.7154 99C13.7239 99 16.0101 100.039 18.0047 102.112C19.9994 104.184 21 106.666 21 109.546H20.9934Z" fill="#FF9900"/>
<rect x="0.5" y="99.5" width="20" height="20" stroke="#CFCFCF"/>
<path d="M254.471 109.513C254.471 111.989 255.352 114.101 257.109 115.862C258.871 117.623 260.998 118.497 263.49 118.497C265.982 118.497 268.089 117.637 269.858 115.909C271.628 114.181 272.516 112.089 272.516 109.639C272.516 107.024 271.628 104.846 269.845 103.105C268.062 101.37 265.876 100.496 263.278 100.496C260.866 100.496 258.792 101.39 257.062 103.177C255.333 104.965 254.471 107.077 254.471 109.507V109.513ZM273.993 109.546C273.993 112.426 272.973 114.889 270.925 116.935C268.878 118.98 266.412 120 263.53 120C260.647 120 258.169 119 256.101 116.994C254.034 114.988 253 112.539 253 109.639C253 106.739 254.034 104.111 256.101 102.065C258.169 100.02 260.707 99 263.715 99C266.724 99 269.01 100.039 271.005 102.112C272.999 104.184 274 106.666 274 109.546H273.993Z" fill="#FF9900"/>
<rect x="253.5" y="99.5" width="20" height="20" stroke="#CFCFCF"/>
<defs>
<clipPath id="clip0_1424_240533">
<rect x="21" y="22" width="232" height="77" fill="white"/>
</clipPath>
</defs>
</svg>
