<svg width="267" height="120" viewBox="0 0 267 120" fill="none" xmlns="http://www.w3.org/2000/svg">
<g clip-path="url(#clip0_1424_240581)">
<rect width="229" height="84" transform="translate(19 18)" fill="black"/>
<path fill-rule="evenodd" clip-rule="evenodd" d="M133.5 57.7293C178.218 57.7293 216.239 71.9723 230.189 91.8182C215.137 73.2893 177.525 60.159 133.5 60.159C89.4747 60.159 51.8626 73.295 36.811 91.8182C50.7611 71.9666 88.7814 57.7293 133.5 57.7293Z" fill="#FF9900"/>
<path fill-rule="evenodd" clip-rule="evenodd" d="M157.14 31.5765H151.75L153.069 28.494L152.365 28.1818L150.907 31.5765H150.749V31.5936H150.648V39.138H151.42V39.1039H153.248V40.9214L152.918 40.7874L152.901 40.829L150.74 39.9296L150.447 40.6544L152.615 41.5565L149.289 50.0073L150.006 50.2979L153.248 42.059V51.0307H154.02V42.0489L157.264 50.2918L157.98 50.0011L154.652 41.5445L156.826 40.6405L156.534 39.9156L154.366 40.817L154.352 40.7812L154.02 40.9159V39.1039H155.451V39.138H156.223V32.3599H157.14V31.5765ZM114.068 33.166L116.072 28.4938L116.78 28.8067L115.849 30.9748H118.554L118.749 30.4895L119.464 30.7855L117.767 35.0053H120.059V34.5568H120.83V44.5877H121.96V45.371H118.079L121.77 51.0761L121.127 51.5076L117.324 45.6298L113.517 51.5076L112.874 51.0761L116.569 45.371H112.745V44.5877H114.054V34.5568H114.825V35.0053H116.934L118.239 31.7582H115.541V31.6937L114.446 34.2452L113.777 33.9494H111.694V40.3416L112.577 39.3324L113.154 39.8527L111.694 41.521V51.3373H110.923V51.2601L109.024 50.3994L109.338 49.6841L110.923 50.4022V42.4028L109.689 43.8121L109.113 43.2918L110.923 41.2233V33.9494H109.441V33.166H110.923V28.7325H111.694V33.166H114.068ZM120.059 35.7887V44.5877H117.654V35.7887H120.059ZM116.883 35.7887V44.5877H114.825V35.7887H116.883ZM119.008 40.0292C119.008 39.7226 118.762 39.4728 118.46 39.4728C118.158 39.4728 117.912 39.7226 117.912 40.0292C117.912 40.3357 118.158 40.5855 118.46 40.5855C118.762 40.5855 119.008 40.3357 119.008 40.0292ZM146.086 41.227H144.31L144.253 41.3196L144.107 41.227H144.101V41.2232L143.599 40.9048L147.546 34.483H141.462V33.6996H145.045L147.186 28.7187L147.894 29.0321L145.887 33.6996H148.384V34.483H148.375L148.433 34.5198L144.792 40.4436H148.28L147.04 38.3741L147.699 37.967L150.735 43.0353L150.076 43.4424L148.749 41.227H146.857V51.0307H146.086V43.4957L143.266 46.7198L142.689 46.1997L146.086 42.3157V41.227ZM151.42 38.3205H155.451V35.6922H151.42V38.3205ZM155.451 32.3599H151.42V34.9088H155.451V32.3599ZM148.568 44.4968C148.568 44.1903 148.322 43.9405 148.02 43.9405C147.718 43.9405 147.472 44.1903 147.472 44.4968C147.472 44.8033 147.718 45.0531 148.02 45.0531C148.322 45.0531 148.568 44.8033 148.568 44.4968ZM127.037 29.5783H127.808V30.7079H136.687V29.5783H137.459V50.4915H136.687V47.6361H127.808V50.4915H127.037V29.5783ZM127.808 46.8527V39.0585H136.687V46.8527H127.808ZM136.687 31.4913V38.2751H127.808V31.4913H136.687Z" fill="white"/>
<path d="M169.726 81.2595C169.726 78.7901 170.547 76.7181 172.197 75.0435C173.846 73.3688 175.876 72.5343 178.297 72.5343V73.7946C176.245 73.7946 174.512 74.4985 173.103 75.912C171.694 77.3255 170.995 79.108 170.995 81.2652C170.995 83.1044 171.554 84.6883 172.667 86.0109C173.779 87.3336 175.233 88.1965 177.028 88.5995V76.9281H178.297V90.0755C175.809 89.8144 173.79 88.9345 172.236 87.4472C170.564 85.835 169.726 83.7743 169.726 81.2709V81.2595ZM163.838 90.0812V76.7011L160.187 74.4928V90.0812H158.918V72.2278L163.838 75.2535V72.5457H165.107V90.0812H163.838ZM152.253 90.0812V72.5457H153.522V90.0812H152.253ZM142.172 88.7926C143.659 88.7926 144.649 88.7074 145.152 88.5314C146.17 88.1795 146.679 87.3904 146.679 86.1642C146.679 85.29 146.349 84.2171 145.683 82.9568C145.018 81.6966 144.369 80.4761 143.726 79.301C143.016 77.8989 142.664 76.7522 142.664 75.8552C142.664 74.7483 143.005 73.9195 143.687 73.3688C144.369 72.8182 145.27 72.54 146.393 72.54H147.327V73.8002C146.237 73.8002 145.499 73.8684 145.102 74.0103C144.325 74.2884 143.939 74.8788 143.939 75.7701C143.939 76.6613 144.285 77.8024 144.973 79.1364C145.611 80.2945 146.248 81.4525 146.891 82.6049C147.601 84.007 147.953 85.1878 147.953 86.1529C147.953 87.4131 147.523 88.3952 146.656 89.0991C145.862 89.7462 144.828 90.0698 143.547 90.0698H142.178V88.7812L142.172 88.7926ZM133.125 88.7926C134.613 88.7926 135.602 88.7074 136.106 88.5314C137.123 88.1795 137.632 87.3904 137.632 86.1642C137.632 85.29 137.302 84.2171 136.637 82.9568C135.971 81.6966 135.323 80.4761 134.68 79.301C133.97 77.8989 133.617 76.7522 133.617 75.8552C133.617 74.7483 133.959 73.9195 134.641 73.3688C135.323 72.8182 136.223 72.54 137.347 72.54H138.281V73.8002C137.19 73.8002 136.452 73.8684 136.055 74.0103C135.278 74.2884 134.892 74.8788 134.892 75.7701C134.892 76.6613 135.239 77.8024 135.927 79.1364C136.564 80.2945 137.201 81.4525 137.844 82.6049C138.555 84.007 138.907 85.1878 138.907 86.1529C138.907 87.4131 138.476 88.3952 137.61 89.0991C136.816 89.7462 135.781 90.0698 134.501 90.0698H133.131V88.7812L133.125 88.7926ZM106.467 79.5962C106.467 78.001 105.963 76.6727 104.951 75.6111C103.939 74.5496 102.653 73.9422 101.082 73.7832V85.273C102.637 85.097 103.906 84.5123 104.89 83.5132C105.941 82.463 106.472 81.1573 106.472 79.5962H106.467ZM105.533 90.0869L101.077 86.3005V90.0869H99.8074V72.5514H100.763C102.681 72.5514 104.319 73.2155 105.684 74.5496C107.048 75.8836 107.73 77.5299 107.73 79.494C107.73 81.0722 107.305 82.4403 106.461 83.5983C105.617 84.7564 104.442 85.6249 102.938 86.1983L107.546 90.0925H105.527L105.533 90.0869ZM86.9084 81.3333C86.9084 78.8242 87.7304 76.7351 89.3798 75.0605C91.0292 73.3858 93.07 72.5514 95.5021 72.5514V73.8116C93.4669 73.8116 91.7281 74.5269 90.2967 75.9688C88.8654 77.405 88.1497 79.1932 88.1497 81.3333C88.1497 83.4734 88.8598 85.2332 90.2744 86.6694C91.6889 88.1057 93.4334 88.8266 95.5077 88.8266V90.0869C93.1259 90.0869 91.0963 89.2467 89.4245 87.5607C87.7471 85.8804 86.914 83.8027 86.914 81.3276L86.9084 81.3333Z" fill="white"/>
<path d="M113.047 81.3277C113.047 83.4508 113.791 85.2617 115.273 86.7717C116.76 88.2817 118.555 89.031 120.657 89.031C122.759 89.031 124.537 88.293 126.03 86.8114C127.523 85.3298 128.272 83.5359 128.272 81.4355C128.272 79.1932 127.523 77.3256 126.019 75.8326C124.515 74.3453 122.67 73.5959 120.478 73.5959C118.443 73.5959 116.693 74.3623 115.234 75.895C113.774 77.4277 113.047 79.2386 113.047 81.322V81.3277ZM129.519 81.3561C129.519 83.8254 128.658 85.9372 126.93 87.6913C125.203 89.4454 123.123 90.3197 120.691 90.3197C118.258 90.3197 116.167 89.4625 114.423 87.7424C112.678 86.0223 111.806 83.9219 111.806 81.4355C111.806 78.9491 112.678 76.6954 114.423 74.9413C116.167 73.1872 118.309 72.313 120.847 72.313C123.386 72.313 125.315 73.2042 126.997 74.9811C128.68 76.7579 129.525 78.8867 129.525 81.3561H129.519Z" fill="white"/>
</g>
<path d="M20.261 59.0113C20.261 61.1337 21.0164 62.9439 22.5216 64.4533C24.0325 65.9628 25.8558 66.7119 27.9915 66.7119C30.1272 66.7119 31.9334 65.9741 33.45 64.4931C34.9666 63.012 35.7277 61.2188 35.7277 59.1192C35.7277 56.8777 34.9665 55.0107 33.4386 53.5183C31.9107 52.0315 30.0363 51.2825 27.8097 51.2825C25.7422 51.2825 23.9643 52.0486 22.4819 53.5807C20.9994 55.1129 20.261 56.9231 20.261 59.0057V59.0113ZM36.9943 59.0397C36.9943 61.5082 36.1196 63.6192 34.3645 65.3726C32.6093 67.1261 30.4964 68 28.0256 68C25.5547 68 23.4304 67.1431 21.6582 65.4237C19.8861 63.7043 19 61.6047 19 59.1192C19 56.6337 19.8861 54.3808 21.6582 52.6274C23.4304 50.8739 25.6059 50 28.1846 50C30.7633 50 32.7229 50.8909 34.4326 52.6671C36.1423 54.4433 37 56.5712 37 59.0397H36.9943Z" fill="#FF9900"/>
<path d="M230.331 59.0113C230.331 61.1337 231.128 62.9439 232.717 64.4533C234.312 65.9628 236.237 66.7119 238.491 66.7119C240.745 66.7119 242.652 65.9741 244.253 64.4931C245.854 63.012 246.657 61.2188 246.657 59.1192C246.657 56.8777 245.854 55.0107 244.241 53.5183C242.628 52.0315 240.649 51.2825 238.299 51.2825C236.117 51.2825 234.24 52.0486 232.675 53.5807C231.11 55.1129 230.331 56.9231 230.331 59.0057V59.0113ZM247.994 59.0397C247.994 61.5082 247.071 63.6192 245.218 65.3726C243.365 67.1261 241.135 68 238.527 68C235.919 68 233.677 67.1431 231.806 65.4237C229.935 63.7043 229 61.6047 229 59.1192C229 56.6337 229.935 54.3808 231.806 52.6274C233.677 50.8739 235.973 50 238.695 50C241.417 50 243.485 50.8909 245.29 52.6671C247.095 54.4433 248 56.5712 248 59.0397H247.994Z" fill="#FF9900"/>
<path d="M37 18V102" stroke="#CFCFCF" stroke-linecap="round" stroke-dasharray="1 3"/>
<path d="M229 18V102" stroke="#CFCFCF" stroke-linecap="round" stroke-dasharray="1 3"/>
<defs>
<clipPath id="clip0_1424_240581">
<rect width="229" height="84" fill="white" transform="translate(19 18)"/>
</clipPath>
</defs>
</svg>
