<svg width="152" height="50" viewBox="0 0 152 50" fill="none" xmlns="http://www.w3.org/2000/svg">
<g clip-path="url(#clip0_1424_240525)">
<path fill-rule="evenodd" clip-rule="evenodd" d="M76 23.2159C111.15 23.2159 141.035 34.4068 152 50C140.169 35.4416 110.605 25.1249 76 25.1249C41.395 25.1249 11.8309 35.446 0 50C10.9651 34.4023 40.8501 23.2159 76 23.2159Z" fill="#CFCFCF"/>
<path fill-rule="evenodd" clip-rule="evenodd" d="M94.5813 2.66721H90.3452L91.3819 0.245317L90.8281 0L89.6822 2.66721H89.558V2.68066H89.4789V8.6084H90.0854V8.58165H91.5225V10.0097L91.2628 9.90436L91.2499 9.9371L89.5511 9.23037L89.3211 9.79989L91.0248 10.5087L88.4107 17.1486L88.9739 17.3769L91.5225 10.9035V17.9527H92.129V10.8956L94.6788 17.3721L95.242 17.1437L92.6261 10.4992L94.3349 9.78899L94.1051 9.21938L92.401 9.9276L92.39 9.89952L92.129 10.0053V8.58165H93.2541V8.6084H93.8606V3.28274H94.5813V2.66721ZM60.7256 3.91614L62.3014 0.245103L62.8574 0.490937L62.1262 2.19448H64.2521L64.4054 1.81319L64.9669 2.04576L63.6337 5.36131H65.4348V5.0089H66.0412V12.8903H66.929V13.5058H63.879L66.7796 17.9884L66.2742 18.3274L63.2855 13.7091L60.2928 18.3274L59.7874 17.9884L62.6921 13.5058H59.6863V12.8903H60.7147V5.0089H61.3212V5.36131H62.9787L64.0046 2.81H61.8837V2.75935L61.0232 4.76407L60.4975 4.53166H58.8601V9.55408L59.5542 8.76117L60.0076 9.16999L58.8601 10.4808V18.1936H58.2536V18.133L56.7611 17.4567L57.0084 16.8946L58.2536 17.4589V11.1736L57.2842 12.281L56.8308 11.8721L58.2536 10.2469V4.53166H57.089V3.91614H58.2536V0.432656H58.8601V3.91614H60.7256ZM65.4348 5.97684V12.8903H63.545V5.97684H65.4348ZM62.9385 5.97684V12.8903H61.3212V5.97684H62.9385ZM64.6085 9.30862C64.6085 9.06777 64.4151 8.87151 64.1778 8.87151C63.9405 8.87151 63.7471 9.06777 63.7471 9.30862C63.7471 9.54948 63.9405 9.74574 64.1778 9.74574C64.4151 9.74574 64.6085 9.54948 64.6085 9.30862ZM85.8927 10.2498H84.4969L84.4521 10.3225L84.3373 10.2498H84.3326V10.2468L83.9376 9.99663L87.0406 4.95096H82.2582V4.33543H85.0747L86.7578 0.421821L87.3137 0.668048L85.7364 4.33543H87.699V4.95096H87.6922L87.7378 4.97982L84.8754 9.63426H87.6172L86.6427 8.00819L87.1608 7.68833L89.5475 11.6706L89.0293 11.9904L87.9861 10.2498H86.4992V17.9527H85.8927V12.0323L83.6766 14.5656L83.2231 14.1569L85.8927 11.1052V10.2498ZM90.0854 7.96612H93.2541V5.90099H90.0854V7.96612ZM93.2541 3.28274H90.0854V5.28547H93.2541V3.28274ZM87.8441 12.8189C87.8441 12.5781 87.6507 12.3818 87.4134 12.3818C87.176 12.3818 86.9827 12.5781 86.9827 12.8189C86.9827 13.0598 87.176 13.256 87.4134 13.256C87.6507 13.256 87.8441 13.0598 87.8441 12.8189ZM70.9195 1.09724H71.526V1.98479H78.505V1.09724H79.1115V17.529H78.505V15.2855H71.526V17.529H70.9195V1.09724ZM71.526 14.67V8.54596H78.505V14.67H71.526ZM78.505 2.60031V7.93044H71.526V2.60031H78.505Z" fill="#CFCFCF"/>
<path d="M104.474 41.7039C104.474 39.7637 105.12 38.1356 106.417 36.8199C107.713 35.5041 109.309 34.8484 111.212 34.8484V35.8386C109.599 35.8386 108.236 36.3917 107.129 37.5023C106.021 38.6129 105.472 40.0134 105.472 41.7084C105.472 43.1535 105.911 44.3979 106.786 45.4372C107.66 46.4764 108.803 47.1544 110.214 47.4711V38.3007H111.212V48.6307C109.256 48.4256 107.669 47.7342 106.447 46.5656C105.133 45.2989 104.474 43.6798 104.474 41.7128V41.7039ZM99.8464 48.6352V38.1223L96.9766 36.3872V48.6352H95.979V34.6075L99.8464 36.9849V34.8573H100.844V48.6352H99.8464ZM90.7403 48.6352V34.8573H91.738V48.6352H90.7403ZM82.8164 47.6227C83.9855 47.6227 84.7633 47.5558 85.1589 47.4175C85.9587 47.141 86.3587 46.521 86.3587 45.5576C86.3587 44.8707 86.0994 44.0277 85.5764 43.0375C85.0534 42.0473 84.5436 41.0884 84.0382 40.1651C83.48 39.0634 83.2032 38.1624 83.2032 37.4577C83.2032 36.5879 83.4713 35.9367 84.0074 35.5041C84.5436 35.0714 85.2512 34.8529 86.1345 34.8529H86.8685V35.843C86.0115 35.843 85.4314 35.8966 85.1193 36.0081C84.5084 36.2266 84.2052 36.6905 84.2052 37.3908C84.2052 38.091 84.4777 38.9876 85.0182 40.0357C85.5193 40.9456 86.0203 41.8555 86.5257 42.761C87.0838 43.8627 87.3607 44.7904 87.3607 45.5487C87.3607 46.5389 87.0223 47.3105 86.3411 47.8636C85.717 48.372 84.904 48.6263 83.8976 48.6263H82.8208V47.6138L82.8164 47.6227ZM75.7056 47.6227C76.8746 47.6227 77.6525 47.5558 78.048 47.4175C78.8479 47.141 79.2478 46.521 79.2478 45.5576C79.2478 44.8707 78.9885 44.0277 78.4655 43.0375C77.9425 42.0473 77.4327 41.0884 76.9273 40.1651C76.3692 39.0634 76.0923 38.1624 76.0923 37.4577C76.0923 36.5879 76.3604 35.9367 76.8966 35.5041C77.4327 35.0714 78.1403 34.8529 79.0237 34.8529H79.7576V35.843C78.9006 35.843 78.3205 35.8966 78.0085 36.0081C77.3976 36.2266 77.0943 36.6905 77.0943 37.3908C77.0943 38.091 77.3668 38.9876 77.9074 40.0357C78.4084 40.9456 78.9094 41.8555 79.4148 42.761C79.973 43.8627 80.2498 44.7904 80.2498 45.5487C80.2498 46.5389 79.9114 47.3105 79.2302 47.8636C78.6062 48.372 77.7931 48.6263 76.7867 48.6263H75.71V47.6138L75.7056 47.6227ZM54.751 40.397C54.751 39.1437 54.3554 38.1 53.56 37.2659C52.7645 36.4318 51.7537 35.9546 50.5187 35.8297V44.8573C51.7405 44.7191 52.7381 44.2596 53.5116 43.4746C54.3379 42.6495 54.7554 41.6236 54.7554 40.397H54.751ZM54.017 48.6397L50.5143 45.6646V48.6397H49.5167V34.8618H50.2682C51.7757 34.8618 53.0633 35.3836 54.1357 36.4318C55.208 37.48 55.7442 38.7735 55.7442 40.3167C55.7442 41.5567 55.4102 42.6316 54.7466 43.5415C54.0829 44.4514 53.16 45.1339 51.9778 45.5844L55.5992 48.6441H54.0126L54.017 48.6397ZM39.3778 41.7619C39.3778 39.7904 40.0238 38.149 41.3203 36.8332C42.6168 35.5174 44.2209 34.8618 46.1327 34.8618V35.852C44.533 35.852 43.1662 36.414 42.0411 37.5469C40.916 38.6753 40.3535 40.0803 40.3535 41.7619C40.3535 43.4434 40.9116 44.8261 42.0235 45.9546C43.1354 47.083 44.5066 47.6495 46.1371 47.6495V48.6397C44.2649 48.6397 42.6695 47.9795 41.3555 46.6548C40.037 45.3346 39.3822 43.7021 39.3822 41.7574L39.3778 41.7619Z" fill="#CFCFCF"/>
<path d="M59.9237 41.7575C59.9237 43.4256 60.5082 44.8485 61.6728 46.0349C62.8418 47.2213 64.2526 47.8101 65.905 47.8101C67.5575 47.8101 68.9551 47.2303 70.1285 46.0661C71.3019 44.902 71.8908 43.4925 71.8908 41.8422C71.8908 40.0804 71.3019 38.613 70.1197 37.4399C68.9375 36.2713 67.4872 35.6825 65.7644 35.6825C64.1647 35.6825 62.7891 36.2847 61.642 37.489C60.495 38.6932 59.9237 40.1161 59.9237 41.753V41.7575ZM72.8709 41.7798C72.8709 43.72 72.1941 45.3792 70.836 46.7575C69.478 48.1357 67.8432 48.8226 65.9314 48.8226C64.0196 48.8226 62.376 48.1491 61.0048 46.7976C59.6336 45.4461 58.948 43.7958 58.948 41.8422C58.948 39.8886 59.6336 38.1179 61.0048 36.7396C62.376 35.3614 64.0592 34.6745 66.0545 34.6745C68.0497 34.6745 69.5659 35.3748 70.8888 36.7708C72.2116 38.1669 72.8753 39.8395 72.8753 41.7798H72.8709Z" fill="#FF9900"/>
</g>
<defs>
<clipPath id="clip0_1424_240525">
<rect width="152" height="50" fill="white"/>
</clipPath>
</defs>
</svg>
