<svg width="267" height="120" viewBox="0 0 267 120" fill="none" xmlns="http://www.w3.org/2000/svg">
<g clip-path="url(#clip0_1424_240549)">
<rect width="231" height="84" transform="translate(18 18)" fill="black"/>
<path fill-rule="evenodd" clip-rule="evenodd" d="M133.5 57.7293C178.609 57.7293 216.961 71.9723 231.033 91.8182C215.85 73.2893 177.91 60.159 133.5 60.159C89.0902 60.159 51.1496 73.295 35.9666 91.8182C50.0385 71.9666 88.3908 57.7293 133.5 57.7293" fill="#FF9900"/>
<path fill-rule="evenodd" clip-rule="evenodd" d="M157.346 31.5765H151.91L153.24 28.494L152.529 28.1818L151.059 31.5765H150.899V31.5936H150.798V39.138H151.576V39.1039H153.421V40.9214L153.087 40.7874L153.071 40.829L150.891 39.9296L150.595 40.6544L152.782 41.5565L149.427 50.0073L150.15 50.2979L153.421 42.059V51.0307H154.199V42.0489L157.471 50.2918L158.194 50.0011L154.837 41.5445L157.03 40.6405L156.735 39.9156L154.548 40.817L154.534 40.7812L154.199 40.9159V39.1039H155.643V39.138H156.421V32.3599H157.346V31.5765ZM113.898 33.166L115.92 28.4938L116.634 28.8067L115.695 30.9748H118.423L118.62 30.4895L119.341 30.7855L117.63 35.0053H119.941V34.5568H120.72V44.5877H121.859V45.371H117.945L121.667 51.0761L121.018 51.5076L117.183 45.6298L113.342 51.5076L112.694 51.0761L116.421 45.371H112.564V44.5877H113.884V34.5568H114.662V35.0053H116.789L118.106 31.7582H115.384V31.6937L114.28 34.2452L113.605 33.9494H111.504V40.3416L112.395 39.3324L112.976 39.8527L111.504 41.521V51.3373H110.725V51.2601L108.81 50.3994L109.127 49.6841L110.725 50.4022V42.4028L109.481 43.8121L108.899 43.2918L110.725 41.2233V33.9494H109.231V33.166H110.725V28.7325H111.504V33.166H113.898ZM119.941 35.7887V44.5877H117.516V35.7887H119.941ZM116.738 35.7887V44.5877H114.662V35.7887H116.738ZM118.881 40.0292C118.881 39.7226 118.633 39.4728 118.328 39.4728C118.024 39.4728 117.775 39.7226 117.775 40.0292C117.775 40.3357 118.024 40.5855 118.328 40.5855C118.633 40.5855 118.881 40.3357 118.881 40.0292ZM146.196 41.227H144.404L144.347 41.3196L144.199 41.227H144.193V41.2232L143.687 40.9048L147.669 34.483H141.531V33.6996H145.146L147.306 28.7187L148.019 29.0321L145.995 33.6996H148.514V34.483H148.505L148.563 34.5198L144.89 40.4436H148.409L147.158 38.3741L147.823 37.967L150.886 43.0353L150.221 43.4424L148.882 41.227H146.974V51.0307H146.196V43.4957L143.352 46.7198L142.77 46.1997L146.196 42.3157V41.227ZM151.576 38.3205H155.643V35.6922H151.576V38.3205ZM155.643 32.3599H151.576V34.9088H155.643V32.3599ZM148.7 44.4968C148.7 44.1903 148.452 43.9405 148.147 43.9405C147.843 43.9405 147.594 44.1903 147.594 44.4968C147.594 44.8033 147.843 45.0531 148.147 45.0531C148.452 45.0531 148.7 44.8033 148.7 44.4968ZM126.98 29.5783H127.758V30.7079H136.715V29.5783H137.493V50.4915H136.715V47.6361H127.758V50.4915H126.98V29.5783ZM127.758 46.8527V39.0585H136.715V46.8527H127.758ZM136.715 31.4913V38.2751H127.758V31.4913H136.715Z" fill="white"/>
<path d="M170.042 81.2595C170.042 78.7901 170.871 76.7181 172.535 75.0435C174.199 73.3688 176.246 72.5343 178.688 72.5343V73.7946C176.618 73.7946 174.87 74.4985 173.448 75.912C172.027 77.3255 171.322 79.108 171.322 81.2652C171.322 83.1044 171.886 84.6883 173.009 86.0109C174.131 87.3336 175.597 88.1965 177.408 88.5995V76.9281H178.688V90.0755C176.178 89.8144 174.142 88.9345 172.574 87.4472C170.888 85.835 170.042 83.7743 170.042 81.2709V81.2595ZM164.103 90.0812V76.7011L160.42 74.4928V90.0812H159.14V72.2278L164.103 75.2535V72.5457H165.383V90.0812H164.103ZM152.417 90.0812V72.5457H153.697V90.0812H152.417ZM142.248 88.7926C143.748 88.7926 144.746 88.7074 145.254 88.5314C146.28 88.1795 146.794 87.3904 146.794 86.1642C146.794 85.29 146.461 84.2171 145.79 82.9568C145.118 81.6966 144.464 80.4761 143.816 79.301C143.099 77.8989 142.744 76.7522 142.744 75.8552C142.744 74.7483 143.088 73.9195 143.776 73.3688C144.464 72.8182 145.372 72.54 146.506 72.54H147.448V73.8002C146.348 73.8002 145.604 73.8684 145.203 74.0103C144.419 74.2884 144.03 74.8788 144.03 75.7701C144.03 76.6613 144.38 77.8024 145.073 79.1364C145.716 80.2945 146.359 81.4525 147.008 82.6049C147.724 84.007 148.08 85.1878 148.08 86.1529C148.08 87.4131 147.645 88.3952 146.771 89.0991C145.97 89.7462 144.927 90.0698 143.635 90.0698H142.253V88.7812L142.248 88.7926ZM133.122 88.7926C134.622 88.7926 135.621 88.7074 136.128 88.5314C137.155 88.1795 137.668 87.3904 137.668 86.1642C137.668 85.29 137.335 84.2171 136.664 82.9568C135.993 81.6966 135.339 80.4761 134.69 79.301C133.974 77.8989 133.618 76.7522 133.618 75.8552C133.618 74.7483 133.962 73.9195 134.651 73.3688C135.339 72.8182 136.247 72.54 137.38 72.54H138.322V73.8002C137.222 73.8002 136.478 73.8684 136.077 74.0103C135.294 74.2884 134.904 74.8788 134.904 75.7701C134.904 76.6613 135.254 77.8024 135.948 79.1364C136.591 80.2945 137.234 81.4525 137.882 82.6049C138.599 84.007 138.954 85.1878 138.954 86.1529C138.954 87.4131 138.52 88.3952 137.645 89.0991C136.845 89.7462 135.801 90.0698 134.51 90.0698H133.128V88.7812L133.122 88.7926ZM106.23 79.5962C106.23 78.001 105.723 76.6727 104.702 75.6111C103.681 74.5496 102.384 73.9422 100.799 73.7832V85.273C102.367 85.097 103.647 84.5123 104.64 83.5132C105.7 82.463 106.236 81.1573 106.236 79.5962H106.23ZM105.288 90.0869L100.793 86.3005V90.0869H99.5131V72.5514H100.478C102.412 72.5514 104.065 73.2155 105.441 74.5496C106.817 75.8836 107.505 77.5299 107.505 79.494C107.505 81.0722 107.076 82.4403 106.225 83.5983C105.373 84.7564 104.189 85.6249 102.671 86.1983L107.319 90.0925H105.283L105.288 90.0869ZM86.5015 81.3333C86.5015 78.8242 87.3306 76.7351 88.9944 75.0605C90.6582 73.3858 92.7168 72.5514 95.1702 72.5514V73.8116C93.1172 73.8116 91.3632 74.5269 89.9193 75.9688C88.4755 77.405 87.7536 79.1932 87.7536 81.3333C87.7536 83.4734 88.4698 85.2332 89.8968 86.6694C91.3237 88.1057 93.0834 88.8266 95.1759 88.8266V90.0869C92.7732 90.0869 90.7259 89.2467 89.0395 87.5607C87.3475 85.8804 86.5071 83.8027 86.5071 81.3276L86.5015 81.3333Z" fill="white"/>
<path d="M112.869 81.3277C112.869 83.4508 113.619 85.2617 115.113 86.7717C116.614 88.2817 118.424 89.031 120.545 89.031C122.665 89.031 124.459 88.293 125.965 86.8114C127.471 85.3298 128.226 83.5359 128.226 81.4355C128.226 79.1932 127.471 77.3256 125.953 75.8326C124.436 74.3453 122.575 73.5959 120.364 73.5959C118.311 73.5959 116.546 74.3623 115.074 75.895C113.602 77.4277 112.869 79.2386 112.869 81.322V81.3277ZM129.484 81.3561C129.484 83.8254 128.616 85.9372 126.873 87.6913C125.13 89.4454 123.032 90.3197 120.578 90.3197C118.125 90.3197 116.016 89.4625 114.256 87.7424C112.496 86.0223 111.616 83.9219 111.616 81.4355C111.616 78.9491 112.496 76.6954 114.256 74.9413C116.016 73.1872 118.176 72.313 120.736 72.313C123.297 72.313 125.243 73.2042 126.94 74.9811C128.638 76.7579 129.49 78.8867 129.49 81.3561H129.484Z" fill="white"/>
</g>
<path d="M1.26097 9.01135C1.26097 11.1337 2.01641 12.9439 3.52161 14.4533C5.0325 15.9628 6.85579 16.7119 8.99148 16.7119C11.1272 16.7119 12.9334 15.9741 14.45 14.4931C15.9666 13.012 16.7277 11.2188 16.7277 9.11917C16.7277 6.87768 15.9666 5.01072 14.4386 3.51829C12.9107 2.03153 11.0363 1.28247 8.80972 1.28247C6.74219 1.28247 4.96435 2.04855 3.48186 3.58071C1.99937 5.11287 1.26097 6.92308 1.26097 9.00568V9.01135ZM17.9943 9.03972C17.9943 11.5082 17.1196 13.6192 15.3645 15.3726C13.6093 17.1261 11.4964 18 9.02556 18C6.55475 18 4.43042 17.1431 2.65825 15.4237C0.88608 13.7043 0 11.6047 0 9.11917C0 6.63367 0.88608 4.38084 2.65825 2.62737C4.43042 0.8739 6.60587 0 9.1846 0C11.7633 0 13.7229 0.890923 15.4326 2.66709C17.1423 4.44326 18 6.57125 18 9.03972H17.9943Z" fill="#FF9900"/>
<rect x="0.5" y="0.5" width="17" height="17" stroke="#CFCFCF"/>
<path d="M250.261 9.01135C250.261 11.1337 251.016 12.9439 252.522 14.4533C254.033 15.9628 255.856 16.7119 257.991 16.7119C260.127 16.7119 261.933 15.9741 263.45 14.4931C264.967 13.012 265.728 11.2188 265.728 9.11917C265.728 6.87768 264.967 5.01072 263.439 3.51829C261.911 2.03153 260.036 1.28247 257.81 1.28247C255.742 1.28247 253.964 2.04855 252.482 3.58071C250.999 5.11287 250.261 6.92308 250.261 9.00568V9.01135ZM266.994 9.03972C266.994 11.5082 266.12 13.6192 264.364 15.3726C262.609 17.1261 260.496 18 258.026 18C255.555 18 253.43 17.1431 251.658 15.4237C249.886 13.7043 249 11.6047 249 9.11917C249 6.63367 249.886 4.38084 251.658 2.62737C253.43 0.8739 255.606 0 258.185 0C260.763 0 262.723 0.890923 264.433 2.66709C266.142 4.44326 267 6.57125 267 9.03972H266.994Z" fill="#FF9900"/>
<rect x="249.5" y="0.5" width="17" height="17" stroke="#CFCFCF"/>
<path d="M1.26097 111.011C1.26097 113.134 2.01641 114.944 3.52161 116.453C5.0325 117.963 6.85579 118.712 8.99148 118.712C11.1272 118.712 12.9334 117.974 14.45 116.493C15.9666 115.012 16.7277 113.219 16.7277 111.119C16.7277 108.878 15.9666 107.011 14.4386 105.518C12.9107 104.032 11.0363 103.282 8.80972 103.282C6.74219 103.282 4.96435 104.049 3.48186 105.581C1.99937 107.113 1.26097 108.923 1.26097 111.006V111.011ZM17.9943 111.04C17.9943 113.508 17.1196 115.619 15.3645 117.373C13.6093 119.126 11.4964 120 9.02556 120C6.55475 120 4.43042 119.143 2.65825 117.424C0.88608 115.704 0 113.605 0 111.119C0 108.634 0.88608 106.381 2.65825 104.627C4.43042 102.874 6.60587 102 9.1846 102C11.7633 102 13.7229 102.891 15.4326 104.667C17.1423 106.443 18 108.571 18 111.04H17.9943Z" fill="#FF9900"/>
<rect x="0.5" y="102.5" width="17" height="17" stroke="#CFCFCF"/>
<path d="M250.261 111.011C250.261 113.134 251.016 114.944 252.522 116.453C254.033 117.963 255.856 118.712 257.991 118.712C260.127 118.712 261.933 117.974 263.45 116.493C264.967 115.012 265.728 113.219 265.728 111.119C265.728 108.878 264.967 107.011 263.439 105.518C261.911 104.032 260.036 103.282 257.81 103.282C255.742 103.282 253.964 104.049 252.482 105.581C250.999 107.113 250.261 108.923 250.261 111.006V111.011ZM266.994 111.04C266.994 113.508 266.12 115.619 264.364 117.373C262.609 119.126 260.496 120 258.026 120C255.555 120 253.43 119.143 251.658 117.424C249.886 115.704 249 113.605 249 111.119C249 108.634 249.886 106.381 251.658 104.627C253.43 102.874 255.606 102 258.185 102C260.763 102 262.723 102.891 264.433 104.667C266.142 106.443 267 108.571 267 111.04H266.994Z" fill="#FF9900"/>
<rect x="249.5" y="102.5" width="17" height="17" stroke="#CFCFCF"/>
<defs>
<clipPath id="clip0_1424_240549">
<rect width="231" height="84" fill="white" transform="translate(18 18)"/>
</clipPath>
</defs>
</svg>
