<svg width="63" height="64" viewBox="0 0 63 64" fill="none" xmlns="http://www.w3.org/2000/svg">
<g clip-path="url(#clip0_1424_240504)">
<path fill-rule="evenodd" clip-rule="evenodd" d="M32.5 9.75066C47.0687 9.75066 59.4552 14.4508 64 21C59.0964 14.8855 46.8429 10.5524 32.5 10.5524C18.1571 10.5524 5.9036 14.8873 1 21C5.54476 14.449 17.9313 9.75066 32.5 9.75066Z" fill="#FF9900"/>
<path fill-rule="evenodd" clip-rule="evenodd" d="M40.2015 1.12023H38.4457L38.8754 0.103033L38.6459 0L38.1709 1.12023H38.1195V1.12588H38.0867V3.61553H38.338V3.60429H38.9337V4.20407L38.826 4.15983L38.8207 4.17358L38.1166 3.87675L38.0213 4.11595L38.7274 4.41365L37.6439 7.2024L37.8773 7.29832L38.9337 4.57946V7.54013H39.1851V4.57613L40.2419 7.29629L40.4753 7.20036L39.3911 4.40967L40.0994 4.11138L40.0041 3.87214L39.2978 4.16959L39.2932 4.1578L39.1851 4.20225V3.60429H39.6514V3.61553H39.9028V1.37875H40.2015V1.12023ZM26.1692 1.64478L26.8223 0.102943L27.0528 0.206193L26.7497 0.921681H27.6308L27.6943 0.76154L27.9271 0.859219L27.3745 2.25175H28.121V2.10374H28.3724V5.41393H28.7403V5.67244H27.4762L28.6784 7.55513L28.4689 7.6975L27.2302 5.75784L25.9898 7.6975L25.7803 7.55513L26.9842 5.67244H25.7384V5.41393H26.1647V2.10374H26.416V2.25175H27.103L27.5282 1.1802H26.6492V1.15893L26.2925 2.00091L26.0746 1.9033H25.396V4.01271L25.6837 3.67969L25.8716 3.8514L25.396 4.40194V7.64131H25.1446V7.61584L24.526 7.3318L24.6285 7.09574L25.1446 7.33273V4.69291L24.7428 5.158L24.5549 4.9863L25.1446 4.30369V1.9033H24.6619V1.64478H25.1446V0.181715H25.396V1.64478H26.1692ZM28.121 2.51027V5.41393H27.3377V2.51027H28.121ZM27.0864 2.51027V5.41393H26.416V2.51027H27.0864ZM27.7785 3.90962C27.7785 3.80846 27.6984 3.72604 27.6 3.72604C27.5017 3.72604 27.4215 3.80846 27.4215 3.90962C27.4215 4.01078 27.5017 4.09321 27.6 4.09321C27.6984 4.09321 27.7785 4.01078 27.7785 3.90962ZM36.6003 4.30491H36.0217L36.0032 4.33547L35.9556 4.30491H35.9536V4.30366L35.79 4.19859L37.0761 2.0794H35.0939V1.82088H36.2612L36.9588 0.177165L37.1892 0.28058L36.5355 1.82088H37.3489V2.0794H37.3461L37.365 2.09153L36.1786 4.04639H37.315L36.9111 3.36344L37.1259 3.2291L38.1151 4.90163L37.9003 5.03598L37.4679 4.30491H36.8517V7.54014H36.6003V5.05357L35.6818 6.11753L35.4938 5.9459L36.6003 4.66419V4.30491ZM38.338 3.34577H39.6514V2.47842H38.338V3.34577ZM39.6514 1.37875H38.338V2.2199H39.6514V1.37875ZM37.4091 5.38394C37.4091 5.28278 37.3289 5.20036 37.2305 5.20036C37.1322 5.20036 37.052 5.28278 37.052 5.38394C37.052 5.4851 37.1322 5.56753 37.2305 5.56753C37.3289 5.56753 37.4091 5.4851 37.4091 5.38394ZM30.3943 0.46084H30.6457V0.833611H33.5383V0.46084H33.7897V7.36218H33.5383V6.4199H30.6457V7.36218H30.3943V0.46084ZM30.6457 6.16138V3.5893H33.5383V6.16138H30.6457ZM33.5383 1.09213V3.33079H30.6457V1.09213H33.5383Z" fill="black"/>
<path d="M44.3018 17.5156C44.3018 16.7007 44.5696 16.017 45.1069 15.4643C45.6443 14.9117 46.3055 14.6363 47.0942 14.6363V15.0522C46.4257 15.0522 45.861 15.2845 45.402 15.751C44.943 16.2174 44.7153 16.8056 44.7153 17.5175C44.7153 18.1245 44.8974 18.6471 45.2599 19.0836C45.6224 19.5201 46.096 19.8048 46.6807 19.9379V16.0863H47.0942V20.4249C46.2836 20.3387 45.6261 20.0484 45.1197 19.5576C44.575 19.0255 44.3018 18.3455 44.3018 17.5194V17.5156ZM42.3837 20.4268V16.0114L41.1942 15.2826V20.4268H40.7807V14.5352L42.3837 15.5337V14.6401H42.7972V20.4268H42.3837ZM38.6095 20.4268V14.6401H39.0229V20.4268H38.6095ZM35.3252 20.0015C35.8097 20.0015 36.1322 19.9734 36.2961 19.9154C36.6276 19.7992 36.7934 19.5388 36.7934 19.1342C36.7934 18.8457 36.6859 18.4916 36.4691 18.0758C36.2524 17.6599 36.0411 17.2571 35.8316 16.8693C35.6003 16.4066 35.4855 16.0282 35.4855 15.7322C35.4855 15.3669 35.5966 15.0934 35.8188 14.9117C36.0411 14.73 36.3343 14.6382 36.7005 14.6382H37.0047V15.0541C36.6495 15.0541 36.409 15.0766 36.2797 15.1234C36.0265 15.2152 35.9008 15.41 35.9008 15.7041C35.9008 15.9982 36.0138 16.3748 36.2378 16.815C36.4455 17.1972 36.6531 17.5793 36.8626 17.9596C37.0939 18.4223 37.2087 18.812 37.2087 19.1304C37.2087 19.5463 37.0684 19.8704 36.7861 20.1027C36.5274 20.3163 36.1904 20.423 35.7733 20.423H35.327V19.9978L35.3252 20.0015ZM32.3779 20.0015C32.8625 20.0015 33.1849 19.9734 33.3488 19.9154C33.6804 19.7992 33.8461 19.5388 33.8461 19.1342C33.8461 18.8457 33.7386 18.4916 33.5219 18.0758C33.3051 17.6599 33.0938 17.2571 32.8843 16.8693C32.653 16.4066 32.5382 16.0282 32.5382 15.7322C32.5382 15.3669 32.6494 15.0934 32.8716 14.9117C33.0938 14.73 33.3871 14.6382 33.7532 14.6382H34.0574V15.0541C33.7022 15.0541 33.4618 15.0766 33.3324 15.1234C33.0792 15.2152 32.9536 15.41 32.9536 15.7041C32.9536 15.9982 33.0665 16.3748 33.2905 16.815C33.4982 17.1972 33.7059 17.5793 33.9153 17.9596C34.1467 18.4223 34.2614 18.812 34.2614 19.1304C34.2614 19.5463 34.1212 19.8704 33.8388 20.1027C33.5802 20.3163 33.2432 20.423 32.826 20.423H32.3798V19.9978L32.3779 20.0015ZM23.6928 16.9668C23.6928 16.4403 23.5289 16.002 23.1992 15.6517C22.8695 15.3014 22.4505 15.1009 21.9387 15.0485V18.8401C22.4451 18.782 22.8585 18.5891 23.1791 18.2593C23.5216 17.9128 23.6946 17.4819 23.6946 16.9668H23.6928ZM23.3886 20.4287L21.9368 19.1792V20.4287H21.5234V14.642H21.8348C22.4596 14.642 22.9933 14.8611 23.4378 15.3014C23.8823 15.7416 24.1045 16.2849 24.1045 16.933C24.1045 17.4538 23.966 17.9053 23.691 18.2874C23.4159 18.6696 23.0334 18.9562 22.5434 19.1454L24.0444 20.4305H23.3868L23.3886 20.4287ZM17.321 17.54C17.321 16.712 17.5888 16.0226 18.1262 15.47C18.6635 14.9173 19.3284 14.642 20.1208 14.642V15.0578C19.4577 15.0578 18.8912 15.2939 18.4249 15.7697C17.9586 16.2436 17.7254 16.8337 17.7254 17.54C17.7254 18.2462 17.9568 18.827 18.4176 19.3009C18.8785 19.7749 19.4468 20.0128 20.1226 20.0128V20.4287C19.3466 20.4287 18.6854 20.1514 18.1407 19.595C17.5943 19.0405 17.3229 18.3549 17.3229 17.5381L17.321 17.54Z" fill="black"/>
<path d="M25.8368 17.5381C25.8368 18.2388 26.079 18.8363 26.5617 19.3346C27.0463 19.833 27.631 20.0802 28.3159 20.0802C29.0008 20.0802 29.58 19.8367 30.0664 19.3478C30.5527 18.8588 30.7968 18.2668 30.7968 17.5737C30.7968 16.8338 30.5527 16.2174 30.0627 15.7247C29.5727 15.2339 28.9716 14.9867 28.2576 14.9867C27.5945 14.9867 27.0244 15.2396 26.549 15.7453C26.0736 16.2511 25.8368 16.8487 25.8368 17.5363V17.5381ZM31.203 17.5475C31.203 18.3624 30.9225 19.0593 30.3597 19.6381C29.7968 20.217 29.1192 20.5055 28.3268 20.5055C27.5344 20.5055 26.8532 20.2226 26.2849 19.655C25.7165 19.0874 25.4324 18.3942 25.4324 17.5737C25.4324 16.7532 25.7165 16.0095 26.2849 15.4306C26.8532 14.8518 27.5508 14.5633 28.3778 14.5633C29.2048 14.5633 29.8332 14.8574 30.3815 15.4437C30.9298 16.0301 31.2049 16.7326 31.2049 17.5475H31.203Z" fill="black"/>
</g>
<path d="M16.1424 54H20.9664V53.088H19.2024V45.204H18.3624C17.8824 45.48 17.3184 45.684 16.5384 45.828V46.524H18.0984V53.088H16.1424V54ZM23.6507 54.156C24.0827 54.156 24.4427 53.82 24.4427 53.328C24.4427 52.836 24.0827 52.476 23.6507 52.476C23.2187 52.476 22.8587 52.836 22.8587 53.328C22.8587 53.82 23.2187 54.156 23.6507 54.156ZM29.1745 53.304C28.0705 53.304 27.4105 52.308 27.2785 50.484C27.8545 49.668 28.5265 49.356 29.0785 49.356C30.1465 49.356 30.6625 50.112 30.6625 51.3C30.6625 52.5 30.0145 53.304 29.1745 53.304ZM31.5385 45.936C31.0585 45.42 30.3985 45.036 29.4865 45.036C27.7825 45.036 26.2345 46.356 26.2345 49.8C26.2345 52.704 27.4825 54.156 29.1745 54.156C30.5425 54.156 31.6945 53.004 31.6945 51.3C31.6945 49.464 30.7465 48.54 29.2585 48.54C28.5625 48.54 27.7945 48.948 27.2545 49.608C27.3025 46.872 28.3225 45.948 29.5225 45.948C30.0625 45.948 30.5905 46.2 30.9385 46.62L31.5385 45.936ZM36.1308 54.156C36.9108 54.156 37.6548 53.856 38.2308 53.328L37.7628 52.596C37.3548 52.968 36.8268 53.244 36.2267 53.244C35.0267 53.244 34.2107 52.248 34.2107 50.748C34.2107 49.248 35.0747 48.228 36.2507 48.228C36.7787 48.228 37.1747 48.468 37.5587 48.816L38.1228 48.084C37.6548 47.676 37.0667 47.316 36.2148 47.316C34.5467 47.316 33.0707 48.576 33.0707 50.748C33.0707 52.908 34.4027 54.156 36.1308 54.156ZM39.9082 54H41.0002V49.272C41.6002 48.6 42.1522 48.276 42.6442 48.276C43.4722 48.276 43.8562 48.792 43.8562 50.016V54H44.9482V49.272C45.5602 48.6 46.0882 48.276 46.5922 48.276C47.4202 48.276 47.8042 48.792 47.8042 50.016V54H48.8962V49.872C48.8962 48.204 48.2602 47.316 46.9162 47.316C46.1242 47.316 45.4402 47.832 44.7682 48.564C44.5042 47.796 43.9642 47.316 42.9682 47.316C42.1882 47.316 41.5042 47.808 40.9402 48.432H40.9042L40.8082 47.484H39.9082V54Z" fill="black"/>
<path d="M0.646447 36.6464C0.451184 36.8417 0.451184 37.1583 0.646447 37.3536L3.82843 40.5355C4.02369 40.7308 4.34027 40.7308 4.53553 40.5355C4.7308 40.3403 4.7308 40.0237 4.53553 39.8284L1.70711 37L4.53553 34.1716C4.7308 33.9763 4.7308 33.6597 4.53553 33.4645C4.34027 33.2692 4.02369 33.2692 3.82843 33.4645L0.646447 36.6464ZM64.3535 37.3536C64.5488 37.1583 64.5488 36.8417 64.3535 36.6464L61.1716 33.4645C60.9763 33.2692 60.6597 33.2692 60.4645 33.4645C60.2692 33.6597 60.2692 33.9763 60.4645 34.1716L63.2929 37L60.4645 39.8284C60.2692 40.0237 60.2692 40.3403 60.4645 40.5355C60.6597 40.7308 60.9763 40.7308 61.1716 40.5355L64.3535 37.3536ZM1 37.5H64V36.5H1V37.5Z" fill="black"/>
<defs>
<clipPath id="clip0_1424_240504">
<rect width="63" height="21" fill="white" transform="translate(1)"/>
</clipPath>
</defs>
</svg>
