<svg width="100" height="90" viewBox="0 0 100 90" fill="none" xmlns="http://www.w3.org/2000/svg">
<g clip-path="url(#clip0_1424_240484)">
<path fill-rule="evenodd" clip-rule="evenodd" d="M51 15.3225C74.125 15.3225 93.7861 22.7085 101 33C93.2165 23.3914 73.7664 16.5824 51 16.5824C28.2336 16.5824 8.7835 23.3944 1 33C8.2139 22.7055 27.875 15.3225 51 15.3225" fill="#FF9900"/>
<path fill-rule="evenodd" clip-rule="evenodd" d="M63.2246 1.76036H60.4377L61.1197 0.161909L60.7554 0L60.0015 1.76036H59.9198V1.76923H59.8678V5.68154H60.2668V5.66389H61.2123V6.6064L61.0414 6.53688L61.0329 6.55849L59.9153 6.09204L59.7639 6.46793L60.8848 6.93574L59.165 11.318L59.5355 11.4688L61.2123 7.19628V11.8488H61.6113V7.19106L63.2888 11.4656L63.6593 11.3149L61.9383 6.92948L63.0625 6.46073L62.9113 6.08479L61.7902 6.55222L61.7829 6.53368L61.6113 6.60353V5.66389H62.3514V5.68154H62.7504V2.16661H63.2246V1.76036ZM40.9511 2.58465L41.9878 0.161768L42.3536 0.324018L41.8726 1.44836H43.2711L43.372 1.19671L43.7414 1.3502L42.8643 3.53847H44.0492V3.30587H44.4482V8.5076H45.0323V8.91384H43.0257L44.934 11.8723L44.6015 12.0961L42.6352 9.04804L40.6664 12.0961L40.3339 11.8723L42.2448 8.91384H40.2674V8.5076H40.9439V3.30587H41.3429V3.53847H42.4334L43.1083 1.8546H41.713V1.82117L41.1469 3.14429L40.8011 2.9909H39.7238V6.30569L40.1805 5.78237L40.4787 6.0522L39.7238 6.91733V12.0078H39.3248V11.9678L38.3429 11.5214L38.5056 11.1504L39.3248 11.5229V7.37458L38.687 8.10543L38.3887 7.83561L39.3248 6.76294V2.9909H38.5586V2.58465H39.3248V0.285553H39.7238V2.58465H40.9511ZM44.0492 3.94471V8.5076H42.806V3.94471H44.0492ZM42.407 3.94471V8.5076H41.3429V3.94471H42.407ZM43.5057 6.14369C43.5057 5.98473 43.3784 5.8552 43.2223 5.8552C43.0662 5.8552 42.939 5.98473 42.939 6.14369C42.939 6.30266 43.0662 6.43219 43.2223 6.43219C43.3784 6.43219 43.5057 6.30266 43.5057 6.14369ZM57.5084 6.76486H56.5901L56.5607 6.81287L56.4851 6.76486H56.482V6.76289L56.2222 6.59778L58.2636 3.26763H55.1173V2.86139H56.9703L58.0776 0.278402L58.4433 0.440911L57.4056 2.86139H58.6968V3.26763H58.6923L58.7223 3.28668L56.8391 6.35861H58.643L58.0018 5.28541L58.3427 5.0743L59.9129 7.70257L59.572 7.91368L58.8857 6.76486H57.9075V11.8488H57.5084V7.94132L56.0505 9.61327L55.7521 9.34355L57.5084 7.32944V6.76486ZM60.2668 5.25764H62.3514V3.89465H60.2668V5.25764ZM62.3514 2.16661H60.2668V3.48841H62.3514V2.16661ZM58.7922 8.46048C58.7922 8.30151 58.665 8.17199 58.5088 8.17199C58.3527 8.17199 58.2255 8.30151 58.2255 8.46048C58.2255 8.61944 58.3527 8.74897 58.5088 8.74897C58.665 8.74897 58.7922 8.61944 58.7922 8.46048ZM47.6576 0.724178H48.0566V1.30996H52.6481V0.724178H53.0471V11.5691H52.6481V10.0884H48.0566V11.5691H47.6576V0.724178ZM48.0566 9.68217V5.64034H52.6481V9.68217H48.0566ZM52.6481 1.7162V5.23409H48.0566V1.7162H52.6481Z" fill="black"/>
<path d="M69.7331 27.5246C69.7331 26.244 70.1581 25.1695 71.011 24.3011C71.864 23.4327 72.9135 22.9999 74.1655 22.9999V23.6535C73.1044 23.6535 72.2081 24.0185 71.4794 24.7515C70.7508 25.4845 70.3894 26.4089 70.3894 27.5275C70.3894 28.4813 70.6785 29.3026 71.2539 29.9885C71.8293 30.6744 72.581 31.1219 73.5092 31.3309V25.2784H74.1655V32.0963C72.8788 31.9609 71.8351 31.5046 71.0313 30.7333C70.1668 29.8973 69.7331 28.8287 69.7331 27.5305V27.5246ZM66.6885 32.0992V25.1607L64.8004 24.0156V32.0992H64.1441V22.841L66.6885 24.41V23.0058H67.3448V32.0992H66.6885ZM60.6976 32.0992V23.0058H61.354V32.0992H60.6976ZM55.4845 31.431C56.2536 31.431 56.7654 31.3868 57.0256 31.2956C57.5518 31.1131 57.815 30.7039 57.815 30.068C57.815 29.6147 57.6444 29.0583 57.3003 28.4048C56.9562 27.7512 56.6208 27.1183 56.2883 26.509C55.9211 25.7818 55.739 25.1872 55.739 24.7221C55.739 24.148 55.9153 23.7182 56.2681 23.4327C56.6208 23.1471 57.0863 23.0029 57.6675 23.0029H58.1503V23.6564C57.5865 23.6564 57.2049 23.6917 56.9996 23.7653C56.5977 23.9096 56.3982 24.2157 56.3982 24.6779C56.3982 25.1401 56.5775 25.7318 56.9331 26.4236C57.2627 27.0241 57.5923 27.6247 57.9248 28.2223C58.292 28.9494 58.4742 29.5617 58.4742 30.0621C58.4742 30.7157 58.2515 31.2249 57.8034 31.59C57.3928 31.9256 56.8579 32.0934 56.1958 32.0934H55.4874V31.4251L55.4845 31.431ZM50.8063 31.431C51.5754 31.431 52.0872 31.3868 52.3474 31.2956C52.8736 31.1131 53.1368 30.7039 53.1368 30.068C53.1368 29.6147 52.9662 29.0583 52.6221 28.4048C52.278 27.7512 51.9426 27.1183 51.6101 26.509C51.2429 25.7818 51.0608 25.1872 51.0608 24.7221C51.0608 24.148 51.2371 23.7182 51.5899 23.4327C51.9426 23.1471 52.4081 23.0029 52.9893 23.0029H53.4722V23.6564C52.9083 23.6564 52.5267 23.6917 52.3214 23.7653C51.9195 23.9096 51.72 24.2157 51.72 24.6779C51.72 25.1401 51.8993 25.7318 52.2549 26.4236C52.5845 27.0241 52.9141 27.6247 53.2466 28.2223C53.6138 28.9494 53.796 29.5617 53.796 30.0621C53.796 30.7157 53.5734 31.2249 53.1252 31.59C52.7146 31.9256 52.1797 32.0934 51.5176 32.0934H50.8092V31.4251L50.8063 31.431ZM37.0204 26.662C37.0204 25.8348 36.7602 25.146 36.2369 24.5955C35.7135 24.045 35.0485 23.73 34.236 23.6476V29.6058C35.0398 29.5146 35.6962 29.2114 36.2051 28.6933C36.7486 28.1487 37.0233 27.4716 37.0233 26.662H37.0204ZM36.5376 32.1022L34.2332 30.1387V32.1022H33.5768V23.0088H34.0712C35.063 23.0088 35.9101 23.3532 36.6156 24.045C37.3211 24.7368 37.6739 25.5905 37.6739 26.609C37.6739 27.4274 37.4541 28.1369 37.0175 28.7374C36.5809 29.338 35.9737 29.7884 35.196 30.0857L37.5784 32.1051H36.5347L36.5376 32.1022ZM26.9065 27.5628C26.9065 26.2617 27.3315 25.1784 28.1845 24.3099C29.0374 23.4415 30.0928 23.0088 31.3505 23.0088V23.6623C30.298 23.6623 29.3988 24.0332 28.6586 24.7809C27.9185 25.5257 27.5484 26.453 27.5484 27.5628C27.5484 28.6727 27.9156 29.5852 28.6471 30.33C29.3786 31.0748 30.2807 31.4487 31.3534 31.4487V32.1022C30.1217 32.1022 29.0721 31.6665 28.2076 30.7922C27.3402 29.9208 26.9094 28.8434 26.9094 27.5599L26.9065 27.5628Z" fill="black"/>
<path d="M40.4235 27.5599C40.4235 28.6609 40.808 29.6 41.5742 30.383C42.3433 31.1661 43.2715 31.5547 44.3586 31.5547C45.4458 31.5547 46.3652 31.172 47.1372 30.4036C47.9092 29.6353 48.2966 28.7051 48.2966 27.6159C48.2966 26.453 47.9092 25.4845 47.1314 24.7103C46.3536 23.939 45.3995 23.5505 44.2661 23.5505C43.2136 23.5505 42.3087 23.9479 41.554 24.7427C40.7994 25.5375 40.4235 26.4766 40.4235 27.557V27.5599ZM48.9414 27.5746C48.9414 28.8552 48.4961 29.9503 47.6027 30.8599C46.7093 31.7696 45.6337 32.2229 44.376 32.2229C43.1182 32.2229 42.0369 31.7784 41.1348 30.8864C40.2327 29.9944 39.7816 28.9052 39.7816 27.6159C39.7816 26.3265 40.2327 25.1578 41.1348 24.2481C42.0369 23.3385 43.1442 22.8852 44.4569 22.8852C45.7696 22.8852 46.7671 23.3473 47.6374 24.2687C48.5077 25.1902 48.9443 26.2941 48.9443 27.5746H48.9414Z" fill="black"/>
</g>
<path d="M34.494 66H39.318V65.088H37.554V57.204H36.714C36.234 57.48 35.67 57.684 34.89 57.828V58.524H36.45V65.088H34.494V66ZM43.6702 66.156C45.3382 66.156 46.4062 64.632 46.4062 61.572C46.4062 58.524 45.3382 57.036 43.6702 57.036C41.9902 57.036 40.9222 58.512 40.9222 61.572C40.9222 64.632 41.9902 66.156 43.6702 66.156ZM43.6702 65.28C42.6622 65.28 41.9902 64.164 41.9902 61.572C41.9902 59.004 42.6622 57.924 43.6702 57.924C44.6662 57.924 45.3382 59.004 45.3382 61.572C45.3382 64.164 44.6662 65.28 43.6702 65.28ZM50.5665 66.156C52.2345 66.156 53.3025 64.632 53.3025 61.572C53.3025 58.524 52.2345 57.036 50.5665 57.036C48.8865 57.036 47.8185 58.512 47.8185 61.572C47.8185 64.632 48.8865 66.156 50.5665 66.156ZM50.5665 65.28C49.5585 65.28 48.8865 64.164 48.8865 61.572C48.8865 59.004 49.5585 57.924 50.5665 57.924C51.5625 57.924 52.2345 59.004 52.2345 61.572C52.2345 64.164 51.5625 65.28 50.5665 65.28ZM55.2307 68.748H56.3227V66.54L56.2987 65.4C56.8867 65.88 57.5107 66.156 58.0987 66.156C59.5987 66.156 60.9307 64.872 60.9307 62.64C60.9307 60.636 60.0187 59.316 58.3387 59.316C57.5827 59.316 56.8507 59.748 56.2627 60.228H56.2267L56.1307 59.484H55.2307V68.748ZM57.9187 65.244C57.4867 65.244 56.9107 65.064 56.3227 64.56V61.14C56.9587 60.552 57.5227 60.24 58.0747 60.24C59.3107 60.24 59.7907 61.212 59.7907 62.652C59.7907 64.272 58.9987 65.244 57.9187 65.244ZM61.7655 66H62.9175L63.7935 64.476C64.0215 64.08 64.2375 63.684 64.4655 63.312H64.5255C64.7655 63.684 65.0055 64.08 65.2215 64.476L66.1815 66H67.3815L65.2335 62.712L67.2135 59.484H66.0735L65.2695 60.924C65.0775 61.284 64.8855 61.644 64.6815 62.004H64.6335C64.4175 61.644 64.1895 61.284 63.9855 60.924L63.1095 59.484H61.9335L63.9135 62.604L61.7655 66Z" fill="black"/>
<path d="M0.646447 48.6464C0.451184 48.8417 0.451184 49.1583 0.646447 49.3536L3.82843 52.5355C4.02369 52.7308 4.34027 52.7308 4.53553 52.5355C4.7308 52.3403 4.7308 52.0237 4.53553 51.8284L1.70711 49L4.53553 46.1716C4.7308 45.9763 4.7308 45.6597 4.53553 45.4645C4.34027 45.2692 4.02369 45.2692 3.82843 45.4645L0.646447 48.6464ZM101.354 49.3536C101.549 49.1583 101.549 48.8417 101.354 48.6464L98.1716 45.4645C97.9763 45.2692 97.6597 45.2692 97.4645 45.4645C97.2692 45.6597 97.2692 45.9763 97.4645 46.1716L100.293 49L97.4645 51.8284C97.2692 52.0237 97.2692 52.3403 97.4645 52.5355C97.6597 52.7308 97.9763 52.7308 98.1716 52.5355L101.354 49.3536ZM1 49.5H101V48.5H1V49.5Z" fill="black"/>
<defs>
<clipPath id="clip0_1424_240484">
<rect width="100" height="33" fill="white" transform="translate(1)"/>
</clipPath>
</defs>
</svg>
