<svg width="120" height="90" viewBox="0 0 120 90" fill="none" xmlns="http://www.w3.org/2000/svg">
<g clip-path="url(#clip0_1424_240492)">
<rect width="121" height="44" transform="translate(1)" fill="black"/>
<path fill-rule="evenodd" clip-rule="evenodd" d="M61.5 20.8106C85.1286 20.8106 105.218 28.2712 112.589 38.6667C104.636 28.961 84.7623 22.0832 61.5 22.0832C38.2378 22.0832 18.3641 28.964 10.4111 38.6667C17.7821 28.2682 37.8714 20.8106 61.5 20.8106Z" fill="#FF9900"/>
<path fill-rule="evenodd" clip-rule="evenodd" d="M73.9907 7.11148H71.1431L71.84 5.49688L71.4678 5.33333L70.6974 7.11148H70.614V7.12044H70.5608V11.0723H70.9685V11.0544H71.9345V12.0065L71.7599 11.9362L71.7513 11.9581L70.6093 11.4869L70.4547 11.8666L71.6 12.3391L69.8427 16.7657L70.2213 16.918L71.9345 12.6023V17.3018H72.3422V12.597L74.0563 16.9147L74.4349 16.7625L72.6764 12.3328L73.8251 11.8593L73.6706 11.4796L72.5251 11.9517L72.5177 11.933L72.3422 12.0036V11.0544H73.0985V11.0723H73.5062V7.52182H73.9907V7.11148ZM51.2322 7.94409L52.2915 5.49674L52.6652 5.66062L52.1737 6.79632H53.6027L53.7058 6.54213L54.0833 6.69717L53.1871 8.90754H54.3978V8.6726H54.8055V13.9269H55.4022V14.3372H53.3519L55.3018 17.3256L54.962 17.5516L52.9529 14.4728L50.9412 17.5516L50.6015 17.3256L52.5541 14.3372H50.5335V13.9269H51.2248V8.6726H51.6325V8.90754H52.7467L53.4363 7.20667H52.0107V7.1729L51.4322 8.50938L51.0788 8.35444H49.9781V11.7027L50.4447 11.1741L50.7495 11.4467L49.9781 12.3205V17.4624H49.5704V17.422L48.5671 16.9711L48.7334 16.5964L49.5704 16.9726V12.7824L48.9188 13.5206L48.614 13.2481L49.5704 12.1646V8.35444H48.7875V7.94409H49.5704V5.62177H49.9781V7.94409H51.2322ZM54.3978 9.31789V13.9269H53.1274V9.31789H54.3978ZM52.7197 9.31789V13.9269H51.6325V9.31789H52.7197ZM53.8423 11.5391C53.8423 11.3785 53.7124 11.2477 53.5528 11.2477C53.3933 11.2477 53.2633 11.3785 53.2633 11.5391C53.2633 11.6997 53.3933 11.8305 53.5528 11.8305C53.7124 11.8305 53.8423 11.6997 53.8423 11.5391ZM68.1501 12.1665H67.2117L67.1817 12.215L67.1045 12.1665H67.1013V12.1645L66.8358 11.9978L68.9217 8.63397H65.7068V8.22362H67.6002L68.7316 5.61455L69.1053 5.7787L68.045 8.22362H69.3643V8.63397H69.3597L69.3904 8.65321L67.4662 11.7562H69.3093L68.6542 10.6721L69.0025 10.4589L70.6069 13.1137L70.2585 13.3269L69.5573 12.1665H68.5578V17.3018H68.1501V13.3549L66.6603 15.0437L66.3555 14.7713L68.1501 12.7368V12.1665ZM70.9685 10.6441H73.0985V9.26733H70.9685V10.6441ZM73.0985 7.52182H70.9685V8.85698H73.0985V7.52182ZM69.4618 13.8793C69.4618 13.7187 69.3318 13.5879 69.1723 13.5879C69.0127 13.5879 68.8827 13.7187 68.8827 13.8793C68.8827 14.0398 69.0127 14.1707 69.1723 14.1707C69.3318 14.1707 69.4618 14.0398 69.4618 13.8793ZM58.0847 6.06483H58.4924V6.65653H63.1839V6.06483H63.5916V17.0193H63.1839V15.5237H58.4924V17.0193H58.0847V6.06483ZM58.4924 15.1133V11.0306H63.1839V15.1133H58.4924ZM63.1839 7.06687V10.6203H58.4924V7.06687H63.1839Z" fill="white"/>
<path d="M80.6411 33.1359C80.6411 31.8424 81.0754 30.7571 81.9469 29.8799C82.8184 29.0027 83.8908 28.5656 85.17 28.5656V29.2257C84.0858 29.2257 83.17 29.5944 82.4255 30.3349C81.681 31.0753 81.3117 32.009 81.3117 33.1389C81.3117 34.1023 81.6071 34.9319 82.195 35.6248C82.783 36.3176 83.5511 36.7696 84.4994 36.9807V30.8671H85.17V37.7538C83.8554 37.6171 82.7889 37.1562 81.9676 36.3771C81.0842 35.5326 80.6411 34.4532 80.6411 33.1419V33.1359ZM77.5302 37.7568V30.7482L75.601 29.5915V37.7568H74.9304V28.405L77.5302 29.9899V28.5716H78.2008V37.7568H77.5302ZM71.4089 37.7568V28.5716H72.0795V37.7568H71.4089ZM66.0822 37.0818C66.8681 37.0818 67.391 37.0372 67.6569 36.945C68.1946 36.7607 68.4634 36.3474 68.4634 35.7051C68.4634 35.2471 68.2891 34.6851 67.9375 34.025C67.586 33.3649 67.2433 32.7256 66.9035 32.1101C66.5283 31.3756 66.3422 30.7749 66.3422 30.3051C66.3422 29.7253 66.5224 29.2911 66.8829 29.0027C67.2433 28.7143 67.7189 28.5686 68.3127 28.5686H68.8061V29.2287C68.23 29.2287 67.8401 29.2644 67.6303 29.3387C67.2197 29.4844 67.0158 29.7937 67.0158 30.2605C67.0158 30.7274 67.199 31.325 67.5623 32.0238C67.8991 32.6304 68.2359 33.237 68.5757 33.8407C68.9509 34.5751 69.137 35.1936 69.137 35.6991C69.137 36.3592 68.9095 36.8737 68.4516 37.2424C68.0321 37.5814 67.4855 37.7509 66.809 37.7509H66.0852V37.0759L66.0822 37.0818ZM61.3022 37.0818C62.088 37.0818 62.6109 37.0372 62.8768 36.945C63.4145 36.7607 63.6833 36.3474 63.6833 35.7051C63.6833 35.2471 63.509 34.6851 63.1575 34.025C62.8059 33.3649 62.4632 32.7256 62.1235 32.1101C61.7483 31.3756 61.5621 30.7749 61.5621 30.3051C61.5621 29.7253 61.7424 29.2911 62.1028 29.0027C62.4632 28.7143 62.9389 28.5686 63.5327 28.5686H64.026V29.2287C63.4499 29.2287 63.06 29.2644 62.8502 29.3387C62.4396 29.4844 62.2357 29.7937 62.2357 30.2605C62.2357 30.7274 62.4189 31.325 62.7823 32.0238C63.1191 32.6304 63.4559 33.237 63.7956 33.8407C64.1708 34.5751 64.3569 35.1936 64.3569 35.6991C64.3569 36.3592 64.1294 36.8737 63.6715 37.2424C63.252 37.5814 62.7055 37.7509 62.0289 37.7509H61.3051V37.0759L61.3022 37.0818ZM47.216 32.2647C47.216 31.4291 46.9501 30.7333 46.4154 30.1773C45.8807 29.6212 45.2012 29.303 44.371 29.2198V35.2382C45.1923 35.146 45.8629 34.8398 46.3829 34.3164C46.9383 33.7663 47.219 33.0824 47.219 32.2647H47.216ZM46.7226 37.7598L44.3681 35.7764V37.7598H43.6974V28.5745H44.2026C45.2159 28.5745 46.0816 28.9224 46.8024 29.6212C47.5233 30.32 47.8837 31.1823 47.8837 32.2112C47.8837 33.0378 47.6592 33.7544 47.2131 34.361C46.767 34.9676 46.1466 35.4226 45.3518 35.7229L47.7862 37.7628H46.7197L46.7226 37.7598ZM36.8818 33.1746C36.8818 31.8603 37.3161 30.766 38.1876 29.8888C39.0592 29.0116 40.1375 28.5745 41.4226 28.5745V29.2346C40.3472 29.2346 39.4285 29.6093 38.6721 30.3646C37.9158 31.1169 37.5377 32.0536 37.5377 33.1746C37.5377 34.2956 37.9129 35.2174 38.6603 35.9697C39.4078 36.722 40.3295 37.0997 41.4256 37.0997V37.7598C40.167 37.7598 39.0946 37.3197 38.2113 36.4366C37.325 35.5564 36.8848 34.4681 36.8848 33.1716L36.8818 33.1746Z" fill="white"/>
<path d="M50.6932 33.1716C50.6932 34.2837 51.0861 35.2323 51.869 36.0233C52.6549 36.8142 53.6032 37.2067 54.714 37.2067C55.8249 37.2067 56.7643 36.8202 57.5531 36.0441C58.3419 35.268 58.7378 34.3283 58.7378 33.2281C58.7378 32.0536 58.3419 31.0753 57.5472 30.2933C56.7525 29.5142 55.7776 29.1217 54.6195 29.1217C53.5441 29.1217 52.6194 29.5231 51.8483 30.326C51.0773 31.1288 50.6932 32.0774 50.6932 33.1687V33.1716ZM59.3966 33.1865C59.3966 34.48 58.9416 35.5862 58.0288 36.505C57.1159 37.4238 56.0169 37.8817 54.7318 37.8817C53.4466 37.8817 52.3417 37.4327 51.42 36.5317C50.4982 35.6308 50.0374 34.5305 50.0374 33.2281C50.0374 31.9257 50.4982 30.7452 51.42 29.8264C52.3417 28.9076 53.4732 28.4497 54.8145 28.4497C56.1557 28.4497 57.175 28.9165 58.0642 29.8472C58.9535 30.7779 59.3996 31.893 59.3996 33.1865H59.3966Z" fill="white"/>
</g>
<path d="M45.494 77H50.318V76.088H48.554V68.204H47.714C47.234 68.48 46.67 68.684 45.89 68.828V69.524H47.45V76.088H45.494V77ZM51.8622 77H57.3942V76.052H54.9582C54.5142 76.052 53.9742 76.1 53.5182 76.136C55.5822 74.18 56.9622 72.392 56.9622 70.64C56.9622 69.068 55.9782 68.036 54.4062 68.036C53.2902 68.036 52.5342 68.552 51.8142 69.332L52.4502 69.956C52.9302 69.38 53.5542 68.936 54.2742 68.936C55.3662 68.936 55.8942 69.668 55.8942 70.676C55.8942 72.188 54.6222 73.94 51.8622 76.352V77ZM61.5665 77.156C63.2345 77.156 64.3025 75.632 64.3025 72.572C64.3025 69.524 63.2345 68.036 61.5665 68.036C59.8865 68.036 58.8185 69.512 58.8185 72.572C58.8185 75.632 59.8865 77.156 61.5665 77.156ZM61.5665 76.28C60.5585 76.28 59.8865 75.164 59.8865 72.572C59.8865 70.004 60.5585 68.924 61.5665 68.924C62.5625 68.924 63.2345 70.004 63.2345 72.572C63.2345 75.164 62.5625 76.28 61.5665 76.28ZM66.2307 79.748H67.3227V77.54L67.2987 76.4C67.8867 76.88 68.5107 77.156 69.0987 77.156C70.5987 77.156 71.9307 75.872 71.9307 73.64C71.9307 71.636 71.0187 70.316 69.3387 70.316C68.5827 70.316 67.8507 70.748 67.2627 71.228H67.2267L67.1307 70.484H66.2307V79.748ZM68.9187 76.244C68.4867 76.244 67.9107 76.064 67.3227 75.56V72.14C67.9587 71.552 68.5227 71.24 69.0747 71.24C70.3107 71.24 70.7907 72.212 70.7907 73.652C70.7907 75.272 69.9987 76.244 68.9187 76.244ZM72.7655 77H73.9175L74.7935 75.476C75.0215 75.08 75.2375 74.684 75.4655 74.312H75.5255C75.7655 74.684 76.0055 75.08 76.2215 75.476L77.1815 77H78.3815L76.2335 73.712L78.2135 70.484H77.0735L76.2695 71.924C76.0775 72.284 75.8855 72.644 75.6815 73.004H75.6335C75.4175 72.644 75.1895 72.284 74.9855 71.924L74.1095 70.484H72.9335L74.9135 73.604L72.7655 77Z" fill="black"/>
<path d="M0.646447 59.6464C0.451184 59.8417 0.451184 60.1583 0.646447 60.3536L3.82843 63.5355C4.02369 63.7308 4.34027 63.7308 4.53553 63.5355C4.7308 63.3403 4.7308 63.0237 4.53553 62.8284L1.70711 60L4.53553 57.1716C4.7308 56.9763 4.7308 56.6597 4.53553 56.4645C4.34027 56.2692 4.02369 56.2692 3.82843 56.4645L0.646447 59.6464ZM121.354 60.3536C121.549 60.1583 121.549 59.8417 121.354 59.6464L118.172 56.4645C117.976 56.2692 117.66 56.2692 117.464 56.4645C117.269 56.6597 117.269 56.9763 117.464 57.1716L120.293 60L117.464 62.8284C117.269 63.0237 117.269 63.3403 117.464 63.5355C117.66 63.7308 117.976 63.7308 118.172 63.5355L121.354 60.3536ZM1 60.5H121V59.5H1V60.5Z" fill="black"/>
<defs>
<clipPath id="clip0_1424_240492">
<rect width="121" height="44" fill="white" transform="translate(1)"/>
</clipPath>
</defs>
</svg>
