<svg width="68" height="64" viewBox="0 0 68 64" fill="none" xmlns="http://www.w3.org/2000/svg">
<g clip-path="url(#clip0_1424_240512)">
<rect width="68" height="25" transform="translate(1.0481)" fill="black"/>
<path fill-rule="evenodd" clip-rule="evenodd" d="M35.048 11.8242C48.3269 11.8242 59.6168 16.0632 63.7591 21.9697C59.2897 16.4551 48.121 12.5473 35.048 12.5473C21.975 12.5473 10.8064 16.4568 6.33691 21.9697C10.4793 16.0615 21.7692 11.8242 35.048 11.8242Z" fill="#FF9900"/>
<path fill-rule="evenodd" clip-rule="evenodd" d="M42.0677 4.04061H40.4673L40.859 3.12323L40.6498 3.0303L40.2169 4.04061H40.17V4.0457H40.1401V6.29106H40.3692V6.28093H40.9121V6.82186L40.814 6.78196L40.8091 6.79435L40.1674 6.52665L40.0805 6.74238L40.7241 7.01087L39.7365 9.52597L39.9493 9.61248L40.9121 7.16041V9.83056H41.1412V7.15741L42.1045 9.61065L42.3173 9.52414L41.329 7.00728L41.9746 6.73825L41.8877 6.52249L41.244 6.79076L41.2398 6.78012L41.1412 6.82021V6.28093H41.5663V6.29106H41.7954V4.27376H42.0677V4.04061ZM29.2777 4.51369L29.873 3.12315L30.0831 3.21626L29.8068 3.86155H30.6099L30.6679 3.71712L30.88 3.80521L30.3763 5.0611H31.0567V4.92761H31.2859V7.91299H31.6212V8.14614H30.469L31.5648 9.84409L31.3738 9.97249L30.2448 8.22317L29.1142 9.97249L28.9233 9.84409L30.0206 8.14614H28.8851V7.91299H29.2736V4.92761H29.5027V5.0611H30.1289L30.5164 4.0947H29.7152V4.07552L29.3901 4.83488L29.1916 4.74684H28.573V6.64928L28.8352 6.34893L29.0065 6.50379L28.573 7.00031V9.92182H28.3439V9.89885L27.78 9.64268L27.8734 9.42978L28.3439 9.64351V7.26273L27.9776 7.68218L27.8064 7.52733L28.3439 6.91169V4.74684H27.9039V4.51369H28.3439V3.19419H28.573V4.51369H29.2777ZM31.0567 5.29426V7.91299H30.3428V5.29426H31.0567ZM30.1137 5.29426V7.91299H29.5027V5.29426H30.1137ZM30.7446 6.5563C30.7446 6.46506 30.6716 6.39073 30.5819 6.39073C30.4922 6.39073 30.4192 6.46506 30.4192 6.5563C30.4192 6.64753 30.4922 6.72187 30.5819 6.72187C30.6716 6.72187 30.7446 6.64753 30.7446 6.5563ZM38.7853 6.9128H38.258L38.2411 6.94036L38.1977 6.9128H38.1959V6.91167L38.0467 6.81691L39.219 4.90567H37.4123V4.67251H38.4763L39.1121 3.19008L39.3221 3.28335L38.7263 4.67251H39.4677V4.90567H39.4651L39.4823 4.9166L38.401 6.67965H39.4368L39.0686 6.06371L39.2644 5.94255L40.166 7.45097L39.9702 7.57213L39.5761 6.9128H39.0144V9.83057H38.7853V7.588L37.9481 8.54756L37.7768 8.39276L38.7853 7.23682V6.9128ZM40.3692 6.04777H41.5663V5.26553H40.3692V6.04777ZM41.5663 4.27376H40.3692V5.03237H41.5663V4.27376ZM39.5225 7.88595C39.5225 7.79472 39.4494 7.72038 39.3598 7.72038C39.2701 7.72038 39.1971 7.79472 39.1971 7.88595C39.1971 7.97718 39.2701 8.05152 39.3598 8.05152C39.4494 8.05152 39.5225 7.97718 39.5225 7.88595ZM33.1288 3.44592H33.3579V3.78212H35.9944V3.44592H36.2235V9.67008H35.9944V8.82026H33.3579V9.67008H33.1288V3.44592ZM33.3579 8.58711V6.26741H35.9944V8.58711H33.3579ZM35.9944 4.01527V6.03426H33.3579V4.01527H35.9944Z" fill="white"/>
<path d="M45.8049 18.8272C45.8049 18.0923 46.0489 17.4756 46.5387 16.9772C47.0285 16.4788 47.6312 16.2305 48.3501 16.2305V16.6055C47.7407 16.6055 47.2261 16.815 46.8077 17.2357C46.3893 17.6564 46.1817 18.1869 46.1817 18.8289C46.1817 19.3763 46.3478 19.8477 46.6782 20.2414C47.0086 20.635 47.4402 20.8918 47.9732 21.0118V17.5381H48.3501V21.451C47.6112 21.3733 47.0119 21.1114 46.5503 20.6688C46.0539 20.189 45.8049 19.5757 45.8049 18.8306V18.8272ZM44.0566 21.4527V17.4706L42.9724 16.8133V21.4527H42.5956V16.1392L44.0566 17.0397V16.2338H44.4335V21.4527H44.0566ZM40.6165 21.4527V16.2338H40.9934V21.4527H40.6165ZM37.623 21.0692C38.0647 21.0692 38.3585 21.0439 38.508 20.9915C38.8101 20.8867 38.9612 20.6519 38.9612 20.287C38.9612 20.0268 38.8633 19.7075 38.6657 19.3324C38.4681 18.9573 38.2755 18.5941 38.0846 18.2444C37.8737 17.827 37.7691 17.4858 37.7691 17.2188C37.7691 16.8894 37.8704 16.6427 38.073 16.4788C38.2755 16.3149 38.5428 16.2321 38.8765 16.2321H39.1538V16.6072C38.8301 16.6072 38.6109 16.6275 38.493 16.6697C38.2622 16.7525 38.1477 16.9282 38.1477 17.1935C38.1477 17.4587 38.2506 17.7983 38.4548 18.1954C38.6441 18.54 38.8334 18.8847 39.0243 19.2276C39.2352 19.645 39.3398 19.9964 39.3398 20.2836C39.3398 20.6587 39.2119 20.9509 38.9546 21.1604C38.7188 21.353 38.4117 21.4494 38.0315 21.4494H37.6247V21.0658L37.623 21.0692ZM34.9367 21.0692C35.3783 21.0692 35.6722 21.0439 35.8216 20.9915C36.1238 20.8867 36.2749 20.6519 36.2749 20.287C36.2749 20.0268 36.1769 19.7075 35.9794 19.3324C35.7818 18.9573 35.5892 18.5941 35.3983 18.2444C35.1874 17.827 35.0828 17.4858 35.0828 17.2188C35.0828 16.8894 35.1841 16.6427 35.3866 16.4788C35.5892 16.3149 35.8565 16.2321 36.1902 16.2321H36.4675V16.6072C36.1437 16.6072 35.9246 16.6275 35.8067 16.6697C35.5759 16.7525 35.4614 16.9282 35.4614 17.1935C35.4614 17.4587 35.5643 17.7983 35.7685 18.1954C35.9578 18.54 36.1471 18.8847 36.338 19.2276C36.5488 19.645 36.6534 19.9964 36.6534 20.2836C36.6534 20.6587 36.5256 20.9509 36.2683 21.1604C36.0325 21.353 35.7253 21.4494 35.3451 21.4494H34.9384V21.0658L34.9367 21.0692ZM27.0205 18.3322C27.0205 17.8575 26.8711 17.4621 26.5706 17.1462C26.2701 16.8302 25.8882 16.6495 25.4217 16.6021V20.0217C25.8832 19.9693 26.2601 19.7953 26.5523 19.498C26.8645 19.1854 27.0222 18.7968 27.0222 18.3322H27.0205ZM26.7433 21.4544L25.42 20.3275V21.4544H25.0431V16.2355H25.327C25.8965 16.2355 26.383 16.4332 26.7881 16.8302C27.1932 17.2273 27.3957 17.7172 27.3957 18.3018C27.3957 18.7715 27.2696 19.1786 27.0189 19.5233C26.7682 19.868 26.4195 20.1265 25.9729 20.2971L27.341 21.4561H26.7416L26.7433 21.4544ZM21.2129 18.8492C21.2129 18.1024 21.457 17.4807 21.9467 16.9823C22.4365 16.4839 23.0425 16.2355 23.7647 16.2355V16.6106C23.1604 16.6106 22.644 16.8235 22.219 17.2526C21.794 17.6801 21.5815 18.2122 21.5815 18.8492C21.5815 19.4861 21.7923 20.0099 22.2124 20.4373C22.6324 20.8648 23.1504 21.0793 23.7664 21.0793V21.4544C23.0591 21.4544 22.4564 21.2044 21.96 20.7026C21.4619 20.2025 21.2145 19.5841 21.2145 18.8475L21.2129 18.8492Z" fill="white"/>
<path d="M28.9748 18.8475C28.9748 19.4794 29.1956 20.0184 29.6356 20.4678C30.0772 20.9172 30.6102 21.1402 31.2344 21.1402C31.8587 21.1402 32.3866 20.9206 32.8299 20.4796C33.2732 20.0386 33.4957 19.5047 33.4957 18.8796C33.4957 18.2123 33.2732 17.6564 32.8266 17.2121C32.38 16.7694 31.8321 16.5464 31.1813 16.5464C30.5769 16.5464 30.0573 16.7745 29.624 17.2307C29.1906 17.6868 28.9748 18.2258 28.9748 18.8458V18.8475ZM33.8659 18.856C33.8659 19.5909 33.6103 20.2194 33.0972 20.7415C32.5842 21.2635 31.9666 21.5237 31.2444 21.5237C30.5222 21.5237 29.9012 21.2686 29.3832 20.7567C28.8652 20.2447 28.6062 19.6196 28.6062 18.8796C28.6062 18.1396 28.8652 17.4689 29.3832 16.9468C29.9012 16.4248 30.5371 16.1646 31.2909 16.1646C32.0446 16.1646 32.6174 16.4298 33.1172 16.9587C33.6169 17.4875 33.8676 18.121 33.8676 18.856H33.8659Z" fill="white"/>
</g>
<path d="M22.8525 58H28.3845V57.052H25.9485C25.5045 57.052 24.9645 57.1 24.5085 57.136C26.5725 55.18 27.9525 53.392 27.9525 51.64C27.9525 50.068 26.9685 49.036 25.3965 49.036C24.2805 49.036 23.5245 49.552 22.8045 50.332L23.4405 50.956C23.9205 50.38 24.5445 49.936 25.2645 49.936C26.3565 49.936 26.8845 50.668 26.8845 51.676C26.8845 53.188 25.6125 54.94 22.8525 57.352V58ZM32.8927 58.156C33.6727 58.156 34.4167 57.856 34.9927 57.328L34.5247 56.596C34.1167 56.968 33.5887 57.244 32.9887 57.244C31.7887 57.244 30.9727 56.248 30.9727 54.748C30.9727 53.248 31.8367 52.228 33.0127 52.228C33.5407 52.228 33.9367 52.468 34.3207 52.816L34.8847 52.084C34.4167 51.676 33.8287 51.316 32.9767 51.316C31.3087 51.316 29.8327 52.576 29.8327 54.748C29.8327 56.908 31.1647 58.156 32.8927 58.156ZM36.6702 58H37.7622V53.272C38.3622 52.6 38.9142 52.276 39.4062 52.276C40.2342 52.276 40.6182 52.792 40.6182 54.016V58H41.7102V53.272C42.3222 52.6 42.8502 52.276 43.3542 52.276C44.1822 52.276 44.5662 52.792 44.5662 54.016V58H45.6582V53.872C45.6582 52.204 45.0222 51.316 43.6782 51.316C42.8862 51.316 42.2022 51.832 41.5302 52.564C41.2662 51.796 40.7262 51.316 39.7302 51.316C38.9502 51.316 38.2662 51.808 37.7022 52.432H37.6662L37.5702 51.484H36.6702V58Z" fill="black"/>
<path d="M0.646447 40.6464C0.451184 40.8417 0.451184 41.1583 0.646447 41.3536L3.82843 44.5355C4.02369 44.7308 4.34027 44.7308 4.53553 44.5355C4.7308 44.3403 4.7308 44.0237 4.53553 43.8284L1.70711 41L4.53553 38.1716C4.7308 37.9763 4.7308 37.6597 4.53553 37.4645C4.34027 37.2692 4.02369 37.2692 3.82843 37.4645L0.646447 40.6464ZM69.3536 41.3536C69.5488 41.1583 69.5488 40.8417 69.3536 40.6464L66.1716 37.4645C65.9763 37.2692 65.6597 37.2692 65.4645 37.4645C65.2692 37.6597 65.2692 37.9763 65.4645 38.1716L68.2929 41L65.4645 43.8284C65.2692 44.0237 65.2692 44.3403 65.4645 44.5355C65.6597 44.7308 65.9763 44.7308 66.1716 44.5355L69.3536 41.3536ZM1 41.5C24.4315 41.5 29.7157 41.5 35 41.5C40.2843 41.5 45.5685 41.5 69 41.5V40.5C45.5685 40.5 40.2843 40.5 35 40.5C29.7157 40.5 24.4315 40.5 1 40.5V41.5Z" fill="black"/>
<defs>
<clipPath id="clip0_1424_240512">
<rect width="68" height="25" fill="white" transform="translate(1)"/>
</clipPath>
</defs>
</svg>
