<svg width="327" height="262" viewBox="0 0 327 262" fill="none" xmlns="http://www.w3.org/2000/svg">
<path d="M14.208 15.712H33.888V28.24H34.848C36.672 28.24 39.504 27.28 39.552 26.992V16.624C40.56 16.432 41.184 16 41.472 15.616L36 11.488L33.408 14.32H14.544L8.64 12.016V29.056H9.456C11.712 29.056 14.208 27.904 14.208 27.376V15.712ZM27.264 19.504H15.888L16.272 20.896H31.584C32.256 20.896 32.688 20.656 32.832 20.128C31.344 18.832 29.184 17.248 29.184 17.248L27.264 19.504ZM27.216 24.544H15.888L16.272 25.936H31.584C32.208 25.936 32.64 25.696 32.784 25.168C31.344 23.872 29.136 22.288 29.136 22.288L27.216 24.544ZM12.336 42.736H19.296V46.576C16.848 46.816 14.496 47.008 12.336 47.152V42.736ZM19.296 31.504V35.728H12.336V31.504H19.296ZM12.336 37.072H19.296V41.392H12.336V37.072ZM24.72 31.504H44.88C45.6 31.504 46.08 31.264 46.224 30.736C44.208 28.816 40.8 25.984 40.8 25.984L37.728 30.16H1.872L2.256 31.504H7.008V47.584C5.136 47.68 3.6 47.776 2.496 47.824L5.136 53.776C5.664 53.68 6.192 53.296 6.432 52.672C11.808 51.04 15.984 49.744 19.296 48.592V56.368H20.256C23.04 56.368 24.72 55.36 24.72 55.024V31.504ZM36.912 37.024C36.24 39.808 35.28 42.496 33.936 45.088C31.44 43.072 29.568 40.48 28.32 37.024H36.912ZM39.744 32.56L36.624 35.632H24.912L25.344 37.024H27.456C28.416 41.824 29.904 45.472 31.968 48.352C30.048 51.184 27.552 53.632 24.48 55.6L24.816 56.176C28.56 54.832 31.632 53.056 34.224 51.04C36.528 53.2 39.312 54.88 42.672 56.32C43.344 53.584 44.976 51.76 47.28 51.28V50.752C43.824 50.032 40.656 49.024 37.776 47.584C40.32 44.656 42.048 41.344 43.2 37.792C44.304 37.696 44.688 37.504 45.024 37.024L39.744 32.56ZM61.92 44.656C63.6 47.008 65.232 50.56 65.472 53.728C70.416 57.856 75.6 47.824 62.352 44.416L61.92 44.656ZM57.696 40.816V33.424H64.416V40.816H57.696ZM57.696 24.64H64.416V32.032H57.696V24.64ZM64.416 16V23.296H57.696V16H64.416ZM64.176 14.656H58.272L52.512 12.4V45.424H53.424C54.288 45.424 55.104 45.328 55.728 45.136C54.576 48.544 52.416 52.864 49.728 55.696L50.16 56.224C54.624 54.208 58.512 50.848 60.864 47.728C62.016 47.872 62.448 47.584 62.688 47.104L57.312 44.416C57.552 44.272 57.696 44.08 57.696 43.984V42.208H64.416V44.32H65.328C68.016 44.32 69.84 43.168 69.84 42.88V16.48C70.944 16.288 71.472 15.952 71.856 15.52L66.768 11.536L64.176 14.656ZM87.504 36.112V50.512H77.616V36.112H87.504ZM94.272 24.448C94.992 24.448 95.472 24.208 95.616 23.68C93.792 21.856 90.48 18.928 90.48 18.928L87.696 23.104H84.96V13.6C86.256 13.408 86.592 12.928 86.736 12.256L79.392 11.632V34.768H78.144L72.432 32.608V55.792H73.344C76.032 55.792 77.616 54.88 77.616 54.496V51.904H87.504V55.408H88.464C91.152 55.408 92.928 54.4 92.928 54.16V36.496C93.984 36.352 94.464 36.016 94.752 35.584L89.904 31.84L87.312 34.768H84.96V24.448H94.272ZM113.952 48.064C121.68 42.688 122.64 34.432 122.736 28.048H127.92V48.928H128.928C131.76 48.928 133.488 47.968 133.488 47.728V28.048H140.64C141.312 28.048 141.888 27.808 142.032 27.28C139.872 25.36 136.464 22.672 136.464 22.672L133.392 26.656H122.736V18.064C127.728 17.728 133.104 17.008 136.704 16.336C138.144 16.864 139.2 16.864 139.776 16.384L134.208 11.104C131.616 12.736 126.864 15.04 122.544 16.672L117.264 15.088V26.752C117.264 33.52 117.072 41.344 113.424 47.536L113.952 48.064ZM100.464 12.256C102.384 14.032 104.496 17.056 105.072 19.696C110.496 23.056 114.528 12.64 100.848 12.016L100.464 12.256ZM111.456 31.408L108.72 34.24H106.8C108.384 31.936 110.448 28.72 111.696 26.656C112.848 26.608 113.808 26.368 114.24 25.888L109.44 21.472L106.992 23.92H99.072L99.456 25.312H106.896C105.552 27.664 103.488 30.928 101.904 33.088C101.184 33.376 100.464 33.712 99.984 34.048L104.448 37.216L106.176 35.632H108.96C108.432 39.04 107.184 42.976 105.552 45.952C103.968 46.672 100.608 48.976 98.4 50.128L102.144 55.6C102.48 55.408 102.672 55.072 102.576 54.64C103.632 52.192 105.024 49.6 105.84 48.16C106.272 47.296 106.8 47.2 107.472 48.064C111.552 53.056 115.824 55.024 126.144 55.024H139.92C140.208 52.816 141.504 50.8 143.808 50.32V49.744C138.24 50.032 133.584 50.08 128.016 50.08C117.6 50.128 111.84 49.408 108.096 46.336C107.856 46.192 107.664 46.048 107.472 46C110.88 43.12 113.376 39.472 114.672 36.016C115.68 35.92 116.112 35.824 116.4 35.344L111.456 31.408ZM160.608 31.888C164.064 29.392 167.136 26.08 169.728 22.048H184.848C184.56 24.256 184.08 27.184 183.648 29.152L184.08 29.488C186.336 27.904 189.024 25.168 190.608 23.2C191.616 23.152 192.096 23.008 192.48 22.624L187.392 17.776L184.416 20.752H170.544C171.6 18.928 172.608 17.008 173.52 14.944C174.576 14.992 175.248 14.608 175.44 13.984L167.952 11.296C166.32 18.928 163.2 26.608 160.032 31.504L160.608 31.888ZM156.144 11.152C154.176 20.512 150.288 29.968 146.352 35.968L146.928 36.352C148.992 34.72 150.912 32.896 152.688 30.784V56.176H153.696C155.952 56.176 158.256 54.928 158.352 54.544V26.56C159.264 26.416 159.648 26.08 159.792 25.648L157.056 24.64C158.928 21.616 160.56 18.208 162 14.512C163.056 14.56 163.632 14.128 163.872 13.504L156.144 11.152ZM166.224 29.776C164.928 36.448 162.48 43.264 159.84 47.584L160.464 48.016C164.88 44.656 168.72 39.424 171.456 32.944C172.56 32.992 173.184 32.56 173.376 31.984L166.224 29.776ZM173.808 49.024C173.808 49.648 173.52 49.888 172.752 49.888C171.696 49.888 166.464 49.552 166.464 49.552V50.224C168.912 50.656 170.016 51.28 170.832 52.192C171.6 53.056 171.84 54.4 172.032 56.224C178.464 55.648 179.328 53.392 179.328 49.456V24.544C180.432 24.352 180.912 23.92 181.008 23.248L173.808 22.576V49.024ZM181.152 30.544C183.456 35.008 186.096 40.96 186.72 45.952C192.192 50.896 196.752 39.04 181.728 30.256L181.152 30.544ZM202.608 47.776V35.152H209.904V47.776H202.608ZM209.904 21.856V33.76H202.608V21.856H209.904ZM211.968 17.584L209.424 20.464H205.248C206.784 18.592 208.656 16.096 209.904 14.416C211.008 14.416 211.68 14.08 211.872 13.264L204.096 11.392C203.856 14.08 203.424 17.824 203.088 20.464H202.8L197.424 18.208V54.496H198.288C200.592 54.496 202.608 53.296 202.608 52.672V49.12H209.904V52.912H210.72C212.592 52.912 215.136 51.712 215.184 51.328V22.72C216.144 22.528 216.864 22.144 217.2 21.712L211.968 17.584ZM235.488 17.2L232.464 20.32H224.832C225.84 18.496 226.704 16.576 227.52 14.512C228.624 14.512 229.2 14.176 229.392 13.552L221.808 11.344C220.56 18.688 217.968 26.512 215.328 31.408L215.952 31.792C219.024 29.2 221.76 25.792 224.064 21.712H232.992C232.656 38.08 232.176 47.632 230.4 49.264C229.92 49.696 229.488 49.888 228.624 49.888C227.376 49.888 224.064 49.648 221.76 49.456L221.712 50.128C224.064 50.56 225.936 51.328 226.8 52.24C227.616 53.008 227.856 54.352 227.856 56.176C231.024 56.176 233.136 55.408 234.864 53.584C237.504 50.752 238.176 41.968 238.512 22.624C239.616 22.48 240.24 22.144 240.624 21.712L235.488 17.2ZM219.024 30.4C220.944 33.04 222.864 36.928 223.104 40.336C228.192 44.608 233.424 34.24 219.408 30.112L219.024 30.4ZM23.952 101.136C18.192 102.144 12.432 103.008 9.888 103.248L12.624 108.768C13.152 108.624 13.584 108.192 13.824 107.616C18.528 105.12 21.888 103.104 24.048 101.712L23.952 101.136ZM15.648 97.152V91.248H18.576V97.152H15.648ZM32.208 88.08C31.536 91.056 30.528 93.792 29.328 96.336C28.56 93.312 28.176 89.904 28.032 86.448H36.768C37.44 86.448 37.92 86.208 38.064 85.68C37.344 84.96 36.336 84.144 35.52 83.472C36.96 82.128 36.432 78.96 30.048 78.672L29.616 79.008C30.768 80.064 32.112 81.936 32.592 83.568L32.784 83.664L31.728 85.056H27.936C27.888 83.712 27.888 82.32 27.888 80.976C28.992 80.88 29.424 80.352 29.568 79.776L23.184 78.672C23.232 80.832 23.28 82.992 23.376 85.056H10.08L10.464 86.448H23.472C23.568 87.936 23.664 89.424 23.856 90.864L20.064 88.032L18.24 89.904H15.84L11.808 88.224V100.848H12.384C13.92 100.848 15.648 99.936 15.648 99.648V98.496H18.576V99.984H19.2C20.592 99.984 22.464 99.024 22.512 98.688V91.584C23.136 91.488 23.664 91.2 23.856 90.96C24.336 94.752 25.104 98.304 26.352 101.52C23.568 105.552 20.16 108.72 16.464 111.024L16.896 111.6C21.072 109.968 24.768 107.808 27.888 104.784C28.8 106.416 29.856 107.904 31.104 109.248C32.64 110.88 35.76 112.464 37.44 110.736C38.112 110.016 37.872 108.864 36.576 106.704L37.344 100.128L36.816 100.032C36.24 101.712 35.424 103.776 34.848 104.784C34.464 105.504 34.224 105.552 33.696 104.928C32.64 103.872 31.824 102.576 31.104 101.184C33.168 98.448 34.896 95.232 36.288 91.392C37.392 91.536 38.016 91.2 38.256 90.624L32.208 88.08ZM8.976 113.136V77.904H38.928V113.136H8.976ZM41.04 73.632L38.448 76.512H9.408L3.792 74.16V118.272H4.656C6.864 118.272 8.976 116.976 8.976 116.304V114.528H38.928V117.984H39.744C41.76 117.984 44.16 116.688 44.256 116.256V78.816C45.216 78.576 45.888 78.192 46.224 77.76L41.04 73.632ZM56.88 103.92V78H60.672C60.096 81.84 59.04 87.504 58.176 90.672C60.432 93.888 61.248 97.536 61.248 100.896C61.248 102.432 60.864 103.296 60.288 103.68C60 103.872 59.712 103.92 59.232 103.92H56.88ZM63.072 73.92L60.288 76.656H57.504L51.84 74.496V118.272H52.704C55.296 118.272 56.88 117.024 56.88 116.64V104.592C57.792 104.832 58.464 105.264 58.8 105.744C59.184 106.368 59.328 108.384 59.328 109.872C64.512 109.776 66.192 107.088 66.144 102.336C66.144 98.4 64.08 93.792 59.376 90.528C61.728 87.504 64.56 82.416 66.192 79.44C67.296 79.392 67.92 79.248 68.304 78.816L63.072 73.92ZM65.76 116.256C69.456 114.144 73.344 110.544 75.168 107.712C76.032 107.808 76.512 107.712 76.752 107.28L70.704 104.448C69.84 107.76 67.68 112.56 65.376 115.68L65.76 116.256ZM83.664 105.648C85.824 107.952 88.368 111.6 89.088 114.768C94.032 118.08 97.776 108.24 84.096 105.312L83.664 105.648ZM86.16 101.664H67.056L67.44 103.056H77.232V118.272H78.144C80.832 118.272 82.416 117.408 82.464 117.168V103.056H92.64C93.312 103.056 93.84 102.816 93.936 102.288C92.064 100.464 88.896 98.016 88.896 98.016L86.16 101.664ZM81.312 94.512H72.048L72.432 95.856H87.072C87.744 95.856 88.272 95.616 88.368 95.088C86.688 93.456 83.856 91.104 83.856 91.104L81.312 94.512ZM76.32 80.16C75.984 81.504 75.6 82.8 75.168 84.096C74.64 83.232 73.392 82.416 71.088 82.032C71.52 81.408 71.952 80.784 72.336 80.16H76.32ZM90.192 75.456L87.648 78.048H82.032L82.464 79.44H87.84C87.312 81.36 86.496 83.76 85.68 85.584C84.336 84.144 83.232 82.32 82.512 80.256C82.608 80.208 82.656 80.112 82.752 80.016L78.528 76.416L76.08 78.768H73.152C73.776 77.712 74.304 76.656 74.736 75.6C75.888 75.792 76.272 75.6 76.512 75.12L70.32 73.296C69.408 78.384 67.056 84.384 64.032 87.84L64.608 88.224C66.816 86.832 68.784 85.008 70.416 82.944C71.232 83.856 72 85.2 72.24 86.304C72.864 86.736 73.488 86.88 74.064 86.784C72.096 91.008 69.216 94.8 65.232 97.584L65.664 98.208C74.064 94.368 78.672 87.792 80.88 80.688C81.216 80.64 81.504 80.64 81.744 80.544C83.184 88.128 86.256 92.928 91.392 96.336C92.016 93.984 93.312 92.448 95.136 92.016L95.184 91.488C91.872 90.384 88.752 88.704 86.352 86.304C88.656 84.72 91.344 82.272 92.88 80.352C93.888 80.304 94.368 80.208 94.752 79.776L90.192 75.456ZM72.096 87.024C69.696 87.936 66.96 88.8 65.232 89.088L67.536 92.832C67.968 92.688 68.304 92.256 68.448 91.68C70.128 90.096 71.472 88.656 72.288 87.648L72.096 87.024ZM112.992 101.664C114.336 104.016 115.584 107.472 115.536 110.496C119.424 114.24 124.176 105.936 113.472 101.424L112.992 101.664ZM135.408 90.24H128.4V80.544C132.72 79.968 137.184 79.008 140.112 78.048C141.552 78.48 142.512 78.384 143.04 77.904L137.136 73.2C135.264 74.88 131.856 77.184 128.592 78.912L122.976 77.136V91.248C121.2 89.568 118.512 87.312 118.512 87.312L115.872 90.864H112.56C114.72 88.8 116.784 86.352 118.176 84.48C119.184 84.576 119.76 84.192 119.952 83.616L114.192 81.84H120.288C120.96 81.84 121.44 81.6 121.584 81.072C119.856 79.392 116.976 77.04 116.976 77.04L114.528 80.448H111.456C114.096 79.296 114.528 74.352 105.84 73.104L105.456 73.344C106.608 74.976 107.856 77.52 108 79.776C108.384 80.064 108.768 80.304 109.152 80.448H99.072L99.456 81.84H102.72L102.432 81.936C103.392 84.096 104.448 87.168 104.4 89.808C108 93.504 112.992 86.208 103.2 81.84H113.376C112.944 84.528 112.08 88.128 111.216 90.864H98.352L98.736 92.256H107.424V97.968H99.264L99.648 99.312H107.424V102.816L102.816 100.8C102.24 104.64 100.8 110.496 98.544 114.336L99.024 114.864C102.72 111.984 105.504 107.664 107.28 104.256H107.424V118.176H108.384C111.168 118.176 112.8 117.264 112.8 116.976V99.312H120.72C121.392 99.312 121.824 99.072 121.968 98.544C120.336 96.912 117.552 94.56 117.552 94.56L115.056 97.968H112.8V92.256H121.92C122.352 92.256 122.736 92.16 122.976 91.92V93.264C122.976 102 122.304 110.784 116.352 117.696L116.88 118.224C127.584 111.936 128.4 101.952 128.4 93.36V91.632H133.008V118.224H133.968C136.848 118.224 138.528 117.072 138.528 116.736V91.632H142.656C143.328 91.632 143.856 91.392 143.952 90.864C141.936 88.896 138.48 86.064 138.48 86.064L135.408 90.24ZM151.584 73.68C152.64 75.312 153.84 77.856 153.888 80.16C158.352 84.096 164.16 75.648 151.968 73.44L151.584 73.68ZM160.128 80.688L157.152 83.568H147.216L147.648 84.96H157.392C155.568 91.2 151.296 98.88 146.352 104.16L146.784 104.592C149.04 103.2 151.2 101.52 153.216 99.648V118.128H154.176C156.768 118.128 158.448 116.832 158.448 116.448V95.712C159.408 97.392 160.272 99.36 160.512 101.136C164.448 104.352 168.624 97.056 158.592 93.552C160.416 91.104 161.904 88.56 163.008 86.16C164.112 86.016 164.688 85.872 165.12 85.44L160.128 80.688ZM183.216 78.336V84.24H171.696V78.336H183.216ZM183.216 91.296H171.696V85.632H183.216V91.296ZM171.696 92.64H183.216V98.832H171.696V92.64ZM190.944 105.552H190.416C189.6 108.288 188.976 110.688 188.592 111.456C188.304 111.888 188.16 112.032 187.728 112.032H186.144H184.416C183.648 112.032 183.504 111.84 183.504 111.264V102.336H184.08C185.856 102.336 188.448 101.28 188.544 100.896V79.2C189.504 79.008 190.176 78.624 190.512 78.24L185.232 74.112L182.736 76.944H171.984L166.32 74.64V102.912H167.136C168.48 102.912 169.776 102.528 170.64 102.048C170.256 107.472 168.816 112.896 161.136 117.696L161.664 118.32C173.712 113.808 175.824 107.136 176.496 100.176H178.176V112.56C178.176 115.92 178.704 117.072 182.688 117.072H185.52C190.896 117.072 192.576 115.968 192.576 113.952C192.576 112.944 192.336 112.32 191.088 111.696L190.944 105.552ZM209.664 92.928V86.4H212.784V92.928H209.664ZM201.504 92.928V86.4H204.624V92.928H201.504ZM204.624 78.48V85.056H201.504V78.48H204.624ZM212.784 78.48V85.056H209.664V78.48H212.784ZM236.448 88.656L233.616 91.536H218.16V79.392C219.072 79.2 219.744 78.816 220.032 78.48H231.984C231.072 80.016 229.872 81.84 228.672 83.424C226.992 82.56 224.64 81.936 221.472 81.744L221.088 82.128C223.776 84 226.848 87.36 227.952 90.432C231.744 92.4 234.24 87.744 230.304 84.48C233.28 83.04 236.448 81.216 238.464 79.632C239.52 79.584 240.048 79.44 240.432 79.056L235.248 74.112L232.128 77.088H219.408L219.696 78.048L214.848 74.352L212.304 77.088H201.792L196.8 75.024V97.824H197.52C199.536 97.824 201.504 96.72 201.504 96.24V94.32H204.624V100.896H196.32L196.704 102.288H204.624V108.96C200.496 109.632 197.136 110.112 195.12 110.352L198.144 116.832C198.72 116.688 199.2 116.256 199.44 115.584C209.184 111.984 215.616 109.104 219.984 107.04L219.84 106.416C216.336 107.04 212.88 107.616 209.664 108.144V102.288H218.352C219.024 102.288 219.552 102.048 219.648 101.52C217.872 99.744 214.848 97.152 214.848 97.152L212.16 100.896H209.664V94.32H212.784V96.336H213.648C215.616 96.336 218.112 94.992 218.16 94.56V92.928H224.928V110.928C224.928 111.504 224.64 111.792 223.872 111.792C222.768 111.792 217.296 111.456 217.296 111.456V112.08C219.984 112.512 221.136 113.184 221.952 114.048C222.72 114.912 223.008 116.352 223.104 118.224C229.488 117.696 230.448 114.912 230.448 111.072V92.928H234C233.568 95.472 232.8 98.88 232.176 101.184L232.656 101.52C235.056 99.552 237.936 96.336 239.568 94.032C240.576 93.936 241.104 93.84 241.488 93.456L236.448 88.656Z" fill="black"/>
<path d="M11.452 145.186V144.682H7.028V145.186L8.386 145.34C8.414 146.698 8.414 148.07 8.414 149.428H3.696C3.696 148.042 3.696 146.67 3.724 145.34L5.096 145.186V144.682H0.672V145.186L2.058 145.34C2.072 146.726 2.072 148.112 2.072 149.484V150.198C2.072 151.598 2.072 152.984 2.058 154.342L0.672 154.496V155H5.096V154.496L3.724 154.342C3.696 152.984 3.696 151.598 3.696 150.002H8.414C8.414 151.612 8.414 153.012 8.386 154.342L7.028 154.496V155H11.452V154.496L10.052 154.342C10.024 152.956 10.024 151.57 10.024 150.198V149.484C10.024 148.07 10.024 146.698 10.052 145.34L11.452 145.186ZM14.1241 150.716C14.2361 148.798 15.1461 147.972 16.0561 147.972C17.0081 147.972 17.6661 148.77 17.6661 149.806C17.6661 150.394 17.5121 150.716 16.8681 150.716H14.1241ZM19.0101 151.262C19.0801 151.038 19.1081 150.758 19.1081 150.408C19.1081 148.63 17.9321 147.426 16.1541 147.426C14.2501 147.426 12.5141 148.91 12.5141 151.332C12.5141 153.796 14.0121 155.21 16.1261 155.21C17.4841 155.21 18.5061 154.538 19.0661 153.432L18.7861 153.236C18.2541 153.908 17.6381 154.314 16.6441 154.314C15.2021 154.314 14.1521 153.348 14.1101 151.262H19.0101ZM24.8285 153.474C24.0445 154.104 23.6945 154.3 23.1905 154.3C22.4905 154.3 22.0005 153.936 22.0005 153.11C22.0005 152.41 22.3225 151.794 23.5545 151.304C23.8485 151.192 24.3245 151.038 24.8285 150.898V153.474ZM27.4745 154.076C27.2365 154.356 27.0825 154.468 26.8305 154.468C26.5085 154.468 26.2985 154.244 26.2985 153.544V150.1C26.2985 148.182 25.5285 147.426 23.8205 147.426C22.0985 147.426 20.9645 148.168 20.7265 149.372C20.7825 149.778 21.0485 149.988 21.4685 149.988C21.9025 149.988 22.1965 149.708 22.3085 149.12L22.5465 148.084C22.8545 148 23.1205 147.972 23.3725 147.972C24.4225 147.972 24.8285 148.378 24.8285 149.876V150.45C24.2405 150.59 23.6245 150.772 23.1485 150.912C21.1045 151.612 20.5165 152.298 20.5165 153.334C20.5165 154.538 21.3845 155.21 22.5325 155.21C23.5125 155.21 24.0585 154.79 24.8705 153.964C25.0105 154.72 25.5145 155.182 26.2985 155.182C26.9285 155.182 27.3765 154.958 27.7125 154.328L27.4745 154.076ZM33.8912 153.642C33.3592 154.188 32.9112 154.384 32.3092 154.384C31.0912 154.384 30.1812 153.502 30.1812 151.318C30.1812 149.078 31.1752 148.238 32.3372 148.238C32.8132 148.238 33.3032 148.42 33.8912 148.924V153.642ZM35.3752 154.44V145.9L35.4452 143.716L35.2352 143.604L32.6872 144.206V144.64L33.9472 144.752V148.406C33.3312 147.678 32.6732 147.426 31.9172 147.426C30.0132 147.426 28.5852 148.938 28.5852 151.374C28.5852 153.684 29.9152 155.21 31.7632 155.21C32.6872 155.21 33.3872 154.818 33.9332 154.16L34.0312 155.154L36.5512 155V154.552L35.3752 154.44ZM40.1455 154.398C40.1315 153.53 40.1175 152.606 40.1175 151.752V145.914L40.1735 143.716L39.9635 143.604L37.4295 144.206V144.64L38.6335 144.752V151.752C38.6335 152.606 38.6195 153.53 38.6055 154.398L37.4295 154.552V155H41.3075V154.552L40.1455 154.398ZM44.26 145.732C44.82 145.732 45.282 145.326 45.282 144.752C45.282 144.178 44.82 143.786 44.26 143.786C43.686 143.786 43.224 144.178 43.224 144.752C43.224 145.326 43.686 145.732 44.26 145.732ZM45.072 154.398C45.058 153.614 45.044 152.494 45.044 151.752V149.666L45.072 147.58L44.876 147.44L42.314 148.238V148.672L43.504 148.784C43.532 149.456 43.546 149.988 43.546 150.856V151.752C43.546 152.48 43.532 153.6 43.518 154.398L42.426 154.552V155H46.08V154.552L45.072 154.398ZM54.6611 154.398C54.6471 153.614 54.6331 152.522 54.6331 151.752V150.17C54.6331 148.238 53.9051 147.426 52.6031 147.426C51.6651 147.426 50.7131 147.902 49.8731 148.84L49.7611 147.58L49.5511 147.44L47.1851 148.266V148.686L48.3611 148.798C48.3891 149.442 48.4171 149.974 48.4171 150.856V151.752C48.4171 152.48 48.4031 153.6 48.3751 154.398L47.2831 154.552V155H50.9371V154.552L49.9291 154.398C49.9151 153.614 49.9011 152.494 49.9011 151.752V149.386C50.6711 148.686 51.3291 148.392 51.9311 148.392C52.7571 148.392 53.1491 148.84 53.1491 150.156V151.752C53.1491 152.522 53.1351 153.614 53.1211 154.398L52.0291 154.552V155H55.6831V154.552L54.6611 154.398ZM58.4954 150.716C58.6074 148.798 59.5174 147.972 60.4274 147.972C61.3794 147.972 62.0374 148.77 62.0374 149.806C62.0374 150.394 61.8834 150.716 61.2394 150.716H58.4954ZM63.3814 151.262C63.4514 151.038 63.4794 150.758 63.4794 150.408C63.4794 148.63 62.3034 147.426 60.5254 147.426C58.6214 147.426 56.8854 148.91 56.8854 151.332C56.8854 153.796 58.3834 155.21 60.4974 155.21C61.8554 155.21 62.8774 154.538 63.4374 153.432L63.1574 153.236C62.6254 153.908 62.0094 154.314 61.0154 154.314C59.5734 154.314 58.5234 153.348 58.4814 151.262H63.3814ZM75.6771 148.826C74.5991 148.392 73.9971 147.832 73.9971 146.852C73.9971 145.69 74.8651 145.088 76.1111 145.088C76.5591 145.088 76.9231 145.158 77.2871 145.354L77.7631 147.314H78.5471L78.6311 145.242C77.9311 144.738 77.1051 144.43 76.0551 144.43C74.0391 144.43 72.5411 145.466 72.5411 147.286C72.5411 148.84 73.5631 149.736 75.2291 150.436L75.8311 150.702C77.1611 151.22 77.6791 151.724 77.6791 152.704C77.6791 153.922 76.7411 154.594 75.2851 154.594C74.6411 154.594 74.1931 154.496 73.7031 154.244L73.2271 152.2H72.4571L72.3731 154.426C73.1151 154.888 74.2491 155.252 75.4111 155.252C77.6791 155.252 79.1491 154.09 79.1491 152.284C79.1491 150.814 78.3791 149.946 76.3071 149.106L75.6771 148.826ZM82.1335 150.716C82.2455 148.798 83.1555 147.972 84.0655 147.972C85.0175 147.972 85.6755 148.77 85.6755 149.806C85.6755 150.394 85.5215 150.716 84.8775 150.716H82.1335ZM87.0195 151.262C87.0895 151.038 87.1175 150.758 87.1175 150.408C87.1175 148.63 85.9415 147.426 84.1635 147.426C82.2595 147.426 80.5235 148.91 80.5235 151.332C80.5235 153.796 82.0215 155.21 84.1355 155.21C85.4935 155.21 86.5155 154.538 87.0755 153.432L86.7955 153.236C86.2635 153.908 85.6475 154.314 84.6535 154.314C83.2115 154.314 82.1615 153.348 82.1195 151.262H87.0195ZM100.424 154.398C100.41 153.614 100.396 152.522 100.396 151.752V150.114C100.396 148.224 99.6819 147.426 98.3519 147.426C97.3859 147.426 96.4619 147.846 95.6219 148.868C95.3559 147.874 94.7119 147.426 93.7319 147.426C92.8079 147.426 91.8979 147.93 91.0999 148.84L90.9879 147.58L90.7779 147.44L88.4119 148.266V148.686L89.5879 148.798C89.6159 149.442 89.6439 149.974 89.6439 150.856V151.752C89.6439 152.48 89.6299 153.6 89.6019 154.398L88.5099 154.552V155H92.1639V154.552L91.1559 154.398C91.1419 153.614 91.1279 152.494 91.1279 151.752V149.414C91.8279 148.728 92.4439 148.392 93.0879 148.392C93.9279 148.392 94.2779 148.854 94.2779 150.198V151.752C94.2779 152.522 94.2639 153.614 94.2499 154.398L93.1579 154.552V155H96.7979V154.552L95.7899 154.398C95.7759 153.614 95.7619 152.522 95.7619 151.752V150.17C95.7619 149.89 95.7479 149.638 95.7199 149.4C96.4619 148.686 97.0919 148.392 97.6939 148.392C98.5199 148.392 98.8979 148.812 98.8979 150.184V151.752C98.8979 152.522 98.8839 153.614 98.8699 154.398L97.8199 154.552V155H101.446V154.552L100.424 154.398ZM104.415 145.732C104.975 145.732 105.437 145.326 105.437 144.752C105.437 144.178 104.975 143.786 104.415 143.786C103.841 143.786 103.379 144.178 103.379 144.752C103.379 145.326 103.841 145.732 104.415 145.732ZM105.227 154.398C105.213 153.614 105.199 152.494 105.199 151.752V149.666L105.227 147.58L105.031 147.44L102.469 148.238V148.672L103.659 148.784C103.687 149.456 103.701 149.988 103.701 150.856V151.752C103.701 152.48 103.687 153.6 103.673 154.398L102.581 154.552V155H106.235V154.552L105.227 154.398ZM110.533 154.412C110.519 152.998 110.519 151.556 110.519 149.932H111.359C113.389 149.932 114.285 150.688 114.285 152.186C114.285 153.642 113.319 154.412 111.513 154.412H110.533ZM111.513 145.256C113.109 145.256 113.837 145.872 113.837 147.216C113.837 148.644 113.025 149.358 111.275 149.358H110.519C110.519 147.958 110.519 146.6 110.533 145.256H111.513ZM107.495 144.682V145.186L108.881 145.34C108.909 146.698 108.909 148.07 108.909 149.442V150.128C108.909 151.556 108.909 152.956 108.881 154.342L107.495 154.496V155H111.737C114.873 155 115.965 153.572 115.965 152.172C115.965 150.856 115.055 149.848 112.843 149.582C114.719 149.218 115.405 148.238 115.405 147.16C115.405 145.718 114.299 144.682 111.989 144.682H107.495ZM119.711 154.398C119.697 153.53 119.683 152.606 119.683 151.752V145.914L119.739 143.716L119.529 143.604L116.995 144.206V144.64L118.199 144.752V151.752C118.199 152.606 118.185 153.53 118.171 154.398L116.995 154.552V155H120.873V154.552L119.711 154.398ZM125.701 155.21C127.633 155.21 129.327 153.852 129.327 151.318C129.327 148.784 127.577 147.426 125.701 147.426C123.797 147.426 122.061 148.798 122.061 151.318C122.061 153.838 123.741 155.21 125.701 155.21ZM125.701 154.65C124.427 154.65 123.699 153.53 123.699 151.332C123.699 149.12 124.427 147.972 125.701 147.972C126.947 147.972 127.703 149.12 127.703 151.332C127.703 153.53 126.947 154.65 125.701 154.65ZM136.052 153.642C135.52 154.188 135.072 154.384 134.47 154.384C133.252 154.384 132.342 153.502 132.342 151.318C132.342 149.078 133.336 148.238 134.498 148.238C134.974 148.238 135.464 148.42 136.052 148.924V153.642ZM137.536 154.44V145.9L137.606 143.716L137.396 143.604L134.848 144.206V144.64L136.108 144.752V148.406C135.492 147.678 134.834 147.426 134.078 147.426C132.174 147.426 130.746 148.938 130.746 151.374C130.746 153.684 132.076 155.21 133.924 155.21C134.848 155.21 135.548 154.818 136.094 154.16L136.192 155.154L138.712 155V154.552L137.536 154.44Z" fill="#4F4F4F"/>
<path d="M11.508 214.116V213.612H6.902V214.116L8.176 214.242C8.204 215.628 8.204 217.028 8.204 218.414H3.92C3.92 217.014 3.92 215.614 3.962 214.242L5.236 214.116V213.612H0.63V214.116L1.96 214.256C1.974 215.656 1.974 217.07 1.974 218.47V219.156C1.974 220.584 1.974 221.998 1.96 223.384L0.63 223.51V224H5.236V223.51L3.962 223.398C3.92 221.998 3.92 220.57 3.92 218.96H8.204C8.204 220.584 8.204 222.012 8.176 223.398L6.902 223.51V224H11.508V223.51L10.178 223.384C10.164 221.984 10.164 220.556 10.164 219.156V218.47C10.164 217.042 10.164 215.642 10.178 214.242L11.508 214.116ZM14.3768 219.702C14.4608 217.658 15.2308 216.804 16.1128 216.804C16.9668 216.804 17.5688 217.532 17.5688 218.666C17.5688 219.38 17.4148 219.702 16.7708 219.702H14.3768ZM19.2208 220.22C19.2908 219.982 19.3188 219.716 19.3188 219.352C19.3188 217.588 18.1568 216.286 16.2388 216.286C14.2788 216.286 12.4308 217.728 12.4308 220.248C12.4308 222.796 14.0268 224.224 16.2248 224.224C17.6108 224.224 18.6748 223.566 19.2348 222.418L18.9548 222.222C18.4648 222.88 17.8628 223.3 16.8548 223.3C15.4968 223.3 14.4328 222.362 14.3768 220.22H19.2208ZM24.9232 222.572C24.2792 223.104 23.9292 223.314 23.4672 223.314C22.7952 223.314 22.3472 222.922 22.3472 222.096C22.3472 221.228 22.7672 220.584 23.8732 220.15C24.1112 220.052 24.5032 219.94 24.9232 219.814V222.572ZM27.8492 223.034C27.5972 223.37 27.4292 223.496 27.2192 223.496C26.9112 223.496 26.7152 223.286 26.7152 222.656V219.044C26.7152 217.084 25.9452 216.286 24.1112 216.286C22.1652 216.286 21.0032 217.07 20.8212 218.33C20.9052 218.75 21.1992 218.974 21.6612 218.974C22.1372 218.974 22.5152 218.666 22.5712 217.896L22.7672 216.888C23.0192 216.832 23.2572 216.804 23.4952 216.804C24.5452 216.804 24.9232 217.21 24.9232 218.694V219.408C24.3772 219.534 23.8172 219.688 23.3972 219.828C21.2412 220.5 20.5972 221.186 20.5972 222.348C20.5972 223.524 21.4512 224.224 22.6272 224.224C23.6632 224.224 24.2092 223.79 24.9792 222.978C25.1612 223.734 25.6512 224.21 26.5052 224.21C27.2472 224.21 27.7372 223.944 28.1012 223.244L27.8492 223.034ZM34.1776 222.768C33.7436 223.174 33.3236 223.328 32.8196 223.328C31.6576 223.328 30.8036 222.474 30.8036 220.248C30.8036 217.952 31.7416 217.168 32.8476 217.168C33.2816 217.168 33.7156 217.308 34.1776 217.7V222.768ZM36.0256 223.482V214.872L36.0676 212.66L35.8716 212.534L33.0436 213.136V213.528L34.2476 213.626V217.266C33.6736 216.58 33.0016 216.286 32.2316 216.286C30.3136 216.286 28.8436 217.798 28.8436 220.332C28.8436 222.74 30.2156 224.224 32.0496 224.224C32.9456 224.224 33.6596 223.86 34.2196 223.216L34.3176 224.154L37.0756 224V223.566L36.0256 223.482ZM40.9861 223.454C40.9581 222.558 40.9441 221.592 40.9441 220.71V214.886L41.0001 212.66L40.8041 212.534L37.9901 213.136V213.528L39.1241 213.612V220.71C39.1241 221.592 39.1101 222.558 39.0821 223.44L38.0041 223.566V224H42.0641V223.566L40.9861 223.454ZM45.0683 214.732C45.6703 214.732 46.1743 214.298 46.1743 213.696C46.1743 213.066 45.6703 212.646 45.0683 212.646C44.4663 212.646 43.9623 213.066 43.9623 213.696C43.9623 214.298 44.4663 214.732 45.0683 214.732ZM46.0623 223.454C46.0483 222.656 46.0343 221.48 46.0343 220.71V218.61L46.0623 216.426L45.8663 216.3L43.0243 217.098V217.476L44.1583 217.588C44.1863 218.288 44.2003 218.82 44.2003 219.716V220.71C44.2003 221.48 44.1863 222.642 44.1723 223.44L43.1503 223.566V224H47.0003V223.566L46.0623 223.454ZM55.8021 223.454C55.7881 222.656 55.7741 221.508 55.7741 220.71V219.002C55.7741 217.126 54.9481 216.286 53.6321 216.286C52.7221 216.286 51.8541 216.678 50.9721 217.7L50.8741 216.426L50.6781 216.3L47.9901 217.154V217.504L49.0961 217.616C49.1381 218.288 49.1521 218.792 49.1521 219.702V220.71C49.1521 221.48 49.1381 222.642 49.1241 223.44L48.1021 223.566V224H51.9381V223.566L51.0281 223.454C51.0141 222.656 51.0001 221.48 51.0001 220.71V218.19C51.6861 217.56 52.3161 217.28 52.8341 217.28C53.5901 217.28 53.9401 217.7 53.9401 218.918V220.71C53.9401 221.508 53.9261 222.656 53.8981 223.44L52.9181 223.566V224H56.7541V223.566L55.8021 223.454ZM59.7871 219.702C59.8711 217.658 60.6411 216.804 61.5231 216.804C62.3771 216.804 62.9791 217.532 62.9791 218.666C62.9791 219.38 62.8251 219.702 62.1811 219.702H59.7871ZM64.6311 220.22C64.7011 219.982 64.7291 219.716 64.7291 219.352C64.7291 217.588 63.5671 216.286 61.6491 216.286C59.6891 216.286 57.8411 217.728 57.8411 220.248C57.8411 222.796 59.4371 224.224 61.6351 224.224C63.0211 224.224 64.0851 223.566 64.6451 222.418L64.3651 222.222C63.8751 222.88 63.2731 223.3 62.2651 223.3C60.9071 223.3 59.8431 222.362 59.7871 220.22H64.6311ZM76.6878 223.454C76.6458 221.998 76.6458 220.514 76.6458 218.862H77.4158C79.2918 218.862 80.1458 219.604 80.1458 221.158C80.1458 222.656 79.2078 223.454 77.5558 223.454H76.6878ZM77.5138 214.158C79.0258 214.158 79.6838 214.858 79.6838 216.146C79.6838 217.56 78.9138 218.33 77.3038 218.33H76.6458C76.6458 216.902 76.6458 215.516 76.6878 214.158H77.5138ZM73.3698 213.612V214.116L74.6998 214.242C74.7278 215.628 74.7278 217.028 74.7278 218.428V219.03C74.7278 220.5 74.7278 221.956 74.6998 223.384L73.3698 223.51V224H77.6958C81.1118 224 82.1478 222.53 82.1478 221.144C82.1478 219.744 81.1958 218.778 78.8718 218.498C80.8878 218.106 81.5738 217.14 81.5738 216.076C81.5738 214.648 80.5238 213.612 78.0458 213.612H73.3698ZM87.2143 224.224C89.3563 224.224 90.9943 222.754 90.9943 220.234C90.9943 217.714 89.2443 216.286 87.2143 216.286C85.1703 216.286 83.4343 217.728 83.4343 220.234C83.4343 222.74 85.0443 224.224 87.2143 224.224ZM87.2143 223.706C86.0523 223.706 85.4083 222.572 85.4083 220.248C85.4083 217.938 86.0523 216.804 87.2143 216.804C88.3483 216.804 89.0203 217.938 89.0203 220.248C89.0203 222.572 88.3483 223.706 87.2143 223.706ZM95.0846 223.454C95.0566 222.558 95.0426 221.592 95.0426 220.71V214.886L95.0986 212.66L94.9026 212.534L92.0886 213.136V213.528L93.2226 213.612V220.71C93.2226 221.592 93.2086 222.558 93.1806 223.44L92.1026 223.566V224H96.1626V223.566L95.0846 223.454ZM102.611 222.768C102.177 223.174 101.757 223.328 101.253 223.328C100.091 223.328 99.2368 222.474 99.2368 220.248C99.2368 217.952 100.175 217.168 101.281 217.168C101.715 217.168 102.149 217.308 102.611 217.7V222.768ZM104.459 223.482V214.872L104.501 212.66L104.305 212.534L101.477 213.136V213.528L102.681 213.626V217.266C102.107 216.58 101.435 216.286 100.665 216.286C98.7468 216.286 97.2768 217.798 97.2768 220.332C97.2768 222.74 98.6488 224.224 100.483 224.224C101.379 224.224 102.093 223.86 102.653 223.216L102.751 224.154L105.509 224V223.566L104.459 223.482Z" fill="#4F4F4F"/>
<path d="M22.464 175.616C22.8 175.616 23.064 175.496 23.136 175.232C22.08 174.296 20.304 172.952 20.304 172.952L18.744 174.92H12.672C12.84 172.976 12.864 170.936 12.912 168.848C13.488 168.752 13.704 168.512 13.776 168.152L10.368 167.816C10.368 170.288 10.392 172.664 10.2 174.92H1.032L1.248 175.616H10.152C9.6 181.04 7.632 185.768 0.792 189.68L1.056 190.064C9.552 186.56 11.856 181.64 12.552 175.952C13.224 180.728 15.096 186.56 21.144 190.064C21.408 188.768 22.152 188.12 23.352 187.904L23.4 187.64C16.488 184.712 13.8 180.104 12.96 175.616H22.464ZM38.712 187.952V184.88H43.8V187.952H38.712ZM43.584 184.184H38.832L36.792 183.368V189.992H37.08C37.848 189.992 38.712 189.536 38.712 189.368V188.648H43.8V189.848H44.112C44.736 189.848 45.672 189.44 45.696 189.296V185.096C46.08 185.024 46.368 184.856 46.488 184.712L44.52 183.248L43.584 184.184ZM43.44 180.008H36.936L37.128 180.704H45.504C45.816 180.704 46.032 180.584 46.104 180.32C45.432 179.696 44.376 178.904 44.376 178.904L43.44 180.008ZM43.464 182.12H37.032L37.224 182.816H45.528C45.84 182.816 46.056 182.696 46.128 182.432C45.456 181.808 44.4 181.04 44.4 181.04L43.464 182.12ZM41.688 170.576C41.352 171.296 40.92 172.184 40.488 172.856H36.6L36.24 172.688C36.912 171.992 37.536 171.296 38.064 170.576H41.688ZM28.176 174.392C28.992 174.776 29.808 175.304 30.288 175.736C30.504 175.784 30.696 175.76 30.864 175.688V178.4C29.784 178.952 28.8 179.456 28.128 179.768C28.176 178.688 28.176 177.632 28.176 176.696V174.392ZM30.864 170.048V174.056C30.36 173.696 29.52 173.456 28.176 173.576V170.048H30.864ZM44.568 178.04H41.952C42.648 177.512 42.6 175.904 39.84 175.64L39.624 175.88C40.344 176.432 40.704 177.344 40.896 177.944C40.944 177.992 40.968 178.016 41.016 178.04H36.24V177.704V173.552H38.424C38.376 174.92 38.088 176.168 36.36 177.248L36.672 177.608C39.36 176.648 40.056 175.184 40.272 173.552H42.096V175.232C42.096 176.264 42.264 176.672 43.56 176.672H44.424C46.32 176.672 46.848 176.432 46.848 175.808C46.824 175.496 46.656 175.328 46.176 175.184L46.08 175.16H45.864C45.744 175.184 45.576 175.232 45.48 175.232C45.408 175.256 45.24 175.256 45.144 175.256H44.664H44.136C43.896 175.256 43.824 175.184 43.824 174.944V173.6V173.552H46.776C47.112 173.552 47.328 173.432 47.4 173.168C46.632 172.424 45.408 171.464 45.408 171.464L44.304 172.856H41.256C42.216 172.232 43.152 171.416 43.824 170.816C44.304 170.792 44.592 170.768 44.76 170.552L42.816 168.776L41.736 169.88H38.544C38.808 169.52 39.024 169.16 39.24 168.8C39.84 168.848 40.032 168.728 40.128 168.488L37.128 167.696C36.264 170.264 34.512 173.336 32.664 175.064V170.336C33.096 170.24 33.432 170.072 33.576 169.88L31.536 168.296L30.648 169.352H28.488L26.376 168.464V176.696C26.376 181.088 26.424 185.96 24.96 189.848L25.368 190.064C27.312 187.376 27.912 183.896 28.104 180.632L28.776 181.952C29.016 181.832 29.16 181.544 29.184 181.256C29.808 180.536 30.384 179.912 30.864 179.36V186.44C30.864 186.776 30.768 186.92 30.384 186.92C29.952 186.92 28.056 186.776 28.056 186.776V187.16C28.968 187.28 29.448 187.496 29.736 187.784C30 188.048 30.096 188.528 30.168 189.056C32.4 188.864 32.664 188.048 32.664 186.632V175.112L32.88 175.328C33.384 175.04 33.864 174.704 34.344 174.344V178.28C34.32 182.36 33.984 186.704 31.92 189.872L32.232 190.136C35.448 187.304 36.144 182.936 36.24 178.736H46.68C46.992 178.736 47.208 178.616 47.28 178.352C46.584 177.728 45.504 176.936 45.504 176.936L44.568 178.04ZM49.632 176.072L49.848 176.768H70.896C71.232 176.768 71.496 176.648 71.568 176.384C70.56 175.52 68.928 174.296 68.928 174.296L67.488 176.072H61.584V172.208H68.832C69.192 172.208 69.432 172.088 69.504 171.824C68.52 170.96 66.912 169.784 66.912 169.784L65.52 171.512H61.584V168.728C62.208 168.632 62.4 168.392 62.448 168.056L59.28 167.768V171.512H51.936L52.128 172.208H59.28V176.072H49.632ZM61.632 181.64H68.976C69.336 181.64 69.6 181.52 69.648 181.256C68.664 180.392 67.008 179.168 67.008 179.168L65.592 180.944H61.632V177.92C62.184 177.848 62.352 177.632 62.4 177.296L59.328 177.008V186.536C57.624 185.936 56.4 184.832 55.464 182.912C55.848 181.952 56.16 180.944 56.4 179.96C56.952 179.96 57.24 179.744 57.312 179.408L54.096 178.784C53.664 182.432 52.32 186.92 49.224 189.776L49.464 190.04C52.32 188.384 54.096 186.008 55.2 183.488C56.976 188.336 59.952 189.416 65.472 189.416H70.584C70.632 188.528 71.016 187.736 71.808 187.568V187.256C70.248 187.304 66.984 187.304 65.592 187.304C64.08 187.304 62.784 187.256 61.632 187.088V181.64ZM91.872 179.84V187.136H85.776V177.704H90.696V179.048H91.104C91.92 179.048 92.904 178.64 92.904 178.448V170.984C93.504 170.888 93.696 170.672 93.744 170.36L90.696 170.048V177.008H85.776V168.872C86.4 168.776 86.568 168.536 86.64 168.2L83.472 167.864V177.008H78.696V170.912C79.368 170.816 79.584 170.6 79.632 170.336L76.512 170.024V176.816C76.224 177.008 75.96 177.248 75.792 177.44L78.12 178.904L78.864 177.704H83.472V187.136H77.544V180.632C78.216 180.536 78.432 180.32 78.48 180.056L75.336 179.744V186.92C75.048 187.088 74.784 187.352 74.592 187.544L76.968 189.056L77.712 187.832H91.872V189.776H92.28C93.12 189.776 94.104 189.392 94.104 189.2V180.776C94.68 180.68 94.896 180.464 94.92 180.152L91.872 179.84ZM115.8 178.232H110.112V173.264H117.888C118.224 173.264 118.488 173.144 118.56 172.88C117.528 171.968 115.8 170.648 115.8 170.648L114.312 172.568H110.112V168.68C110.736 168.584 110.928 168.344 111 168.008L107.664 167.696V172.568H99.72L99.936 173.264H107.664V178.232H97.992L98.208 178.928H107.184C105.984 181.16 102.912 184.976 100.728 186.392C100.464 186.536 99.84 186.656 99.84 186.656L101.184 189.656C101.4 189.56 101.568 189.392 101.736 189.152C107.472 188.192 112.128 187.256 115.32 186.488C115.944 187.52 116.472 188.552 116.736 189.512C119.544 191.528 121.248 185.336 111.888 181.808L111.672 182C112.752 183.056 113.976 184.424 114.96 185.888C109.872 186.248 105.144 186.536 102.144 186.656C104.808 184.952 107.904 182.384 109.512 180.488C110.016 180.512 110.328 180.344 110.448 180.104L107.736 178.928H119.472C119.808 178.928 120.072 178.808 120.144 178.544C119.064 177.608 117.336 176.288 117.336 176.288L115.8 178.232ZM146.563 181.664V175.544H150.475V181.664H146.563ZM150.907 184.064C151.747 184.064 152.755 183.608 152.755 183.392V175.544H156.643C157.003 175.544 157.243 175.424 157.291 175.16C156.403 174.296 154.867 173.096 154.867 173.096L153.547 174.872H152.755V169.184C153.379 169.088 153.571 168.848 153.643 168.512L150.475 168.2V174.872H146.563V168.824C147.211 168.728 147.403 168.464 147.451 168.128L144.331 167.816V174.872H140.635V169.304C141.211 169.208 141.451 168.968 141.499 168.632L138.355 168.296V174.872H134.659L134.851 175.544H138.355V187.424C138.091 187.616 137.803 187.856 137.635 188.048L140.035 189.536L140.803 188.312H155.995C156.355 188.312 156.595 188.192 156.667 187.928C155.659 187.016 154.027 185.696 154.027 185.696L152.563 187.616H140.635V175.544H144.331V184.64H144.739C145.603 184.64 146.563 184.16 146.563 183.896V182.36H150.475V184.064H150.907ZM164.467 173.744H168.955V177.08H164.467V173.744ZM168.955 169.856V173.048H164.467V169.856H168.955ZM175.867 169.856V173.048H171.163V169.856H175.867ZM171.163 177.08V173.744H175.867V177.08H171.163ZM175.867 177.776V178.808H176.251C176.971 178.808 178.123 178.352 178.147 178.184V170.264C178.651 170.168 178.987 169.952 179.155 169.76L176.755 167.96L175.627 169.184H164.635L162.211 168.176V179.072H162.571C163.483 179.072 164.467 178.544 164.467 178.304V177.776H166.627C165.019 180.152 162.355 182.168 158.947 183.44L159.115 183.824C161.635 183.224 163.843 182.384 165.691 181.256V183.152C165.691 185.648 164.755 188.144 159.787 189.776L159.955 190.064C166.675 188.744 167.875 185.936 167.923 183.2V181.28C168.499 181.208 168.667 180.968 168.715 180.68L166.843 180.488C167.923 179.696 168.835 178.808 169.531 177.776H171.859C172.411 178.808 173.131 179.72 173.995 180.512L172.315 180.344V190.04H172.747C173.515 190.04 174.547 189.608 174.547 189.392V181.112L174.667 181.088C176.083 182.24 177.787 183.104 179.611 183.752C179.851 182.672 180.403 181.928 181.315 181.688L181.339 181.424C178.075 180.92 174.427 179.744 172.483 177.776H175.867ZM183.5 176.072L183.716 176.768H204.764C205.1 176.768 205.364 176.648 205.436 176.384C204.428 175.52 202.796 174.296 202.796 174.296L201.356 176.072H195.452V172.208H202.7C203.06 172.208 203.3 172.088 203.372 171.824C202.388 170.96 200.78 169.784 200.78 169.784L199.388 171.512H195.452V168.728C196.076 168.632 196.268 168.392 196.316 168.056L193.148 167.768V171.512H185.804L185.996 172.208H193.148V176.072H183.5ZM195.5 181.64H202.844C203.204 181.64 203.468 181.52 203.516 181.256C202.532 180.392 200.876 179.168 200.876 179.168L199.46 180.944H195.5V177.92C196.052 177.848 196.22 177.632 196.268 177.296L193.196 177.008V186.536C191.492 185.936 190.268 184.832 189.332 182.912C189.716 181.952 190.028 180.944 190.268 179.96C190.82 179.96 191.108 179.744 191.18 179.408L187.964 178.784C187.532 182.432 186.188 186.92 183.092 189.776L183.332 190.04C186.188 188.384 187.964 186.008 189.068 183.488C190.844 188.336 193.82 189.416 199.34 189.416H204.452C204.5 188.528 204.884 187.736 205.676 187.568V187.256C204.116 187.304 200.852 187.304 199.46 187.304C197.948 187.304 196.652 187.256 195.5 187.088V181.64ZM220.579 167.768C221.275 168.776 221.971 170.36 221.995 171.656C223.795 173.312 225.883 169.52 220.843 167.624L220.579 167.768ZM221.299 172.76V176.024H218.227V172.76H221.299ZM221.299 179.984H218.227V176.72H221.299V179.984ZM221.299 184.232H218.227V180.68H221.299V184.232ZM214.147 177.32C214.771 176.768 215.395 176.144 215.995 175.448V186.344H216.403C217.531 186.344 218.227 185.84 218.227 185.672V184.928H228.883C229.219 184.928 229.483 184.808 229.531 184.544C228.595 183.704 227.083 182.528 227.083 182.528L225.739 184.232H223.483V180.68H228.019C228.355 180.68 228.595 180.56 228.643 180.296C227.779 179.504 226.363 178.424 226.363 178.424L225.139 179.984H223.483V176.72H228.019C228.355 176.72 228.595 176.6 228.643 176.336C227.779 175.544 226.363 174.44 226.363 174.44L225.139 176.024H223.483V172.76H228.427C228.739 172.76 228.979 172.64 229.051 172.376C228.163 171.56 226.699 170.48 226.699 170.48L225.403 172.064H218.539L218.395 172.016C218.899 171.128 219.379 170.216 219.787 169.232C220.315 169.256 220.627 169.04 220.723 168.752L217.483 167.696C216.667 171.176 215.203 174.8 213.811 177.104L214.147 177.32ZM208.555 168.2C209.539 169.088 210.667 170.6 210.955 171.872C213.235 173.288 214.867 168.824 208.771 168.032L208.555 168.2ZM213.787 177.944L212.563 179.12H211.099C211.915 177.92 212.947 176.288 213.595 175.208C214.219 175.184 214.747 175.064 214.987 174.824L212.803 172.856L211.723 173.96H207.691L207.907 174.656H211.579C210.931 175.88 209.923 177.536 209.107 178.664C208.771 178.784 208.411 178.952 208.171 179.12L210.043 180.536L210.835 179.816H212.659C212.299 181.64 211.459 183.776 210.451 185.336C209.587 185.888 208.291 186.92 207.403 187.472L209.083 189.728C209.251 189.608 209.299 189.44 209.227 189.224C209.803 188.12 210.619 186.776 211.051 186.056C211.267 185.672 211.507 185.624 211.843 186.008C213.955 188.528 216.139 189.392 221.131 189.392H228.211C228.331 188.48 228.859 187.712 229.819 187.52V187.208C226.963 187.352 224.659 187.376 221.875 187.376C216.907 187.376 214.147 187.04 212.155 185.24C211.963 185.096 211.843 185.024 211.675 184.976C213.235 183.536 214.363 181.712 214.987 180.008C215.491 179.96 215.731 179.912 215.899 179.696L213.787 177.944ZM247.412 173.192C247.076 175.952 246.235 178.448 245.06 180.224C244.603 179.6 244.196 178.928 243.86 178.232V172.424H253.028C253.364 172.424 253.604 172.304 253.675 172.04C252.668 171.152 251.036 169.928 251.036 169.928L249.571 171.728H243.86V168.824C244.508 168.728 244.675 168.488 244.748 168.152L241.556 167.816V171.728H231.979L232.195 172.424H241.556V177.656C239.731 182.12 235.771 186.272 231.595 188.528L231.787 188.888C235.627 187.4 239.155 184.88 241.556 182.192V190.064H242.011C242.876 190.064 243.86 189.488 243.86 189.2V179.312C245.516 183.8 248.324 186.992 252.115 188.816C252.404 187.712 253.123 186.992 254.036 186.8L254.084 186.536C250.795 185.576 247.556 183.464 245.371 180.656C246.595 179.816 247.628 178.664 248.444 177.176C249.355 178.232 250.292 179.552 250.604 180.704C252.668 182.072 254.18 178.232 248.828 176.456C249.115 175.832 249.38 175.184 249.596 174.464C250.1 174.464 250.388 174.248 250.459 173.936L247.412 173.192ZM236.467 173.216C235.867 176.576 234.403 179.576 232.699 181.52L233.011 181.76C234.715 180.728 236.155 179.24 237.307 177.272C237.836 178.064 238.267 178.976 238.388 179.768C240.091 181.16 241.891 178.088 237.763 176.456C238.052 175.856 238.339 175.232 238.579 174.584C239.083 174.608 239.395 174.392 239.467 174.104L236.467 173.216Z" fill="#4F4F4F"/>
<path d="M22.536 244.544C22.896 244.544 23.16 244.424 23.232 244.16C22.032 243.128 20.088 241.664 20.088 241.664L18.312 243.848H12.912C13.08 241.904 13.104 239.864 13.152 237.776C13.728 237.68 13.944 237.44 14.016 237.08L9.984 236.696C9.984 239.192 10.008 241.592 9.84 243.848H0.936L1.128 244.544H9.792C9.264 250.016 7.392 254.768 0.72 258.8L0.936 259.16C9.648 255.728 12.048 250.832 12.768 245.12C13.416 249.92 15.216 255.752 20.808 259.16C21.072 257.528 21.936 256.64 23.4 256.376L23.448 256.112C16.728 253.4 13.944 248.984 13.104 244.544H22.536ZM39.192 257V253.808H43.656V257H39.192ZM43.44 253.112H39.288L36.816 252.128V259.064H37.176C38.112 259.064 39.192 258.536 39.192 258.344V257.672H43.656V258.896H44.064C44.784 258.896 45.96 258.464 45.984 258.296V254.072C46.368 254 46.656 253.832 46.776 253.664L44.52 251.984L43.44 253.112ZM43.344 248.888H37.056L37.248 249.56H45.696C46.008 249.56 46.224 249.44 46.296 249.176C45.552 248.504 44.376 247.64 44.376 247.64L43.344 248.888ZM43.392 251.048H37.128L37.32 251.72H45.744C46.056 251.72 46.272 251.6 46.344 251.336C45.6 250.664 44.424 249.824 44.424 249.824L43.392 251.048ZM36.96 246.512C38.304 246.08 39.168 245.528 39.72 244.88C40.272 245.408 40.56 246.2 40.704 246.728C40.8 246.8 40.896 246.872 40.968 246.92H36.672V242.48H38.496C38.448 243.896 38.232 245.096 36.696 246.176L36.96 246.512ZM41.52 239.48C41.232 240.224 40.848 241.112 40.464 241.808H37.032L36.504 241.544C37.2 240.896 37.8 240.2 38.352 239.48H41.52ZM28.368 243.536C29.064 243.92 29.712 244.376 30.12 244.76C30.336 244.808 30.552 244.784 30.72 244.736V247.448C29.784 247.88 28.944 248.288 28.344 248.576C28.368 247.592 28.368 246.656 28.368 245.792V243.536ZM30.72 239.072V242.864C30.24 242.576 29.496 242.408 28.368 242.552V239.072H30.72ZM44.208 242.48H46.968C47.304 242.48 47.52 242.36 47.592 242.096C46.776 241.328 45.432 240.248 45.432 240.248L44.232 241.808H41.304C42.264 241.208 43.248 240.392 43.968 239.768C44.448 239.744 44.736 239.72 44.928 239.504L42.72 237.56L41.496 238.808H38.88C39.12 238.472 39.36 238.136 39.552 237.8C40.176 237.848 40.344 237.752 40.44 237.488L36.936 236.576C36.192 239.096 34.584 242.072 32.856 243.896V239.384C33.288 239.312 33.6 239.12 33.744 238.952L31.512 237.224L30.504 238.4H28.728L26.232 237.416V245.792C26.232 250.16 26.304 255.08 24.912 258.992L25.296 259.16C27.432 256.472 28.08 252.992 28.272 249.728L28.992 251.12C29.232 250.976 29.4 250.688 29.424 250.4C29.904 249.776 30.336 249.2 30.72 248.696V255.128C30.72 255.44 30.624 255.584 30.264 255.584C29.88 255.584 28.128 255.464 28.128 255.464V255.824C29.016 255.968 29.448 256.208 29.736 256.544C29.976 256.856 30.048 257.408 30.12 258.08C32.568 257.84 32.856 256.952 32.856 255.368V244.376C33.36 244.088 33.84 243.776 34.344 243.392V247.712C34.344 251.744 33.984 255.92 31.944 258.968L32.232 259.208C35.88 256.4 36.6 251.888 36.672 247.592H46.824C47.136 247.592 47.376 247.472 47.448 247.208C46.68 246.584 45.528 245.768 45.528 245.768L44.496 246.92H41.88C42.768 246.416 42.912 244.64 39.936 244.592C40.368 243.968 40.584 243.224 40.68 242.48H42.144V243.944C42.144 245.096 42.288 245.552 43.728 245.552H44.544C46.416 245.552 47.016 245.288 47.016 244.568C47.016 244.208 46.824 244.04 46.32 243.848H46.032C45.888 243.872 45.696 243.92 45.576 243.92H44.472C44.256 243.92 44.208 243.848 44.208 243.632V242.48ZM49.56 245.048L49.752 245.72H70.944C71.304 245.72 71.568 245.6 71.64 245.336C70.536 244.376 68.664 243.032 68.664 243.032L67.032 245.048H61.848V241.256H68.856C69.216 241.256 69.456 241.136 69.528 240.872C68.424 239.936 66.6 238.592 66.6 238.592L65.016 240.56H61.848V237.68C62.472 237.56 62.664 237.32 62.712 236.984L58.968 236.672V240.56H51.816L52.008 241.256H58.968V245.048H49.56ZM61.872 250.592H69.12C69.48 250.592 69.744 250.472 69.816 250.208C68.688 249.248 66.816 247.904 66.816 247.904L65.184 249.92H61.872V246.92C62.448 246.824 62.616 246.608 62.664 246.296L59.016 245.96V255.152C57.528 254.576 56.424 253.592 55.608 252.032C56.016 251 56.28 249.944 56.496 248.912C57.072 248.888 57.336 248.672 57.408 248.336L53.64 247.712C53.376 251.288 52.272 255.848 49.2 258.896L49.416 259.112C52.416 257.504 54.216 255.152 55.32 252.68C56.976 257.384 59.904 258.512 65.352 258.512H70.44C70.488 257.384 70.92 256.4 71.832 256.184V255.896C70.272 255.944 66.912 255.944 65.448 255.944C64.128 255.944 62.928 255.896 61.872 255.776V250.592ZM91.512 248.84V256.208H86.016V246.68H90.336V248.048H90.816C91.872 248.048 93.072 247.592 93.072 247.4V239.96C93.648 239.864 93.84 239.648 93.864 239.336L90.336 239.024V246.008H86.016V237.848C86.664 237.752 86.832 237.512 86.88 237.152L83.16 236.792V246.008H79.032V239.912C79.656 239.816 79.872 239.6 79.92 239.336L76.344 239V245.72C76.056 245.936 75.768 246.224 75.6 246.44L78.36 248.072L79.2 246.68H83.16V256.208H77.904V249.68C78.528 249.584 78.744 249.392 78.792 249.128L75.168 248.768V255.944C74.88 256.136 74.592 256.424 74.4 256.64L77.208 258.296L78.072 256.904H91.512V258.92H91.992C93.024 258.92 94.248 258.44 94.248 258.248V249.776C94.824 249.68 95.016 249.464 95.04 249.176L91.512 248.84ZM115.296 247.112H110.376V242.24H118.008C118.368 242.24 118.632 242.12 118.704 241.856C117.552 240.848 115.608 239.408 115.608 239.408L113.904 241.568H110.376V237.608C111.024 237.512 111.216 237.272 111.264 236.936L107.328 236.6V241.568H99.648L99.864 242.24H107.328V247.112H97.968L98.184 247.808H106.896C105.768 250.112 102.816 253.832 100.704 255.056C100.416 255.224 99.72 255.344 99.72 255.344L101.208 258.896C101.424 258.8 101.616 258.656 101.784 258.44C107.448 257.312 111.936 256.256 114.96 255.392C115.56 256.448 116.04 257.528 116.304 258.536C119.664 260.936 121.896 253.808 111.768 250.76L111.552 250.928C112.608 251.96 113.664 253.304 114.552 254.72C109.8 255.008 105.36 255.224 102.408 255.32C105.096 253.76 108.288 251.336 109.944 249.488C110.448 249.512 110.736 249.32 110.856 249.056L107.688 247.808H119.496C119.856 247.808 120.12 247.688 120.192 247.424C119.04 246.392 117.024 244.88 117.024 244.88L115.296 247.112ZM149.999 250.568H146.735V244.544H149.999V250.568ZM153.215 243.872H152.831V238.136C153.503 238.04 153.671 237.8 153.719 237.464L149.999 237.104V243.872H146.735V237.776C147.383 237.68 147.551 237.416 147.623 237.08L143.951 236.744V243.872H140.831V238.28C141.431 238.184 141.647 237.944 141.695 237.608L137.999 237.224V243.872H134.423L134.639 244.544H137.999V256.352C137.711 256.568 137.447 256.832 137.279 257.072L140.135 258.728L140.999 257.312H155.903C156.263 257.312 156.527 257.192 156.599 256.928C155.519 255.896 153.671 254.408 153.671 254.408L152.039 256.616H140.831V244.544H143.951V253.64H144.455C145.535 253.64 146.735 253.064 146.735 252.8V251.24H149.999V253.064H150.527C151.607 253.064 152.831 252.488 152.831 252.248V244.544H156.647C156.983 244.544 157.247 244.424 157.295 244.16C156.335 243.224 154.703 241.856 154.703 241.856L153.215 243.872ZM164.639 242.672H168.551V246.056H164.639V242.672ZM168.551 238.784V242H164.639V238.784H168.551ZM175.415 238.784V242H171.287V238.784H175.415ZM171.287 246.056V242.672H175.415V246.056H171.287ZM175.415 246.752V247.76H175.895C176.831 247.76 178.223 247.256 178.247 247.064V239.24C178.751 239.144 179.039 238.928 179.207 238.736L176.471 236.648L175.175 238.088H164.831L161.855 236.912V248.024H162.263C163.439 248.024 164.639 247.424 164.639 247.136V246.752H166.247C164.687 249.104 162.047 251.12 158.687 252.416L158.855 252.752C161.279 252.224 163.439 251.504 165.239 250.544V252.248C165.239 254.672 164.375 257.216 159.431 258.92L159.575 259.184C166.655 257.888 167.927 255.056 167.999 252.296V250.304C168.551 250.232 168.743 249.992 168.767 249.704L166.919 249.512C168.047 248.72 168.983 247.808 169.727 246.752H171.839C172.319 247.784 172.943 248.672 173.687 249.464L172.007 249.296V259.136H172.559C173.471 259.136 174.767 258.608 174.767 258.392V250.424C176.039 251.456 177.551 252.248 179.231 252.872C179.495 251.504 180.191 250.592 181.247 250.304L181.271 250.016C178.055 249.632 174.407 248.648 172.463 246.752H175.415ZM183.287 245.048L183.479 245.72H204.671C205.031 245.72 205.295 245.6 205.367 245.336C204.263 244.376 202.391 243.032 202.391 243.032L200.759 245.048H195.575V241.256H202.583C202.943 241.256 203.183 241.136 203.255 240.872C202.151 239.936 200.327 238.592 200.327 238.592L198.743 240.56H195.575V237.68C196.199 237.56 196.391 237.32 196.439 236.984L192.695 236.672V240.56H185.543L185.735 241.256H192.695V245.048H183.287ZM195.599 250.592H202.847C203.207 250.592 203.471 250.472 203.543 250.208C202.415 249.248 200.543 247.904 200.543 247.904L198.911 249.92H195.599V246.92C196.175 246.824 196.343 246.608 196.391 246.296L192.743 245.96V255.152C191.255 254.576 190.151 253.592 189.335 252.032C189.743 251 190.007 249.944 190.223 248.912C190.799 248.888 191.063 248.672 191.135 248.336L187.367 247.712C187.103 251.288 185.999 255.848 182.927 258.896L183.143 259.112C186.143 257.504 187.943 255.152 189.047 252.68C190.703 257.384 193.631 258.512 199.079 258.512H204.167C204.215 257.384 204.647 256.4 205.559 256.184V255.896C203.999 255.944 200.639 255.944 199.175 255.944C197.855 255.944 196.655 255.896 195.599 255.776V250.592ZM208.223 237.152C209.183 238.04 210.215 239.528 210.503 240.848C213.215 242.528 215.231 237.32 208.415 237.008L208.223 237.152ZM211.271 248.12C211.991 246.968 212.975 245.336 213.575 244.328C214.055 244.328 214.463 244.232 214.727 244.088C214.415 244.808 214.103 245.48 213.791 246.056L214.079 246.248C214.655 245.768 215.231 245.264 215.783 244.664V248.48L213.623 246.728L212.183 248.12H211.271ZM220.967 241.736V245H218.519V241.736H220.967ZM220.967 248.936H218.519V245.696H220.967V248.936ZM220.967 253.208H218.519V249.632H220.967V253.208ZM215.783 255.224H216.263C217.679 255.224 218.519 254.6 218.519 254.408V253.904H228.791C229.127 253.904 229.415 253.784 229.463 253.52C228.431 252.608 226.727 251.336 226.727 251.336L225.263 253.208H223.655V249.632H227.951C228.311 249.632 228.551 249.512 228.599 249.248C227.663 248.384 226.103 247.208 226.103 247.208L224.711 248.936H223.655V245.696H227.951C228.311 245.696 228.551 245.576 228.599 245.312C227.663 244.448 226.103 243.272 226.103 243.272L224.711 245H223.655V241.736H228.287C228.623 241.736 228.887 241.616 228.959 241.352C227.951 240.488 226.367 239.288 226.367 239.288L224.927 241.04H223.199C224.495 240.536 224.831 237.848 220.607 236.528L220.367 236.648C221.015 237.704 221.639 239.264 221.639 240.632C221.855 240.824 222.071 240.968 222.311 241.04H218.831L218.591 240.944C219.095 240.104 219.527 239.216 219.959 238.304C220.511 238.328 220.823 238.112 220.895 237.8L217.127 236.624C216.599 239.096 215.759 241.712 214.847 243.848L212.519 241.736L211.295 242.96H207.503L207.719 243.656H211.151C210.551 244.832 209.591 246.464 208.847 247.592C208.511 247.712 208.151 247.904 207.911 248.072L210.119 249.608L211.007 248.792H212.303C211.919 250.64 211.079 252.776 210.047 254.312C209.231 254.816 208.031 255.608 207.143 256.088L209.063 258.8C209.231 258.68 209.327 258.536 209.255 258.32C209.759 257.096 210.431 255.8 210.839 255.08C211.055 254.648 211.319 254.6 211.679 255.032C213.719 257.528 215.831 258.512 220.967 258.512H227.855C227.999 257.408 228.671 256.4 229.799 256.16V255.872C227.015 256.016 224.711 256.04 221.903 256.04C216.719 256.064 213.863 255.704 211.967 254.168C211.775 254.048 211.631 253.952 211.463 253.928C213.167 252.512 214.463 250.736 215.159 249.032C215.447 249.008 215.639 248.96 215.783 248.912V255.224ZM247.055 242.096C246.839 244.784 246.119 247.256 245.087 249.056C244.655 248.48 244.295 247.856 244.007 247.208V241.352H252.959C253.319 241.352 253.583 241.232 253.655 240.968C252.503 240.008 250.679 238.616 250.679 238.616L249.023 240.656H244.007V237.752C244.655 237.656 244.823 237.416 244.871 237.08L241.127 236.696V240.656H231.767L231.959 241.352H241.127V246.56C239.423 251.072 235.559 255.344 231.383 257.624L231.575 257.936C235.319 256.616 238.727 254.384 241.127 251.912V259.16H241.679C242.759 259.16 244.007 258.44 244.007 258.128V248.384C245.495 252.944 247.967 256.04 251.687 257.864C251.999 256.52 252.863 255.632 253.943 255.392L253.991 255.104C250.727 254.216 247.535 252.272 245.447 249.56C246.671 248.744 247.703 247.64 248.519 246.2C249.287 247.208 250.007 248.408 250.271 249.536C252.575 251.144 254.519 246.92 248.975 245.312C249.263 244.76 249.503 244.136 249.719 243.464C250.271 243.464 250.535 243.248 250.631 242.936L247.055 242.096ZM235.943 242.12C235.391 245.504 234.047 248.552 232.463 250.544L232.751 250.76C234.455 249.776 235.919 248.36 237.095 246.488C237.431 247.184 237.695 247.952 237.743 248.648C239.663 250.304 241.919 246.992 237.695 245.408C237.983 244.856 238.247 244.256 238.487 243.632C238.991 243.632 239.303 243.416 239.399 243.104L235.943 242.12Z" fill="#4F4F4F"/>
</svg>
