<svg width="565" height="239" viewBox="0 0 565 239" fill="none" xmlns="http://www.w3.org/2000/svg">
<path d="M33.712 26.336L31.416 29.024H19.152L19.6 30.592H36.512C37.296 30.592 37.8 30.312 37.968 29.696C36.288 28.24 33.712 26.336 33.712 26.336ZM33.768 20.512L31.472 23.144H19.152L19.6 24.768H36.568C37.296 24.768 37.8 24.488 37.968 23.872C36.288 22.36 33.768 20.512 33.768 20.512ZM33.04 42.128L32.312 42.464C34.664 55.736 40.096 61.728 49.616 65.984C50.456 62.792 52.36 60.72 55.048 60.16V59.488C44.744 57.192 36.176 52.824 33.04 42.128ZM42.56 41.904H43.232C41.496 51.032 36.904 59.824 28.616 65.2L29.008 65.872C40.88 61.616 47.264 53.664 50.232 44.424C51.52 44.312 52.024 44.088 52.36 43.528L46.2 38.32L42.56 41.904ZM2.408 56.184L5.544 63.184C6.104 63.072 6.72 62.624 7.056 61.896C16.576 58.984 23.016 56.8 27.44 55.064L27.328 54.28C16.912 55.232 6.776 56.016 2.408 56.184ZM14.392 35.52H8.176V58.928L14.392 57.752V35.52ZM28.504 64.584V35.52H22.232V66.096H23.352C26.6 66.096 28.504 64.92 28.504 64.584ZM46.76 41.904H29.232L29.736 43.528H46.76V41.904ZM47.544 30.704L43.96 35.52H2.184L2.632 37.144H52.36C53.2 37.144 53.76 36.864 53.928 36.248C51.576 34.008 47.544 30.704 47.544 30.704ZM17.192 32.272V18.72H42.448V17.096H17.584L10.752 14.408V34.232H11.648C14.336 34.232 17.192 32.888 17.192 32.272ZM38.808 17.096H39.368V33.28H40.488C42.56 33.28 45.92 32.16 45.976 31.824V19.784C47.096 19.56 47.88 19.056 48.216 18.608L41.832 13.792L38.808 17.096ZM24.696 48.68H11.76V50.248H24.696V48.68ZM24.696 42.016H11.76V43.64H24.696V42.016ZM86.968 59.32V60.944H105.336V59.32H86.968ZM92.568 13.96V41.792H99.064V16.312C100.576 16.088 101.024 15.528 101.136 14.744L92.568 13.96ZM84.448 40.952V65.48H85.512C88.648 65.48 90.496 64.36 90.496 63.968V42.52H102.032V65.032H103.152C106.344 65.032 108.36 63.856 108.36 63.52V43.024C109.648 42.8 110.208 42.408 110.544 41.96L104.832 37.536L101.808 40.952H91.112L84.448 38.376V40.952ZM95.424 27.344V28.968H109.984C110.768 28.968 111.384 28.688 111.496 28.072C109.368 25.832 105.56 22.472 105.56 22.472L102.256 27.344H95.424ZM65.464 51.48C64.288 55.624 61.488 61.616 58.016 65.312L58.464 65.928C63.728 63.632 68.264 59.712 71.008 56.128C72.296 56.24 72.8 55.904 73.08 55.344L65.464 51.48ZM72.744 52.152L72.184 52.488C74.144 55.232 76.048 59.376 76.328 63.072C82.152 67.888 88.144 56.184 72.744 52.152ZM61.208 17.488V53.384H62.272C65.408 53.384 67.312 52.152 67.312 51.704V19.056H75.096V52.04H76.16C79.296 52.04 81.48 50.696 81.48 50.36V19.616C82.768 19.392 83.384 19 83.776 18.496L77.896 13.848L74.816 17.488H67.984L61.208 14.856V17.488ZM64.624 27.568V29.192H77.952V27.568H64.624ZM64.624 37.76V39.328H77.952V37.76H64.624ZM64.624 48.008V49.576H77.952V48.008H64.624ZM125.44 52.32L124.88 52.656C128.856 62.232 134.96 64.528 147.28 64.528C151.144 64.528 160.496 64.528 164.08 64.528C164.192 62.12 165.2 59.992 167.328 59.488V58.816C162.68 58.928 151.872 58.928 147.448 58.928C135.688 58.928 129.472 58.144 125.44 52.32ZM163.52 19.728L157.024 13.568C153.272 15.92 145.824 19.392 139.944 21.296L140.168 22.024C146.944 21.688 154.952 20.68 159.936 19.672C161.56 20.288 162.848 20.288 163.52 19.728ZM144.704 20.68L136.864 18.328V32.384C136.864 40.336 136.528 49.24 132.048 56.184L132.552 56.8C142.464 50.472 143.248 40.28 143.248 32.552V21.408C144.032 21.296 144.536 21.072 144.704 20.68ZM157.472 55.624V32.216H151.032V57.024H152.152C155.512 57.024 157.472 55.904 157.472 55.624ZM160.16 26.952L156.576 31.544H140.392V33.168H165.088C165.872 33.168 166.488 32.888 166.656 32.272C164.192 30.088 160.16 26.952 160.16 26.952ZM130.76 29.024L125.328 26.784C123.816 29.808 119.784 36.304 117.432 39.272L119.728 37.648C118.608 37.816 117.04 38.488 116.2 39.104L121.352 42.744L123.424 40.896H122.976C125.16 37.928 129.08 31.88 130.76 29.024ZM124.6 26.784H125.328L126 29.696C128.8 30.144 132.104 30.144 133.168 29.024L127.456 23.872L124.6 26.784ZM126.56 39.328H127.176C125.72 48.232 121.688 58.312 115.192 64.808L115.696 65.48C125.496 59.768 131.04 50.64 133.56 41.736C134.848 41.568 135.408 41.456 135.744 40.896L129.92 35.912L126.56 39.328ZM128.072 26.784H115.416L115.92 28.352H128.072V26.784ZM128.688 39.328H121.352L120.68 40.896H128.688V39.328ZM117.936 14.632L117.488 15.024C119.84 17.04 122.472 20.512 123.368 23.648C129.92 27.232 134.12 14.744 117.936 14.632ZM212.016 35.688L211.344 36.024C213.976 41.232 217.056 48.12 217.728 54C224.168 59.768 229.488 45.88 212.016 35.688ZM193.872 35.128C192.416 42.912 189.504 50.864 186.424 55.904L187.152 56.408C192.36 52.432 196.84 46.384 200.032 38.824C201.264 38.824 201.992 38.376 202.216 37.648L193.872 35.128ZM195.944 13.624C194.04 22.472 190.344 31.432 186.648 37.088L187.32 37.592C193.536 33.112 198.688 26.392 202.384 17.824C203.672 17.936 204.4 17.432 204.68 16.76L195.944 13.624ZM194.656 24.544V26.168H218.512V24.544H194.656ZM215.768 24.544C215.544 27.176 214.816 31.6 214.2 34.4L214.704 34.792C217.336 32.944 220.528 29.752 222.32 27.456C223.552 27.4 224.112 27.288 224.56 26.784L218.568 21.072L215.096 24.544H215.768ZM178.08 31.544V65.872H179.312C181.888 65.872 184.576 64.472 184.688 64.024V31.376C185.752 31.208 186.256 30.816 186.424 30.312L180.656 28.184L178.08 31.544ZM182.112 13.456C179.872 24.264 175.28 35.352 170.688 42.352L171.36 42.8C178.752 37.032 184.744 28.408 188.944 17.32C190.176 17.376 190.904 16.872 191.184 16.144L182.112 13.456ZM202.664 26.728V57.584C202.664 58.256 202.384 58.592 201.488 58.592C200.256 58.592 194.152 58.2 194.152 58.2V58.984C197.008 59.488 198.296 60.16 199.248 61.224C200.144 62.232 200.424 63.856 200.648 65.984C208.208 65.256 209.216 62.68 209.216 58.088V29.024C210.504 28.856 211.064 28.352 211.176 27.512L202.664 26.728ZM236.32 61.784V25.832H246.736V24.264H236.6L230.384 21.576V63.912H231.336C234.024 63.912 236.32 62.456 236.32 61.784ZM247.24 15.864L238.112 13.68C237.832 17.208 237.16 22.416 236.768 25.384H238.504C240.352 23.144 243.208 19.56 244.944 17.152C246.176 17.152 246.96 16.76 247.24 15.864ZM271.152 24.096H271.824C271.488 44.144 270.872 55.848 268.8 57.808C268.24 58.312 267.68 58.536 266.672 58.536C265.272 58.536 261.408 58.256 258.776 58.032L258.72 58.816C261.408 59.32 263.592 60.216 264.6 61.28C265.496 62.176 265.832 63.744 265.832 65.928C269.528 65.928 271.992 65.032 273.952 62.904C277.032 59.6 277.816 49.352 278.208 26.784C279.496 26.56 280.224 26.224 280.672 25.664L274.68 20.4L271.152 24.096ZM244.328 24.264H244.888V62.008H245.84C248.024 62.008 250.992 60.664 251.048 60.216V26.896C252.168 26.616 253.008 26.168 253.344 25.664L247.296 20.904L244.328 24.264ZM256.032 35.52L255.528 35.856C257.768 38.88 260.008 43.416 260.288 47.392C266.224 52.432 272.272 40.28 256.032 35.52ZM275.352 24.096H258.832L258.16 25.664H275.352V24.096ZM267.624 16.2L258.832 13.624C257.32 22.136 254.296 31.264 251.216 37.032L251.888 37.48C257.488 32.776 262.136 25.776 265.44 17.32C266.672 17.32 267.4 16.872 267.624 16.2ZM247.8 39.776H233.52V41.344H247.8V39.776ZM247.8 56.072H233.52V57.696H247.8V56.072ZM317.8 19.84L317.296 20.232C318.64 21.464 320.264 23.592 320.824 25.496C325.024 28.128 328.664 20.344 317.8 19.84ZM320.32 30.816C317.408 43.304 310.296 52.376 301.896 57.584L302.456 58.256C312.76 54.336 320.488 47.28 325.136 34.68C326.368 34.848 327.096 34.456 327.432 33.784L320.32 30.816ZM294.504 27.288L294.952 28.912H325.64C326.424 28.912 326.984 28.632 327.152 28.016C325.36 26.28 322.392 23.928 322.392 23.928L319.76 27.288H294.504ZM309.848 19.84C309.96 34.4 311.248 47.112 319.088 55.512C320.88 57.416 324.464 59.32 326.424 57.248C327.208 56.408 326.928 55.12 325.472 52.488L326.368 44.872L325.696 44.76C325.024 46.72 324.072 49.072 323.4 50.304C322.952 51.144 322.672 51.144 322.056 50.416C316.232 44.424 315.28 33.224 315.336 22.528C316.568 22.416 317.072 21.8 317.24 21.128L309.848 19.84ZM294.336 48.512L297.528 54.952C298.144 54.784 298.648 54.336 298.872 53.552C304.416 50.64 308.336 48.344 310.856 46.72L310.744 46.048C304.024 47.168 297.248 48.176 294.336 48.512ZM296.576 32.888V45.712H297.192C299.04 45.712 301 44.648 301 44.312V34.512H306.768V32.888H301.224L296.576 30.984V32.888ZM298.256 41.4V43.024H306.768V41.4H298.256ZM304.472 32.888V44.704H305.2C306.768 44.704 309.008 43.584 309.008 43.192V34.904C309.792 34.792 310.408 34.4 310.688 34.064L306.152 30.76L304.08 32.888H304.472ZM291.032 60.048V61.672H330.904V60.048H291.032ZM328.16 17.32V65.704H329.112C331.464 65.704 334.32 64.136 334.376 63.632V20.008C335.496 19.728 336.336 19.28 336.728 18.776L330.624 13.96L327.6 17.32H328.16ZM287.168 17.32V66.04H288.176C290.808 66.04 293.272 64.472 293.272 63.688V18.944H330.848V17.32H293.776L287.168 14.576V17.32ZM379.008 64.584V47H372.792V65.872H373.856C377.104 65.872 378.952 64.864 379.008 64.584ZM358.68 32.048L361.312 36.416C361.872 36.192 362.208 35.744 362.432 35.072C364.448 33.168 366.128 31.488 367.136 30.256L366.912 29.584C364 30.704 360.696 31.656 358.68 32.048ZM378.84 21.576L378.056 21.912C379.848 30.928 383.544 36.472 389.816 40.392C390.544 37.536 392.112 35.688 394.352 35.072L394.408 34.512C387.576 32.44 381.304 28.52 378.84 21.576ZM372.624 53.048L365.68 49.576C364.168 53.608 360.584 59.264 357 62.736L357.504 63.408C362.544 61.056 368.144 56.968 370.832 53.552C371.784 53.72 372.344 53.608 372.624 53.048ZM371.224 19.952H371.84C370.272 28.352 366.016 36.696 358.568 41.848L359.072 42.632C368.928 38.152 374.36 30.536 376.88 22.192C378.112 22.08 378.728 21.912 379.064 21.408L374.08 17.152L371.224 19.952ZM380.912 50.472L380.408 50.864C383.152 53.608 386.4 58.032 387.352 61.784C393.288 65.592 397.544 53.776 380.912 50.472ZM364.728 23.48L364.168 23.872C365.4 24.936 366.8 26.896 367.08 28.576C370.664 31.152 374.304 24.488 364.728 23.48ZM387.688 19.112H378.672L379.176 20.736H387.688V19.112ZM385.224 19.112H385.84C385.224 21.744 383.656 26.056 382.368 28.744L382.928 29.136C385.784 27.288 389.312 24.208 391.328 21.8C392.504 21.688 393.12 21.632 393.512 21.128L388.248 16.088L385.224 19.112ZM386.344 41.736L383.096 45.992H361.256L361.704 47.616H390.712C391.496 47.616 392.056 47.336 392.224 46.72C389.984 44.648 386.344 41.736 386.344 41.736ZM380.352 34.176L377.44 38.096H366.688L367.136 39.72H384.16C384.944 39.72 385.504 39.44 385.672 38.824C383.712 36.864 380.352 34.176 380.352 34.176ZM374.08 19.952H366.072L365.344 21.576H374.08V19.952ZM371.952 15.64L364.616 13.568C363.552 19.504 360.808 26.504 357.28 30.536L357.952 30.984C363.384 27.568 367.528 21.744 369.88 16.256C371.224 16.48 371.672 16.2 371.952 15.64ZM358.008 17.488H346.08V19.056H358.008V17.488ZM343.224 14.968V66.04H344.232C347.088 66.04 348.88 64.584 348.88 64.192V17.488H349.608L343.224 14.968ZM352.968 17.488H353.64C353.136 21.744 351.68 29.696 350.672 33.84C353.472 37.592 354.48 41.848 354.48 45.824C354.48 47.616 354.088 48.568 353.416 49.072C353.08 49.296 352.8 49.352 352.296 49.352C351.624 49.352 350 49.352 349.048 49.352V50.08C350.224 50.416 351.064 50.808 351.456 51.424C351.904 52.208 352.184 54.504 352.184 56.184C358.12 56.016 360.192 52.936 360.136 47.448C360.136 42.912 357.84 37.536 352.072 33.672C354.76 30.144 357.896 24.152 359.688 20.68C360.976 20.624 361.704 20.456 362.152 19.952L356.16 14.408L352.968 17.488ZM414.624 64.416V34.568H408.352V65.928H409.472C412.72 65.928 414.624 64.752 414.624 64.416ZM410.144 48.792L402.864 45.6C402.248 50.08 400.512 56.856 397.88 61.336L398.44 61.952C402.808 58.592 406.056 53.552 408.072 49.576C409.416 49.744 409.92 49.352 410.144 48.792ZM406.224 13.344L405.776 13.68C407.176 15.528 408.576 18.496 408.744 21.128C414.008 25.384 420.056 15.36 406.224 13.344ZM444.416 64.248V34.68H437.92V65.984H439.096C442.4 65.984 444.36 64.64 444.416 64.248ZM449.568 19.784L442.736 14.296C439.992 16.76 434.56 20.344 429.968 22.36L430.192 23.088C435.904 22.528 442.288 21.24 446.208 19.952C447.888 20.456 448.952 20.344 449.568 19.784ZM434.952 21.352L427.112 18.888V37.424C427.112 47.336 426.496 57.416 420.168 65.424L420.784 66.096C432.656 58.704 433.496 47.224 433.496 37.536V22.08C434.224 21.968 434.784 21.744 434.952 21.352ZM444.136 29.36L440.608 34.232H428.96V35.856H449.064C449.848 35.856 450.464 35.576 450.576 34.96C448.224 32.72 444.136 29.36 444.136 29.36ZM423.304 25.664L415.688 23.312C415.128 26.784 413.952 31.768 412.832 35.128H413.672C416.528 32.552 419.44 29.192 421.232 26.672C422.464 26.784 423.08 26.336 423.304 25.664ZM402.864 23.648L402.248 23.872C403.312 26.336 404.488 29.864 404.432 32.888C408.688 37.2 414.568 28.632 402.864 23.648ZM415.688 46.272L415.072 46.608C416.92 49.296 418.768 53.384 418.936 56.856C423.584 61 428.736 51.088 415.688 46.272ZM421.792 29.92L418.768 34.064H397.376L397.824 35.632H425.768C426.552 35.632 427.112 35.352 427.28 34.736C425.264 32.776 421.792 29.92 421.792 29.92ZM420.672 38.32L417.816 42.296H398.384L398.832 43.92H424.368C425.152 43.92 425.712 43.64 425.88 43.024C423.92 41.064 420.672 38.32 420.672 38.32ZM420.224 17.936L417.256 21.912H398.216L398.664 23.536H424.032C424.816 23.536 425.376 23.256 425.544 22.64C423.528 20.68 420.224 17.936 420.224 17.936ZM488.096 43.64H481.264C481.096 51.648 480.816 59.04 470.064 65.256L470.624 66.04C485.8 60.776 487.536 52.768 488.096 43.64ZM496.272 43.696H490.056V59.376C490.056 63.296 490.672 64.64 495.264 64.64H498.568C504.728 64.64 506.688 63.352 506.688 60.944C506.688 59.824 506.464 59.096 505.008 58.368L504.84 51.2H504.224C503.328 54.392 502.488 57.192 501.984 58.088C501.704 58.592 501.536 58.704 501.032 58.704C500.64 58.76 500.024 58.76 499.24 58.76H497.28C496.384 58.76 496.272 58.536 496.272 57.864V45.544C496.272 45.096 496.272 44.312 496.272 43.696ZM494.76 17.768H495.32V47.392H496.384C498.456 47.392 501.48 46.104 501.592 45.712V20.4C502.712 20.176 503.496 19.728 503.888 19.28L497.728 14.52L494.76 17.768ZM482.776 45.936V19.392H499.24V17.768H483.056L476.504 15.08V48.064H477.456C480.2 48.064 482.776 46.608 482.776 45.936ZM498.68 43.304H479.024V44.872H498.68V43.304ZM498.624 34.512H478.968V36.08H498.624V34.512ZM498.568 26.336H478.912V27.904H498.568V26.336ZM460.264 13.68L459.76 14.016C461.048 15.92 462.392 18.888 462.504 21.576C467.656 26.168 474.376 16.312 460.264 13.68ZM468.44 63.856V35.072L462.336 40.168V65.872H463.456C466.48 65.872 468.44 64.304 468.44 63.856ZM467.376 36.528L466.816 36.864C468.496 39.216 470.624 42.744 471.128 45.824C476 49.576 480.76 40.168 467.376 36.528ZM466.256 25.272H466.984C465.248 32.888 460.152 42.688 454.104 49.464L454.664 49.968C462.784 44.76 469.672 35.968 473.088 28.24C474.376 28.128 475.048 27.96 475.496 27.456L469.728 21.912L466.256 25.272ZM471.016 25.272H454.72L455.224 26.896H471.016V25.272ZM511.784 45.768L512.232 47.336H537.544C538.272 47.336 538.888 47.056 539.056 46.44C536.984 44.424 533.456 41.456 533.456 41.456L530.32 45.768H511.784ZM510.384 56.8L513.912 64.304C514.584 64.136 515.144 63.688 515.48 62.904C526.792 58.648 534.352 55.4 539.392 52.88L539.224 52.208C527.184 54.336 515.312 56.24 510.384 56.8ZM512.344 18.048V42.184H513.184C515.536 42.184 517.888 40.952 517.888 40.392V19.616H534.52V18.048H518.168L512.344 15.584V18.048ZM531.048 18.048V40.448H532.056C534.352 40.448 537.264 38.88 537.32 38.376V20.68C538.44 20.456 539.224 19.952 539.616 19.504L533.456 14.8L530.488 18.048H531.048ZM515.536 27.288V28.912H534.52V27.288H515.536ZM515.536 36.472V38.04H534.52V36.472H515.536ZM541.128 23.424L540.68 23.816C543.816 26 547.456 29.976 548.688 33.504C554.96 36.808 558.264 24.376 541.128 23.424ZM538.72 17.992L539.224 19.616H557.368V17.992H538.72ZM536.2 34.848L536.704 36.416H558.656V34.848H536.2ZM545.16 35.352V57.416C545.16 58.144 544.88 58.48 543.928 58.48C542.64 58.48 536.312 58.088 536.312 58.088V58.816C539.392 59.264 540.736 60.104 541.688 61.112C542.528 62.064 542.92 63.8 543.032 65.928C550.48 65.312 551.656 62.12 551.656 57.64V35.352H545.16ZM555.968 34.848C555.576 37.816 554.568 42.912 553.616 46.104L554.176 46.496C556.976 44.256 560.336 40.448 562.296 37.704C563.472 37.648 564.032 37.536 564.48 37.032L558.656 31.432L555.296 34.848H555.968ZM554.232 17.992C552.944 20.68 550.032 24.992 547.792 27.68L548.296 28.072C552.384 26.392 557.872 23.368 561.008 20.96C562.24 20.904 562.8 20.736 563.248 20.288L557.2 14.52L553.56 17.992H554.232ZM521.472 18.048V57.472L527.408 56.072V18.048H521.472Z" fill="black"/>
<path d="M0.768 106H5.808V105.504L3.456 105.28H3.072L0.768 105.504V106ZM2.304 106H4.304C4.256 104.192 4.256 102.352 4.256 100.144V99.728C4.256 97.872 4.256 96.032 4.304 94.24H2.304C2.352 96.064 2.352 97.888 2.352 99.728V100.528C2.352 102.384 2.352 104.208 2.304 106ZM3.312 100.224H10.448V99.664H3.312V100.224ZM7.92 106H12.976V105.504L10.656 105.28H10.256L7.92 105.504V106ZM9.424 106H11.44C11.392 104.192 11.392 102.352 11.392 100.528V99.728C11.392 97.872 11.392 96.032 11.44 94.24H9.424C9.488 96.064 9.488 97.888 9.488 99.728V100.144C9.488 102.384 9.488 104.208 9.424 106ZM0.768 94.752L3.072 94.944H3.456L5.808 94.752V94.24H0.768V94.752ZM7.92 94.752L10.256 94.944H10.656L12.976 94.752V94.24H7.92V94.752ZM18.3856 106.256C19.9056 106.256 21.0576 105.552 21.7456 104.352L21.4736 104.144C20.8656 104.896 20.0816 105.328 18.9616 105.328C17.2496 105.328 16.0016 104.208 16.0016 101.584C16.0016 99.104 16.9936 97.856 18.2096 97.856C19.3456 97.856 20.0496 98.72 20.0496 100.112C20.0496 100.896 19.8576 101.2 19.2336 101.2H14.9136V101.728H21.6496C21.7296 101.456 21.7616 101.152 21.7616 100.768C21.7616 98.832 20.4976 97.328 18.2736 97.328C16.0656 97.328 14.1136 98.992 14.1136 101.792C14.1136 104.72 15.8896 106.256 18.3856 106.256ZM25.5464 106.256C26.8104 106.256 27.4664 105.712 28.4264 104.656H28.9224L28.7144 103.84C27.5624 105.04 26.9704 105.36 26.3784 105.36C25.5464 105.36 25.0024 104.864 25.0024 103.888C25.0024 102.896 25.5624 102.192 26.7944 101.712C27.4184 101.488 28.3464 101.232 29.1944 101.008V100.608C28.3464 100.816 27.2264 101.088 26.3784 101.344C24.0744 102 23.2904 102.816 23.2904 104.144C23.2904 105.472 24.2504 106.256 25.5464 106.256ZM29.9464 106.24C30.7304 106.24 31.2584 105.936 31.6264 105.264L31.3544 105.04C31.0824 105.392 30.8904 105.504 30.6344 105.504C30.2504 105.504 30.0424 105.248 30.0424 104.4V100.32C30.0424 98.208 29.1304 97.328 27.1144 97.328C25.0504 97.328 23.7864 98.176 23.5304 99.552C23.6424 99.984 23.9464 100.224 24.3944 100.224C24.8744 100.224 25.2584 99.936 25.3224 99.152L25.5304 97.92L24.6664 98.32C25.4024 97.984 25.9784 97.84 26.5544 97.84C27.7864 97.84 28.2824 98.32 28.2824 100.064V104.464C28.3944 105.568 28.9064 106.24 29.9464 106.24ZM36.1742 106.256C37.3102 106.256 38.2702 105.712 38.9903 104.704H39.1502L38.8942 104.336C38.2543 105.072 37.6462 105.36 36.8942 105.36C35.5182 105.36 34.4942 104.32 34.4942 101.824C34.4942 99.168 35.6302 98.192 36.9902 98.192C37.6623 98.192 38.2702 98.48 38.9262 99.2L39.1662 98.864H39.0222C38.2702 97.792 37.4062 97.328 36.3982 97.328C34.2862 97.328 32.5742 99.056 32.5742 101.872C32.5742 104.56 34.0942 106.256 36.1742 106.256ZM38.7982 106.176L41.7902 106V105.536L40.4622 105.456V95.616L40.5103 93.136L40.2863 92.992L37.3422 93.552V93.984L38.7343 94.08V98.704L38.6702 98.864V104.656L38.7982 106.176ZM42.918 106H47.414V105.536L45.542 105.376H44.742L42.918 105.536V106ZM44.23 106H46.134C46.102 104.944 46.086 103.472 46.086 102.288V95.664L46.134 93.136L45.894 92.992L42.966 93.552V93.984L44.278 94.064V102.288C44.278 103.472 44.262 104.944 44.23 106ZM48.7212 106H52.9452V105.536L51.2332 105.376H50.4492L48.7212 105.536V106ZM49.9372 106H51.8412C51.8092 105.216 51.7932 103.392 51.7932 102.288V99.856L51.8412 97.488L51.6332 97.36L48.6092 98.112V98.512L49.9372 98.592C49.9692 99.376 50.0012 100.144 50.0012 101.216V102.288C50.0012 103.392 49.9692 105.216 49.9372 106ZM50.7852 95.52C51.3932 95.52 51.8892 95.088 51.8892 94.464C51.8892 93.856 51.3932 93.408 50.7852 93.408C50.1932 93.408 49.6972 93.856 49.6972 94.464C49.6972 95.088 50.1932 95.52 50.7852 95.52ZM54.318 106H58.51V105.536L56.83 105.376H56.03L54.318 105.536V106ZM55.518 106H57.422C57.39 105.216 57.374 103.392 57.374 102.288V99.328L57.262 97.488L57.054 97.36L54.206 98.128V98.528L55.518 98.624C55.566 99.408 55.582 100.112 55.582 101.184V102.288C55.582 103.392 55.566 105.216 55.518 106ZM59.806 106H63.998V105.536L62.286 105.376H61.486L59.806 105.536V106ZM60.99 106H62.894C62.862 105.216 62.83 103.424 62.83 102.288V100.368C62.83 98.224 61.918 97.328 60.478 97.328C59.326 97.328 58.254 97.856 57.07 99.328H56.862L56.958 99.952C58.014 98.752 59.022 98.304 59.71 98.304C60.574 98.304 61.038 98.816 61.038 100.272V102.288C61.038 103.424 61.022 105.216 60.99 106ZM69.6113 106.256C71.1313 106.256 72.2833 105.552 72.9713 104.352L72.6993 104.144C72.0913 104.896 71.3073 105.328 70.1873 105.328C68.4753 105.328 67.2273 104.208 67.2273 101.584C67.2273 99.104 68.2193 97.856 69.4353 97.856C70.5713 97.856 71.2753 98.72 71.2753 100.112C71.2753 100.896 71.0833 101.2 70.4593 101.2H66.1393V101.728H72.8753C72.9553 101.456 72.9873 101.152 72.9873 100.768C72.9873 98.832 71.7233 97.328 69.4993 97.328C67.2913 97.328 65.3393 98.992 65.3393 101.792C65.3393 104.72 67.1153 106.256 69.6113 106.256ZM86.5454 106.288C89.2014 106.288 90.8334 104.96 90.8334 102.912C90.8334 101.216 90.0334 100.304 87.6174 99.264L86.8494 98.928C85.6334 98.416 84.9294 97.776 84.9294 96.608C84.9294 95.28 85.9534 94.576 87.4094 94.576C88.3214 94.576 88.8814 94.816 89.7454 95.504L89.6494 94.928L88.7374 94.512L89.3774 97.248H90.1614L90.2574 94.848C89.4414 94.288 88.4654 93.952 87.2334 93.952C84.9614 93.952 83.2654 95.072 83.2654 97.136C83.2654 98.88 84.3054 99.904 86.3054 100.768L87.0254 101.072C88.5934 101.744 89.1054 102.336 89.1054 103.472C89.1054 104.896 88.0654 105.664 86.3854 105.664C85.2814 105.664 84.6094 105.472 83.5694 104.736L83.6974 105.296L84.5774 105.68L83.9054 102.816H83.1374L83.0414 105.36C83.8894 105.904 85.2334 106.288 86.5454 106.288ZM96.6731 106.256C98.1931 106.256 99.3451 105.552 100.033 104.352L99.7611 104.144C99.1531 104.896 98.3691 105.328 97.2491 105.328C95.5371 105.328 94.2891 104.208 94.2891 101.584C94.2891 99.104 95.2811 97.856 96.4971 97.856C97.6331 97.856 98.3371 98.72 98.3371 100.112C98.3371 100.896 98.1451 101.2 97.5211 101.2H93.2011V101.728H99.9371C100.017 101.456 100.049 101.152 100.049 100.768C100.049 98.832 98.7851 97.328 96.5611 97.328C94.3531 97.328 92.4011 98.992 92.4011 101.792C92.4011 104.72 94.1771 106.256 96.6731 106.256ZM101.465 106H105.657V105.536L103.977 105.376H103.177L101.465 105.536V106ZM102.665 106H104.569C104.537 105.216 104.521 103.392 104.521 102.288V99.28L104.409 97.488L104.201 97.36L101.353 98.128V98.528L102.665 98.624C102.713 99.408 102.729 100.112 102.729 101.168V102.288C102.729 103.392 102.713 105.216 102.665 106ZM106.809 106H110.953V105.536L109.305 105.376H108.473L106.809 105.536V106ZM107.993 106H109.865C109.833 105.216 109.801 103.424 109.801 102.288V100.368C109.801 98.224 108.969 97.328 107.497 97.328C106.249 97.328 105.209 98.032 104.233 99.328H104.009L104.121 100C105.081 98.864 105.977 98.32 106.777 98.32C107.593 98.32 108.057 98.88 108.057 100.352V102.288C108.057 103.424 108.041 105.216 107.993 106ZM112.121 106H116.265V105.536L114.585 105.376H113.753L112.121 105.536V106ZM113.273 106H115.145C115.113 105.216 115.097 103.424 115.097 102.288V100.384C115.097 98.24 114.297 97.328 112.713 97.328C111.529 97.328 110.489 97.888 109.513 99.216H109.257L109.385 99.92C110.361 98.784 111.225 98.32 112.009 98.32C112.873 98.32 113.337 98.8 113.337 100.352V102.288C113.337 103.424 113.321 105.216 113.273 106ZM117.564 106H121.788V105.536L120.076 105.376H119.292L117.564 105.536V106ZM118.78 106H120.684C120.652 105.216 120.636 103.392 120.636 102.288V99.856L120.684 97.488L120.476 97.36L117.452 98.112V98.512L118.78 98.592C118.812 99.376 118.844 100.144 118.844 101.216V102.288C118.844 103.392 118.812 105.216 118.78 106ZM119.628 95.52C120.236 95.52 120.732 95.088 120.732 94.464C120.732 93.856 120.236 93.408 119.628 93.408C119.036 93.408 118.54 93.856 118.54 94.464C118.54 95.088 119.036 95.52 119.628 95.52ZM123.195 106H125.755V105.28H125.547L123.195 105.504V106ZM124.747 106H126.731C126.667 104.16 126.667 102.288 126.667 100.064V99.744C126.667 97.84 126.667 96.032 126.731 94.24H124.747C124.795 96.048 124.795 97.856 124.795 99.68V100.416C124.795 102.304 124.795 104.176 124.747 106ZM125.755 106H127.995C131.675 106 132.875 104.4 132.875 102.784C132.875 101.072 131.611 99.872 128.491 99.728L128.427 99.872C131.227 99.584 132.219 98.384 132.219 97.024C132.219 95.392 131.051 94.24 128.267 94.24H125.755V94.8H127.739C129.627 94.8 130.379 95.632 130.379 97.056C130.379 98.672 129.435 99.6 127.515 99.6H125.755V100.128H127.675C129.915 100.128 130.923 101.024 130.923 102.8C130.923 104.528 129.803 105.456 127.899 105.456H125.755V106ZM123.195 94.752L125.547 94.944H125.755V94.24H123.195V94.752ZM134.022 106H138.518V105.536L136.646 105.376H135.846L134.022 105.536V106ZM135.334 106H137.238C137.206 104.944 137.19 103.472 137.19 102.288V95.664L137.238 93.136L136.998 92.992L134.07 93.552V93.984L135.382 94.064V102.288C135.382 103.472 135.366 104.944 135.334 106ZM144.065 106.256C146.417 106.256 148.273 104.656 148.273 101.776C148.273 98.896 146.305 97.328 144.065 97.328C141.825 97.328 139.873 98.912 139.873 101.776C139.873 104.624 141.697 106.256 144.065 106.256ZM144.065 105.728C142.641 105.728 141.793 104.4 141.793 101.792C141.793 99.184 142.641 97.856 144.065 97.856C145.473 97.856 146.321 99.184 146.321 101.792C146.321 104.4 145.473 105.728 144.065 105.728ZM153.492 106.256C154.628 106.256 155.588 105.712 156.308 104.704H156.468L156.212 104.336C155.572 105.072 154.964 105.36 154.212 105.36C152.836 105.36 151.812 104.32 151.812 101.824C151.812 99.168 152.948 98.192 154.308 98.192C154.98 98.192 155.588 98.48 156.244 99.2L156.484 98.864H156.34C155.588 97.792 154.724 97.328 153.716 97.328C151.604 97.328 149.892 99.056 149.892 101.872C149.892 104.56 151.412 106.256 153.492 106.256ZM156.116 106.176L159.108 106V105.536L157.78 105.456V95.616L157.828 93.136L157.604 92.992L154.66 93.552V93.984L156.052 94.08V98.704L155.988 98.864V104.656L156.116 106.176Z" fill="#4F4F4F"/>
<path d="M0.72 189H5.984V188.488L3.536 188.248H3.088L0.72 188.488V189ZM2.192 189H4.56C4.512 187.16 4.512 185.304 4.512 183.16V182.712C4.512 180.84 4.512 178.968 4.56 177.16H2.192C2.224 179 2.224 180.84 2.224 182.712V183.464C2.224 185.336 2.224 187.208 2.192 189ZM3.376 183.224H10.448V182.648H3.376V183.224ZM7.824 189H13.104V188.488L10.688 188.248H10.256L7.824 188.488V189ZM9.248 189H11.632C11.584 187.16 11.584 185.304 11.584 183.464V182.712C11.584 180.84 11.584 178.968 11.632 177.16H9.248C9.312 179 9.312 180.84 9.312 182.712V183.16C9.312 185.336 9.312 187.208 9.248 189ZM0.72 177.688L3.088 177.896H3.536L5.984 177.688V177.16H0.72V177.688ZM7.824 177.688L10.256 177.896H10.688L13.104 177.688V177.16H7.824V177.688ZM18.5441 189.272C20.1281 189.272 21.3121 188.536 22.0001 187.256L21.7121 187.032C21.1361 187.8 20.4001 188.248 19.2641 188.248C17.6001 188.248 16.3841 187.128 16.3841 184.488C16.3841 181.896 17.2641 180.712 18.3521 180.712C19.3601 180.712 20.0161 181.512 20.0161 182.92C20.0161 183.8 19.8081 184.136 19.1361 184.136H15.0561V184.68H21.9361C22.0161 184.392 22.0481 184.104 22.0481 183.72C22.0481 181.736 20.7681 180.184 18.4321 180.184C16.1601 180.184 14.1121 181.832 14.1121 184.712C14.1121 187.672 15.9521 189.272 18.5441 189.272ZM25.7647 189.272C27.0608 189.272 27.7007 188.712 28.6287 187.688H29.1887L28.9488 186.84C27.8607 188.008 27.3007 188.28 26.7887 188.28C26.0047 188.28 25.4767 187.8 25.4767 186.84C25.4767 185.768 26.0687 185.048 27.2207 184.584C27.7807 184.376 28.7087 184.136 29.5728 183.912V183.496C28.7087 183.704 27.5408 183.992 26.7087 184.248C24.2607 184.92 23.4767 185.736 23.4767 187.128C23.4767 188.472 24.4367 189.272 25.7647 189.272ZM30.2448 189.256C31.1407 189.256 31.7008 188.92 32.0848 188.152L31.8127 187.928C31.5247 188.344 31.3488 188.472 31.0928 188.472C30.7407 188.472 30.5648 188.232 30.5648 187.496V183.304C30.5648 181.096 29.6368 180.184 27.5087 180.184C25.2527 180.184 23.9247 181.08 23.7327 182.504C23.8447 182.984 24.1967 183.24 24.7087 183.24C25.2367 183.24 25.7007 182.904 25.7487 181.976L25.9247 180.744L24.9167 181.144C25.6847 180.84 26.2287 180.712 26.7887 180.712C28.0208 180.712 28.4527 181.208 28.4527 182.904V187.512C28.5807 188.584 29.1407 189.256 30.2448 189.256ZM36.5961 189.272C37.7481 189.272 38.7241 188.712 39.4441 187.72H39.6041L39.3001 187.4C38.7401 188.024 38.1961 188.264 37.5241 188.264C36.2121 188.264 35.2361 187.272 35.2361 184.728C35.2361 182.056 36.3081 181.16 37.6041 181.16C38.2121 181.16 38.7561 181.4 39.3481 182.024L39.6201 181.752H39.4601C38.7401 180.664 37.8921 180.184 36.8201 180.184C34.7081 180.184 32.9321 181.944 32.9321 184.792C32.9321 187.576 34.5161 189.272 36.5961 189.272ZM39.2201 189.192L42.4041 189V188.536L41.2201 188.456V178.568L41.2681 176.056L41.0281 175.912L37.7801 176.52V176.952L39.1401 177.048V181.512L39.0601 181.688V187.704L39.2201 189.192ZM43.5274 189H48.1834V188.536L46.3274 188.36H45.3194L43.5274 188.536V189ZM44.7434 189H46.9994C46.9514 187.896 46.9354 186.456 46.9354 185.256V178.6L46.9994 176.056L46.7594 175.912L43.5274 176.52V176.952L44.7914 177.048V185.256C44.7914 186.456 44.7754 187.896 44.7434 189ZM49.4709 189H53.8869V188.536L52.1589 188.36H51.1669L49.4709 188.536V189ZM50.5909 189H52.8629C52.8149 188.2 52.7989 186.36 52.7989 185.256V182.808L52.8469 180.344L52.6549 180.2L49.3269 181.048V181.448L50.5909 181.544C50.6229 182.312 50.6389 183.016 50.6389 184.072V185.256C50.6389 186.36 50.6229 188.2 50.5909 189ZM51.6309 178.52C52.3189 178.52 52.8629 178.04 52.8629 177.352C52.8629 176.68 52.3189 176.184 51.6309 176.184C50.9589 176.184 50.4149 176.68 50.4149 177.352C50.4149 178.04 50.9589 178.52 51.6309 178.52ZM55.145 189H59.545V188.536L57.849 188.36H56.841L55.145 188.536V189ZM56.281 189H58.537C58.505 188.2 58.489 186.36 58.489 185.256V182.152L58.377 180.344L58.169 180.2L55.033 181.08V181.48L56.281 181.592C56.313 182.36 56.329 182.984 56.329 184.04V185.256C56.329 186.36 56.313 188.2 56.281 189ZM60.681 189H65.065V188.536L63.337 188.36H62.345L60.681 188.536V189ZM61.785 189H64.041C64.009 188.2 63.977 186.408 63.977 185.256V183.24C63.977 181.128 63.001 180.184 61.529 180.184C60.361 180.184 59.337 180.68 58.137 182.2H57.897L57.977 182.872C58.953 181.736 59.945 181.256 60.601 181.256C61.401 181.256 61.833 181.736 61.833 183.096V185.256C61.833 186.408 61.817 188.2 61.785 189ZM70.7541 189.272C72.3381 189.272 73.5221 188.536 74.2101 187.256L73.9221 187.032C73.3461 187.8 72.6101 188.248 71.4741 188.248C69.8101 188.248 68.5941 187.128 68.5941 184.488C68.5941 181.896 69.4741 180.712 70.5621 180.712C71.5701 180.712 72.2261 181.512 72.2261 182.92C72.2261 183.8 72.0181 184.136 71.3461 184.136H67.2661V184.68H74.1461C74.2261 184.392 74.2581 184.104 74.2581 183.72C74.2581 181.736 72.9781 180.184 70.6421 180.184C68.3701 180.184 66.3221 181.832 66.3221 184.712C66.3221 187.672 68.1621 189.272 70.7541 189.272ZM84.0544 189H86.7264V188.248H86.5024L84.0544 188.488V189ZM85.5424 189H87.8784C87.8304 187.128 87.8304 185.224 87.8304 183.032V182.696C87.8304 180.792 87.8304 178.968 87.8784 177.16H85.5424C85.5904 178.984 85.5904 180.808 85.5904 182.648V183.32C85.5904 185.24 85.5904 187.144 85.5424 189ZM86.7264 189H88.9664C92.9344 189 94.1024 187.336 94.1024 185.736C94.1024 183.992 92.8064 182.824 89.5584 182.648L89.5104 182.808C92.4704 182.488 93.4304 181.288 93.4304 179.944C93.4304 178.328 92.2944 177.16 89.3664 177.16H86.7264V177.736H88.7744C90.5344 177.736 91.2544 178.568 91.2544 180.008C91.2544 181.624 90.3584 182.536 88.5664 182.536H86.7264V183.096H88.7104C90.8224 183.096 91.7824 183.96 91.7824 185.768C91.7824 187.512 90.6944 188.44 88.8864 188.44H86.7264V189ZM84.0544 177.688L86.5024 177.896H86.7264V177.16H84.0544V177.688ZM99.8606 189.272C102.389 189.272 104.229 187.56 104.229 184.696C104.229 181.816 102.229 180.184 99.8606 180.184C97.5086 180.184 95.5246 181.848 95.5246 184.696C95.5246 187.528 97.3326 189.272 99.8606 189.272ZM99.8606 188.728C98.5806 188.728 97.8286 187.4 97.8286 184.712C97.8286 182.024 98.5806 180.712 99.8606 180.712C101.173 180.712 101.909 182.024 101.909 184.712C101.909 187.4 101.173 188.728 99.8606 188.728ZM105.542 189H110.198V188.536L108.342 188.36H107.334L105.542 188.536V189ZM106.758 189H109.014C108.966 187.896 108.95 186.456 108.95 185.256V178.6L109.014 176.056L108.774 175.912L105.542 176.52V176.952L106.806 177.048V185.256C106.806 186.456 106.79 187.896 106.758 189ZM115.149 189.272C116.301 189.272 117.277 188.712 117.997 187.72H118.157L117.853 187.4C117.293 188.024 116.749 188.264 116.077 188.264C114.765 188.264 113.789 187.272 113.789 184.728C113.789 182.056 114.861 181.16 116.157 181.16C116.765 181.16 117.309 181.4 117.901 182.024L118.173 181.752H118.013C117.293 180.664 116.445 180.184 115.373 180.184C113.261 180.184 111.485 181.944 111.485 184.792C111.485 187.576 113.069 189.272 115.149 189.272ZM117.773 189.192L120.957 189V188.536L119.773 188.456V178.568L119.821 176.056L119.581 175.912L116.333 176.52V176.952L117.693 177.048V181.512L117.613 181.688V187.704L117.773 189.192Z" fill="#4F4F4F"/>
<path d="M19.712 129.416L18.496 130.792H10.688L10.944 131.72H21.152C21.568 131.72 21.856 131.56 21.952 131.208C21.088 130.408 19.712 129.416 19.712 129.416ZM19.712 126.024L18.528 127.4H10.72L10.976 128.328H21.152C21.6 128.328 21.888 128.168 21.952 127.816C21.088 127.016 19.712 126.024 19.712 126.024ZM18.816 138.248L18.336 138.504C19.744 145.704 22.944 149.32 28.576 151.656C28.992 150.184 29.92 149.224 31.168 148.968L31.2 148.616C25.184 147.176 20.544 144.328 18.816 138.248ZM24.704 138.152H25.056C23.936 143.304 21.056 148.168 16.096 151.08L16.352 151.496C22.944 149.064 26.528 144.616 28.288 139.464C29.024 139.432 29.344 139.336 29.536 139.016L26.496 136.392L24.704 138.152ZM1.536 146.568L3.104 149.992C3.392 149.896 3.744 149.672 3.904 149.256C9.152 147.816 12.8 146.664 15.36 145.768L15.296 145.288C9.536 145.896 3.936 146.44 1.536 146.568ZM7.808 134.504H4.896V147.688L7.808 147.144V134.504ZM15.904 150.984V134.504H12.992V151.752H13.472C15.008 151.752 15.904 151.176 15.904 150.984ZM26.816 138.152H16.448L16.736 139.08H26.816V138.152ZM27.36 132.072L25.504 134.504H1.408L1.664 135.432H29.76C30.24 135.432 30.56 135.272 30.656 134.92C29.408 133.736 27.36 132.072 27.36 132.072ZM9.344 132.744V124.872H24.672V123.944H9.568L6.336 122.6V133.672H6.784C8.032 133.672 9.344 133.032 9.344 132.744ZM22.624 123.944H22.944V133.224H23.456C24.416 133.224 25.952 132.68 25.984 132.488V125.384C26.656 125.256 27.104 125 27.328 124.744L24.128 122.312L22.624 123.944ZM14.208 142.088H6.496V143.016H14.208V142.088ZM14.208 138.248H6.496V139.176H14.208V138.248ZM49.312 147.976V148.904H60.288V147.976H49.312ZM52.992 122.248V138.056H56V123.56C56.832 123.432 57.088 123.112 57.184 122.664L52.992 122.248ZM48.096 137.608V151.496H48.576C50.016 151.496 50.912 150.92 50.912 150.728V138.536H58.752V151.304H59.264C60.704 151.304 61.696 150.696 61.696 150.536V138.728C62.368 138.632 62.72 138.44 62.912 138.152L60.064 135.944L58.624 137.608H51.296L48.096 136.36V137.608ZM54.368 129.704V130.632H62.656C63.136 130.632 63.456 130.472 63.52 130.12C62.4 128.936 60.416 127.272 60.416 127.272L58.688 129.704H54.368ZM37.568 143.688C36.864 145.992 35.232 149.256 33.248 151.272L33.536 151.656C36.352 150.28 38.752 147.944 40.16 145.96C40.896 146.056 41.184 145.896 41.344 145.576L37.568 143.688ZM41.568 144.04L41.216 144.232C42.368 145.736 43.52 148.072 43.68 150.088C46.528 152.392 49.376 146.568 41.568 144.04ZM35.168 124.104V144.648H35.616C37.088 144.648 38.016 144.04 38.016 143.816V125.032H43.104V144.04H43.584C45.024 144.04 46.08 143.368 46.08 143.208V125.288C46.816 125.192 47.168 124.968 47.392 124.68L44.448 122.344L42.976 124.104H38.4L35.168 122.824V124.104ZM36.832 129.864V130.792H44.352V129.864H36.832ZM36.832 135.688V136.616H44.352V135.688H36.832ZM36.832 141.576V142.472H44.352V141.576H36.832ZM71.744 144.2L71.36 144.424C73.824 149.64 77.408 150.824 84.448 150.824C86.624 150.824 91.808 150.824 93.856 150.824C93.888 149.736 94.4 148.776 95.456 148.52V148.136C92.864 148.168 86.976 148.2 84.512 148.2C77.76 148.2 74.112 147.72 71.744 144.2ZM93.184 125.128L89.984 122.184C87.712 123.464 83.264 125.288 79.68 126.28L79.808 126.728C83.776 126.504 88.416 125.768 91.296 125.096C92.16 125.416 92.832 125.416 93.184 125.128ZM82.112 125.992L78.368 124.808V132.904C78.368 137.416 78.112 142.312 75.328 146.152L75.68 146.536C80.928 142.952 81.344 137.32 81.344 132.936V126.376C81.728 126.312 82.016 126.184 82.112 125.992ZM89.504 146.248V132.616H86.496V146.952H87.008C88.544 146.952 89.504 146.376 89.504 146.248ZM91.52 129.928L89.696 132.264H79.936V133.192H93.984C94.432 133.192 94.784 133.032 94.88 132.68C93.6 131.528 91.52 129.928 91.52 129.928ZM74.464 130.568L71.968 129.416C71.04 131.24 68.672 134.888 67.328 136.616L68.512 135.72C67.904 135.816 67.072 136.168 66.624 136.456L69.056 138.376L70.144 137.416H69.888C71.168 135.688 73.472 132.232 74.464 130.568ZM71.552 129.416H71.968L72.32 130.984C73.728 131.176 75.36 131.112 75.904 130.568L72.992 127.944L71.552 129.416ZM72.704 136.52H73.024C72.16 141.608 69.76 147.336 65.952 151.016L66.272 151.432C71.616 148.072 74.56 142.824 75.968 137.8C76.704 137.736 77.024 137.64 77.216 137.352L74.368 134.856L72.704 136.52ZM73.248 129.416H66.048L66.336 130.344H73.248V129.416ZM73.824 136.52H69.184L68.8 137.448H73.824V136.52ZM67.648 122.536L67.36 122.76C68.736 123.912 70.304 125.896 70.784 127.624C73.888 129.384 75.904 123.304 67.648 122.536ZM121.152 134.664L120.736 134.856C122.368 137.768 124.448 141.896 124.928 145.16C128.064 147.944 130.464 140.936 121.152 134.664ZM111.136 134.376C110.208 138.856 108.416 143.304 106.528 146.088L106.944 146.408C109.824 144.104 112.288 140.552 113.984 136.296C114.688 136.296 115.072 136.04 115.2 135.624L111.136 134.376ZM112.096 122.088C110.944 127.208 108.768 132.328 106.56 135.528L106.944 135.848C110.304 133.16 113.12 129.128 115.072 124.2C115.808 124.232 116.192 123.944 116.352 123.56L112.096 122.088ZM111.072 128.232V129.128H125.024V128.232H111.072ZM123.744 128.232C123.552 129.672 123.04 132.232 122.624 133.8L122.976 134.024C124.288 132.936 125.92 131.08 126.816 129.736C127.456 129.704 127.808 129.64 128.064 129.384L125.056 126.504L123.36 128.232H123.744ZM102.08 131.944V151.656H102.624C103.84 151.656 105.088 150.984 105.152 150.728V131.944C105.728 131.848 106.016 131.624 106.112 131.336L103.328 130.312L102.08 131.944ZM104.544 121.992C103.136 128.136 100.416 134.344 97.76 138.312L98.176 138.6C102.112 135.208 105.376 130.088 107.68 123.976C108.384 124.008 108.8 123.72 108.928 123.336L104.544 121.992ZM116.096 129.512V147.528C116.096 147.976 115.904 148.136 115.36 148.136C114.656 148.136 111.136 147.912 111.136 147.912V148.392C112.736 148.616 113.536 148.968 114.048 149.48C114.528 149.96 114.72 150.696 114.816 151.688C118.624 151.336 119.104 149.992 119.104 147.752V130.792C119.872 130.664 120.16 130.376 120.256 129.928L116.096 129.512ZM134.656 149.576V128.872H141.344V127.944H134.816L131.84 126.632V150.6H132.32C133.6 150.6 134.656 149.928 134.656 149.576ZM140.704 123.112L136.288 122.056C136.032 124.072 135.552 126.984 135.264 128.616H136.16C137.12 127.336 138.56 125.256 139.424 123.848C140.128 123.848 140.544 123.624 140.704 123.112ZM155.392 127.88H155.776C155.552 139.368 155.168 146.44 153.952 147.592C153.632 147.944 153.344 148.04 152.736 148.04C151.968 148.04 149.728 147.848 148.224 147.72L148.192 148.2C149.632 148.488 150.944 148.936 151.488 149.448C152 149.896 152.16 150.664 152.16 151.656C154.016 151.656 155.392 151.176 156.384 150.024C158.048 148.136 158.528 141.736 158.752 129.288C159.488 129.192 159.904 129 160.16 128.712L157.12 126.088L155.392 127.88ZM139.968 127.944H140.288V149.576H140.768C141.76 149.576 143.168 148.904 143.2 148.68V129.384C143.84 129.224 144.32 129 144.544 128.712L141.472 126.312L139.968 127.944ZM146.464 134.44L146.144 134.632C147.584 136.36 149.12 139.048 149.376 141.256C152.288 143.688 155.104 137.48 146.464 134.44ZM157.536 127.88H147.936L147.52 128.808H157.536V127.88ZM152.48 123.304L148.192 122.056C147.232 126.952 145.376 132.008 143.52 135.272L143.936 135.56C146.944 132.84 149.472 128.712 151.232 123.944C151.968 123.976 152.352 123.688 152.48 123.304ZM141.824 136.84H133.344V137.768H141.824V136.84ZM141.824 146.184H133.344V147.112H141.824V146.184ZM181.44 125.512L181.12 125.8C182.016 126.44 183.04 127.656 183.424 128.712C185.568 129.96 187.232 125.928 181.44 125.512ZM183.392 132.04C181.6 138.984 177.568 144.04 172.864 146.92L173.216 147.336C178.752 145.032 183.104 140.904 185.664 133.992C186.368 134.088 186.752 133.832 186.944 133.48L183.392 132.04ZM168.064 129.8L168.32 130.728H186.336C186.784 130.728 187.104 130.568 187.2 130.216C186.24 129.256 184.64 128.008 184.64 128.008L183.264 129.8H168.064ZM177.248 125.48C177.344 133.928 178.304 141.256 182.912 145.864C183.968 146.952 185.824 147.912 186.752 146.856C187.136 146.44 187.008 145.832 186.176 144.52L186.656 140.296L186.272 140.2C185.92 141.32 185.408 142.632 185.088 143.304C184.832 143.816 184.672 143.848 184.288 143.4C180.64 139.944 179.904 133.224 179.904 126.92C180.608 126.888 180.896 126.568 180.992 126.184L177.248 125.48ZM167.936 142.28L169.6 145.416C169.92 145.32 170.208 145.064 170.336 144.648C173.728 143.176 176.192 141.96 177.792 141.128L177.728 140.712C173.728 141.416 169.696 142.056 167.936 142.28ZM169.472 133.096V140.424H169.824C170.72 140.424 171.68 139.912 171.68 139.72V134.024H175.52V133.096H171.84L169.472 132.104V133.096ZM170.304 137.896V138.824H175.424V137.896H170.304ZM174.272 133.096V139.816H174.624C175.392 139.816 176.512 139.272 176.512 139.048V134.216C176.992 134.152 177.376 133.928 177.504 133.736L175.136 131.976L174.048 133.096H174.272ZM166.08 148.456V149.384H189.216V148.456H166.08ZM187.904 124.04V151.496H188.352C189.408 151.496 190.784 150.76 190.816 150.504V125.48C191.456 125.352 191.936 125.096 192.16 124.808L189.088 122.376L187.584 124.04H187.904ZM164.352 124.04V151.752H164.832C166.112 151.752 167.232 150.984 167.232 150.6V124.968H189.248V124.04H167.488L164.352 122.696V124.04ZM216.224 150.984V141H213.312V151.656H213.792C215.296 151.656 216.192 151.144 216.224 150.984ZM204.736 132.648L206.176 134.856C206.464 134.76 206.656 134.504 206.752 134.12C208.096 133.096 209.184 132.136 209.856 131.432L209.696 131.016C207.936 131.752 205.952 132.392 204.736 132.648ZM216.352 126.248L215.872 126.472C216.96 131.592 219.264 135.08 222.976 137.352C223.36 136.04 224.096 135.208 225.184 134.984L225.216 134.632C221.216 133.224 217.728 130.44 216.352 126.248ZM212.736 144.328L209.248 142.6C208.288 144.872 206.176 147.88 204.064 149.736L204.352 150.184C207.136 148.84 210.176 146.536 211.648 144.616C212.224 144.712 212.576 144.648 212.736 144.328ZM212.256 125.512H212.608C211.616 130.344 209.12 135.176 204.8 138.184L205.12 138.632C210.56 135.944 213.568 131.464 215.008 126.728C215.712 126.696 216.064 126.6 216.288 126.312L213.76 124.072L212.256 125.512ZM217.824 143.016L217.504 143.272C219.2 144.808 221.216 147.4 221.824 149.48C224.736 151.368 226.688 145.384 217.824 143.016ZM208.064 127.496L207.744 127.752C208.608 128.36 209.6 129.512 209.888 130.472C211.744 131.72 213.376 128.232 208.064 127.496ZM221.888 125.064H216.608L216.896 125.992H221.888V125.064ZM220.576 125.064H220.96C220.48 126.696 219.36 129.256 218.432 130.856L218.784 131.112C220.448 129.928 222.464 127.976 223.552 126.472C224.192 126.408 224.544 126.376 224.8 126.12L222.112 123.528L220.576 125.064ZM220.928 138.248L219.264 140.424H206.432L206.688 141.352H223.104C223.552 141.352 223.872 141.192 223.968 140.84C222.816 139.72 220.928 138.248 220.928 138.248ZM217.504 133.832L216 135.816H209.536L209.792 136.744H219.392C219.84 136.744 220.16 136.584 220.224 136.232C219.232 135.208 217.504 133.832 217.504 133.832ZM213.664 125.512H208.8L208.384 126.44H213.664V125.512ZM211.936 123.176L208.256 122.024C207.584 125.352 205.984 129.352 204 131.656L204.384 131.944C207.296 129.896 209.536 126.504 210.752 123.464C211.52 123.624 211.776 123.464 211.936 123.176ZM204.48 124.136H197.664V125.032H204.48V124.136ZM196.288 122.856V151.72H196.768C198.112 151.72 198.976 151.016 198.976 150.792V124.136H199.392L196.288 122.856ZM202.016 124.136H202.4C201.952 126.568 200.928 131.112 200.224 133.416C202.048 135.656 202.72 138.056 202.72 140.36C202.72 141.48 202.464 142.088 202.016 142.376C201.824 142.536 201.632 142.568 201.312 142.568C200.928 142.568 199.904 142.568 199.296 142.568V143.016C199.968 143.144 200.512 143.368 200.736 143.656C200.992 144.008 201.152 145.064 201.152 145.896C204.384 145.8 205.504 144.2 205.472 141.096C205.472 138.568 204.224 135.656 201.024 133.32C202.432 131.336 204.256 127.784 205.248 125.8C205.984 125.768 206.4 125.672 206.656 125.416L203.648 122.536L202.016 124.136ZM236.576 150.92V133.928H233.664V151.688H234.176C235.68 151.688 236.576 151.112 236.576 150.92ZM234.048 141.928L230.368 140.36C229.952 142.856 228.864 146.6 227.296 149.064L227.648 149.448C230.016 147.496 231.776 144.584 232.864 142.376C233.6 142.472 233.888 142.28 234.048 141.928ZM232.48 121.864L232.192 122.056C233.024 123.08 233.92 124.776 234.112 126.216C236.672 128.264 239.456 123.304 232.48 121.864ZM253.408 150.856V133.768H250.4V151.72H250.912C252.48 151.72 253.408 151.048 253.408 150.856ZM256.64 125.192L253.312 122.504C251.616 123.816 248.224 125.736 245.44 126.76L245.568 127.208C248.864 126.856 252.576 126.024 254.88 125.256C255.744 125.544 256.32 125.512 256.64 125.192ZM247.872 126.312L244.128 125.096V135.56C244.128 141.192 243.712 146.888 240.096 151.368L240.48 151.752C246.624 147.528 247.104 141.064 247.104 135.592V126.696C247.488 126.632 247.776 126.536 247.872 126.312ZM254.08 131.176L252.256 133.608H245.024V134.536H256.544C256.96 134.536 257.312 134.376 257.376 134.024C256.16 132.84 254.08 131.176 254.08 131.176ZM241.632 128.808L237.792 127.592C237.408 129.576 236.672 132.36 235.968 134.216H236.512C238.016 132.744 239.52 130.824 240.416 129.384C241.12 129.448 241.504 129.192 241.632 128.808ZM230.304 127.848L229.952 128.008C230.656 129.352 231.424 131.336 231.456 133C233.568 135.112 236.352 130.696 230.304 127.848ZM237.6 140.776L237.216 140.968C238.336 142.472 239.488 144.808 239.584 146.728C241.952 148.808 244.448 143.688 237.6 140.776ZM241.12 131.496L239.52 133.64H227.136L227.392 134.568H243.2C243.648 134.568 243.936 134.408 244.032 134.056C242.944 133 241.12 131.496 241.12 131.496ZM240.576 136.36L239.072 138.408H227.648L227.904 139.336H242.496C242.944 139.336 243.264 139.176 243.36 138.824C242.304 137.8 240.576 136.36 240.576 136.36ZM240.288 124.616L238.752 126.664H227.616L227.872 127.592H242.304C242.752 127.592 243.072 127.432 243.168 127.08C242.08 126.056 240.288 124.616 240.288 124.616ZM278.656 139.176H275.456C275.328 143.592 275.008 147.784 268.608 151.272L268.96 151.72C277.376 148.712 278.336 144.2 278.656 139.176ZM283.104 139.272H280.192V148.424C280.192 150.312 280.544 150.984 282.88 150.984H284.896C288.384 150.984 289.376 150.376 289.376 149.256C289.376 148.68 289.248 148.328 288.512 148.008L288.416 143.848H288.032C287.616 145.672 287.168 147.368 286.944 147.88C286.784 148.136 286.688 148.232 286.4 148.232C286.176 148.232 285.728 148.232 285.12 148.232H283.776C283.168 148.232 283.104 148.136 283.104 147.752V140.264C283.104 140.04 283.104 139.624 283.104 139.272ZM283.104 124.296H283.424V141.384H283.904C284.896 141.384 286.304 140.776 286.336 140.552V125.736C286.976 125.608 287.456 125.352 287.68 125.096L284.576 122.664L283.104 124.296ZM275.264 140.744V125.224H285.376V124.296H275.424L272.32 122.984V141.736H272.8C274.08 141.736 275.264 141.064 275.264 140.744ZM285.056 138.952H273.568V139.88H285.056V138.952ZM285.024 133.896H273.536V134.824H285.024V133.896ZM284.992 129.192H273.504V130.12H284.992V129.192ZM263.264 122.12L262.976 122.312C263.84 123.432 264.832 125.192 264.992 126.696C267.552 128.84 270.56 123.88 263.264 122.12ZM267.456 150.632V134.088L264.576 136.52V151.656H265.12C266.528 151.656 267.456 150.888 267.456 150.632ZM266.976 135.112L266.656 135.336C267.744 136.584 269.184 138.6 269.568 140.264C272 142.024 274.144 137.256 266.976 135.112ZM266.944 128.552H267.328C266.24 132.872 263.104 138.536 259.616 142.216L259.968 142.536C264.416 139.528 268.288 134.44 270.176 130.088C270.912 130.024 271.296 129.96 271.552 129.672L268.672 126.888L266.944 128.552ZM269.28 128.552H260L260.288 129.48H269.28V128.552ZM292.544 140.36L292.8 141.288H306.816C307.232 141.288 307.584 141.128 307.648 140.776C306.56 139.688 304.768 138.216 304.768 138.216L303.168 140.36H292.544ZM291.776 147.048L293.568 150.696C293.92 150.568 294.24 150.344 294.4 149.896C300.704 147.72 305.056 145.992 308.064 144.712L307.968 144.264C301.184 145.544 294.56 146.696 291.776 147.048ZM292.928 124.456V138.12H293.344C294.464 138.12 295.584 137.512 295.584 137.224V125.384H305.312V124.456H295.744L292.928 123.272V124.456ZM303.744 124.456V137.288H304.224C305.248 137.288 306.656 136.552 306.688 136.296V125.896C307.328 125.768 307.776 125.512 308 125.256L304.896 122.856L303.424 124.456H303.744ZM294.432 129.736V130.664H305.344V129.736H294.432ZM294.432 134.984V135.912H305.344V134.984H294.432ZM309.216 127.496L308.96 127.784C310.912 129 313.312 131.304 314.048 133.352C317.152 134.984 318.56 128.584 309.216 127.496ZM307.68 124.424L307.968 125.352H318.656V124.424H307.68ZM306.4 134.12L306.688 135.016H319.392V134.12H306.4ZM312 134.344V147.496C312 147.912 311.808 148.104 311.232 148.104C310.464 148.104 306.784 147.848 306.784 147.848V148.296C308.512 148.552 309.344 148.904 309.888 149.416C310.368 149.896 310.592 150.696 310.656 151.688C314.432 151.368 315.008 149.768 315.008 147.592V134.344H312ZM318.144 134.12C317.824 135.816 317.024 138.664 316.352 140.456L316.672 140.68C318.24 139.368 320.096 137.192 321.152 135.624C321.792 135.56 322.144 135.496 322.4 135.272L319.456 132.424L317.76 134.12H318.144ZM317.248 124.424C316.416 125.96 314.464 128.52 313.12 130.024L313.44 130.28C315.648 129.224 318.72 127.368 320.352 125.96C321.056 125.928 321.44 125.832 321.696 125.608L318.656 122.696L316.864 124.424H317.248ZM298.24 124.456V147.08L301.024 146.44V124.456H298.24Z" fill="#4F4F4F"/>
<path d="M19.264 212.192L17.952 213.728H10.944L11.2 214.624H20.864C21.312 214.624 21.6 214.464 21.696 214.112C20.736 213.28 19.264 212.192 19.264 212.192ZM19.296 208.864L17.984 210.368H10.944L11.2 211.296H20.896C21.312 211.296 21.6 211.136 21.696 210.784C20.736 209.92 19.296 208.864 19.296 208.864ZM18.88 221.216L18.464 221.408C19.808 228.992 22.912 232.416 28.352 234.848C28.832 233.024 29.92 231.84 31.456 231.52V231.136C25.568 229.824 20.672 227.328 18.88 221.216ZM24.32 221.088H24.704C23.712 226.304 21.088 231.328 16.352 234.4L16.576 234.784C23.36 232.352 27.008 227.808 28.704 222.528C29.44 222.464 29.728 222.336 29.92 222.016L26.4 219.04L24.32 221.088ZM1.376 229.248L3.168 233.248C3.488 233.184 3.84 232.928 4.032 232.512C9.472 230.848 13.152 229.6 15.68 228.608L15.616 228.16C9.664 228.704 3.872 229.152 1.376 229.248ZM8.224 217.44H4.672V230.816L8.224 230.144V217.44ZM16.288 234.048V217.44H12.704V234.912H13.344C15.2 234.912 16.288 234.24 16.288 234.048ZM26.72 221.088H16.704L16.992 222.016H26.72V221.088ZM27.168 214.688L25.12 217.44H1.248L1.504 218.368H29.92C30.4 218.368 30.72 218.208 30.816 217.856C29.472 216.576 27.168 214.688 27.168 214.688ZM9.824 215.584V207.84H24.256V206.912H10.048L6.144 205.376V216.704H6.656C8.192 216.704 9.824 215.936 9.824 215.584ZM22.176 206.912H22.496V216.16H23.136C24.32 216.16 26.24 215.52 26.272 215.328V208.448C26.912 208.32 27.36 208.032 27.552 207.776L23.904 205.024L22.176 206.912ZM14.112 224.96H6.72V225.856H14.112V224.96ZM14.112 221.152H6.72V222.08H14.112V221.152ZM49.696 231.04V231.968H60.192V231.04H49.696ZM52.896 205.12V221.024H56.608V206.464C57.472 206.336 57.728 206.016 57.792 205.568L52.896 205.12ZM48.256 220.544V234.56H48.864C50.656 234.56 51.712 233.92 51.712 233.696V221.44H58.304V234.304H58.944C60.768 234.304 61.92 233.632 61.92 233.44V221.728C62.656 221.6 62.976 221.376 63.168 221.12L59.904 218.592L58.176 220.544H52.064L48.256 219.072V220.544ZM54.528 212.768V213.696H62.848C63.296 213.696 63.648 213.536 63.712 213.184C62.496 211.904 60.32 209.984 60.32 209.984L58.432 212.768H54.528ZM37.408 226.56C36.736 228.928 35.136 232.352 33.152 234.464L33.408 234.816C36.416 233.504 39.008 231.264 40.576 229.216C41.312 229.28 41.6 229.088 41.76 228.768L37.408 226.56ZM41.568 226.944L41.248 227.136C42.368 228.704 43.456 231.072 43.616 233.184C46.944 235.936 50.368 229.248 41.568 226.944ZM34.976 207.136V227.648H35.584C37.376 227.648 38.464 226.944 38.464 226.688V208.032H42.912V226.88H43.52C45.312 226.88 46.56 226.112 46.56 225.92V208.352C47.296 208.224 47.648 208 47.872 207.712L44.512 205.056L42.752 207.136H38.848L34.976 205.632V207.136ZM36.928 212.896V213.824H44.544V212.896H36.928ZM36.928 218.72V219.616H44.544V218.72H36.928ZM36.928 224.576V225.472H44.544V224.576H36.928ZM71.68 227.04L71.36 227.232C73.632 232.704 77.12 234.016 84.16 234.016C86.368 234.016 91.712 234.016 93.76 234.016C93.824 232.64 94.4 231.424 95.616 231.136V230.752C92.96 230.816 86.784 230.816 84.256 230.816C77.536 230.816 73.984 230.368 71.68 227.04ZM93.44 208.416L89.728 204.896C87.584 206.24 83.328 208.224 79.968 209.312L80.096 209.728C83.968 209.536 88.544 208.96 91.392 208.384C92.32 208.736 93.056 208.736 93.44 208.416ZM82.688 208.96L78.208 207.616V215.648C78.208 220.192 78.016 225.28 75.456 229.248L75.744 229.6C81.408 225.984 81.856 220.16 81.856 215.744V209.376C82.304 209.312 82.592 209.184 82.688 208.96ZM89.984 228.928V215.552H86.304V229.728H86.944C88.864 229.728 89.984 229.088 89.984 228.928ZM91.52 212.544L89.472 215.168H80.224V216.096H94.336C94.784 216.096 95.136 215.936 95.232 215.584C93.824 214.336 91.52 212.544 91.52 212.544ZM74.72 213.728L71.616 212.448C70.752 214.176 68.448 217.888 67.104 219.584L68.416 218.656C67.776 218.752 66.88 219.136 66.4 219.488L69.344 221.568L70.528 220.512H70.272C71.52 218.816 73.76 215.36 74.72 213.728ZM71.2 212.448H71.616L72 214.112C73.6 214.368 75.488 214.368 76.096 213.728L72.832 210.784L71.2 212.448ZM72.32 219.616H72.672C71.84 224.704 69.536 230.464 65.824 234.176L66.112 234.56C71.712 231.296 74.88 226.08 76.32 220.992C77.056 220.896 77.376 220.832 77.568 220.512L74.24 217.664L72.32 219.616ZM73.184 212.448H65.952L66.24 213.344H73.184V212.448ZM73.536 219.616H69.344L68.96 220.512H73.536V219.616ZM67.392 205.504L67.136 205.728C68.48 206.88 69.984 208.864 70.496 210.656C74.24 212.704 76.64 205.568 67.392 205.504ZM121.152 217.536L120.768 217.728C122.272 220.704 124.032 224.64 124.416 228C128.096 231.296 131.136 223.36 121.152 217.536ZM110.784 217.216C109.952 221.664 108.288 226.208 106.528 229.088L106.944 229.376C109.92 227.104 112.48 223.648 114.304 219.328C115.008 219.328 115.424 219.072 115.552 218.656L110.784 217.216ZM111.968 204.928C110.88 209.984 108.768 215.104 106.656 218.336L107.04 218.624C110.592 216.064 113.536 212.224 115.648 207.328C116.384 207.392 116.8 207.104 116.96 206.72L111.968 204.928ZM111.232 211.168V212.096H124.864V211.168H111.232ZM123.296 211.168C123.168 212.672 122.752 215.2 122.4 216.8L122.688 217.024C124.192 215.968 126.016 214.144 127.04 212.832C127.744 212.8 128.064 212.736 128.32 212.448L124.896 209.184L122.912 211.168H123.296ZM101.76 215.168V234.784H102.464C103.936 234.784 105.472 233.984 105.536 233.728V215.072C106.144 214.976 106.432 214.752 106.528 214.464L103.232 213.248L101.76 215.168ZM104.064 204.832C102.784 211.008 100.16 217.344 97.536 221.344L97.92 221.6C102.144 218.304 105.568 213.376 107.968 207.04C108.672 207.072 109.088 206.784 109.248 206.368L104.064 204.832ZM115.808 212.416V230.048C115.808 230.432 115.648 230.624 115.136 230.624C114.432 230.624 110.944 230.4 110.944 230.4V230.848C112.576 231.136 113.312 231.52 113.856 232.128C114.368 232.704 114.528 233.632 114.656 234.848C118.976 234.432 119.552 232.96 119.552 230.336V213.728C120.288 213.632 120.608 213.344 120.672 212.864L115.808 212.416ZM135.04 232.448V211.904H140.992V211.008H135.2L131.648 209.472V233.664H132.192C133.728 233.664 135.04 232.832 135.04 232.448ZM141.28 206.208L136.064 204.96C135.904 206.976 135.52 209.952 135.296 211.648H136.288C137.344 210.368 138.976 208.32 139.968 206.944C140.672 206.944 141.12 206.72 141.28 206.208ZM154.944 210.912H155.328C155.136 222.368 154.784 229.056 153.6 230.176C153.28 230.464 152.96 230.592 152.384 230.592C151.584 230.592 149.376 230.432 147.872 230.304L147.84 230.752C149.376 231.04 150.624 231.552 151.2 232.16C151.712 232.672 151.904 233.568 151.904 234.816C154.016 234.816 155.424 234.304 156.544 233.088C158.304 231.2 158.752 225.344 158.976 212.448C159.712 212.32 160.128 212.128 160.384 211.808L156.96 208.8L154.944 210.912ZM139.616 211.008H139.936V232.576H140.48C141.728 232.576 143.424 231.808 143.456 231.552V212.512C144.096 212.352 144.576 212.096 144.768 211.808L141.312 209.088L139.616 211.008ZM146.304 217.44L146.016 217.632C147.296 219.36 148.576 221.952 148.736 224.224C152.128 227.104 155.584 220.16 146.304 217.44ZM157.344 210.912H147.904L147.52 211.808H157.344V210.912ZM152.928 206.4L147.904 204.928C147.04 209.792 145.312 215.008 143.552 218.304L143.936 218.56C147.136 215.872 149.792 211.872 151.68 207.04C152.384 207.04 152.8 206.784 152.928 206.4ZM141.6 219.872H133.44V220.768H141.6V219.872ZM141.6 229.184H133.44V230.112H141.6V229.184ZM181.6 208.48L181.312 208.704C182.08 209.408 183.008 210.624 183.328 211.712C185.728 213.216 187.808 208.768 181.6 208.48ZM183.04 214.752C181.376 221.888 177.312 227.072 172.512 230.048L172.832 230.432C178.72 228.192 183.136 224.16 185.792 216.96C186.496 217.056 186.912 216.832 187.104 216.448L183.04 214.752ZM168.288 212.736L168.544 213.664H186.08C186.528 213.664 186.848 213.504 186.944 213.152C185.92 212.16 184.224 210.816 184.224 210.816L182.72 212.736H168.288ZM177.056 208.48C177.12 216.8 177.856 224.064 182.336 228.864C183.36 229.952 185.408 231.04 186.528 229.856C186.976 229.376 186.816 228.64 185.984 227.136L186.496 222.784L186.112 222.72C185.728 223.84 185.184 225.184 184.8 225.888C184.544 226.368 184.384 226.368 184.032 225.952C180.704 222.528 180.16 216.128 180.192 210.016C180.896 209.952 181.184 209.6 181.28 209.216L177.056 208.48ZM168.192 224.864L170.016 228.544C170.368 228.448 170.656 228.192 170.784 227.744C173.952 226.08 176.192 224.768 177.632 223.84L177.568 223.456C173.728 224.096 169.856 224.672 168.192 224.864ZM169.472 215.936V223.264H169.824C170.88 223.264 172 222.656 172 222.464V216.864H175.296V215.936H172.128L169.472 214.848V215.936ZM170.432 220.8V221.728H175.296V220.8H170.432ZM173.984 215.936V222.688H174.4C175.296 222.688 176.576 222.048 176.576 221.824V217.088C177.024 217.024 177.376 216.8 177.536 216.608L174.944 214.72L173.76 215.936H173.984ZM166.304 231.456V232.384H189.088V231.456H166.304ZM187.52 207.04V234.688H188.064C189.408 234.688 191.04 233.792 191.072 233.504V208.576C191.712 208.416 192.192 208.16 192.416 207.872L188.928 205.12L187.2 207.04H187.52ZM164.096 207.04V234.88H164.672C166.176 234.88 167.584 233.984 167.584 233.536V207.968H189.056V207.04H167.872L164.096 205.472V207.04ZM216.576 234.048V224H213.024V234.784H213.632C215.488 234.784 216.544 234.208 216.576 234.048ZM204.96 215.456L206.464 217.952C206.784 217.824 206.976 217.568 207.104 217.184C208.256 216.096 209.216 215.136 209.792 214.432L209.664 214.048C208 214.688 206.112 215.232 204.96 215.456ZM216.48 209.472L216.032 209.664C217.056 214.816 219.168 217.984 222.752 220.224C223.168 218.592 224.064 217.536 225.344 217.184L225.376 216.864C221.472 215.68 217.888 213.44 216.48 209.472ZM212.928 227.456L208.96 225.472C208.096 227.776 206.048 231.008 204 232.992L204.288 233.376C207.168 232.032 210.368 229.696 211.904 227.744C212.448 227.84 212.768 227.776 212.928 227.456ZM212.128 208.544H212.48C211.584 213.344 209.152 218.112 204.896 221.056L205.184 221.504C210.816 218.944 213.92 214.592 215.36 209.824C216.064 209.76 216.416 209.664 216.608 209.376L213.76 206.944L212.128 208.544ZM217.664 225.984L217.376 226.208C218.944 227.776 220.8 230.304 221.344 232.448C224.736 234.624 227.168 227.872 217.664 225.984ZM208.416 210.56L208.096 210.784C208.8 211.392 209.6 212.512 209.76 213.472C211.808 214.944 213.888 211.136 208.416 210.56ZM221.536 208.064H216.384L216.672 208.992H221.536V208.064ZM220.128 208.064H220.48C220.128 209.568 219.232 212.032 218.496 213.568L218.816 213.792C220.448 212.736 222.464 210.976 223.616 209.6C224.288 209.536 224.64 209.504 224.864 209.216L221.856 206.336L220.128 208.064ZM220.768 220.992L218.912 223.424H206.432L206.688 224.352H223.264C223.712 224.352 224.032 224.192 224.128 223.84C222.848 222.656 220.768 220.992 220.768 220.992ZM217.344 216.672L215.68 218.912H209.536L209.792 219.84H219.52C219.968 219.84 220.288 219.68 220.384 219.328C219.264 218.208 217.344 216.672 217.344 216.672ZM213.76 208.544H209.184L208.768 209.472H213.76V208.544ZM212.544 206.08L208.352 204.896C207.744 208.288 206.176 212.288 204.16 214.592L204.544 214.848C207.648 212.896 210.016 209.568 211.36 206.432C212.128 206.56 212.384 206.4 212.544 206.08ZM204.576 207.136H197.76V208.032H204.576V207.136ZM196.128 205.696V234.88H196.704C198.336 234.88 199.36 234.048 199.36 233.824V207.136H199.776L196.128 205.696ZM201.696 207.136H202.08C201.792 209.568 200.96 214.112 200.384 216.48C201.984 218.624 202.56 221.056 202.56 223.328C202.56 224.352 202.336 224.896 201.952 225.184C201.76 225.312 201.6 225.344 201.312 225.344C200.928 225.344 200 225.344 199.456 225.344V225.76C200.128 225.952 200.608 226.176 200.832 226.528C201.088 226.976 201.248 228.288 201.248 229.248C204.64 229.152 205.824 227.392 205.792 224.256C205.792 221.664 204.48 218.592 201.184 216.384C202.72 214.368 204.512 210.944 205.536 208.96C206.272 208.928 206.688 208.832 206.944 208.544L203.52 205.376L201.696 207.136ZM236.928 233.952V216.896H233.344V234.816H233.984C235.84 234.816 236.928 234.144 236.928 233.952ZM234.368 225.024L230.208 223.2C229.856 225.76 228.864 229.632 227.36 232.192L227.68 232.544C230.176 230.624 232.032 227.744 233.184 225.472C233.952 225.568 234.24 225.344 234.368 225.024ZM232.128 204.768L231.872 204.96C232.672 206.016 233.472 207.712 233.568 209.216C236.576 211.648 240.032 205.92 232.128 204.768ZM253.952 233.856V216.96H250.24V234.848H250.912C252.8 234.848 253.92 234.08 253.952 233.856ZM256.896 208.448L252.992 205.312C251.424 206.72 248.32 208.768 245.696 209.92L245.824 210.336C249.088 210.016 252.736 209.28 254.976 208.544C255.936 208.832 256.544 208.768 256.896 208.448ZM248.544 209.344L244.064 207.936V218.528C244.064 224.192 243.712 229.952 240.096 234.528L240.448 234.912C247.232 230.688 247.712 224.128 247.712 218.592V209.76C248.128 209.696 248.448 209.568 248.544 209.344ZM253.792 213.92L251.776 216.704H245.12V217.632H256.608C257.056 217.632 257.408 217.472 257.472 217.12C256.128 215.84 253.792 213.92 253.792 213.92ZM241.888 211.808L237.536 210.464C237.216 212.448 236.544 215.296 235.904 217.216H236.384C238.016 215.744 239.68 213.824 240.704 212.384C241.408 212.448 241.76 212.192 241.888 211.808ZM230.208 210.656L229.856 210.784C230.464 212.192 231.136 214.208 231.104 215.936C233.536 218.4 236.896 213.504 230.208 210.656ZM237.536 223.584L237.184 223.776C238.24 225.312 239.296 227.648 239.392 229.632C242.048 232 244.992 226.336 237.536 223.584ZM241.024 214.24L239.296 216.608H227.072L227.328 217.504H243.296C243.744 217.504 244.064 217.344 244.16 216.992C243.008 215.872 241.024 214.24 241.024 214.24ZM240.384 219.04L238.752 221.312H227.648L227.904 222.24H242.496C242.944 222.24 243.264 222.08 243.36 221.728C242.24 220.608 240.384 219.04 240.384 219.04ZM240.128 207.392L238.432 209.664H227.552L227.808 210.592H242.304C242.752 210.592 243.072 210.432 243.168 210.08C242.016 208.96 240.128 207.392 240.128 207.392ZM278.912 222.08H275.008C274.912 226.656 274.752 230.88 268.608 234.432L268.928 234.88C277.6 231.872 278.592 227.296 278.912 222.08ZM283.584 222.112H280.032V231.072C280.032 233.312 280.384 234.08 283.008 234.08H284.896C288.416 234.08 289.536 233.344 289.536 231.968C289.536 231.328 289.408 230.912 288.576 230.496L288.48 226.4H288.128C287.616 228.224 287.136 229.824 286.848 230.336C286.688 230.624 286.592 230.688 286.304 230.688C286.08 230.72 285.728 230.72 285.28 230.72H284.16C283.648 230.72 283.584 230.592 283.584 230.208V223.168C283.584 222.912 283.584 222.464 283.584 222.112ZM282.72 207.296H283.04V224.224H283.648C284.832 224.224 286.56 223.488 286.624 223.264V208.8C287.264 208.672 287.712 208.416 287.936 208.16L284.416 205.44L282.72 207.296ZM275.872 223.392V208.224H285.28V207.296H276.032L272.288 205.76V224.608H272.832C274.4 224.608 275.872 223.776 275.872 223.392ZM284.96 221.888H273.728V222.784H284.96V221.888ZM284.928 216.864H273.696V217.76H284.928V216.864ZM284.896 212.192H273.664V213.088H284.896V212.192ZM263.008 204.96L262.72 205.152C263.456 206.24 264.224 207.936 264.288 209.472C267.232 212.096 271.072 206.464 263.008 204.96ZM267.68 233.632V217.184L264.192 220.096V234.784H264.832C266.56 234.784 267.68 233.888 267.68 233.632ZM267.072 218.016L266.752 218.208C267.712 219.552 268.928 221.568 269.216 223.328C272 225.472 274.72 220.096 267.072 218.016ZM266.432 211.584H266.848C265.856 215.936 262.944 221.536 259.488 225.408L259.808 225.696C264.448 222.72 268.384 217.696 270.336 213.28C271.072 213.216 271.456 213.12 271.712 212.832L268.416 209.664L266.432 211.584ZM269.152 211.584H259.84L260.128 212.512H269.152V211.584ZM292.448 223.296L292.704 224.192H307.168C307.584 224.192 307.936 224.032 308.032 223.68C306.848 222.528 304.832 220.832 304.832 220.832L303.04 223.296H292.448ZM291.648 229.6L293.664 233.888C294.048 233.792 294.368 233.536 294.56 233.088C301.024 230.656 305.344 228.8 308.224 227.36L308.128 226.976C301.248 228.192 294.464 229.28 291.648 229.6ZM292.768 207.456V221.248H293.248C294.592 221.248 295.936 220.544 295.936 220.224V208.352H305.44V207.456H296.096L292.768 206.048V207.456ZM303.456 207.456V220.256H304.032C305.344 220.256 307.008 219.36 307.04 219.072V208.96C307.68 208.832 308.128 208.544 308.352 208.288L304.832 205.6L303.136 207.456H303.456ZM294.592 212.736V213.664H305.44V212.736H294.592ZM294.592 217.984V218.88H305.44V217.984H294.592ZM309.216 210.528L308.96 210.752C310.752 212 312.832 214.272 313.536 216.288C317.12 218.176 319.008 211.072 309.216 210.528ZM307.84 207.424L308.128 208.352H318.496V207.424H307.84ZM306.4 217.056L306.688 217.952H319.232V217.056H306.4ZM311.52 217.344V229.952C311.52 230.368 311.36 230.56 310.816 230.56C310.08 230.56 306.464 230.336 306.464 230.336V230.752C308.224 231.008 308.992 231.488 309.536 232.064C310.016 232.608 310.24 233.6 310.304 234.816C314.56 234.464 315.232 232.64 315.232 230.08V217.344H311.52ZM317.696 217.056C317.472 218.752 316.896 221.664 316.352 223.488L316.672 223.712C318.272 222.432 320.192 220.256 321.312 218.688C321.984 218.656 322.304 218.592 322.56 218.304L319.232 215.104L317.312 217.056H317.696ZM316.704 207.424C315.968 208.96 314.304 211.424 313.024 212.96L313.312 213.184C315.648 212.224 318.784 210.496 320.576 209.12C321.28 209.088 321.6 208.992 321.856 208.736L318.4 205.44L316.32 207.424H316.704ZM297.984 207.456V229.984L301.376 229.184V207.456H297.984Z" fill="#4F4F4F"/>
</svg>
