<svg width="404" height="218" viewBox="0 0 404 218" fill="none" xmlns="http://www.w3.org/2000/svg">
<path d="M10.04 13.04H30.04V22.88H32.96V10.84H7.2V22.88H10.04V13.04ZM27.96 15.36H11.8V17.32H27.96V15.36ZM27.96 21.56V19.6H11.84V21.56H27.96ZM15.96 30.04H8.6V27.32H15.96V30.04ZM8.6 37.24H15.96V39.64C13.44 39.96 10.92 40.24 8.6 40.52V37.24ZM15.96 35.04H8.6V32.28H15.96V35.04ZM37.44 27.32V24.84H2.48V27.32H5.92V40.76C4.56 40.88 3.24 41 2.12 41.12L2.4 43.8C6.16 43.32 11.04 42.76 15.96 42.12V46.08H18.76V27.32H37.44ZM32.72 32.2C31.72 34.4 30.28 36.36 28.52 38C26.84 36.32 25.44 34.4 24.48 32.2H32.72ZM34.52 29.72L34 29.8H20.28V32.2H22.56L21.88 32.4C23 35.16 24.6 37.6 26.56 39.68C24.2 41.4 21.52 42.76 18.84 43.52C19.4 44.08 20.12 45.12 20.44 45.84C23.28 44.88 26.08 43.44 28.56 41.52C30.84 43.36 33.56 44.84 36.6 45.72C37 44.96 37.8 43.92 38.36 43.36C35.44 42.64 32.8 41.4 30.6 39.76C33.12 37.28 35.16 34.24 36.36 30.48L34.52 29.72ZM54.08 18.6H46.68V13.56H54.08V18.6ZM54.08 26.04H46.68V20.96H54.08V26.04ZM54.08 33.6H46.68V28.4H54.08V33.6ZM56.92 11.08H43.96V36H56.92V11.08ZM46.4 36.88C45.52 39.72 43.8 42.48 41.88 44.36C42.56 44.76 43.72 45.6 44.24 46.08C46.2 43.96 48.08 40.76 49.24 37.56L46.4 36.88ZM51.8 37.88C53.32 39.88 54.92 42.6 55.6 44.36L58.12 43.08C57.4 41.36 55.72 38.76 54.16 36.8L51.8 37.88ZM73.88 41.48H62.4V31.28H73.88V41.48ZM78.68 20.96V18.24H69.04V9.56H66.12V28.64H59.6V46.04H62.4V44.16H73.88V45.88H76.76V28.64H69.04V20.96H78.68ZM108.4 24.04V40.6H111.4V24.04H118.56V21.28H100.56V20.44V14.28C106.48 13.88 113.04 13.12 117.44 11.76L115 9.56C111.08 10.8 103.72 11.56 97.6 11.92V20.44C97.6 25.48 97.2 32.36 93.68 37.28C94.4 37.6 95.64 38.56 96.16 39.08C99.2 34.88 100.16 29.04 100.48 24.04H108.4ZM90.2 16.44C89.68 14.8 88.76 12.16 88.04 10.16L85.36 10.92C86 12.96 86.92 15.64 87.36 17.32L90.2 16.44ZM92.04 27.96L91.56 28.08H88.2C89.32 25.36 90.64 22.04 91.64 19.2H82.68V21.88H87.96C86.84 24.96 85.52 28.32 84.44 30.68H90C89.24 33.48 88.12 36.52 86.84 38.76C85.44 39.36 83.84 41.2 82.2 43.52L84.24 46.24C85.4 43.68 86.8 41.2 87.68 41.2C88.6 41.2 90.04 42.56 91.64 43.52C94.6 45.28 98.04 45.72 103.24 45.72C107.92 45.72 115.4 45.48 118.36 45.28C118.4 44.4 118.92 43 119.24 42.2C114.84 42.68 108.4 43.04 103.32 43.04C98.6 43.04 95.04 42.76 92.28 41.04C91 40.28 90.16 39.64 89.44 39.16C91.04 36.2 92.44 32.24 93.4 28.56L92.04 27.96ZM131.88 9.68C129.6 15.76 125.92 21.72 122 25.56C122.56 26.24 123.36 27.76 123.68 28.48C125.04 27 126.44 25.36 127.72 23.52V45.96H130.56V19.08C132.12 16.36 133.52 13.48 134.68 10.52L131.88 9.68ZM139.16 26.56C138.08 31.28 136.2 36.04 133.68 39.08C134.4 39.48 135.68 40.24 136.24 40.72C138.68 37.4 140.8 32.36 142.08 27.12L139.16 26.56ZM156.08 19.96C155.76 22 155.4 24.12 155.16 25.56L157.64 26.04C158.16 23.92 158.88 20.48 159.4 17.56L157.36 17.08L156.88 17.2H140.68C141.48 15 142.2 12.68 142.8 10.36L139.88 9.72C138.56 15.56 136.24 21.28 133.32 24.96C133.96 25.4 135.2 26.4 135.68 26.84C137.12 24.96 138.44 22.6 139.56 19.96H145.64V42.44C145.64 42.96 145.48 43.12 144.96 43.12C144.44 43.12 142.72 43.16 140.84 43.08C141.24 43.92 141.72 45.24 141.88 46.08C144.4 46.08 146.08 46 147.16 45.48C148.2 45 148.56 44.12 148.56 42.44V19.96H156.08ZM151.48 27.12C153.6 31.32 155.6 36.92 156.24 40.56L159.08 39.6C158.4 35.96 156.36 30.48 154.08 26.24L151.48 27.12ZM176.32 26.96H167.92V18.6H176.32V26.96ZM167.92 39.2V29.6H176.32V39.2H167.92ZM171.28 9.44C171 11.32 170.28 14 169.68 15.92H165.2V45.04H167.92V41.88H179.04V15.92H172.4C173.08 14.2 173.8 12 174.48 10.04L171.28 9.44ZM198.6 15.8H186.64C187.32 13.92 187.88 12 188.36 10.04L185.52 9.36C184.24 14.84 182.08 20.36 179.4 23.88C180.04 24.28 181.32 25.08 181.84 25.56C183.24 23.68 184.48 21.24 185.6 18.56H195.76C195.24 34.48 194.64 40.56 193.32 41.96C192.92 42.48 192.48 42.56 191.68 42.56C190.76 42.56 188.36 42.56 185.76 42.32C186.32 43.16 186.68 44.36 186.76 45.24C189 45.36 191.28 45.44 192.68 45.28C194.04 45.16 194.96 44.8 195.84 43.68C197.44 41.72 197.96 35.56 198.6 17.32V15.8ZM192.28 33.8C191 31.44 188.24 27.6 186 24.76L183.68 26.12C185.88 29 188.56 32.96 189.76 35.36L192.28 33.8ZM232.68 17.32C231.76 16.4 229.92 15.32 228.36 14.6L226.96 16.08C228.52 16.76 230.36 18 231.24 18.88L232.68 17.32ZM222 33.48C217.52 34.28 213.08 35.08 210.04 35.56L210.44 37.8C213.72 37.2 217.96 36.36 222.12 35.56L222 33.48ZM218.52 29.96H213.92V25.96H218.52V29.96ZM211.84 24.08V31.84H220.68V24.08H211.84ZM229.6 23.4C228.92 26.12 227.92 28.6 226.64 30.76C225.96 28.2 225.48 25 225.16 21.56H233.68V19.32H224.96C224.88 17.92 224.8 16.52 224.72 15.08H222.16C222.24 16.52 222.36 17.92 222.48 19.32H210.44V21.56H222.68C223.16 26.08 223.8 30.2 224.88 33.36C223.2 35.48 221.2 37.24 218.84 38.6C219.36 39.04 220.24 40 220.6 40.48C222.56 39.2 224.32 37.68 225.88 35.88C226.96 38 228.28 39.4 230.04 39.76C232.12 40.56 233.48 38.96 234 34.6C233.44 34.36 232.56 33.76 232.08 33.28C231.8 35.84 231.4 37.56 230.84 37.4C229.52 37.2 228.44 35.84 227.6 33.72C229.52 30.96 231.04 27.68 232.04 23.92L229.6 23.4ZM208.24 41.64V14.08H235.68V41.64H208.24ZM205.4 11.36V46.16H208.24V44.32H235.68V46.16H238.6V11.36H205.4ZM265.92 14.72C265.48 16.12 264.96 17.48 264.36 18.72C263.36 17.76 262.04 16.68 260.84 15.76C261.04 15.44 261.28 15.08 261.48 14.72H265.92ZM276.84 13.84C276.04 15.76 274.84 17.88 273.6 19.52C272.64 17.72 271.84 15.8 271.24 13.84H276.84ZM261.76 21.24C259.36 21.52 257.4 21.76 255.64 21.92L256 24C257.84 23.68 259.68 23.4 261.72 23.04C260.12 25.12 258.28 26.8 256.4 27.96C256.96 28.4 257.64 29.24 258 29.8C259.48 28.88 260.92 27.64 262.24 26.2V27.92H274.6V25.64C276 27.36 277.48 28.84 279.12 29.92C279.52 29.24 280.28 28.32 280.88 27.84C278.6 26.52 276.56 24.32 274.84 21.68C276.92 19.32 278.96 15.84 280.16 12.56L278.48 11.56L278 11.68H270.48V13.48L268.8 13.92C270.04 18.2 272.04 22.28 274.44 25.44H262.88C265.52 22.32 267.64 18.12 268.76 13.08L267.2 12.52L266.76 12.6H262.56C262.92 11.76 263.24 10.96 263.52 10.08L261.2 9.56C259.92 13.4 257.68 16.96 254.96 19.32C255.52 19.68 256.52 20.44 256.92 20.84C257.92 19.88 258.88 18.72 259.76 17.48C261.08 18.48 262.44 19.68 263.32 20.68C262.88 21.48 262.36 22.24 261.8 22.96L261.76 21.24ZM254.88 11L254.44 11.16H245.64V45.96H248.24V13.84H253.36C252.56 16.52 251.44 19.96 250.32 22.84C253.08 26.04 253.76 28.76 253.76 30.96C253.76 32.16 253.56 33.28 252.92 33.72C252.64 33.96 252.24 34.08 251.76 34.12C251.12 34.16 250.36 34.12 249.48 34.08C249.92 34.8 250.16 35.88 250.2 36.6C251.04 36.68 252.04 36.64 252.84 36.56C253.56 36.44 254.28 36.24 254.84 35.8C255.88 35.04 256.36 33.32 256.36 31.16C256.36 28.72 255.68 25.84 252.88 22.52C254.16 19.32 255.6 15.36 256.72 12.12L254.88 11ZM261.24 36.12C259.84 38.4 257.8 41 255.92 42.8C256.64 43.16 257.76 43.92 258.32 44.36C260.08 42.48 262.36 39.52 263.88 37L261.24 36.12ZM278.64 34.12V31.64H258.32V34.12H267.08V46.04H269.88V34.12H278.64ZM272.88 37.12C274.84 39.32 277.36 42.36 278.64 44.12L280.88 42.6C279.6 40.88 277.04 37.96 275.04 35.84L272.88 37.12ZM302.92 13.72H296.6C296.08 12.4 295.2 10.68 294.36 9.32L291.48 10.08C292.04 11.16 292.72 12.52 293.24 13.72H285.4V16.2H302.92V13.72ZM292 21.92C291.84 20.44 291.16 18.2 290.36 16.48L288 17.04C288.68 18.8 289.32 21.12 289.52 22.6L292 21.92ZM288.48 34.16C287.68 36.76 286.28 39.48 284.72 41.36C285.32 41.68 286.32 42.44 286.8 42.8C288.28 40.8 289.96 37.68 290.92 34.84L288.48 34.16ZM303.08 32.04V29.48H295.84V25.28H303.52V22.76H298.44C299.2 21.08 299.96 18.92 300.68 17L297.96 16.44C297.48 18.28 296.56 20.92 295.8 22.76H284.76V25.28H292.92V29.48H284.96V32.04H292.92V45.92H295.84V32.04H303.08ZM297.64 35C298.84 36.92 300.28 39.68 300.92 41.4L303.04 40.2C302.36 38.48 300.96 35.88 299.68 33.92L297.64 35ZM321 22.92H308.24V15.32C312.44 14.68 317.04 13.68 320.32 12.44L317.92 10.24C315.08 11.44 309.96 12.64 305.48 13.36V27.12C305.48 32.44 305.16 39.28 301.8 44.08C302.44 44.4 303.6 45.32 304.08 45.88C307.72 40.68 308.24 32.84 308.24 27.12V25.72H313.72V45.88H316.6V25.72H321V22.92ZM335.68 14.68C335 13.24 333.4 11.16 331.92 9.68L329.72 11.08C331.12 12.6 332.68 14.8 333.36 16.28L335.68 14.68ZM340.2 31.48C339.36 30.6 336.28 27.4 334.72 25.92C336.72 23.28 338.48 20.4 339.68 17.44L338.12 16.28L337.56 16.4H325.48V19.12H336C333.44 24.08 328.8 28.88 324.4 31.52C324.84 32.04 325.52 33.56 325.76 34.36C327.6 33.16 329.48 31.6 331.28 29.76V46.04H334.2V28.92C335.72 30.6 337.52 32.72 338.32 33.88L340.2 31.48ZM344.8 26.36H356.48V30.4H344.8V26.36ZM344.8 20.04H356.48V24.04H344.8V20.04ZM344.8 13.76H356.48V17.68H344.8V13.76ZM355.56 43.24C354.72 43.24 354.6 43.12 354.6 42.2V32.84H359.32V11.28H342.04V32.84H345.68C345.16 38.36 343.68 42.04 337.32 44C337.88 44.52 338.68 45.52 338.96 46.2C345.92 43.76 347.72 39.4 348.4 32.84H351.8V42.24C351.8 45.08 352.44 45.88 355.16 45.88H358.48C360.8 45.88 361.56 44.6 361.8 39.44C361 39.24 359.88 38.76 359.28 38.32C359.16 42.72 359.04 43.24 358.2 43.24H355.56ZM369.16 20.68H373.92V25.04H369.16V20.68ZM369.16 14H373.92V18.36H369.16V14ZM381.2 18.36H376.48V14H381.2V18.36ZM381.2 25.04H376.48V20.68H381.2V25.04ZM376.64 34.76H383.8V32.04H376.64V27.52H383.8V11.52H366.64V27.52H373.76V32.04H366.56V34.76H373.76V40.56C370.56 41 367.64 41.4 365.32 41.64L365.68 44.56C370.68 43.8 377.96 42.76 384.84 41.72L384.76 39.08C382.04 39.48 379.28 39.84 376.64 40.2V34.76ZM400.2 24.28L399.72 24.4H397.28L398.12 23.52C397.24 22.64 396 21.56 394.6 20.56C397.16 18.4 399.8 15.48 401.56 12.8L399.64 11.44L399 11.6H385.12V14.28H396.92C395.68 15.96 394.08 17.72 392.52 19.12C391.2 18.2 389.84 17.4 388.52 16.76L386.64 18.56C389.6 20.08 392.84 22.4 395 24.4H384.6V27.2H391.04V42.36C391.04 42.92 390.88 43.12 390.24 43.12C389.6 43.16 387.52 43.16 385.16 43.08C385.6 43.96 386.04 45.16 386.16 46.04C389.12 46.04 391.16 46 392.36 45.52C393.6 45 393.96 44.12 393.96 42.44V27.2H398.68C398 29.56 397.12 31.96 396.4 33.56L398.84 34.24C400 31.88 401.2 28.12 402.2 24.8L400.2 24.28Z" fill="black"/>
<path d="M1.552 85H5.488C8.096 85 10 83.88 10 81.544C10 79.944 9.024 79.032 7.68 78.744V78.664C8.736 78.312 9.36 77.24 9.36 76.12C9.36 73.992 7.616 73.224 5.2 73.224H1.552V85ZM3.408 78.136V74.664H5.04C6.704 74.664 7.536 75.128 7.536 76.36C7.536 77.464 6.784 78.136 4.992 78.136H3.408ZM3.408 83.544V79.544H5.28C7.152 79.544 8.176 80.12 8.176 81.448C8.176 82.888 7.12 83.544 5.28 83.544H3.408ZM15.7439 85.208C17.9199 85.208 19.8879 83.528 19.8879 80.616C19.8879 77.672 17.9199 75.976 15.7439 75.976C13.5679 75.976 11.5999 77.672 11.5999 80.616C11.5999 83.528 13.5679 85.208 15.7439 85.208ZM15.7439 83.704C14.3679 83.704 13.5039 82.472 13.5039 80.616C13.5039 78.744 14.3679 77.496 15.7439 77.496C17.1359 77.496 17.9999 78.744 17.9999 80.616C17.9999 82.472 17.1359 83.704 15.7439 83.704ZM25.252 85.208C26.244 85.208 27.156 84.68 27.812 84.008H27.86L28.02 85H29.524V72.248H27.684V75.512L27.764 76.968C27.044 76.36 26.404 75.976 25.396 75.976C23.428 75.976 21.62 77.752 21.62 80.616C21.62 83.528 23.044 85.208 25.252 85.208ZM25.684 83.688C24.308 83.688 23.524 82.584 23.524 80.584C23.524 78.68 24.516 77.512 25.748 77.512C26.404 77.512 27.028 77.72 27.684 78.312V82.616C27.044 83.352 26.42 83.688 25.684 83.688ZM39.5541 76.2H37.7621L36.3541 80.728L35.6661 83.208H35.5861C35.3141 82.392 35.0421 81.512 34.7861 80.728L33.1541 76.2H31.2661L34.7541 84.936L34.5781 85.544C34.2581 86.488 33.6981 87.192 32.7381 87.192C32.5141 87.192 32.2581 87.112 32.0981 87.064L31.7461 88.504C32.0501 88.616 32.4021 88.68 32.8501 88.68C34.7061 88.68 35.6341 87.416 36.3221 85.528L39.5541 76.2ZM52.3407 85.208C54.9167 85.208 56.4847 83.672 56.4847 81.784C56.4847 80.056 55.4767 79.192 54.0847 78.6L52.4687 77.912C51.5087 77.528 50.5647 77.144 50.5647 76.136C50.5647 75.192 51.3487 74.616 52.5487 74.616C53.5887 74.616 54.4047 75.016 55.1407 75.672L56.1167 74.488C55.2207 73.576 53.9247 73 52.5487 73C50.3087 73 48.6767 74.392 48.6767 76.248C48.6767 77.96 49.9407 78.856 51.0767 79.336L52.7087 80.04C53.7967 80.52 54.5967 80.856 54.5967 81.928C54.5967 82.92 53.7967 83.592 52.3727 83.592C51.2367 83.592 50.0847 83.048 49.2367 82.2L48.1487 83.48C49.2207 84.568 50.7247 85.208 52.3407 85.208ZM62.3791 85.208C63.5311 85.208 64.5391 84.824 65.3551 84.28L64.7151 83.112C64.0751 83.528 63.4031 83.768 62.6191 83.768C61.0991 83.768 60.0431 82.76 59.8991 81.08H65.6111C65.6591 80.872 65.6911 80.504 65.6911 80.152C65.6911 77.656 64.4431 75.976 62.1071 75.976C60.0431 75.976 58.0911 77.752 58.0911 80.616C58.0911 83.512 59.9951 85.208 62.3791 85.208ZM59.8831 79.816C60.0591 78.264 61.0351 77.416 62.1391 77.416C63.4191 77.416 64.1071 78.296 64.1071 79.816H59.8831ZM67.922 85H69.746V78.76C70.482 77.96 71.138 77.56 71.73 77.56C72.738 77.56 73.202 78.168 73.202 79.688V85H75.042V78.76C75.778 77.96 76.418 77.56 77.026 77.56C78.018 77.56 78.498 78.168 78.498 79.688V85H80.338V79.464C80.338 77.224 79.474 75.976 77.634 75.976C76.53 75.976 75.634 76.664 74.77 77.592C74.386 76.584 73.65 75.976 72.338 75.976C71.25 75.976 70.37 76.632 69.618 77.432H69.57L69.426 76.2H67.922V85ZM83.1601 85H84.9841V76.2H83.1601V85ZM84.0721 74.552C84.7441 74.552 85.2561 74.104 85.2561 73.464C85.2561 72.808 84.7441 72.376 84.0721 72.376C83.4001 72.376 82.9041 72.808 82.9041 73.464C82.9041 74.104 83.4001 74.552 84.0721 74.552ZM88.0739 85H92.0099C94.6179 85 96.5219 83.88 96.5219 81.544C96.5219 79.944 95.5459 79.032 94.2019 78.744V78.664C95.2579 78.312 95.8819 77.24 95.8819 76.12C95.8819 73.992 94.1379 73.224 91.7219 73.224H88.0739V85ZM89.9299 78.136V74.664H91.5619C93.2259 74.664 94.0579 75.128 94.0579 76.36C94.0579 77.464 93.3059 78.136 91.5139 78.136H89.9299ZM89.9299 83.544V79.544H91.8019C93.6739 79.544 94.6979 80.12 94.6979 81.448C94.6979 82.888 93.6419 83.544 91.8019 83.544H89.9299ZM100.57 85.208C101.018 85.208 101.338 85.144 101.562 85.064L101.322 83.672C101.162 83.704 101.098 83.704 101.018 83.704C100.794 83.704 100.57 83.528 100.57 83.032V72.248H98.7458V82.936C98.7458 84.36 99.2418 85.208 100.57 85.208ZM107.191 85.208C109.367 85.208 111.335 83.528 111.335 80.616C111.335 77.672 109.367 75.976 107.191 75.976C105.015 75.976 103.047 77.672 103.047 80.616C103.047 83.528 105.015 85.208 107.191 85.208ZM107.191 83.704C105.815 83.704 104.951 82.472 104.951 80.616C104.951 78.744 105.815 77.496 107.191 77.496C108.583 77.496 109.447 78.744 109.447 80.616C109.447 82.472 108.583 83.704 107.191 83.704ZM116.7 85.208C117.692 85.208 118.604 84.68 119.26 84.008H119.308L119.468 85H120.972V72.248H119.132V75.512L119.212 76.968C118.492 76.36 117.852 75.976 116.844 75.976C114.876 75.976 113.068 77.752 113.068 80.616C113.068 83.528 114.492 85.208 116.7 85.208ZM117.132 83.688C115.756 83.688 114.972 82.584 114.972 80.584C114.972 78.68 115.964 77.512 117.196 77.512C117.852 77.512 118.476 77.72 119.132 78.312V82.616C118.492 83.352 117.868 83.688 117.132 83.688Z" fill="#4F4F4F"/>
<path d="M8.032 103.032H24.032V110.904H26.368V101.272H5.76V110.904H8.032V103.032ZM22.368 104.888H9.44V106.456H22.368V104.888ZM22.368 109.848V108.28H9.472V109.848H22.368ZM12.768 116.632H6.88V114.456H12.768V116.632ZM6.88 122.392H12.768V124.312C10.752 124.568 8.736 124.792 6.88 125.016V122.392ZM12.768 120.632H6.88V118.424H12.768V120.632ZM29.952 114.456V112.472H1.984V114.456H4.736V125.208C3.648 125.304 2.592 125.4 1.696 125.496L1.92 127.64C4.928 127.256 8.832 126.808 12.768 126.296V129.464H15.008V114.456H29.952ZM26.176 118.36C25.376 120.12 24.224 121.688 22.816 123C21.472 121.656 20.352 120.12 19.584 118.36H26.176ZM27.616 116.376L27.2 116.44H16.224V118.36H18.048L17.504 118.52C18.4 120.728 19.68 122.68 21.248 124.344C19.36 125.72 17.216 126.808 15.072 127.416C15.52 127.864 16.096 128.696 16.352 129.272C18.624 128.504 20.864 127.352 22.848 125.816C24.672 127.288 26.848 128.472 29.28 129.176C29.6 128.568 30.24 127.736 30.688 127.288C28.352 126.712 26.24 125.72 24.48 124.408C26.496 122.424 28.128 119.992 29.088 116.984L27.616 116.376ZM43.264 107.48H37.344V103.448H43.264V107.48ZM43.264 113.432H37.344V109.368H43.264V113.432ZM43.264 119.48H37.344V115.32H43.264V119.48ZM45.536 101.464H35.168V121.4H45.536V101.464ZM37.12 122.104C36.416 124.376 35.04 126.584 33.504 128.088C34.048 128.408 34.976 129.08 35.392 129.464C36.96 127.768 38.464 125.208 39.392 122.648L37.12 122.104ZM41.44 122.904C42.656 124.504 43.936 126.68 44.48 128.088L46.496 127.064C45.92 125.688 44.576 123.608 43.328 122.04L41.44 122.904ZM59.104 125.784H49.92V117.624H59.104V125.784ZM62.944 109.368V107.192H55.232V100.248H52.896V115.512H47.68V129.432H49.92V127.928H59.104V129.304H61.408V115.512H55.232V109.368H62.944ZM86.72 111.832V125.08H89.12V111.832H94.848V109.624H80.448V108.952V104.024C85.184 103.704 90.432 103.096 93.952 102.008L92 100.248C88.864 101.24 82.976 101.848 78.08 102.136V108.952C78.08 112.984 77.76 118.488 74.944 122.424C75.52 122.68 76.512 123.448 76.928 123.864C79.36 120.504 80.128 115.832 80.384 111.832H86.72ZM72.16 105.752C71.744 104.44 71.008 102.328 70.432 100.728L68.288 101.336C68.8 102.968 69.536 105.112 69.888 106.456L72.16 105.752ZM73.632 114.968L73.248 115.064H70.56C71.456 112.888 72.512 110.232 73.312 107.96H66.144V110.104H70.368C69.472 112.568 68.416 115.256 67.552 117.144H72C71.392 119.384 70.496 121.816 69.472 123.608C68.352 124.088 67.072 125.56 65.76 127.416L67.392 129.592C68.32 127.544 69.44 125.56 70.144 125.56C70.88 125.56 72.032 126.648 73.312 127.416C75.68 128.824 78.432 129.176 82.592 129.176C86.336 129.176 92.32 128.984 94.688 128.824C94.72 128.12 95.136 127 95.392 126.36C91.872 126.744 86.72 127.032 82.656 127.032C78.88 127.032 76.032 126.808 73.824 125.432C72.8 124.824 72.128 124.312 71.552 123.928C72.832 121.56 73.952 118.392 74.72 115.448L73.632 114.968ZM105.504 100.344C103.68 105.208 100.736 109.976 97.6 113.048C98.048 113.592 98.688 114.808 98.944 115.384C100.032 114.2 101.152 112.888 102.176 111.416V129.368H104.448V107.864C105.696 105.688 106.816 103.384 107.744 101.016L105.504 100.344ZM111.328 113.848C110.464 117.624 108.96 121.432 106.944 123.864C107.52 124.184 108.544 124.792 108.992 125.176C110.944 122.52 112.64 118.488 113.664 114.296L111.328 113.848ZM124.864 108.568C124.608 110.2 124.32 111.896 124.128 113.048L126.112 113.432C126.528 111.736 127.104 108.984 127.52 106.648L125.888 106.264L125.504 106.36H112.544C113.184 104.6 113.76 102.744 114.24 100.888L111.904 100.376C110.848 105.048 108.992 109.624 106.656 112.568C107.168 112.92 108.16 113.72 108.544 114.072C109.696 112.568 110.752 110.68 111.648 108.568H116.512V126.552C116.512 126.968 116.384 127.096 115.968 127.096C115.552 127.096 114.176 127.128 112.672 127.064C112.992 127.736 113.376 128.792 113.504 129.464C115.52 129.464 116.864 129.4 117.728 128.984C118.56 128.6 118.848 127.896 118.848 126.552V108.568H124.864ZM121.184 114.296C122.88 117.656 124.48 122.136 124.992 125.048L127.264 124.28C126.72 121.368 125.088 116.984 123.264 113.592L121.184 114.296ZM141.056 114.168H134.336V107.48H141.056V114.168ZM134.336 123.96V116.28H141.056V123.96H134.336ZM137.024 100.152C136.8 101.656 136.224 103.8 135.744 105.336H132.16V128.632H134.336V126.104H143.232V105.336H137.92C138.464 103.96 139.04 102.2 139.584 100.632L137.024 100.152ZM158.88 105.24H149.312C149.856 103.736 150.304 102.2 150.688 100.632L148.416 100.088C147.392 104.472 145.664 108.888 143.52 111.704C144.032 112.024 145.056 112.664 145.472 113.048C146.592 111.544 147.584 109.592 148.48 107.448H156.608C156.192 120.184 155.712 125.048 154.656 126.168C154.336 126.584 153.984 126.648 153.344 126.648C152.608 126.648 150.688 126.648 148.608 126.456C149.056 127.128 149.344 128.088 149.408 128.792C151.2 128.888 153.024 128.952 154.144 128.824C155.232 128.728 155.968 128.44 156.672 127.544C157.952 125.976 158.368 121.048 158.88 106.456V105.24ZM153.824 119.64C152.8 117.752 150.592 114.68 148.8 112.408L146.944 113.496C148.704 115.8 150.848 118.968 151.808 120.888L153.824 119.64ZM186.144 106.456C185.408 105.72 183.936 104.856 182.688 104.28L181.568 105.464C182.816 106.008 184.288 107 184.992 107.704L186.144 106.456ZM177.6 119.384C174.016 120.024 170.464 120.664 168.032 121.048L168.352 122.84C170.976 122.36 174.368 121.688 177.696 121.048L177.6 119.384ZM174.816 116.568H171.136V113.368H174.816V116.568ZM169.472 111.864V118.072H176.544V111.864H169.472ZM183.68 111.32C183.136 113.496 182.336 115.48 181.312 117.208C180.768 115.16 180.384 112.6 180.128 109.848H186.944V108.056H179.968C179.904 106.936 179.84 105.816 179.776 104.664H177.728C177.792 105.816 177.888 106.936 177.984 108.056H168.352V109.848H178.144C178.528 113.464 179.04 116.76 179.904 119.288C178.56 120.984 176.96 122.392 175.072 123.48C175.488 123.832 176.192 124.6 176.48 124.984C178.048 123.96 179.456 122.744 180.704 121.304C181.568 123 182.624 124.12 184.032 124.408C185.696 125.048 186.784 123.768 187.2 120.28C186.752 120.088 186.048 119.608 185.664 119.224C185.44 121.272 185.12 122.648 184.672 122.52C183.616 122.36 182.752 121.272 182.08 119.576C183.616 117.368 184.832 114.744 185.632 111.736L183.68 111.32ZM166.592 125.912V103.864H188.544V125.912H166.592ZM164.32 101.688V129.528H166.592V128.056H188.544V129.528H190.88V101.688H164.32ZM212.736 104.376C212.384 105.496 211.968 106.584 211.488 107.576C210.688 106.808 209.632 105.944 208.672 105.208C208.832 104.952 209.024 104.664 209.184 104.376H212.736ZM221.472 103.672C220.832 105.208 219.872 106.904 218.88 108.216C218.112 106.776 217.472 105.24 216.992 103.672H221.472ZM209.408 109.592C207.488 109.816 205.92 110.008 204.512 110.136L204.8 111.8C206.272 111.544 207.744 111.32 209.376 111.032C208.096 112.696 206.624 114.04 205.12 114.968C205.568 115.32 206.112 115.992 206.4 116.44C207.584 115.704 208.736 114.712 209.792 113.56V114.936H219.68V113.112C220.8 114.488 221.984 115.672 223.296 116.536C223.616 115.992 224.224 115.256 224.704 114.872C222.88 113.816 221.248 112.056 219.872 109.944C221.536 108.056 223.168 105.272 224.128 102.648L222.784 101.848L222.4 101.944H216.384V103.384L215.04 103.736C216.032 107.16 217.632 110.424 219.552 112.952H210.304C212.416 110.456 214.112 107.096 215.008 103.064L213.76 102.616L213.408 102.68H210.048C210.336 102.008 210.592 101.368 210.816 100.664L208.96 100.248C207.936 103.32 206.144 106.168 203.968 108.056C204.416 108.344 205.216 108.952 205.536 109.272C206.336 108.504 207.104 107.576 207.808 106.584C208.864 107.384 209.952 108.344 210.656 109.144C210.304 109.784 209.888 110.392 209.44 110.968L209.408 109.592ZM203.904 101.4L203.552 101.528H196.512V129.368H198.592V103.672H202.688C202.048 105.816 201.152 108.568 200.256 110.872C202.464 113.432 203.008 115.608 203.008 117.368C203.008 118.328 202.848 119.224 202.336 119.576C202.112 119.768 201.792 119.864 201.408 119.896C200.896 119.928 200.288 119.896 199.584 119.864C199.936 120.44 200.128 121.304 200.16 121.88C200.832 121.944 201.632 121.912 202.272 121.848C202.848 121.752 203.424 121.592 203.872 121.24C204.704 120.632 205.088 119.256 205.088 117.528C205.088 115.576 204.544 113.272 202.304 110.616C203.328 108.056 204.48 104.888 205.376 102.296L203.904 101.4ZM208.992 121.496C207.872 123.32 206.24 125.4 204.736 126.84C205.312 127.128 206.208 127.736 206.656 128.088C208.064 126.584 209.888 124.216 211.104 122.2L208.992 121.496ZM222.912 119.896V117.912H206.656V119.896H213.664V129.432H215.904V119.896H222.912ZM218.304 122.296C219.872 124.056 221.888 126.488 222.912 127.896L224.704 126.68C223.68 125.304 221.632 122.968 220.032 121.272L218.304 122.296ZM242.336 103.576H237.28C236.864 102.52 236.16 101.144 235.488 100.056L233.184 100.664C233.632 101.528 234.176 102.616 234.592 103.576H228.32V105.56H242.336V103.576ZM233.6 110.136C233.472 108.952 232.928 107.16 232.288 105.784L230.4 106.232C230.944 107.64 231.456 109.496 231.616 110.68L233.6 110.136ZM230.784 119.928C230.144 122.008 229.024 124.184 227.776 125.688C228.256 125.944 229.056 126.552 229.44 126.84C230.624 125.24 231.968 122.744 232.736 120.472L230.784 119.928ZM242.464 118.232V116.184H236.672V112.824H242.816V110.808H238.752C239.36 109.464 239.968 107.736 240.544 106.2L238.368 105.752C237.984 107.224 237.248 109.336 236.64 110.808H227.808V112.824H234.336V116.184H227.968V118.232H234.336V129.336H236.672V118.232H242.464ZM238.112 120.6C239.072 122.136 240.224 124.344 240.736 125.72L242.432 124.76C241.888 123.384 240.768 121.304 239.744 119.736L238.112 120.6ZM256.8 110.936H246.592V104.856C249.952 104.344 253.632 103.544 256.256 102.552L254.336 100.792C252.064 101.752 247.968 102.712 244.384 103.288V114.296C244.384 118.552 244.128 124.024 241.44 127.864C241.952 128.12 242.88 128.856 243.264 129.304C246.176 125.144 246.592 118.872 246.592 114.296V113.176H250.976V129.304H253.28V113.176H256.8V110.936ZM268.544 104.344C268 103.192 266.72 101.528 265.536 100.344L263.776 101.464C264.896 102.68 266.144 104.44 266.688 105.624L268.544 104.344ZM272.16 117.784C271.488 117.08 269.024 114.52 267.776 113.336C269.376 111.224 270.784 108.92 271.744 106.552L270.496 105.624L270.048 105.72H260.384V107.896H268.8C266.752 111.864 263.04 115.704 259.52 117.816C259.872 118.232 260.416 119.448 260.608 120.088C262.08 119.128 263.584 117.88 265.024 116.408V129.432H267.36V115.736C268.576 117.08 270.016 118.776 270.656 119.704L272.16 117.784ZM275.84 113.688H285.184V116.92H275.84V113.688ZM275.84 108.632H285.184V111.832H275.84V108.632ZM275.84 103.608H285.184V106.744H275.84V103.608ZM284.448 127.192C283.776 127.192 283.68 127.096 283.68 126.36V118.872H287.456V101.624H273.632V118.872H276.544C276.128 123.288 274.944 126.232 269.856 127.8C270.304 128.216 270.944 129.016 271.168 129.56C276.736 127.608 278.176 124.12 278.72 118.872H281.44V126.392C281.44 128.664 281.952 129.304 284.128 129.304H286.784C288.64 129.304 289.248 128.28 289.44 124.152C288.8 123.992 287.904 123.608 287.424 123.256C287.328 126.776 287.232 127.192 286.56 127.192H284.448ZM295.328 109.144H299.136V112.632H295.328V109.144ZM295.328 103.8H299.136V107.288H295.328V103.8ZM304.96 107.288H301.184V103.8H304.96V107.288ZM304.96 112.632H301.184V109.144H304.96V112.632ZM301.312 120.408H307.04V118.232H301.312V114.616H307.04V101.816H293.312V114.616H299.008V118.232H293.248V120.408H299.008V125.048C296.448 125.4 294.112 125.72 292.256 125.912L292.544 128.248C296.544 127.64 302.368 126.808 307.872 125.976L307.808 123.864C305.632 124.184 303.424 124.472 301.312 124.76V120.408ZM320.16 112.024L319.776 112.12H317.824L318.496 111.416C317.792 110.712 316.8 109.848 315.68 109.048C317.728 107.32 319.84 104.984 321.248 102.84L319.712 101.752L319.2 101.88H308.096V104.024H317.536C316.544 105.368 315.264 106.776 314.016 107.896C312.96 107.16 311.872 106.52 310.816 106.008L309.312 107.448C311.68 108.664 314.272 110.52 316 112.12H307.68V114.36H312.832V126.488C312.832 126.936 312.704 127.096 312.192 127.096C311.68 127.128 310.016 127.128 308.128 127.064C308.48 127.768 308.832 128.728 308.928 129.432C311.296 129.432 312.928 129.4 313.888 129.016C314.88 128.6 315.168 127.896 315.168 126.552V114.36H318.944C318.4 116.248 317.696 118.168 317.12 119.448L319.072 119.992C320 118.104 320.96 115.096 321.76 112.44L320.16 112.024Z" fill="#4F4F4F"/>
<path d="M1.456 168H5.68C8.288 168 10.272 166.896 10.272 164.512C10.272 162.912 9.328 162.016 8.048 161.712V161.632C9.056 161.28 9.664 160.16 9.664 159.072C9.664 156.864 7.808 156.16 5.376 156.16H1.456V168ZM3.824 160.976V157.968H5.232C6.656 157.968 7.36 158.384 7.36 159.424C7.36 160.368 6.704 160.976 5.2 160.976H3.824ZM3.824 166.176V162.736H5.472C7.104 162.736 7.968 163.216 7.968 164.368C7.968 165.6 7.088 166.176 5.472 166.176H3.824ZM16.0586 168.224C18.2986 168.224 20.3626 166.496 20.3626 163.536C20.3626 160.544 18.2986 158.816 16.0586 158.816C13.8186 158.816 11.7546 160.544 11.7546 163.536C11.7546 166.496 13.8186 168.224 16.0586 168.224ZM16.0586 166.304C14.8426 166.304 14.1546 165.216 14.1546 163.536C14.1546 161.84 14.8426 160.736 16.0586 160.736C17.2746 160.736 17.9626 161.84 17.9626 163.536C17.9626 165.216 17.2746 166.304 16.0586 166.304ZM25.6423 168.224C26.5703 168.224 27.4662 167.712 28.1223 167.072H28.1702L28.3622 168H30.2662V155.232H27.9142V158.384L28.0103 159.792C27.3702 159.2 26.7463 158.816 25.7382 158.816C23.8022 158.816 21.9782 160.608 21.9782 163.536C21.9782 166.464 23.4182 168.224 25.6423 168.224ZM26.2502 166.288C25.0662 166.288 24.3942 165.36 24.3942 163.504C24.3942 161.712 25.2422 160.752 26.2502 160.752C26.8102 160.752 27.3702 160.928 27.9142 161.424V165.36C27.4022 166.032 26.8742 166.288 26.2502 166.288ZM33.7311 171.6C35.7311 171.6 36.6911 170.384 37.4751 168.272L40.6591 159.04H38.4031L37.1711 163.2C36.9631 164.032 36.7391 164.896 36.5311 165.728H36.4511C36.1951 164.864 35.9711 164 35.6991 163.2L34.2751 159.04H31.9071L35.3951 167.84L35.2351 168.368C34.9791 169.152 34.4671 169.728 33.5551 169.728C33.3471 169.728 33.0911 169.664 32.9311 169.616L32.4991 171.424C32.8511 171.536 33.2031 171.6 33.7311 171.6ZM50.0566 168H54.2806C56.8886 168 58.8726 166.896 58.8726 164.512C58.8726 162.912 57.9286 162.016 56.6486 161.712V161.632C57.6566 161.28 58.2646 160.16 58.2646 159.072C58.2646 156.864 56.4086 156.16 53.9766 156.16H50.0566V168ZM52.4246 160.976V157.968H53.8326C55.2566 157.968 55.9606 158.384 55.9606 159.424C55.9606 160.368 55.3046 160.976 53.8006 160.976H52.4246ZM52.4246 166.176V162.736H54.0726C55.7046 162.736 56.5686 163.216 56.5686 164.368C56.5686 165.6 55.6886 166.176 54.0726 166.176H52.4246ZM64.6592 168.224C66.8992 168.224 68.9632 166.496 68.9632 163.536C68.9632 160.544 66.8992 158.816 64.6592 158.816C62.4192 158.816 60.3552 160.544 60.3552 163.536C60.3552 166.496 62.4192 168.224 64.6592 168.224ZM64.6592 166.304C63.4432 166.304 62.7552 165.216 62.7552 163.536C62.7552 161.84 63.4432 160.736 64.6592 160.736C65.8752 160.736 66.5632 161.84 66.5632 163.536C66.5632 165.216 65.8752 166.304 64.6592 166.304ZM73.2989 168.224C73.8429 168.224 74.2429 168.128 74.5149 168.016L74.2269 166.272C74.0669 166.304 74.0029 166.304 73.9069 166.304C73.6829 166.304 73.4269 166.128 73.4269 165.6V155.232H71.0909V165.488C71.0909 167.152 71.6669 168.224 73.2989 168.224ZM79.4498 168.224C80.3778 168.224 81.2738 167.712 81.9298 167.072H81.9778L82.1698 168H84.0738V155.232H81.7218V158.384L81.8178 159.792C81.1778 159.2 80.5538 158.816 79.5458 158.816C77.6098 158.816 75.7858 160.608 75.7858 163.536C75.7858 166.464 77.2258 168.224 79.4498 168.224ZM80.0578 166.288C78.8738 166.288 78.2018 165.36 78.2018 163.504C78.2018 161.712 79.0498 160.752 80.0578 160.752C80.6178 160.752 81.1778 160.928 81.7218 161.424V165.36C81.2098 166.032 80.6818 166.288 80.0578 166.288Z" fill="#4F4F4F"/>
<path d="M9.152 186.544H22.688V193.936H26.528V183.92H5.504V193.936H9.152V186.544ZM21.504 187.696H10.144V189.904H21.504V187.696ZM21.504 193.328V191.12H10.176V193.328H21.504ZM24.96 202.064C24.448 203.152 23.712 204.176 22.88 205.072C22.016 204.176 21.248 203.152 20.704 202.064H24.96ZM7.648 205.776H12.064V206.896C10.592 207.056 9.056 207.184 7.648 207.312V205.776ZM12.064 197.936V199.248H7.648V197.936H12.064ZM7.648 201.872H12.064V203.152H7.648V201.872ZM27.2 199.024L26.592 199.152H16.608V202.064H18.528L17.376 202.384C18.176 204.208 19.232 205.872 20.448 207.28C19.008 208.336 17.344 209.2 15.616 209.712V197.936H30.176V194.928H1.76V197.936H4.256V207.632C3.232 207.728 2.304 207.792 1.472 207.856L1.76 211.12C4.64 210.8 8.352 210.448 12.064 210.032V212.784H15.616V209.936C16.288 210.704 17.12 211.92 17.504 212.752C19.552 211.984 21.408 210.992 23.104 209.68C24.736 210.928 26.688 211.856 28.864 212.496C29.344 211.6 30.336 210.224 31.104 209.552C29.056 209.072 27.2 208.304 25.632 207.312C27.36 205.328 28.704 202.864 29.568 199.92L27.2 199.024ZM42.4 190.064H38.432V187.152H42.4V190.064ZM42.4 195.856H38.432V192.88H42.4V195.856ZM42.4 201.648H38.432V198.672H42.4V201.648ZM46.016 184.144H35.008V204.688H46.016V184.144ZM36.768 204.944C36.032 207.12 34.656 209.328 33.056 210.768C33.888 211.248 35.392 212.24 36.064 212.848C37.728 211.184 39.36 208.464 40.352 205.776L36.768 204.944ZM40.96 206.16C42.24 207.824 43.552 210.096 44.032 211.6L47.232 210.064C46.656 208.56 45.312 206.448 43.968 204.848L40.96 206.16ZM58.304 208.048H51.232V201.648H58.304V208.048ZM63.264 193.232V189.776H56.32V182.928H52.576V198.288H47.712V212.784H51.232V211.472H58.304V212.656H61.984V198.288H56.32V193.232H63.264ZM86.08 195.344V207.504H89.984V195.344H94.976V191.824H81.6V191.696V187.792C86.048 187.536 90.848 186.928 94.4 185.776L91.296 182.992C88.128 183.984 82.624 184.592 77.728 184.752V191.664C77.728 195.568 77.472 200.976 74.848 204.72C75.776 205.136 77.44 206.352 78.144 207.024C80.352 203.856 81.216 199.312 81.472 195.344H86.08ZM73.024 188.336C72.576 186.992 71.776 184.88 71.168 183.184L67.68 184.208C68.256 185.904 69.056 188.144 69.472 189.584L73.024 188.336ZM73.856 197.04L73.312 197.2H71.488C72.288 195.024 73.088 192.528 73.76 190.352H65.92V193.744H69.312C68.512 196.144 67.648 198.672 66.912 200.464H71.2C70.688 202.352 70.016 204.336 69.28 205.872C68.064 206.416 66.624 207.632 65.312 209.264L67.84 212.912C68.576 211.088 69.664 208.912 70.368 208.912C71.008 208.912 72.16 209.968 73.472 210.704C75.808 212.048 78.464 212.4 82.72 212.4C86.432 212.4 92.032 212.176 94.72 212.016C94.752 210.992 95.36 209.136 95.808 208.112C92.256 208.624 86.528 208.944 82.848 208.944C79.136 208.944 76.128 208.752 73.952 207.44C73.344 207.088 72.896 206.736 72.48 206.448C73.728 203.984 74.784 200.848 75.488 197.744L73.856 197.04ZM104.608 183.024C103.008 187.568 100.224 192.112 97.344 194.992C97.984 195.92 99.04 198 99.392 198.96C100.096 198.192 100.832 197.328 101.536 196.368V212.72H105.184V190.704C106.368 188.592 107.392 186.352 108.224 184.144L104.608 183.024ZM110.528 197.136C109.792 200.688 108.448 204.304 106.624 206.544C107.552 207.024 109.152 207.984 109.888 208.592C111.68 206 113.312 201.968 114.24 197.904L110.528 197.136ZM123.84 192.144C123.68 193.552 123.488 194.896 123.328 195.888L126.56 196.432C127.008 194.576 127.552 191.6 127.936 189.008L125.248 188.496L124.64 188.624H113.632C114.208 187.056 114.72 185.488 115.136 183.856L111.424 183.024C110.336 187.408 108.416 191.824 105.984 194.544C106.848 195.12 108.384 196.368 109.056 197.04C110.112 195.696 111.168 194 112.064 192.144H115.776V208.464C115.776 208.88 115.616 209.008 115.2 209.008C114.752 209.008 113.408 209.008 112.064 208.976C112.64 210 113.216 211.696 113.376 212.816C115.424 212.816 116.96 212.656 118.08 212.048C119.232 211.408 119.552 210.352 119.552 208.528V192.144H123.84ZM120.704 197.968C122.24 201.264 123.584 205.648 123.936 208.496L127.584 207.248C127.136 204.368 125.76 200.112 124.096 196.816L120.704 197.968ZM135.168 206.128V199.856H140.256V206.128H135.168ZM140.256 196.56H135.168V191.376H140.256V196.56ZM150.4 187.824C150.88 186.48 151.328 185.136 151.648 183.76L148.032 182.928C147.104 186.672 145.568 190.544 143.712 193.232V188.048H138.752C139.296 186.672 139.872 185.072 140.416 183.472L136.256 182.896C136.128 184.4 135.744 186.448 135.328 188.048H131.712V211.824H135.168V209.488H143.712V194.544C144.576 195.12 145.664 195.856 146.176 196.336C147.168 194.96 148.16 193.2 148.992 191.28H155.84C155.488 202.576 155.072 207.376 154.144 208.4C153.728 208.816 153.376 208.944 152.736 208.944C151.904 208.944 150.016 208.944 147.968 208.752C148.64 209.808 149.152 211.408 149.216 212.464C151.104 212.528 153.024 212.56 154.24 212.4C155.52 212.176 156.416 211.824 157.312 210.64C158.624 208.944 158.976 203.856 159.392 189.552C159.424 189.104 159.424 187.824 159.424 187.824H150.4ZM154.112 202.416C153.12 200.56 151.008 197.52 149.408 195.312L146.432 197.008C148 199.344 149.984 202.48 150.88 204.4L154.112 202.416ZM174.112 198.992H171.968V196.944H174.112V198.992ZM176.672 194.928H169.536V201.008H176.672V194.928ZM167.552 208.144V187.664H183.008L181.504 189.168C182.336 189.616 183.296 190.288 183.968 190.864H180.512C180.448 189.968 180.416 189.072 180.384 188.144H177.248C177.312 189.072 177.344 189.968 177.408 190.864H168.736V193.552H177.632C177.92 196.72 178.336 199.632 179.008 201.936C178.496 202.512 177.984 203.056 177.408 203.536L177.344 201.936C174.016 202.384 170.688 202.768 168.352 203.024L168.704 205.808C170.816 205.456 173.312 205.104 175.872 204.72C175.552 204.944 175.2 205.168 174.848 205.36C175.488 205.872 176.512 207.088 176.928 207.664C178.144 206.896 179.232 205.968 180.256 204.944C180.896 206 181.696 206.736 182.656 207.056C184.768 208.016 186.432 206.8 186.944 202.864C186.304 202.512 185.152 201.648 184.576 201.072C184.448 202.928 184.192 204.176 183.84 204.048C183.264 203.92 182.784 203.312 182.368 202.352C183.808 200.24 184.96 197.808 185.728 195.024L182.816 194.448C182.432 195.888 181.952 197.2 181.312 198.448C181.056 197.008 180.864 195.344 180.704 193.552H186.432V190.864H184.896L186.176 189.52C185.6 188.912 184.512 188.176 183.488 187.664H187.456V208.144H167.552ZM163.936 184.24V212.88H167.552V211.536H187.456V212.88H191.232V184.24H163.936ZM208.8 192.24C207.04 192.432 205.664 192.592 204.352 192.688L204.704 195.024C205.92 194.8 206.976 194.608 208.224 194.384C207.168 195.6 206.048 196.624 204.8 197.328C204.48 196.24 203.936 195.056 203.072 193.808C203.392 192.88 203.744 191.824 204.032 190.768C204.672 191.248 205.408 191.888 205.792 192.272C206.496 191.632 207.136 190.864 207.744 190C208.512 190.64 209.344 191.344 209.984 191.952C209.632 192.528 209.248 193.104 208.864 193.584L208.8 192.24ZM211.872 187.696C211.648 188.4 211.392 189.072 211.104 189.68C210.496 189.168 209.76 188.592 209.088 188.08L209.312 187.696H211.872ZM211.232 195.248C212.8 193.168 214.016 190.608 214.848 187.632C215.712 190.48 216.896 193.104 218.432 195.248H211.232ZM220.544 187.088C220.128 188.176 219.584 189.264 219.008 190.192C218.496 189.2 218.08 188.176 217.728 187.088H220.544ZM209.888 198.256H219.232V196.304C220.352 197.616 221.568 198.768 223.008 199.664C223.488 198.832 224.448 197.616 225.152 197.008C223.424 196.112 221.888 194.672 220.672 192.976C222.176 191.056 223.648 188.24 224.512 185.616L222.464 184.4L221.856 184.56H216.8L216.768 186.032L215.168 186.416L215.296 185.84L213.408 185.104L212.896 185.232H210.496C210.752 184.688 210.944 184.144 211.136 183.6L208.352 182.96C207.52 185.456 206.176 187.792 204.416 189.52C204.864 188.112 205.28 186.64 205.632 185.328L203.296 184.016L202.784 184.144H196.064V212.72H199.328V187.536H201.664C201.184 189.616 200.608 192.208 200 194.16C201.696 196.464 202.016 198.544 202.016 200.08C202.016 201.008 201.856 201.744 201.504 202.032C201.28 202.224 200.992 202.288 200.672 202.288C200.352 202.32 199.936 202.32 199.392 202.256C199.904 203.152 200.192 204.528 200.224 205.392C200.896 205.424 201.6 205.424 202.144 205.36C202.816 205.232 203.392 205.008 203.84 204.624C204.832 203.888 205.216 202.512 205.216 200.464C205.216 199.568 205.12 198.544 204.832 197.424C205.408 198 206.24 199.024 206.624 199.664C207.808 198.896 208.896 197.968 209.888 196.88V198.256ZM207.968 204.624C207.008 206.384 205.44 208.336 204.032 209.648C204.864 210.096 206.336 210.992 207.072 211.6C208.448 210.128 210.208 207.728 211.392 205.744L207.968 204.624ZM222.432 203.504V200.464H206.944V203.504H212.928V212.72H216.512V203.504H222.432ZM217.92 205.904C219.296 207.6 221.248 209.936 222.112 211.344L225.056 209.456C224.096 208.08 222.08 205.84 220.704 204.272L217.92 205.904ZM229.984 202.96C229.312 204.944 228.256 207.12 227.168 208.624C227.872 209.04 229.088 209.872 229.664 210.352C230.784 208.72 232.096 206.096 232.896 203.792L229.984 202.96ZM237.504 189.168C237.184 190.352 236.608 191.984 236.128 193.136H231.52L233.824 192.496C233.664 191.6 233.248 190.224 232.768 189.168H237.504ZM242.336 201.936V198.736H237.376V196.272H242.848V193.136H239.52C240 192.144 240.48 190.896 240.96 189.68L238.368 189.168H242.368V186.064H237.792C237.408 184.976 236.832 183.664 236.352 182.608L232.544 183.536C232.864 184.304 233.216 185.2 233.504 186.064H228.032V189.168H232.352L229.728 189.808C230.112 190.8 230.496 192.176 230.656 193.136H227.552V196.272H233.696V198.736H227.744V201.936H233.696V212.56H237.376V201.936H242.336ZM257.12 193.424H247.456V188.4C250.592 187.824 253.92 187.056 256.544 186L253.632 183.216C251.296 184.304 247.424 185.296 243.936 185.936V197.328C243.936 200.272 243.84 203.728 242.944 206.8C242.4 205.584 241.408 203.888 240.544 202.608L238.048 203.952C238.944 205.424 240.032 207.472 240.544 208.752L242.816 207.344C242.464 208.464 241.984 209.52 241.376 210.448C242.176 210.832 243.68 212.048 244.32 212.72C247.04 208.624 247.456 202.032 247.456 197.328V196.944H250.432V212.656H254.144V196.944H257.12V193.424ZM272.64 200.272C272.032 199.632 269.696 197.36 268.416 196.24C269.888 194.16 271.168 191.888 272.096 189.552L270.08 188.08L269.408 188.24H267.136L268.928 187.024C268.384 185.84 267.168 184.208 266.08 182.992L263.168 184.784C264 185.776 264.896 187.12 265.504 188.24H260.064V191.664H267.36C265.44 195.056 262.336 198.192 259.136 199.952C259.584 200.656 260.32 202.768 260.576 203.824C261.824 203.088 263.008 202.096 264.224 201.008V212.752H267.968V200.336C268.864 201.424 269.76 202.608 270.304 203.408L272.64 200.272ZM277.056 196.976H284.128V199.056H277.056V196.976ZM277.056 192.08H284.128V194.128H277.056V192.08ZM277.056 187.184H284.128V189.264H277.056V187.184ZM284.928 209.328C284.48 209.328 284.416 209.232 284.416 208.368V202.096H287.776V184.176H273.6V202.096H275.712C275.36 206.032 274.496 208.56 269.376 210.032C270.016 210.672 270.944 211.952 271.264 212.816C277.408 210.832 278.656 207.312 279.104 202.096H280.896V208.368C280.896 211.536 281.504 212.624 284.32 212.624H286.432C288.608 212.624 289.504 211.472 289.824 207.12C288.864 206.864 287.36 206.288 286.72 205.712C286.624 208.912 286.528 209.328 285.984 209.328H284.928ZM296 192.592H298.4V194.992H296V192.592ZM296 187.408H298.4V189.776H296V187.408ZM303.872 189.776H301.568V187.408H303.872V189.776ZM303.872 194.992H301.568V192.592H303.872V194.992ZM301.824 204.016H307.136V200.592H301.824V198H307.104V184.368H292.896V198H298.144V200.592H292.96V204.016H298.144V207.536C295.776 207.792 293.632 207.952 291.904 208.112L292.352 211.824C296.512 211.28 302.304 210.608 307.744 209.84L307.648 206.512C305.696 206.736 303.744 206.96 301.824 207.152V204.016ZM319.552 194.736L319.008 194.832H318.272L319.104 193.904C318.4 193.328 317.472 192.72 316.512 192.048C318.432 190.256 320.288 187.984 321.568 185.904L319.168 184.176L318.336 184.368H308.128V187.792H315.808C315.168 188.688 314.4 189.584 313.696 190.352C312.768 189.84 311.84 189.392 310.976 189.008L308.64 191.344C310.56 192.272 312.736 193.552 314.496 194.832H307.776V198.448H312V208.56C312 208.976 311.84 209.072 311.36 209.072C310.912 209.104 309.28 209.104 307.84 209.008C308.32 210.064 308.832 211.664 308.96 212.752C311.264 212.752 312.992 212.72 314.208 212.112C315.456 211.536 315.808 210.48 315.808 208.656V198.448H317.888C317.568 200.048 317.216 201.616 316.896 202.736L319.968 203.376C320.704 201.328 321.536 198.128 322.112 195.28L319.552 194.736Z" fill="#4F4F4F"/>
</svg>
