<svg width="327" height="234" viewBox="0 0 327 234" fill="none" xmlns="http://www.w3.org/2000/svg">
<path d="M1.358 127H4.802C7.084 127 8.75 126.02 8.75 123.976C8.75 122.576 7.896 121.778 6.72 121.526V121.456C7.644 121.148 8.19 120.21 8.19 119.23C8.19 117.368 6.664 116.696 4.55 116.696H1.358V127ZM2.982 120.994V117.956H4.41C5.866 117.956 6.594 118.362 6.594 119.44C6.594 120.406 5.936 120.994 4.368 120.994H2.982ZM2.982 125.726V122.226H4.62C6.258 122.226 7.154 122.73 7.154 123.892C7.154 125.152 6.23 125.726 4.62 125.726H2.982ZM13.7759 127.182C15.6799 127.182 17.4019 125.712 17.4019 123.164C17.4019 120.588 15.6799 119.104 13.7759 119.104C11.8719 119.104 10.1499 120.588 10.1499 123.164C10.1499 125.712 11.8719 127.182 13.7759 127.182ZM13.7759 125.866C12.5719 125.866 11.8159 124.788 11.8159 123.164C11.8159 121.526 12.5719 120.434 13.7759 120.434C14.9939 120.434 15.7499 121.526 15.7499 123.164C15.7499 124.788 14.9939 125.866 13.7759 125.866ZM22.0955 127.182C22.9635 127.182 23.7615 126.72 24.3355 126.132H24.3775L24.5175 127H25.8335V115.842H24.2235V118.698L24.2935 119.972C23.6635 119.44 23.1035 119.104 22.2215 119.104C20.4995 119.104 18.9175 120.658 18.9175 123.164C18.9175 125.712 20.1635 127.182 22.0955 127.182ZM22.4735 125.852C21.2695 125.852 20.5835 124.886 20.5835 123.136C20.5835 121.47 21.4515 120.448 22.5295 120.448C23.1035 120.448 23.6495 120.63 24.2235 121.148V124.914C23.6635 125.558 23.1175 125.852 22.4735 125.852ZM34.6099 119.3H33.0419L31.8099 123.262L31.2079 125.432H31.1379C30.8999 124.718 30.6619 123.948 30.4379 123.262L29.0099 119.3H27.3579L30.4099 126.944L30.2559 127.476C29.9759 128.302 29.4859 128.918 28.6459 128.918C28.4499 128.918 28.2259 128.848 28.0859 128.806L27.7779 130.066C28.0439 130.164 28.3519 130.22 28.7439 130.22C30.3679 130.22 31.1799 129.114 31.7819 127.462L34.6099 119.3ZM45.7982 127.182C48.0522 127.182 49.4242 125.838 49.4242 124.186C49.4242 122.674 48.5422 121.918 47.3242 121.4L45.9102 120.798C45.0702 120.462 44.2442 120.126 44.2442 119.244C44.2442 118.418 44.9302 117.914 45.9802 117.914C46.8902 117.914 47.6042 118.264 48.2482 118.838L49.1022 117.802C48.3182 117.004 47.1842 116.5 45.9802 116.5C44.0202 116.5 42.5922 117.718 42.5922 119.342C42.5922 120.84 43.6982 121.624 44.6922 122.044L46.1202 122.66C47.0722 123.08 47.7722 123.374 47.7722 124.312C47.7722 125.18 47.0722 125.768 45.8262 125.768C44.8322 125.768 43.8242 125.292 43.0822 124.55L42.1302 125.67C43.0682 126.622 44.3842 127.182 45.7982 127.182ZM54.5817 127.182C55.5897 127.182 56.4717 126.846 57.1857 126.37L56.6257 125.348C56.0657 125.712 55.4777 125.922 54.7917 125.922C53.4617 125.922 52.5377 125.04 52.4117 123.57H57.4097C57.4517 123.388 57.4797 123.066 57.4797 122.758C57.4797 120.574 56.3877 119.104 54.3437 119.104C52.5377 119.104 50.8297 120.658 50.8297 123.164C50.8297 125.698 52.4957 127.182 54.5817 127.182ZM52.3977 122.464C52.5517 121.106 53.4057 120.364 54.3717 120.364C55.4917 120.364 56.0937 121.134 56.0937 122.464H52.3977ZM59.4317 127H61.0277V121.54C61.6717 120.84 62.2457 120.49 62.7637 120.49C63.6457 120.49 64.0517 121.022 64.0517 122.352V127H65.6617V121.54C66.3057 120.84 66.8657 120.49 67.3977 120.49C68.2657 120.49 68.6857 121.022 68.6857 122.352V127H70.2957V122.156C70.2957 120.196 69.5397 119.104 67.9297 119.104C66.9637 119.104 66.1797 119.706 65.4237 120.518C65.0877 119.636 64.4437 119.104 63.2957 119.104C62.3437 119.104 61.5737 119.678 60.9157 120.378H60.8737L60.7477 119.3H59.4317V127ZM72.7651 127H74.3611V119.3H72.7651V127ZM73.5631 117.858C74.1511 117.858 74.5991 117.466 74.5991 116.906C74.5991 116.332 74.1511 115.954 73.5631 115.954C72.9751 115.954 72.5411 116.332 72.5411 116.906C72.5411 117.466 72.9751 117.858 73.5631 117.858ZM77.0646 127H80.5086C82.7906 127 84.4566 126.02 84.4566 123.976C84.4566 122.576 83.6026 121.778 82.4266 121.526V121.456C83.3506 121.148 83.8966 120.21 83.8966 119.23C83.8966 117.368 82.3706 116.696 80.2566 116.696H77.0646V127ZM78.6886 120.994V117.956H80.1166C81.5726 117.956 82.3006 118.362 82.3006 119.44C82.3006 120.406 81.6426 120.994 80.0746 120.994H78.6886ZM78.6886 125.726V122.226H80.3266C81.9646 122.226 82.8606 122.73 82.8606 123.892C82.8606 125.152 81.9366 125.726 80.3266 125.726H78.6886ZM87.9985 127.182C88.3905 127.182 88.6705 127.126 88.8665 127.056L88.6565 125.838C88.5165 125.866 88.4605 125.866 88.3905 125.866C88.1945 125.866 87.9985 125.712 87.9985 125.278V115.842H86.4025V125.194C86.4025 126.44 86.8365 127.182 87.9985 127.182ZM93.7925 127.182C95.6965 127.182 97.4185 125.712 97.4185 123.164C97.4185 120.588 95.6965 119.104 93.7925 119.104C91.8885 119.104 90.1665 120.588 90.1665 123.164C90.1665 125.712 91.8885 127.182 93.7925 127.182ZM93.7925 125.866C92.5885 125.866 91.8325 124.788 91.8325 123.164C91.8325 121.526 92.5885 120.434 93.7925 120.434C95.0105 120.434 95.7665 121.526 95.7665 123.164C95.7665 124.788 95.0105 125.866 93.7925 125.866ZM102.112 127.182C102.98 127.182 103.778 126.72 104.352 126.132H104.394L104.534 127H105.85V115.842H104.24V118.698L104.31 119.972C103.68 119.44 103.12 119.104 102.238 119.104C100.516 119.104 98.9341 120.658 98.9341 123.164C98.9341 125.712 100.18 127.182 102.112 127.182ZM102.49 125.852C101.286 125.852 100.6 124.886 100.6 123.136C100.6 121.47 101.468 120.448 102.546 120.448C103.12 120.448 103.666 120.63 104.24 121.148V124.914C103.68 125.558 103.134 125.852 102.49 125.852Z" fill="#4F4F4F"/>
<path d="M6.024 142.024H18.024V147.928H19.776V140.704H4.32V147.928H6.024V142.024ZM16.776 143.416H7.08V144.592H16.776V143.416ZM16.776 147.136V145.96H7.104V147.136H16.776ZM9.576 152.224H5.16V150.592H9.576V152.224ZM5.16 156.544H9.576V157.984C8.064 158.176 6.552 158.344 5.16 158.512V156.544ZM9.576 155.224H5.16V153.568H9.576V155.224ZM22.464 150.592V149.104H1.488V150.592H3.552V158.656C2.736 158.728 1.944 158.8 1.272 158.872L1.44 160.48C3.696 160.192 6.624 159.856 9.576 159.472V161.848H11.256V150.592H22.464ZM19.632 153.52C19.032 154.84 18.168 156.016 17.112 157C16.104 155.992 15.264 154.84 14.688 153.52H19.632ZM20.712 152.032L20.4 152.08H12.168V153.52H13.536L13.128 153.64C13.8 155.296 14.76 156.76 15.936 158.008C14.52 159.04 12.912 159.856 11.304 160.312C11.64 160.648 12.072 161.272 12.264 161.704C13.968 161.128 15.648 160.264 17.136 159.112C18.504 160.216 20.136 161.104 21.96 161.632C22.2 161.176 22.68 160.552 23.016 160.216C21.264 159.784 19.68 159.04 18.36 158.056C19.872 156.568 21.096 154.744 21.816 152.488L20.712 152.032ZM32.448 145.36H28.008V142.336H32.448V145.36ZM32.448 149.824H28.008V146.776H32.448V149.824ZM32.448 154.36H28.008V151.24H32.448V154.36ZM34.152 140.848H26.376V155.8H34.152V140.848ZM27.84 156.328C27.312 158.032 26.28 159.688 25.128 160.816C25.536 161.056 26.232 161.56 26.544 161.848C27.72 160.576 28.848 158.656 29.544 156.736L27.84 156.328ZM31.08 156.928C31.992 158.128 32.952 159.76 33.36 160.816L34.872 160.048C34.44 159.016 33.432 157.456 32.496 156.28L31.08 156.928ZM44.328 159.088H37.44V152.968H44.328V159.088ZM47.208 146.776V145.144H41.424V139.936H39.672V151.384H35.76V161.824H37.44V160.696H44.328V161.728H46.056V151.384H41.424V146.776H47.208ZM65.04 148.624V158.56H66.84V148.624H71.136V146.968H60.336V146.464V142.768C63.888 142.528 67.824 142.072 70.464 141.256L69 139.936C66.648 140.68 62.232 141.136 58.56 141.352V146.464C58.56 149.488 58.32 153.616 56.208 156.568C56.64 156.76 57.384 157.336 57.696 157.648C59.52 155.128 60.096 151.624 60.288 148.624H65.04ZM54.12 144.064C53.808 143.08 53.256 141.496 52.824 140.296L51.216 140.752C51.6 141.976 52.152 143.584 52.416 144.592L54.12 144.064ZM55.224 150.976L54.936 151.048H52.92C53.592 149.416 54.384 147.424 54.984 145.72H49.608V147.328H52.776C52.104 149.176 51.312 151.192 50.664 152.608H54C53.544 154.288 52.872 156.112 52.104 157.456C51.264 157.816 50.304 158.92 49.32 160.312L50.544 161.944C51.24 160.408 52.08 158.92 52.608 158.92C53.16 158.92 54.024 159.736 54.984 160.312C56.76 161.368 58.824 161.632 61.944 161.632C64.752 161.632 69.24 161.488 71.016 161.368C71.04 160.84 71.352 160 71.544 159.52C68.904 159.808 65.04 160.024 61.992 160.024C59.16 160.024 57.024 159.856 55.368 158.824C54.6 158.368 54.096 157.984 53.664 157.696C54.624 155.92 55.464 153.544 56.04 151.336L55.224 150.976ZM79.128 140.008C77.76 143.656 75.552 147.232 73.2 149.536C73.536 149.944 74.016 150.856 74.208 151.288C75.024 150.4 75.864 149.416 76.632 148.312V161.776H78.336V145.648C79.272 144.016 80.112 142.288 80.808 140.512L79.128 140.008ZM83.496 150.136C82.848 152.968 81.72 155.824 80.208 157.648C80.64 157.888 81.408 158.344 81.744 158.632C83.208 156.64 84.48 153.616 85.248 150.472L83.496 150.136ZM93.648 146.176C93.456 147.4 93.24 148.672 93.096 149.536L94.584 149.824C94.896 148.552 95.328 146.488 95.64 144.736L94.416 144.448L94.128 144.52H84.408C84.888 143.2 85.32 141.808 85.68 140.416L83.928 140.032C83.136 143.536 81.744 146.968 79.992 149.176C80.376 149.44 81.12 150.04 81.408 150.304C82.272 149.176 83.064 147.76 83.736 146.176H87.384V159.664C87.384 159.976 87.288 160.072 86.976 160.072C86.664 160.072 85.632 160.096 84.504 160.048C84.744 160.552 85.032 161.344 85.128 161.848C86.64 161.848 87.648 161.8 88.296 161.488C88.92 161.2 89.136 160.672 89.136 159.664V146.176H93.648ZM90.888 150.472C92.16 152.992 93.36 156.352 93.744 158.536L95.448 157.96C95.04 155.776 93.816 152.488 92.448 149.944L90.888 150.472ZM105.792 150.376H100.752V145.36H105.792V150.376ZM100.752 157.72V151.96H105.792V157.72H100.752ZM102.768 139.864C102.6 140.992 102.168 142.6 101.808 143.752H99.12V161.224H100.752V159.328H107.424V143.752H103.44C103.848 142.72 104.28 141.4 104.688 140.224L102.768 139.864ZM119.16 143.68H111.984C112.392 142.552 112.728 141.4 113.016 140.224L111.312 139.816C110.544 143.104 109.248 146.416 107.64 148.528C108.024 148.768 108.792 149.248 109.104 149.536C109.944 148.408 110.688 146.944 111.36 145.336H117.456C117.144 154.888 116.784 158.536 115.992 159.376C115.752 159.688 115.488 159.736 115.008 159.736C114.456 159.736 113.016 159.736 111.456 159.592C111.792 160.096 112.008 160.816 112.056 161.344C113.4 161.416 114.768 161.464 115.608 161.368C116.424 161.296 116.976 161.08 117.504 160.408C118.464 159.232 118.776 155.536 119.16 144.592V143.68ZM115.368 154.48C114.6 153.064 112.944 150.76 111.6 149.056L110.208 149.872C111.528 151.6 113.136 153.976 113.856 155.416L115.368 154.48ZM139.608 144.592C139.056 144.04 137.952 143.392 137.016 142.96L136.176 143.848C137.112 144.256 138.216 145 138.744 145.528L139.608 144.592ZM133.2 154.288C130.512 154.768 127.848 155.248 126.024 155.536L126.264 156.88C128.232 156.52 130.776 156.016 133.272 155.536L133.2 154.288ZM131.112 152.176H128.352V149.776H131.112V152.176ZM127.104 148.648V153.304H132.408V148.648H127.104ZM137.76 148.24C137.352 149.872 136.752 151.36 135.984 152.656C135.576 151.12 135.288 149.2 135.096 147.136H140.208V145.792H134.976C134.928 144.952 134.88 144.112 134.832 143.248H133.296C133.344 144.112 133.416 144.952 133.488 145.792H126.264V147.136H133.608C133.896 149.848 134.28 152.32 134.928 154.216C133.92 155.488 132.72 156.544 131.304 157.36C131.616 157.624 132.144 158.2 132.36 158.488C133.536 157.72 134.592 156.808 135.528 155.728C136.176 157 136.968 157.84 138.024 158.056C139.272 158.536 140.088 157.576 140.4 154.96C140.064 154.816 139.536 154.456 139.248 154.168C139.08 155.704 138.84 156.736 138.504 156.64C137.712 156.52 137.064 155.704 136.56 154.432C137.712 152.776 138.624 150.808 139.224 148.552L137.76 148.24ZM124.944 159.184V142.648H141.408V159.184H124.944ZM123.24 141.016V161.896H124.944V160.792H141.408V161.896H143.16V141.016H123.24ZM159.552 143.032C159.288 143.872 158.976 144.688 158.616 145.432C158.016 144.856 157.224 144.208 156.504 143.656C156.624 143.464 156.768 143.248 156.888 143.032H159.552ZM166.104 142.504C165.624 143.656 164.904 144.928 164.16 145.912C163.584 144.832 163.104 143.68 162.744 142.504H166.104ZM157.056 146.944C155.616 147.112 154.44 147.256 153.384 147.352L153.6 148.6C154.704 148.408 155.808 148.24 157.032 148.024C156.072 149.272 154.968 150.28 153.84 150.976C154.176 151.24 154.584 151.744 154.8 152.08C155.688 151.528 156.552 150.784 157.344 149.92V150.952H164.76V149.584C165.6 150.616 166.488 151.504 167.472 152.152C167.712 151.744 168.168 151.192 168.528 150.904C167.16 150.112 165.936 148.792 164.904 147.208C166.152 145.792 167.376 143.704 168.096 141.736L167.088 141.136L166.8 141.208H162.288V142.288L161.28 142.552C162.024 145.12 163.224 147.568 164.664 149.464H157.728C159.312 147.592 160.584 145.072 161.256 142.048L160.32 141.712L160.056 141.76H157.536C157.752 141.256 157.944 140.776 158.112 140.248L156.72 139.936C155.952 142.24 154.608 144.376 152.976 145.792C153.312 146.008 153.912 146.464 154.152 146.704C154.752 146.128 155.328 145.432 155.856 144.688C156.648 145.288 157.464 146.008 157.992 146.608C157.728 147.088 157.416 147.544 157.08 147.976L157.056 146.944ZM152.928 140.8L152.664 140.896H147.384V161.776H148.944V142.504H152.016C151.536 144.112 150.864 146.176 150.192 147.904C151.848 149.824 152.256 151.456 152.256 152.776C152.256 153.496 152.136 154.168 151.752 154.432C151.584 154.576 151.344 154.648 151.056 154.672C150.672 154.696 150.216 154.672 149.688 154.648C149.952 155.08 150.096 155.728 150.12 156.16C150.624 156.208 151.224 156.184 151.704 156.136C152.136 156.064 152.568 155.944 152.904 155.68C153.528 155.224 153.816 154.192 153.816 152.896C153.816 151.432 153.408 149.704 151.728 147.712C152.496 145.792 153.36 143.416 154.032 141.472L152.928 140.8ZM156.744 155.872C155.904 157.24 154.68 158.8 153.552 159.88C153.984 160.096 154.656 160.552 154.992 160.816C156.048 159.688 157.416 157.912 158.328 156.4L156.744 155.872ZM167.184 154.672V153.184H154.992V154.672H160.248V161.824H161.928V154.672H167.184ZM163.728 156.472C164.904 157.792 166.416 159.616 167.184 160.672L168.528 159.76C167.76 158.728 166.224 156.976 165.024 155.704L163.728 156.472ZM181.752 142.432H177.96C177.648 141.64 177.12 140.608 176.616 139.792L174.888 140.248C175.224 140.896 175.632 141.712 175.944 142.432H171.24V143.92H181.752V142.432ZM175.2 147.352C175.104 146.464 174.696 145.12 174.216 144.088L172.8 144.424C173.208 145.48 173.592 146.872 173.712 147.76L175.2 147.352ZM173.088 154.696C172.608 156.256 171.768 157.888 170.832 159.016C171.192 159.208 171.792 159.664 172.08 159.88C172.968 158.68 173.976 156.808 174.552 155.104L173.088 154.696ZM181.848 153.424V151.888H177.504V149.368H182.112V147.856H179.064C179.52 146.848 179.976 145.552 180.408 144.4L178.776 144.064C178.488 145.168 177.936 146.752 177.48 147.856H170.856V149.368H175.752V151.888H170.976V153.424H175.752V161.752H177.504V153.424H181.848ZM178.584 155.2C179.304 156.352 180.168 158.008 180.552 159.04L181.824 158.32C181.416 157.288 180.576 155.728 179.808 154.552L178.584 155.2ZM192.6 147.952H184.944V143.392C187.464 143.008 190.224 142.408 192.192 141.664L190.752 140.344C189.048 141.064 185.976 141.784 183.288 142.216V150.472C183.288 153.664 183.096 157.768 181.08 160.648C181.464 160.84 182.16 161.392 182.448 161.728C184.632 158.608 184.944 153.904 184.944 150.472V149.632H188.232V161.728H189.96V149.632H192.6V147.952ZM201.408 143.008C201 142.144 200.04 140.896 199.152 140.008L197.832 140.848C198.672 141.76 199.608 143.08 200.016 143.968L201.408 143.008ZM204.12 153.088C203.616 152.56 201.768 150.64 200.832 149.752C202.032 148.168 203.088 146.44 203.808 144.664L202.872 143.968L202.536 144.04H195.288V145.672H201.6C200.064 148.648 197.28 151.528 194.64 153.112C194.904 153.424 195.312 154.336 195.456 154.816C196.56 154.096 197.688 153.16 198.768 152.056V161.824H200.52V151.552C201.432 152.56 202.512 153.832 202.992 154.528L204.12 153.088ZM206.88 150.016H213.888V152.44H206.88V150.016ZM206.88 146.224H213.888V148.624H206.88V146.224ZM206.88 142.456H213.888V144.808H206.88V142.456ZM213.336 160.144C212.832 160.144 212.76 160.072 212.76 159.52V153.904H215.592V140.968H205.224V153.904H207.408C207.096 157.216 206.208 159.424 202.392 160.6C202.728 160.912 203.208 161.512 203.376 161.92C207.552 160.456 208.632 157.84 209.04 153.904H211.08V159.544C211.08 161.248 211.464 161.728 213.096 161.728H215.088C216.48 161.728 216.936 160.96 217.08 157.864C216.6 157.744 215.928 157.456 215.568 157.192C215.496 159.832 215.424 160.144 214.92 160.144H213.336ZM221.496 146.608H224.352V149.224H221.496V146.608ZM221.496 142.6H224.352V145.216H221.496V142.6ZM228.72 145.216H225.888V142.6H228.72V145.216ZM228.72 149.224H225.888V146.608H228.72V149.224ZM225.984 155.056H230.28V153.424H225.984V150.712H230.28V141.112H219.984V150.712H224.256V153.424H219.936V155.056H224.256V158.536C222.336 158.8 220.584 159.04 219.192 159.184L219.408 160.936C222.408 160.48 226.776 159.856 230.904 159.232L230.856 157.648C229.224 157.888 227.568 158.104 225.984 158.32V155.056ZM240.12 148.768L239.832 148.84H238.368L238.872 148.312C238.344 147.784 237.6 147.136 236.76 146.536C238.296 145.24 239.88 143.488 240.936 141.88L239.784 141.064L239.4 141.16H231.072V142.768H238.152C237.408 143.776 236.448 144.832 235.512 145.672C234.72 145.12 233.904 144.64 233.112 144.256L231.984 145.336C233.76 146.248 235.704 147.64 237 148.84H230.76V150.52H234.624V159.616C234.624 159.952 234.528 160.072 234.144 160.072C233.76 160.096 232.512 160.096 231.096 160.048C231.36 160.576 231.624 161.296 231.696 161.824C233.472 161.824 234.696 161.8 235.416 161.512C236.16 161.2 236.376 160.672 236.376 159.664V150.52H239.208C238.8 151.936 238.272 153.376 237.84 154.336L239.304 154.744C240 153.328 240.72 151.072 241.32 149.08L240.12 148.768Z" fill="#4F4F4F"/>
<path d="M1.274 196H4.97C7.252 196 8.988 195.034 8.988 192.948C8.988 191.548 8.162 190.764 7.042 190.498V190.428C7.924 190.12 8.456 189.14 8.456 188.188C8.456 186.256 6.832 185.64 4.704 185.64H1.274V196ZM3.346 189.854V187.222H4.578C5.824 187.222 6.44 187.586 6.44 188.496C6.44 189.322 5.866 189.854 4.55 189.854H3.346ZM3.346 194.404V191.394H4.788C6.216 191.394 6.972 191.814 6.972 192.822C6.972 193.9 6.202 194.404 4.788 194.404H3.346ZM14.0513 196.196C16.0113 196.196 17.8173 194.684 17.8173 192.094C17.8173 189.476 16.0113 187.964 14.0513 187.964C12.0913 187.964 10.2853 189.476 10.2853 192.094C10.2853 194.684 12.0913 196.196 14.0513 196.196ZM14.0513 194.516C12.9873 194.516 12.3853 193.564 12.3853 192.094C12.3853 190.61 12.9873 189.644 14.0513 189.644C15.1153 189.644 15.7173 190.61 15.7173 192.094C15.7173 193.564 15.1153 194.516 14.0513 194.516ZM22.437 196.196C23.249 196.196 24.033 195.748 24.607 195.188H24.649L24.817 196H26.483V184.828H24.425V187.586L24.509 188.818C23.949 188.3 23.403 187.964 22.521 187.964C20.827 187.964 19.231 189.532 19.231 192.094C19.231 194.656 20.491 196.196 22.437 196.196ZM22.969 194.502C21.933 194.502 21.345 193.69 21.345 192.066C21.345 190.498 22.087 189.658 22.969 189.658C23.459 189.658 23.949 189.812 24.425 190.246V193.69C23.977 194.278 23.515 194.502 22.969 194.502ZM29.5147 199.15C31.2647 199.15 32.1047 198.086 32.7907 196.238L35.5767 188.16H33.6027L32.5247 191.8C32.3427 192.528 32.1467 193.284 31.9647 194.012H31.8947C31.6707 193.256 31.4747 192.5 31.2367 191.8L29.9907 188.16H27.9187L30.9707 195.86L30.8307 196.322C30.6067 197.008 30.1587 197.512 29.3607 197.512C29.1787 197.512 28.9547 197.456 28.8147 197.414L28.4367 198.996C28.7447 199.094 29.0527 199.15 29.5147 199.15ZM43.7995 196H47.4955C49.7775 196 51.5135 195.034 51.5135 192.948C51.5135 191.548 50.6875 190.764 49.5675 190.498V190.428C50.4495 190.12 50.9815 189.14 50.9815 188.188C50.9815 186.256 49.3575 185.64 47.2295 185.64H43.7995V196ZM45.8715 189.854V187.222H47.1035C48.3495 187.222 48.9655 187.586 48.9655 188.496C48.9655 189.322 48.3915 189.854 47.0755 189.854H45.8715ZM45.8715 194.404V191.394H47.3135C48.7415 191.394 49.4975 191.814 49.4975 192.822C49.4975 193.9 48.7275 194.404 47.3135 194.404H45.8715ZM56.5768 196.196C58.5368 196.196 60.3428 194.684 60.3428 192.094C60.3428 189.476 58.5368 187.964 56.5768 187.964C54.6168 187.964 52.8108 189.476 52.8108 192.094C52.8108 194.684 54.6168 196.196 56.5768 196.196ZM56.5768 194.516C55.5128 194.516 54.9108 193.564 54.9108 192.094C54.9108 190.61 55.5128 189.644 56.5768 189.644C57.6408 189.644 58.2428 190.61 58.2428 192.094C58.2428 193.564 57.6408 194.516 56.5768 194.516ZM64.1365 196.196C64.6125 196.196 64.9625 196.112 65.2005 196.014L64.9485 194.488C64.8085 194.516 64.7525 194.516 64.6685 194.516C64.4725 194.516 64.2485 194.362 64.2485 193.9V184.828H62.2045V193.802C62.2045 195.258 62.7085 196.196 64.1365 196.196ZM69.5185 196.196C70.3305 196.196 71.1145 195.748 71.6885 195.188H71.7305L71.8985 196H73.5645V184.828H71.5065V187.586L71.5905 188.818C71.0305 188.3 70.4845 187.964 69.6025 187.964C67.9085 187.964 66.3125 189.532 66.3125 192.094C66.3125 194.656 67.5725 196.196 69.5185 196.196ZM70.0505 194.502C69.0145 194.502 68.4265 193.69 68.4265 192.066C68.4265 190.498 69.1685 189.658 70.0505 189.658C70.5405 189.658 71.0305 189.812 71.5065 190.246V193.69C71.0585 194.278 70.5965 194.502 70.0505 194.502Z" fill="#4F4F4F"/>
<path d="M6.864 211.408H17.016V216.952H19.896V209.44H4.128V216.952H6.864V211.408ZM16.128 212.272H7.608V213.928H16.128V212.272ZM16.128 216.496V214.84H7.632V216.496H16.128ZM18.72 223.048C18.336 223.864 17.784 224.632 17.16 225.304C16.512 224.632 15.936 223.864 15.528 223.048H18.72ZM5.736 225.832H9.048V226.672C7.944 226.792 6.792 226.888 5.736 226.984V225.832ZM9.048 219.952V220.936H5.736V219.952H9.048ZM5.736 222.904H9.048V223.864H5.736V222.904ZM20.4 220.768L19.944 220.864H12.456V223.048H13.896L13.032 223.288C13.632 224.656 14.424 225.904 15.336 226.96C14.256 227.752 13.008 228.4 11.712 228.784V219.952H22.632V217.696H1.32V219.952H3.192V227.224C2.424 227.296 1.728 227.344 1.104 227.392L1.32 229.84C3.48 229.6 6.264 229.336 9.048 229.024V231.088H11.712V228.952C12.216 229.528 12.84 230.44 13.128 231.064C14.664 230.488 16.056 229.744 17.328 228.76C18.552 229.696 20.016 230.392 21.648 230.872C22.008 230.2 22.752 229.168 23.328 228.664C21.792 228.304 20.4 227.728 19.224 226.984C20.52 225.496 21.528 223.648 22.176 221.44L20.4 220.768ZM31.8 214.048H28.824V211.864H31.8V214.048ZM31.8 218.392H28.824V216.16H31.8V218.392ZM31.8 222.736H28.824V220.504H31.8V222.736ZM34.512 209.608H26.256V225.016H34.512V209.608ZM27.576 225.208C27.024 226.84 25.992 228.496 24.792 229.576C25.416 229.936 26.544 230.68 27.048 231.136C28.296 229.888 29.52 227.848 30.264 225.832L27.576 225.208ZM30.72 226.12C31.68 227.368 32.664 229.072 33.024 230.2L35.424 229.048C34.992 227.92 33.984 226.336 32.976 225.136L30.72 226.12ZM43.728 227.536H38.424V222.736H43.728V227.536ZM47.448 216.424V213.832H42.24V208.696H39.432V220.216H35.784V231.088H38.424V230.104H43.728V230.992H46.488V220.216H42.24V216.424H47.448ZM64.56 218.008V227.128H67.488V218.008H71.232V215.368H61.2V215.272V212.344C64.536 212.152 68.136 211.696 70.8 210.832L68.472 208.744C66.096 209.488 61.968 209.944 58.296 210.064V215.248C58.296 218.176 58.104 222.232 56.136 225.04C56.832 225.352 58.08 226.264 58.608 226.768C60.264 224.392 60.912 220.984 61.104 218.008H64.56ZM54.768 212.752C54.432 211.744 53.832 210.16 53.376 208.888L50.76 209.656C51.192 210.928 51.792 212.608 52.104 213.688L54.768 212.752ZM55.392 219.28L54.984 219.4H53.616C54.216 217.768 54.816 215.896 55.32 214.264H49.44V216.808H51.984C51.384 218.608 50.736 220.504 50.184 221.848H53.4C53.016 223.264 52.512 224.752 51.96 225.904C51.048 226.312 49.968 227.224 48.984 228.448L50.88 231.184C51.432 229.816 52.248 228.184 52.776 228.184C53.256 228.184 54.12 228.976 55.104 229.528C56.856 230.536 58.848 230.8 62.04 230.8C64.824 230.8 69.024 230.632 71.04 230.512C71.064 229.744 71.52 228.352 71.856 227.584C69.192 227.968 64.896 228.208 62.136 228.208C59.352 228.208 57.096 228.064 55.464 227.08C55.008 226.816 54.672 226.552 54.36 226.336C55.296 224.488 56.088 222.136 56.616 219.808L55.392 219.28ZM78.456 208.768C77.256 212.176 75.168 215.584 73.008 217.744C73.488 218.44 74.28 220 74.544 220.72C75.072 220.144 75.624 219.496 76.152 218.776V231.04H78.888V214.528C79.776 212.944 80.544 211.264 81.168 209.608L78.456 208.768ZM82.896 219.352C82.344 222.016 81.336 224.728 79.968 226.408C80.664 226.768 81.864 227.488 82.416 227.944C83.76 226 84.984 222.976 85.68 219.928L82.896 219.352ZM92.88 215.608C92.76 216.664 92.616 217.672 92.496 218.416L94.92 218.824C95.256 217.432 95.664 215.2 95.952 213.256L93.936 212.872L93.48 212.968H85.224C85.656 211.792 86.04 210.616 86.352 209.392L83.568 208.768C82.752 212.056 81.312 215.368 79.488 217.408C80.136 217.84 81.288 218.776 81.792 219.28C82.584 218.272 83.376 217 84.048 215.608H86.832V227.848C86.832 228.16 86.712 228.256 86.4 228.256C86.064 228.256 85.056 228.256 84.048 228.232C84.48 229 84.912 230.272 85.032 231.112C86.568 231.112 87.72 230.992 88.56 230.536C89.424 230.056 89.664 229.264 89.664 227.896V215.608H92.88ZM90.528 219.976C91.68 222.448 92.688 225.736 92.952 227.872L95.688 226.936C95.352 224.776 94.32 221.584 93.072 219.112L90.528 219.976ZM101.376 226.096V221.392H105.192V226.096H101.376ZM105.192 218.92H101.376V215.032H105.192V218.92ZM112.8 212.368C113.16 211.36 113.496 210.352 113.736 209.32L111.024 208.696C110.328 211.504 109.176 214.408 107.784 216.424V212.536H104.064C104.472 211.504 104.904 210.304 105.312 209.104L102.192 208.672C102.096 209.8 101.808 211.336 101.496 212.536H98.784V230.368H101.376V228.616H107.784V217.408C108.432 217.84 109.248 218.392 109.632 218.752C110.376 217.72 111.12 216.4 111.744 214.96H116.88C116.616 223.432 116.304 227.032 115.608 227.8C115.296 228.112 115.032 228.208 114.552 228.208C113.928 228.208 112.512 228.208 110.976 228.064C111.48 228.856 111.864 230.056 111.912 230.848C113.328 230.896 114.768 230.92 115.68 230.8C116.64 230.632 117.312 230.368 117.984 229.48C118.968 228.208 119.232 224.392 119.544 213.664C119.568 213.328 119.568 212.368 119.568 212.368H112.8ZM115.584 223.312C114.84 221.92 113.256 219.64 112.056 217.984L109.824 219.256C111 221.008 112.488 223.36 113.16 224.8L115.584 223.312ZM130.584 220.744H128.976V219.208H130.584V220.744ZM132.504 217.696H127.152V222.256H132.504V217.696ZM125.664 227.608V212.248H137.256L136.128 213.376C136.752 213.712 137.472 214.216 137.976 214.648H135.384C135.336 213.976 135.312 213.304 135.288 212.608H132.936C132.984 213.304 133.008 213.976 133.056 214.648H126.552V216.664H133.224C133.44 219.04 133.752 221.224 134.256 222.952C133.872 223.384 133.488 223.792 133.056 224.152L133.008 222.952C130.512 223.288 128.016 223.576 126.264 223.768L126.528 225.856C128.112 225.592 129.984 225.328 131.904 225.04C131.664 225.208 131.4 225.376 131.136 225.52C131.616 225.904 132.384 226.816 132.696 227.248C133.608 226.672 134.424 225.976 135.192 225.208C135.672 226 136.272 226.552 136.992 226.792C138.576 227.512 139.824 226.6 140.208 223.648C139.728 223.384 138.864 222.736 138.432 222.304C138.336 223.696 138.144 224.632 137.88 224.536C137.448 224.44 137.088 223.984 136.776 223.264C137.856 221.68 138.72 219.856 139.296 217.768L137.112 217.336C136.824 218.416 136.464 219.4 135.984 220.336C135.792 219.256 135.648 218.008 135.528 216.664H139.824V214.648H138.672L139.632 213.64C139.2 213.184 138.384 212.632 137.616 212.248H140.592V227.608H125.664ZM122.952 209.68V231.16H125.664V230.152H140.592V231.16H143.424V209.68H122.952ZM156.6 215.68C155.28 215.824 154.248 215.944 153.264 216.016L153.528 217.768C154.44 217.6 155.232 217.456 156.168 217.288C155.376 218.2 154.536 218.968 153.6 219.496C153.36 218.68 152.952 217.792 152.304 216.856C152.544 216.16 152.808 215.368 153.024 214.576C153.504 214.936 154.056 215.416 154.344 215.704C154.872 215.224 155.352 214.648 155.808 214C156.384 214.48 157.008 215.008 157.488 215.464C157.224 215.896 156.936 216.328 156.648 216.688L156.6 215.68ZM158.904 212.272C158.736 212.8 158.544 213.304 158.328 213.76C157.872 213.376 157.32 212.944 156.816 212.56L156.984 212.272H158.904ZM158.424 217.936C159.6 216.376 160.512 214.456 161.136 212.224C161.784 214.36 162.672 216.328 163.824 217.936H158.424ZM165.408 211.816C165.096 212.632 164.688 213.448 164.256 214.144C163.872 213.4 163.56 212.632 163.296 211.816H165.408ZM157.416 220.192H164.424V218.728C165.264 219.712 166.176 220.576 167.256 221.248C167.616 220.624 168.336 219.712 168.864 219.256C167.568 218.584 166.416 217.504 165.504 216.232C166.632 214.792 167.736 212.68 168.384 210.712L166.848 209.8L166.392 209.92H162.6L162.576 211.024L161.376 211.312L161.472 210.88L160.056 210.328L159.672 210.424H157.872C158.064 210.016 158.208 209.608 158.352 209.2L156.264 208.72C155.64 210.592 154.632 212.344 153.312 213.64C153.648 212.584 153.96 211.48 154.224 210.496L152.472 209.512L152.088 209.608H147.048V231.04H149.496V212.152H151.248C150.888 213.712 150.456 215.656 150 217.12C151.272 218.848 151.512 220.408 151.512 221.56C151.512 222.256 151.392 222.808 151.128 223.024C150.96 223.168 150.744 223.216 150.504 223.216C150.264 223.24 149.952 223.24 149.544 223.192C149.928 223.864 150.144 224.896 150.168 225.544C150.672 225.568 151.2 225.568 151.608 225.52C152.112 225.424 152.544 225.256 152.88 224.968C153.624 224.416 153.912 223.384 153.912 221.848C153.912 221.176 153.84 220.408 153.624 219.568C154.056 220 154.68 220.768 154.968 221.248C155.856 220.672 156.672 219.976 157.416 219.16V220.192ZM155.976 224.968C155.256 226.288 154.08 227.752 153.024 228.736C153.648 229.072 154.752 229.744 155.304 230.2C156.336 229.096 157.656 227.296 158.544 225.808L155.976 224.968ZM166.824 224.128V221.848H155.208V224.128H159.696V231.04H162.384V224.128H166.824ZM163.44 225.928C164.472 227.2 165.936 228.952 166.584 230.008L168.792 228.592C168.072 227.56 166.56 225.88 165.528 224.704L163.44 225.928ZM172.488 223.72C171.984 225.208 171.192 226.84 170.376 227.968C170.904 228.28 171.816 228.904 172.248 229.264C173.088 228.04 174.072 226.072 174.672 224.344L172.488 223.72ZM178.128 213.376C177.888 214.264 177.456 215.488 177.096 216.352H173.64L175.368 215.872C175.248 215.2 174.936 214.168 174.576 213.376H178.128ZM181.752 222.952V220.552H178.032V218.704H182.136V216.352H179.64C180 215.608 180.36 214.672 180.72 213.76L178.776 213.376H181.776V211.048H178.344C178.056 210.232 177.624 209.248 177.264 208.456L174.408 209.152C174.648 209.728 174.912 210.4 175.128 211.048H171.024V213.376H174.264L172.296 213.856C172.584 214.6 172.872 215.632 172.992 216.352H170.664V218.704H175.272V220.552H170.808V222.952H175.272V230.92H178.032V222.952H181.752ZM192.84 216.568H185.592V212.8C187.944 212.368 190.44 211.792 192.408 211L190.224 208.912C188.472 209.728 185.568 210.472 182.952 210.952V219.496C182.952 221.704 182.88 224.296 182.208 226.6C181.8 225.688 181.056 224.416 180.408 223.456L178.536 224.464C179.208 225.568 180.024 227.104 180.408 228.064L182.112 227.008C181.848 227.848 181.488 228.64 181.032 229.336C181.632 229.624 182.76 230.536 183.24 231.04C185.28 227.968 185.592 223.024 185.592 219.496V219.208H187.824V230.992H190.608V219.208H192.84V216.568ZM204.48 221.704C204.024 221.224 202.272 219.52 201.312 218.68C202.416 217.12 203.376 215.416 204.072 213.664L202.56 212.56L202.056 212.68H200.352L201.696 211.768C201.288 210.88 200.376 209.656 199.56 208.744L197.376 210.088C198 210.832 198.672 211.84 199.128 212.68H195.048V215.248H200.52C199.08 217.792 196.752 220.144 194.352 221.464C194.688 221.992 195.24 223.576 195.432 224.368C196.368 223.816 197.256 223.072 198.168 222.256V231.064H200.976V221.752C201.648 222.568 202.32 223.456 202.728 224.056L204.48 221.704ZM207.792 219.232H213.096V220.792H207.792V219.232ZM207.792 215.56H213.096V217.096H207.792V215.56ZM207.792 211.888H213.096V213.448H207.792V211.888ZM213.696 228.496C213.36 228.496 213.312 228.424 213.312 227.776V223.072H215.832V209.632H205.2V223.072H206.784C206.52 226.024 205.872 227.92 202.032 229.024C202.512 229.504 203.208 230.464 203.448 231.112C208.056 229.624 208.992 226.984 209.328 223.072H210.672V227.776C210.672 230.152 211.128 230.968 213.24 230.968H214.824C216.456 230.968 217.128 230.104 217.368 226.84C216.648 226.648 215.52 226.216 215.04 225.784C214.968 228.184 214.896 228.496 214.488 228.496H213.696ZM222 215.944H223.8V217.744H222V215.944ZM222 212.056H223.8V213.832H222V212.056ZM227.904 213.832H226.176V212.056H227.904V213.832ZM227.904 217.744H226.176V215.944H227.904V217.744ZM226.368 224.512H230.352V221.944H226.368V220H230.328V209.776H219.672V220H223.608V221.944H219.72V224.512H223.608V227.152C221.832 227.344 220.224 227.464 218.928 227.584L219.264 230.368C222.384 229.96 226.728 229.456 230.808 228.88L230.736 226.384C229.272 226.552 227.808 226.72 226.368 226.864V224.512ZM239.664 217.552L239.256 217.624H238.704L239.328 216.928C238.8 216.496 238.104 216.04 237.384 215.536C238.824 214.192 240.216 212.488 241.176 210.928L239.376 209.632L238.752 209.776H231.096V212.344H236.856C236.376 213.016 235.8 213.688 235.272 214.264C234.576 213.88 233.88 213.544 233.232 213.256L231.48 215.008C232.92 215.704 234.552 216.664 235.872 217.624H230.832V220.336H234V227.92C234 228.232 233.88 228.304 233.52 228.304C233.184 228.328 231.96 228.328 230.88 228.256C231.24 229.048 231.624 230.248 231.72 231.064C233.448 231.064 234.744 231.04 235.656 230.584C236.592 230.152 236.856 229.36 236.856 227.992V220.336H238.416C238.176 221.536 237.912 222.712 237.672 223.552L239.976 224.032C240.528 222.496 241.152 220.096 241.584 217.96L239.664 217.552Z" fill="#4F4F4F"/>
<path d="M10.04 11.04H30.04V20.88H32.96V8.84H7.2V20.88H10.04V11.04ZM27.96 13.36H11.8V15.32H27.96V13.36ZM27.96 19.56V17.6H11.84V19.56H27.96ZM15.96 28.04H8.6V25.32H15.96V28.04ZM8.6 35.24H15.96V37.64C13.44 37.96 10.92 38.24 8.6 38.52V35.24ZM15.96 33.04H8.6V30.28H15.96V33.04ZM37.44 25.32V22.84H2.48V25.32H5.92V38.76C4.56 38.88 3.24 39 2.12 39.12L2.4 41.8C6.16 41.32 11.04 40.76 15.96 40.12V44.08H18.76V25.32H37.44ZM32.72 30.2C31.72 32.4 30.28 34.36 28.52 36C26.84 34.32 25.44 32.4 24.48 30.2H32.72ZM34.52 27.72L34 27.8H20.28V30.2H22.56L21.88 30.4C23 33.16 24.6 35.6 26.56 37.68C24.2 39.4 21.52 40.76 18.84 41.52C19.4 42.08 20.12 43.12 20.44 43.84C23.28 42.88 26.08 41.44 28.56 39.52C30.84 41.36 33.56 42.84 36.6 43.72C37 42.96 37.8 41.92 38.36 41.36C35.44 40.64 32.8 39.4 30.6 37.76C33.12 35.28 35.16 32.24 36.36 28.48L34.52 27.72ZM54.08 16.6H46.68V11.56H54.08V16.6ZM54.08 24.04H46.68V18.96H54.08V24.04ZM54.08 31.6H46.68V26.4H54.08V31.6ZM56.92 9.08H43.96V34H56.92V9.08ZM46.4 34.88C45.52 37.72 43.8 40.48 41.88 42.36C42.56 42.76 43.72 43.6 44.24 44.08C46.2 41.96 48.08 38.76 49.24 35.56L46.4 34.88ZM51.8 35.88C53.32 37.88 54.92 40.6 55.6 42.36L58.12 41.08C57.4 39.36 55.72 36.76 54.16 34.8L51.8 35.88ZM73.88 39.48H62.4V29.28H73.88V39.48ZM78.68 18.96V16.24H69.04V7.56H66.12V26.64H59.6V44.04H62.4V42.16H73.88V43.88H76.76V26.64H69.04V18.96H78.68ZM108.4 22.04V38.6H111.4V22.04H118.56V19.28H100.56V18.44V12.28C106.48 11.88 113.04 11.12 117.44 9.76L115 7.56C111.08 8.8 103.72 9.56 97.6 9.92V18.44C97.6 23.48 97.2 30.36 93.68 35.28C94.4 35.6 95.64 36.56 96.16 37.08C99.2 32.88 100.16 27.04 100.48 22.04H108.4ZM90.2 14.44C89.68 12.8 88.76 10.16 88.04 8.16L85.36 8.92C86 10.96 86.92 13.64 87.36 15.32L90.2 14.44ZM92.04 25.96L91.56 26.08H88.2C89.32 23.36 90.64 20.04 91.64 17.2H82.68V19.88H87.96C86.84 22.96 85.52 26.32 84.44 28.68H90C89.24 31.48 88.12 34.52 86.84 36.76C85.44 37.36 83.84 39.2 82.2 41.52L84.24 44.24C85.4 41.68 86.8 39.2 87.68 39.2C88.6 39.2 90.04 40.56 91.64 41.52C94.6 43.28 98.04 43.72 103.24 43.72C107.92 43.72 115.4 43.48 118.36 43.28C118.4 42.4 118.92 41 119.24 40.2C114.84 40.68 108.4 41.04 103.32 41.04C98.6 41.04 95.04 40.76 92.28 39.04C91 38.28 90.16 37.64 89.44 37.16C91.04 34.2 92.44 30.24 93.4 26.56L92.04 25.96ZM131.88 7.68C129.6 13.76 125.92 19.72 122 23.56C122.56 24.24 123.36 25.76 123.68 26.48C125.04 25 126.44 23.36 127.72 21.52V43.96H130.56V17.08C132.12 14.36 133.52 11.48 134.68 8.52L131.88 7.68ZM139.16 24.56C138.08 29.28 136.2 34.04 133.68 37.08C134.4 37.48 135.68 38.24 136.24 38.72C138.68 35.4 140.8 30.36 142.08 25.12L139.16 24.56ZM156.08 17.96C155.76 20 155.4 22.12 155.16 23.56L157.64 24.04C158.16 21.92 158.88 18.48 159.4 15.56L157.36 15.08L156.88 15.2H140.68C141.48 13 142.2 10.68 142.8 8.36L139.88 7.72C138.56 13.56 136.24 19.28 133.32 22.96C133.96 23.4 135.2 24.4 135.68 24.84C137.12 22.96 138.44 20.6 139.56 17.96H145.64V40.44C145.64 40.96 145.48 41.12 144.96 41.12C144.44 41.12 142.72 41.16 140.84 41.08C141.24 41.92 141.72 43.24 141.88 44.08C144.4 44.08 146.08 44 147.16 43.48C148.2 43 148.56 42.12 148.56 40.44V17.96H156.08ZM151.48 25.12C153.6 29.32 155.6 34.92 156.24 38.56L159.08 37.6C158.4 33.96 156.36 28.48 154.08 24.24L151.48 25.12ZM176.32 24.96H167.92V16.6H176.32V24.96ZM167.92 37.2V27.6H176.32V37.2H167.92ZM171.28 7.44C171 9.32 170.28 12 169.68 13.92H165.2V43.04H167.92V39.88H179.04V13.92H172.4C173.08 12.2 173.8 10 174.48 8.04L171.28 7.44ZM198.6 13.8H186.64C187.32 11.92 187.88 10 188.36 8.04L185.52 7.36C184.24 12.84 182.08 18.36 179.4 21.88C180.04 22.28 181.32 23.08 181.84 23.56C183.24 21.68 184.48 19.24 185.6 16.56H195.76C195.24 32.48 194.64 38.56 193.32 39.96C192.92 40.48 192.48 40.56 191.68 40.56C190.76 40.56 188.36 40.56 185.76 40.32C186.32 41.16 186.68 42.36 186.76 43.24C189 43.36 191.28 43.44 192.68 43.28C194.04 43.16 194.96 42.8 195.84 41.68C197.44 39.72 197.96 33.56 198.6 15.32V13.8ZM192.28 31.8C191 29.44 188.24 25.6 186 22.76L183.68 24.12C185.88 27 188.56 30.96 189.76 33.36L192.28 31.8ZM30.68 63.32C29.76 62.4 27.92 61.32 26.36 60.6L24.96 62.08C26.52 62.76 28.36 64 29.24 64.88L30.68 63.32ZM20 79.48C15.52 80.28 11.08 81.08 8.04 81.56L8.44 83.8C11.72 83.2 15.96 82.36 20.12 81.56L20 79.48ZM16.52 75.96H11.92V71.96H16.52V75.96ZM9.84 70.08V77.84H18.68V70.08H9.84ZM27.6 69.4C26.92 72.12 25.92 74.6 24.64 76.76C23.96 74.2 23.48 71 23.16 67.56H31.68V65.32H22.96C22.88 63.92 22.8 62.52 22.72 61.08H20.16C20.24 62.52 20.36 63.92 20.48 65.32H8.44V67.56H20.68C21.16 72.08 21.8 76.2 22.88 79.36C21.2 81.48 19.2 83.24 16.84 84.6C17.36 85.04 18.24 86 18.6 86.48C20.56 85.2 22.32 83.68 23.88 81.88C24.96 84 26.28 85.4 28.04 85.76C30.12 86.56 31.48 84.96 32 80.6C31.44 80.36 30.56 79.76 30.08 79.28C29.8 81.84 29.4 83.56 28.84 83.4C27.52 83.2 26.44 81.84 25.6 79.72C27.52 76.96 29.04 73.68 30.04 69.92L27.6 69.4ZM6.24 87.64V60.08H33.68V87.64H6.24ZM3.4 57.36V92.16H6.24V90.32H33.68V92.16H36.6V57.36H3.4ZM63.92 60.72C63.48 62.12 62.96 63.48 62.36 64.72C61.36 63.76 60.04 62.68 58.84 61.76C59.04 61.44 59.28 61.08 59.48 60.72H63.92ZM74.84 59.84C74.04 61.76 72.84 63.88 71.6 65.52C70.64 63.72 69.84 61.8 69.24 59.84H74.84ZM59.76 67.24C57.36 67.52 55.4 67.76 53.64 67.92L54 70C55.84 69.68 57.68 69.4 59.72 69.04C58.12 71.12 56.28 72.8 54.4 73.96C54.96 74.4 55.64 75.24 56 75.8C57.48 74.88 58.92 73.64 60.24 72.2V73.92H72.6V71.64C74 73.36 75.48 74.84 77.12 75.92C77.52 75.24 78.28 74.32 78.88 73.84C76.6 72.52 74.56 70.32 72.84 67.68C74.92 65.32 76.96 61.84 78.16 58.56L76.48 57.56L76 57.68H68.48V59.48L66.8 59.92C68.04 64.2 70.04 68.28 72.44 71.44H60.88C63.52 68.32 65.64 64.12 66.76 59.08L65.2 58.52L64.76 58.6H60.56C60.92 57.76 61.24 56.96 61.52 56.08L59.2 55.56C57.92 59.4 55.68 62.96 52.96 65.32C53.52 65.68 54.52 66.44 54.92 66.84C55.92 65.88 56.88 64.72 57.76 63.48C59.08 64.48 60.44 65.68 61.32 66.68C60.88 67.48 60.36 68.24 59.8 68.96L59.76 67.24ZM52.88 57L52.44 57.16H43.64V91.96H46.24V59.84H51.36C50.56 62.52 49.44 65.96 48.32 68.84C51.08 72.04 51.76 74.76 51.76 76.96C51.76 78.16 51.56 79.28 50.92 79.72C50.64 79.96 50.24 80.08 49.76 80.12C49.12 80.16 48.36 80.12 47.48 80.08C47.92 80.8 48.16 81.88 48.2 82.6C49.04 82.68 50.04 82.64 50.84 82.56C51.56 82.44 52.28 82.24 52.84 81.8C53.88 81.04 54.36 79.32 54.36 77.16C54.36 74.72 53.68 71.84 50.88 68.52C52.16 65.32 53.6 61.36 54.72 58.12L52.88 57ZM59.24 82.12C57.84 84.4 55.8 87 53.92 88.8C54.64 89.16 55.76 89.92 56.32 90.36C58.08 88.48 60.36 85.52 61.88 83L59.24 82.12ZM76.64 80.12V77.64H56.32V80.12H65.08V92.04H67.88V80.12H76.64ZM70.88 83.12C72.84 85.32 75.36 88.36 76.64 90.12L78.88 88.6C77.6 86.88 75.04 83.96 73.04 81.84L70.88 83.12ZM100.92 59.72H94.6C94.08 58.4 93.2 56.68 92.36 55.32L89.48 56.08C90.04 57.16 90.72 58.52 91.24 59.72H83.4V62.2H100.92V59.72ZM90 67.92C89.84 66.44 89.16 64.2 88.36 62.48L86 63.04C86.68 64.8 87.32 67.12 87.52 68.6L90 67.92ZM86.48 80.16C85.68 82.76 84.28 85.48 82.72 87.36C83.32 87.68 84.32 88.44 84.8 88.8C86.28 86.8 87.96 83.68 88.92 80.84L86.48 80.16ZM101.08 78.04V75.48H93.84V71.28H101.52V68.76H96.44C97.2 67.08 97.96 64.92 98.68 63L95.96 62.44C95.48 64.28 94.56 66.92 93.8 68.76H82.76V71.28H90.92V75.48H82.96V78.04H90.92V91.92H93.84V78.04H101.08ZM95.64 81C96.84 82.92 98.28 85.68 98.92 87.4L101.04 86.2C100.36 84.48 98.96 81.88 97.68 79.92L95.64 81ZM119 68.92H106.24V61.32C110.44 60.68 115.04 59.68 118.32 58.44L115.92 56.24C113.08 57.44 107.96 58.64 103.48 59.36V73.12C103.48 78.44 103.16 85.28 99.8 90.08C100.44 90.4 101.6 91.32 102.08 91.88C105.72 86.68 106.24 78.84 106.24 73.12V71.72H111.72V91.88H114.6V71.72H119V68.92ZM133.68 60.68C133 59.24 131.4 57.16 129.92 55.68L127.72 57.08C129.12 58.6 130.68 60.8 131.36 62.28L133.68 60.68ZM138.2 77.48C137.36 76.6 134.28 73.4 132.72 71.92C134.72 69.28 136.48 66.4 137.68 63.44L136.12 62.28L135.56 62.4H123.48V65.12H134C131.44 70.08 126.8 74.88 122.4 77.52C122.84 78.04 123.52 79.56 123.76 80.36C125.6 79.16 127.48 77.6 129.28 75.76V92.04H132.2V74.92C133.72 76.6 135.52 78.72 136.32 79.88L138.2 77.48ZM142.8 72.36H154.48V76.4H142.8V72.36ZM142.8 66.04H154.48V70.04H142.8V66.04ZM142.8 59.76H154.48V63.68H142.8V59.76ZM153.56 89.24C152.72 89.24 152.6 89.12 152.6 88.2V78.84H157.32V57.28H140.04V78.84H143.68C143.16 84.36 141.68 88.04 135.32 90C135.88 90.52 136.68 91.52 136.96 92.2C143.92 89.76 145.72 85.4 146.4 78.84H149.8V88.24C149.8 91.08 150.44 91.88 153.16 91.88H156.48C158.8 91.88 159.56 90.6 159.8 85.44C159 85.24 157.88 84.76 157.28 84.32C157.16 88.72 157.04 89.24 156.2 89.24H153.56ZM167.16 66.68H171.92V71.04H167.16V66.68ZM167.16 60H171.92V64.36H167.16V60ZM179.2 64.36H174.48V60H179.2V64.36ZM179.2 71.04H174.48V66.68H179.2V71.04ZM174.64 80.76H181.8V78.04H174.64V73.52H181.8V57.52H164.64V73.52H171.76V78.04H164.56V80.76H171.76V86.56C168.56 87 165.64 87.4 163.32 87.64L163.68 90.56C168.68 89.8 175.96 88.76 182.84 87.72L182.76 85.08C180.04 85.48 177.28 85.84 174.64 86.2V80.76ZM198.2 70.28L197.72 70.4H195.28L196.12 69.52C195.24 68.64 194 67.56 192.6 66.56C195.16 64.4 197.8 61.48 199.56 58.8L197.64 57.44L197 57.6H183.12V60.28H194.92C193.68 61.96 192.08 63.72 190.52 65.12C189.2 64.2 187.84 63.4 186.52 62.76L184.64 64.56C187.6 66.08 190.84 68.4 193 70.4H182.6V73.2H189.04V88.36C189.04 88.92 188.88 89.12 188.24 89.12C187.6 89.16 185.52 89.16 183.16 89.08C183.6 89.96 184.04 91.16 184.16 92.04C187.12 92.04 189.16 92 190.36 91.52C191.6 91 191.96 90.12 191.96 88.44V73.2H196.68C196 75.56 195.12 77.96 194.4 79.56L196.84 80.24C198 77.88 199.2 74.12 200.2 70.8L198.2 70.28Z" fill="black"/>
</svg>
