<svg width="270" height="89" viewBox="0 0 270 89" fill="none" xmlns="http://www.w3.org/2000/svg">
<path fill-rule="evenodd" clip-rule="evenodd" d="M135 41.3242C197.437 41.3242 250.522 61.244 270 89C248.985 63.086 196.469 44.7223 135 44.7223C73.5306 44.7223 21.0154 63.0939 0 89C19.4775 61.2361 72.5626 41.3242 135 41.3242" fill="white"/>
<path fill-rule="evenodd" clip-rule="evenodd" d="M168.006 4.74764H160.482L162.323 0.436665L161.34 0L159.304 4.74764H159.083V4.77157H158.943V15.323H160.02V15.2753H162.573V17.8173L162.112 17.6298L162.089 17.688L159.071 16.43L158.663 17.4438L161.689 18.7055L157.045 30.5244L158.046 30.931L162.573 19.4082V31.9558H163.65V19.3941L168.18 30.9224L169.18 30.5158L164.533 18.6886L167.569 17.4244L167.16 16.4105L164.134 17.6711L164.114 17.6211L163.65 17.8095V15.2753H165.649V15.323H166.726V5.84327H168.006V4.74764ZM107.868 6.97073L110.667 0.436284L111.655 0.873866L110.356 3.90617H114.132L114.404 3.22748L115.402 3.64145L113.034 9.54313H116.233V8.91584H117.31V22.9447H118.887V24.0404H113.469L118.622 32.0193L117.724 32.6227L112.415 24.4023L107.099 32.6227L106.201 32.0193L111.361 24.0404H106.022V22.9447H107.849V8.91584H108.926V9.54313H111.87L113.692 5.0018H109.925V4.91164L108.397 8.48005L107.463 8.06635H104.554V17.0063L105.787 15.5949L106.593 16.3226L104.554 18.6558V32.3846H103.477V32.2767L100.826 31.0729L101.265 30.0724L103.477 31.0768V19.889L101.755 21.8601L100.95 21.1324L103.477 18.2394V8.06635H101.408V6.97073H103.477V0.770127H104.554V6.97073H107.868ZM116.233 10.6388V22.9447H112.876V10.6388H116.233ZM111.799 10.6388V22.9447H108.926V10.6388H111.799ZM114.765 16.5693C114.765 16.1406 114.422 15.7913 114 15.7913C113.579 15.7913 113.235 16.1406 113.235 16.5693C113.235 16.9981 113.579 17.3474 114 17.3474C114.422 17.3474 114.765 16.9981 114.765 16.5693ZM152.573 18.2446H150.093L150.014 18.3741L149.81 18.2446H149.801V18.2393L149.1 17.794L154.612 8.8127H146.117V7.71707H151.12L154.109 0.750842L155.097 1.18913L152.295 7.71707H155.781V8.8127H155.769L155.85 8.86408L150.766 17.149H155.636L153.905 14.2546L154.825 13.6852L159.065 20.7736L158.144 21.343L156.291 18.2446H153.65V31.9558H152.573V21.4175L148.636 25.9267L147.831 25.1993L152.573 19.7673V18.2446ZM160.02 14.1797H165.649V10.5038H160.02V14.1797ZM165.649 5.84327H160.02V9.40813H165.649V5.84327ZM156.039 22.8177C156.039 22.3889 155.695 22.0396 155.274 22.0396C154.852 22.0396 154.509 22.3889 154.509 22.8177C154.509 23.2464 154.852 23.5957 155.274 23.5957C155.695 23.5957 156.039 23.2464 156.039 22.8177ZM125.976 1.95309H127.053V3.53292H139.45V1.95309H140.527V31.2016H139.45V27.2082H127.053V31.2016H125.976V1.95309ZM127.053 26.1125V15.2118H139.45V26.1125H127.053ZM139.45 4.62855V14.1162H127.053V4.62855H139.45Z" fill="white"/>
<path d="M185.579 74.2331C185.579 70.7794 186.727 67.8816 189.03 65.5395C191.333 63.1974 194.166 62.0303 197.547 62.0303V63.7928C194.682 63.7928 192.262 64.7773 190.294 66.7542C188.327 68.7311 187.351 71.224 187.351 74.241C187.351 76.8133 188.132 79.0284 189.685 80.8783C191.239 82.7282 193.269 83.9349 195.775 84.4986V68.1753H197.547V86.5629C194.073 86.1977 191.255 84.9671 189.084 82.8869C186.75 80.6322 185.579 77.7502 185.579 74.2489V74.2331ZM177.359 86.5708V67.8578L172.261 64.7694V86.5708H170.489V61.6016L177.359 65.8332V62.0462H179.131V86.5708H177.359ZM161.183 86.5708V62.0462H162.956V86.5708H161.183ZM147.108 84.7686C149.185 84.7686 150.566 84.6495 151.269 84.4034C152.69 83.9111 153.4 82.8076 153.4 81.0927C153.4 79.87 152.94 78.3695 152.011 76.6069C151.082 74.8444 150.176 73.1374 149.278 71.494C148.287 69.533 147.795 67.9292 147.795 66.6748C147.795 65.1266 148.271 63.9675 149.224 63.1974C150.176 62.4273 151.433 62.0382 153.002 62.0382H154.306V63.8008C152.784 63.8008 151.753 63.896 151.199 64.0945C150.114 64.4835 149.575 65.3092 149.575 66.5557C149.575 67.8022 150.059 69.398 151.019 71.2637C151.909 72.8834 152.799 74.503 153.697 76.1147C154.688 78.0757 155.18 79.7271 155.18 81.0768C155.18 82.8393 154.579 84.2128 153.369 85.1973C152.26 86.1024 150.816 86.5549 149.029 86.5549H147.116V84.7527L147.108 84.7686ZM134.477 84.7686C136.554 84.7686 137.935 84.6495 138.638 84.4034C140.059 83.9111 140.769 82.8076 140.769 81.0927C140.769 79.87 140.309 78.3695 139.38 76.6069C138.451 74.8444 137.545 73.1374 136.647 71.494C135.656 69.533 135.164 67.9292 135.164 66.6748C135.164 65.1266 135.64 63.9675 136.593 63.1974C137.545 62.4273 138.802 62.0382 140.371 62.0382H141.675V63.8008C140.152 63.8008 139.122 63.896 138.568 64.0945C137.483 64.4835 136.944 65.3092 136.944 66.5557C136.944 67.8022 137.428 69.398 138.388 71.2637C139.278 72.8834 140.168 74.503 141.066 76.1147C142.057 78.0757 142.549 79.7271 142.549 81.0768C142.549 82.8393 141.948 84.2128 140.738 85.1973C139.629 86.1024 138.185 86.5549 136.397 86.5549H134.485V84.7527L134.477 84.7686ZM106.443 74.3283C106.443 77.2976 107.482 79.8303 109.55 81.9422C111.627 84.054 114.133 85.102 117.068 85.102C120.003 85.102 122.486 84.0699 124.57 81.9977C126.655 79.9256 127.701 77.4167 127.701 74.4792C127.701 71.3431 126.655 68.7311 124.555 66.643C122.455 64.5629 119.879 63.5149 116.818 63.5149C113.977 63.5149 111.533 64.5868 109.496 66.7304C107.458 68.874 106.443 71.4067 106.443 74.3204V74.3283ZM129.442 74.368C129.442 77.8216 128.239 80.7751 125.827 83.2283C123.415 85.6816 120.511 86.9043 117.115 86.9043C113.719 86.9043 110.799 85.7054 108.364 83.2998C105.928 80.8942 104.71 77.9566 104.71 74.4792C104.71 71.0017 105.928 67.8498 108.364 65.3966C110.799 62.9433 113.789 61.7206 117.334 61.7206C120.878 61.7206 123.571 62.9671 125.921 65.4521C128.271 67.9372 129.45 70.9144 129.45 74.368H129.442ZM97.255 71.9068C97.255 69.6759 96.5524 67.8181 95.1394 66.3334C93.7264 64.8488 91.9308 63.9992 89.7372 63.7769V79.8462C91.9074 79.6001 93.6795 78.7823 95.0535 77.385C96.5211 75.9162 97.2628 74.0901 97.2628 71.9068H97.255ZM95.9513 86.5787L89.7294 81.2832V86.5787H87.9573V62.0541H89.2922C91.9699 62.0541 94.2572 62.983 96.162 64.8488C98.0669 66.7145 99.0193 69.0169 99.0193 71.7639C99.0193 73.9711 98.426 75.8844 97.2472 77.5041C96.0684 79.1237 94.429 80.3384 92.329 81.1403L98.7617 86.5867H95.9435L95.9513 86.5787ZM69.9474 74.3363C69.9474 70.8271 71.095 67.9054 73.3979 65.5633C75.7009 63.2212 78.5503 62.0541 81.9462 62.0541V63.8166C79.1046 63.8166 76.6767 64.817 74.6782 66.8336C72.6797 68.8422 71.6805 71.3431 71.6805 74.3363C71.6805 77.3294 72.6719 79.7906 74.647 81.7993C76.6221 83.8079 79.0577 84.8162 81.954 84.8162V86.5787C78.6283 86.5787 75.7946 85.4037 73.4604 83.0457C71.1184 80.6957 69.9552 77.7899 69.9552 74.3283L69.9474 74.3363Z" fill="white"/>
</svg>
