<svg width="270" height="99" viewBox="0 0 270 99" fill="none" xmlns="http://www.w3.org/2000/svg">
<g clip-path="url(#clip0_726_99210)">
<rect width="270" height="99" transform="translate(0.191406)" fill="black"/>
<path fill-rule="evenodd" clip-rule="evenodd" d="M135.191 46.8237C187.916 46.8237 232.744 63.6101 249.191 86.9999C231.445 65.1623 187.099 49.6872 135.191 49.6872C83.2839 49.6872 38.9378 65.169 21.1914 86.9999C37.6391 63.6034 82.4665 46.8237 135.191 46.8237" fill="white"/>
<path fill-rule="evenodd" clip-rule="evenodd" d="M163.063 16.0008H156.709L158.264 12.368L157.434 12L155.715 16.0008H155.529V16.021H155.41V24.9126H156.32V24.8725H158.475V27.0146L158.086 26.8565L158.066 26.9056L155.518 25.8455L155.173 26.6998L157.729 27.763L153.808 37.7228L154.652 38.0654L158.475 28.3552V38.929H159.385V28.3433L163.21 38.0582L164.055 37.7156L160.131 27.7488L162.694 26.6835L162.349 25.8291L159.793 26.8914L159.776 26.8493L159.385 27.008V24.8725H161.073V24.9126H161.982V16.9241H163.063V16.0008ZM112.28 17.8742L114.644 12.3677L115.478 12.7364L114.381 15.2917H117.57L117.8 14.7198L118.642 15.0686L116.642 20.042H119.344V19.5133H120.253V31.3354H121.585V32.2587H117.01L121.361 38.9826L120.603 39.4911L116.12 32.5637L111.631 39.4911L110.873 38.9826L115.23 32.2587H110.721V31.3354H112.263V19.5133H113.173V20.042H115.659L117.198 16.215H114.017V16.139L112.726 19.1461L111.938 18.7975H109.482V26.3311L110.523 25.1418L111.203 25.755L109.482 27.7212V39.2904H108.572V39.1994L106.333 38.185L106.704 37.3419L108.572 38.1883V28.7604L107.118 30.4214L106.438 29.8082L108.572 27.3703V18.7975H106.825V17.8742H108.572V12.649H109.482V17.8742H112.28ZM119.344 20.9653V31.3354H116.509V20.9653H119.344ZM115.599 20.9653V31.3354H113.173V20.9653H115.599ZM118.104 25.9629C118.104 25.6016 117.814 25.3073 117.458 25.3073C117.102 25.3073 116.812 25.6016 116.812 25.9629C116.812 26.3242 117.102 26.6186 117.458 26.6186C117.814 26.6186 118.104 26.3242 118.104 25.9629ZM150.031 27.3747H147.937L147.87 27.4838L147.697 27.3747H147.69V27.3702L147.098 26.9949L151.752 19.4264H144.579V18.5032H148.804L151.328 12.6327L152.162 13.0021L149.796 18.5032H152.74V19.4264H152.73L152.798 19.4697L148.505 26.4514H152.617L151.155 24.0123L151.933 23.5325L155.513 29.5058L154.735 29.9856L153.171 27.3747H150.94V38.9291H150.031V30.0484L146.706 33.8483L146.026 33.2353L150.031 28.6578V27.3747ZM156.32 23.9492H161.073V20.8515H156.32V23.9492ZM161.073 16.9241H156.32V19.9282H161.073V16.9241ZM152.958 31.2284C152.958 30.8671 152.667 30.5727 152.312 30.5727C151.956 30.5727 151.665 30.8671 151.665 31.2284C151.665 31.5896 151.956 31.884 152.312 31.884C152.667 31.884 152.958 31.5896 152.958 31.2284ZM127.571 13.6459H128.48V14.9772H138.949V13.6459H139.859V38.2935H138.949V34.9282H128.48V38.2935H127.571V13.6459ZM128.48 34.0049V24.8189H138.949V34.0049H128.48ZM138.949 15.9005V23.8957H128.48V15.9005H138.949Z" fill="white"/>
<path d="M177.903 74.5557C177.903 71.6453 178.872 69.2033 180.817 67.2296C182.761 65.2559 185.154 64.2724 188.009 64.2724V65.7577C185.589 65.7577 183.546 66.5873 181.884 68.2532C180.223 69.9192 179.399 72.02 179.399 74.5623C179.399 76.7301 180.058 78.5967 181.37 80.1556C182.682 81.7144 184.396 82.7314 186.512 83.2064V69.4508H188.009V84.9459C185.075 84.6382 182.695 83.6012 180.863 81.8483C178.892 79.9482 177.903 77.5195 177.903 74.569V74.5557ZM170.961 84.9526V69.1832L166.656 66.5806V84.9526H165.16V63.9111L170.961 67.4771V64.2858H172.458V84.9526H170.961ZM157.302 84.9526V64.2858H158.798V84.9526H157.302ZM145.416 83.4339C147.17 83.4339 148.336 83.3335 148.93 83.1261C150.13 82.7113 150.729 81.7813 150.729 80.3362C150.729 79.3059 150.34 78.0414 149.556 76.5561C148.772 75.0708 148.007 73.6324 147.249 72.2474C146.411 70.5949 145.996 69.2434 145.996 68.1863C145.996 66.8817 146.398 65.9049 147.203 65.2559C148.007 64.6069 149.068 64.2791 150.393 64.2791H151.494V65.7644C150.209 65.7644 149.338 65.8447 148.87 66.0119C147.954 66.3398 147.499 67.0356 147.499 68.086C147.499 69.1364 147.908 70.4812 148.719 72.0534C149.47 73.4183 150.222 74.7831 150.98 76.1413C151.817 77.7938 152.232 79.1855 152.232 80.3228C152.232 81.8081 151.725 82.9656 150.703 83.7952C149.767 84.5579 148.547 84.9392 147.038 84.9392H145.423V83.4205L145.416 83.4339ZM134.75 83.4339C136.503 83.4339 137.67 83.3335 138.263 83.1261C139.463 82.7113 140.063 81.7813 140.063 80.3362C140.063 79.3059 139.674 78.0414 138.89 76.5561C138.105 75.0708 137.341 73.6324 136.582 72.2474C135.745 70.5949 135.33 69.2434 135.33 68.1863C135.33 66.8817 135.732 65.9049 136.536 65.2559C137.341 64.6069 138.402 64.2791 139.727 64.2791H140.828V65.7644C139.542 65.7644 138.672 65.8447 138.204 66.0119C137.288 66.3398 136.833 67.0356 136.833 68.086C136.833 69.1364 137.242 70.4812 138.052 72.0534C138.804 73.4183 139.556 74.7831 140.314 76.1413C141.151 77.7938 141.566 79.1855 141.566 80.3228C141.566 81.8081 141.059 82.9656 140.037 83.7952C139.101 84.5579 137.881 84.9392 136.371 84.9392H134.756V83.4205L134.75 83.4339ZM111.077 74.6359C111.077 77.1382 111.954 79.2724 113.701 81.0521C115.454 82.8318 117.57 83.7149 120.049 83.7149C122.528 83.7149 124.624 82.8451 126.384 81.0989C128.144 79.3527 129.028 77.2385 129.028 74.7631C129.028 72.1203 128.144 69.9192 126.371 68.1596C124.598 66.4067 122.422 65.5235 119.838 65.5235C117.438 65.5235 115.375 66.4267 113.655 68.2332C111.934 70.0396 111.077 72.1738 111.077 74.6292V74.6359ZM130.498 74.6694C130.498 77.5797 129.483 80.0686 127.446 82.1359C125.409 84.2033 122.956 85.2336 120.089 85.2336C117.221 85.2336 114.755 84.2234 112.699 82.1962C110.642 80.1689 109.613 77.6935 109.613 74.7631C109.613 71.8326 110.642 69.1765 112.699 67.1092C114.755 65.0418 117.28 64.0115 120.273 64.0115C123.266 64.0115 125.54 65.0619 127.525 67.156C129.509 69.2501 130.504 71.759 130.504 74.6694H130.498ZM103.318 72.5953C103.318 70.7153 102.725 69.1498 101.531 67.8986C100.338 66.6475 98.8219 65.9317 96.9695 65.7443V79.2858C98.8021 79.0784 100.299 78.3893 101.459 77.2118C102.698 75.974 103.324 74.4352 103.324 72.5953H103.318ZM102.217 84.9593L96.9629 80.4968V84.9593H95.4665V64.2925H96.5937C98.8549 64.2925 100.786 65.0753 102.395 66.6475C104.003 68.2198 104.808 70.16 104.808 72.4749C104.808 74.3349 104.307 75.9473 103.311 77.3121C102.316 78.677 100.931 79.7006 99.1581 80.3764L104.59 84.966H102.21L102.217 84.9593ZM80.2581 74.6426C80.2581 71.6854 81.2272 69.2234 83.1719 67.2497C85.1166 65.276 87.5228 64.2925 90.3904 64.2925V65.7778C87.9908 65.7778 85.9406 66.6208 84.253 68.3201C82.5654 70.0128 81.7216 72.1203 81.7216 74.6426C81.7216 77.1649 82.5588 79.239 84.2267 80.9317C85.8945 82.6243 87.9513 83.474 90.397 83.474V84.9593C87.5887 84.9593 85.1957 83.9691 83.2246 81.9821C81.247 80.0017 80.2647 77.553 80.2647 74.6359L80.2581 74.6426Z" fill="white"/>
</g>
<defs>
<clipPath id="clip0_726_99210">
<rect width="270" height="99" fill="white"/>
</clipPath>
</defs>
</svg>
